<svg width="56" height="56" viewBox="0 0 56 56" fill="none" xmlns="http://www.w3.org/2000/svg">
<path d="M28 14.875C29.2114 14.875 30.3956 14.5158 31.4029 13.8428C32.4101 13.1697 33.1952 12.2131 33.6588 11.0939C34.1223 9.97474 34.2436 8.74321 34.0073 7.55507C33.771 6.36694 33.1876 5.27557 32.331 4.41897C31.4744 3.56238 30.3831 2.97903 29.1949 2.74269C28.0068 2.50636 26.7753 2.62765 25.6561 3.09124C24.5369 3.55483 23.5803 4.33988 22.9072 5.34713C22.2342 6.35439 21.875 7.53859 21.875 8.75C21.875 10.3745 22.5203 11.9324 23.669 13.081C24.8176 14.2297 26.3755 14.875 28 14.875ZM28 4.375C28.8653 4.375 29.7112 4.63159 30.4306 5.11232C31.1501 5.59305 31.7108 6.27634 32.042 7.07576C32.3731 7.87519 32.4597 8.75486 32.2909 9.60352C32.1221 10.4522 31.7054 11.2317 31.0936 11.8436C30.4817 12.4554 29.7022 12.8721 28.8535 13.0409C28.0049 13.2097 27.1252 13.1231 26.3258 12.792C25.5263 12.4608 24.8431 11.9001 24.3623 11.1806C23.8816 10.4612 23.625 9.6153 23.625 8.75C23.625 7.58968 24.0859 6.47688 24.9064 5.65641C25.7269 4.83594 26.8397 4.375 28 4.375ZM47.1231 29.9206L37.2247 18.6988C36.6499 18.047 35.943 17.525 35.151 17.1675C34.359 16.8099 33.4999 16.625 32.6309 16.625H23.3691C22.5001 16.625 21.641 16.8099 20.849 17.1675C20.057 17.525 19.3501 18.047 18.7753 18.6988L8.87688 29.9206C8.23413 30.5783 7.87603 31.4624 7.87998 32.382C7.88392 33.3016 8.24961 34.1826 8.89797 34.8347C9.54633 35.4868 10.4253 35.8576 11.3448 35.8668C12.2643 35.876 13.1506 35.523 13.8119 34.8841L19.4688 30.3406L15.1594 46.7206C14.7845 47.5623 14.7566 48.5179 15.0817 49.38C15.4069 50.2421 16.0589 50.9412 16.8963 51.3256C17.7336 51.71 18.6888 51.7488 19.5546 51.4334C20.4203 51.118 21.1268 50.4739 21.5206 49.6409L28 38.5L34.4706 49.6563C34.8645 50.4892 35.5709 51.1333 36.4367 51.4487C37.3024 51.7641 38.2576 51.7254 39.095 51.3409C39.9324 50.9565 40.5844 50.2574 40.9095 49.3953C41.2347 48.5332 41.2068 47.5776 40.8319 46.7359L36.5312 30.3406L42.1969 34.8841C42.8582 35.523 43.7444 35.876 44.6639 35.8668C45.5835 35.8576 46.4624 35.4868 47.1108 34.8347C47.7591 34.1826 48.1248 33.3016 48.1288 32.382C48.1327 31.4624 47.7746 30.5783 47.1319 29.9206H47.1231ZM45.8631 33.6109C45.535 33.9389 45.09 34.1231 44.6261 34.1231C44.1622 34.1231 43.7172 33.9389 43.3891 33.6109C43.3665 33.5881 43.3424 33.5669 43.3169 33.5475L35.5491 27.3175C35.4056 27.2018 35.2293 27.1343 35.0453 27.1247C34.8613 27.1151 34.6789 27.1639 34.5242 27.264C34.3695 27.3642 34.2504 27.5106 34.1838 27.6824C34.1172 27.8542 34.1066 28.0427 34.1534 28.2209L39.1562 47.2369C39.1695 47.2872 39.1871 47.3362 39.2087 47.3834C39.3097 47.5922 39.3682 47.819 39.3808 48.0506C39.3934 48.2821 39.3598 48.5139 39.282 48.7324C39.2043 48.9509 39.0838 49.1517 38.9277 49.3233C38.7717 49.4948 38.583 49.6336 38.3728 49.7316C38.1626 49.8296 37.9351 49.8848 37.7033 49.8941C37.4716 49.9034 37.2403 49.8665 37.023 49.7856C36.8056 49.7047 36.6065 49.5814 36.4372 49.4229C36.2679 49.2644 36.1319 49.0738 36.0369 48.8622C36.0259 48.8381 36.0128 48.8163 35.9997 48.7922L28.7569 36.3125C28.68 36.1799 28.5696 36.0698 28.4367 35.9933C28.3039 35.9168 28.1533 35.8766 28 35.8766C27.8467 35.8766 27.6961 35.9168 27.5633 35.9933C27.4304 36.0698 27.32 36.1799 27.2431 36.3125L19.9981 48.7922C19.985 48.8163 19.9719 48.8381 19.9609 48.8622C19.866 49.0738 19.7299 49.2644 19.5606 49.4229C19.3913 49.5814 19.1922 49.7047 18.9748 49.7856C18.7575 49.8665 18.5262 49.9034 18.2945 49.8941C18.0628 49.8848 17.8352 49.8296 17.625 49.7316C17.4148 49.6336 17.2261 49.4948 17.0701 49.3233C16.914 49.1517 16.7935 48.9509 16.7158 48.7324C16.638 48.5139 16.6044 48.2821 16.617 48.0506C16.6296 47.819 16.6881 47.5922 16.7891 47.3834C16.8108 47.3362 16.8283 47.2872 16.8416 47.2369L21.8466 28.2188C21.8934 28.0405 21.8828 27.8521 21.8162 27.6802C21.7496 27.5084 21.6305 27.362 21.4758 27.2618C21.3211 27.1617 21.1387 27.113 20.9547 27.1226C20.7707 27.1322 20.5944 27.1996 20.4509 27.3153L12.6875 33.5475C12.662 33.5669 12.6378 33.5881 12.6153 33.6109C12.2845 33.9253 11.8439 34.0979 11.3876 34.0921C10.9312 34.0862 10.4952 33.9024 10.1725 33.5797C9.84982 33.257 9.66595 32.821 9.66011 32.3646C9.65426 31.9083 9.82692 31.4677 10.1413 31.1369L10.1784 31.0975L20.0878 19.8559C20.4984 19.3905 21.0033 19.0177 21.5691 18.7623C22.1348 18.507 22.7484 18.375 23.3691 18.375H32.6309C33.2516 18.375 33.8652 18.507 34.4309 18.7623C34.9967 19.0177 35.5016 19.3905 35.9122 19.8559L45.8259 31.0975L45.8631 31.1369C46.1911 31.465 46.3753 31.91 46.3753 32.3739C46.3753 32.8378 46.1911 33.2828 45.8631 33.6109Z" fill="#003DA6"/>
</svg>
