<svg width="56" height="56" viewBox="0 0 56 56" fill="none" xmlns="http://www.w3.org/2000/svg">
<mask id="path-1-inside-1_2_7743" fill="white">
<rect x="14" y="10.5742" width="21.9574" height="38.4255" rx="1"/>
</mask>
<rect x="14" y="10.5742" width="21.9574" height="38.4255" rx="1" stroke="#003DA6" stroke-width="3.32" mask="url(#path-1-inside-1_2_7743)"/>
<path d="M19.1921 6.32428L19.8039 6.88513L19.8039 6.88513L19.1921 6.32428ZM40.493 7.85152L40.0578 7.14476L40.0578 7.14476L40.493 7.85152ZM41.028 43.8098L40.5456 43.1344H40.5456L41.028 43.8098ZM42.2768 20C42.2768 19.5416 41.9052 19.17 41.4468 19.17C40.9884 19.17 40.6168 19.5416 40.6168 20H42.2768ZM19.9292 6.83H39.9687V5.17H19.9292V6.83ZM15.0692 12.0502L19.8039 6.88513L18.5802 5.76342L13.8456 10.9285L15.0692 12.0502ZM40.0578 7.14476L34.1499 10.7826L35.0202 12.1961L40.9282 8.55828L40.0578 7.14476ZM40.5456 43.1344L34.5601 47.4097L35.5249 48.7605L41.5104 44.4852L40.5456 43.1344ZM40.6168 20V42.996H42.2768V20H40.6168ZM41.5104 44.4852C41.9913 44.1416 42.2768 43.587 42.2768 42.996H40.6168C40.6168 43.0509 40.5902 43.1024 40.5456 43.1344L41.5104 44.4852ZM39.9687 6.83C40.0304 6.83 40.0586 6.84729 40.0746 6.8602C40.0963 6.87779 40.1197 6.9093 40.1323 6.95368C40.1448 6.99806 40.1415 7.03715 40.1322 7.06352C40.1254 7.08288 40.1104 7.11239 40.0578 7.14476L40.9282 8.55828C42.4992 7.59091 41.8137 5.17 39.9687 5.17V6.83ZM19.9292 5.17C19.4163 5.17 18.9268 5.38529 18.5802 5.76342L19.8039 6.88513C19.8361 6.85 19.8816 6.83 19.9292 6.83V5.17Z" fill="#003DA6"/>
<path d="M35.0426 11.4894L37.3843 16.4656C37.7975 17.3437 39.0934 17.1778 39.2721 16.224L41.0001 7" stroke="#003DA6" stroke-width="1.66" stroke-linecap="round"/>
</svg>
