<svg width="48" height="48" viewBox="0 0 48 48" fill="none" xmlns="http://www.w3.org/2000/svg">
<path d="M41.1394 16.9687L8.13937 6.84373C7.80376 6.74426 7.44957 6.72447 7.10496 6.78593C6.76036 6.84738 6.43485 6.9884 6.15431 7.19775C5.87377 7.40711 5.64595 7.67903 5.48897 7.9919C5.33198 8.30476 5.25015 8.64994 5.25 8.99998V36C5.25 36.5967 5.48705 37.169 5.90901 37.591C6.33097 38.0129 6.90326 38.25 7.5 38.25C7.71896 38.2493 7.93674 38.2178 8.14688 38.1562L24.75 33.06V36C24.75 36.5967 24.9871 37.169 25.409 37.591C25.831 38.0129 26.4033 38.25 27 38.25H33C33.5967 38.25 34.169 38.0129 34.591 37.591C35.0129 37.169 35.25 36.5967 35.25 36V29.8387L41.1356 28.0331C41.6007 27.8943 42.0087 27.6095 42.2995 27.2208C42.5902 26.8322 42.7481 26.3603 42.75 25.875V19.125C42.7498 18.64 42.5929 18.168 42.3026 17.7795C42.0124 17.3909 41.6044 17.1066 41.1394 16.9687ZM7.71 36.72C7.59822 36.7526 7.48039 36.7587 7.36584 36.7379C7.25128 36.7171 7.14315 36.6698 7.05 36.6C6.95685 36.5301 6.88125 36.4395 6.82918 36.3354C6.77711 36.2313 6.75 36.1164 6.75 36V8.99998C6.75 8.88355 6.77711 8.76872 6.82918 8.66457C6.88125 8.56043 6.95685 8.46984 7.05 8.39998C7.17982 8.30262 7.33772 8.24998 7.5 8.24998C7.56786 8.24998 7.63538 8.25945 7.70062 8.27811L24.75 13.5094V31.5L7.71 36.72ZM33.75 36C33.75 36.1989 33.671 36.3897 33.5303 36.5303C33.3897 36.671 33.1989 36.75 33 36.75H27C26.8011 36.75 26.6103 36.671 26.4697 36.5303C26.329 36.3897 26.25 36.1989 26.25 36V32.6006L33.75 30.3V36ZM41.25 25.875C41.25 26.0373 41.1974 26.1952 41.1 26.325C41.0026 26.4548 40.8658 26.5495 40.71 26.595H40.7006L26.25 31.0312V13.9687L40.71 18.405C40.8658 18.4504 41.0026 18.5452 41.1 18.675C41.1974 18.8048 41.25 18.9627 41.25 19.125V25.875Z" fill="#003DA6"/>
</svg>
