<svg width="56" height="56" viewBox="0 0 56 56" fill="none" xmlns="http://www.w3.org/2000/svg">
<mask id="path-1-inside-1_106_9267" fill="white">
<rect x="14" y="10.5742" width="21.9574" height="38.4255" rx="1"/>
</mask>
<rect x="14" y="10.5742" width="21.9574" height="38.4255" rx="1" stroke="#003DA6" stroke-width="3.32" mask="url(#path-1-inside-1_106_9267)"/>
<path d="M19.1917 6.32428L19.8035 6.88513L19.8035 6.88513L19.1917 6.32428ZM40.4927 7.85152L40.0575 7.14476L40.0575 7.14476L40.4927 7.85152ZM41.0276 43.8098L40.5452 43.1344H40.5452L41.0276 43.8098ZM42.2764 20C42.2764 19.5416 41.9048 19.17 41.4464 19.17C40.988 19.17 40.6164 19.5416 40.6164 20H42.2764ZM19.9288 6.83H39.9683V5.17H19.9288V6.83ZM15.0689 12.0502L19.8035 6.88513L18.5799 5.76342L13.8452 10.9285L15.0689 12.0502ZM40.0575 7.14476L34.1495 10.7826L35.0199 12.1961L40.9278 8.55828L40.0575 7.14476ZM40.5452 43.1344L34.5597 47.4097L35.5246 48.7605L41.5101 44.4852L40.5452 43.1344ZM40.6164 20V42.996H42.2764V20H40.6164ZM41.5101 44.4852C41.991 44.1416 42.2764 43.587 42.2764 42.996H40.6164C40.6164 43.0509 40.5899 43.1024 40.5452 43.1344L41.5101 44.4852ZM39.9683 6.83C40.0301 6.83 40.0583 6.84729 40.0742 6.8602C40.096 6.87779 40.1193 6.9093 40.1319 6.95368C40.1445 6.99806 40.1411 7.03715 40.1318 7.06352C40.125 7.08288 40.11 7.11239 40.0575 7.14476L40.9278 8.55828C42.4989 7.59091 41.8133 5.17 39.9683 5.17V6.83ZM19.9288 5.17C19.4159 5.17 18.9265 5.38529 18.5799 5.76342L19.8035 6.88513C19.8357 6.85 19.8812 6.83 19.9288 6.83V5.17Z" fill="#003DA6"/>
<path d="M35.043 11.4894L37.3847 16.4656C37.7979 17.3437 39.0937 17.1778 39.2724 16.224L41.0004 7" stroke="#003DA6" stroke-width="1.66" stroke-linecap="round"/>
</svg>
