<svg width="48" height="48" viewBox="0 0 48 48" fill="none" xmlns="http://www.w3.org/2000/svg">
<mask id="path-1-inside-1_164_840" fill="white">
<rect x="12" y="9.06348" width="18.8207" height="32.9362" rx="0.857143"/>
</mask>
<rect x="12" y="9.06348" width="18.8207" height="32.9362" rx="0.857143" stroke="#003DA6" stroke-width="2.84571" mask="url(#path-1-inside-1_164_840)"/>
<path d="M16.4509 5.42053L15.9264 4.9398L15.9264 4.9398L16.4509 5.42053ZM34.7088 6.72959L35.0818 7.33539V7.33539L34.7088 6.72959ZM35.1674 37.5509L35.5809 38.1299L35.5809 38.1299L35.1674 37.5509ZM36.2377 17.1426C36.2377 16.7497 35.9192 16.4311 35.5263 16.4311C35.1334 16.4311 34.8149 16.7497 34.8149 17.1426H36.2377ZM17.0827 5.85401H34.2594V4.43115H17.0827V5.85401ZM12.917 10.3285L16.9753 5.90126L15.9264 4.9398L11.8681 9.36702L12.917 10.3285ZM34.3358 6.1238L29.2718 9.24195L30.0179 10.4535L35.0818 7.33539L34.3358 6.1238ZM34.7539 36.972L29.6234 40.6366L30.4505 41.7944L35.5809 38.1299L34.7539 36.972ZM34.8149 17.1426V36.8535H36.2377V17.1426H34.8149ZM35.5809 38.1299C35.9931 37.8354 36.2377 37.36 36.2377 36.8535H34.8149C34.8149 36.9005 34.7922 36.9447 34.7539 36.972L35.5809 38.1299ZM34.2594 5.85401C34.3123 5.85401 34.3365 5.86883 34.3502 5.87989C34.3688 5.89497 34.3888 5.92198 34.3996 5.96002C34.4104 5.99805 34.4075 6.03156 34.3995 6.05417C34.3937 6.07076 34.3809 6.09606 34.3358 6.1238L35.0818 7.33539C36.4284 6.50622 35.8408 4.43115 34.2594 4.43115V5.85401ZM17.0827 4.43115C16.643 4.43115 16.2235 4.61569 15.9264 4.9398L16.9753 5.90126C17.0029 5.87115 17.0419 5.85401 17.0827 5.85401V4.43115Z" fill="#003DA6"/>
<path d="M30.0371 9.84809L32.0443 14.1134C32.3985 14.866 33.5092 14.7238 33.6624 13.9063L35.1435 6" stroke="#003DA6" stroke-width="1.42286" stroke-linecap="round"/>
</svg>
