<svg width="56" height="56" viewBox="0 0 56 56" fill="none" xmlns="http://www.w3.org/2000/svg">
<path d="M49.7166 33.2648L45.5428 21.8417C45.3028 21.1913 44.8153 20.6623 44.1866 20.37C43.5579 20.0778 42.8391 20.0462 42.1872 20.282L25.9341 26.1708L28.8369 9.58297C28.958 8.89912 28.8031 8.19517 28.4062 7.62528C28.0093 7.05538 27.4028 6.66598 26.7194 6.54234L14.7603 4.41609C14.4234 4.35585 14.0778 4.36352 13.7439 4.43865C13.4099 4.51378 13.0943 4.65485 12.8157 4.85359C12.5317 5.05092 12.2898 5.30286 12.1043 5.59469C11.9188 5.88652 11.7932 6.21239 11.735 6.55328L6.26628 37.863C5.86437 40.1379 6.37846 42.4795 7.69639 44.3769C9.01432 46.2743 11.0291 47.5735 13.3013 47.9911C13.8216 48.08 14.3485 48.1246 14.8763 48.1245H47.2513C47.9475 48.1245 48.6152 47.848 49.1074 47.3557C49.5997 46.8634 49.8763 46.1957 49.8763 45.4995V34.1661C49.8685 33.8594 49.8147 33.5556 49.7166 33.2648ZM42.7822 21.927C42.9987 21.8491 43.2372 21.8596 43.446 21.9562C43.6548 22.0529 43.8171 22.2278 43.8978 22.4433L48.0738 33.8642C48.1126 33.9701 48.1301 34.0825 48.1253 34.1952C48.1204 34.3078 48.0932 34.4184 48.0453 34.5205C47.9462 34.7253 47.77 34.8825 47.5553 34.958L22.0469 44.2111C22.7077 43.2069 23.1545 42.0772 23.3594 40.8927L25.595 28.1592L42.7822 21.927ZM18.7591 45.1255C18.0189 45.6476 17.1823 46.0175 16.2979 46.2135C15.4136 46.4095 14.499 46.4278 13.6075 46.2673C11.7887 45.9325 10.1764 44.8914 9.1226 43.3716C8.06883 41.8519 7.65931 39.9768 7.98347 38.1561L13.4522 6.8464C13.4718 6.73302 13.5136 6.62461 13.5752 6.52739C13.6367 6.43017 13.7169 6.34605 13.811 6.27984C13.9547 6.17784 14.1269 6.12351 14.3032 6.12453C14.3538 6.12453 14.4043 6.12892 14.4541 6.13765L26.4132 8.26609C26.6402 8.30863 26.8412 8.43921 26.9723 8.62935C27.1034 8.81949 27.1541 9.05377 27.1132 9.28109L21.6444 40.5908C21.4884 41.5003 21.1529 42.3696 20.6576 43.1481C20.1622 43.9267 19.5168 44.5988 18.7591 45.1255ZM48.1263 45.4995C48.1263 45.7316 48.0341 45.9542 47.87 46.1182C47.7059 46.2823 47.4833 46.3745 47.2513 46.3745H21.22L48.1263 36.6205V45.4995ZM16.6263 39.3745C16.6263 39.7206 16.5236 40.059 16.3314 40.3468C16.1391 40.6346 15.8657 40.8589 15.546 40.9913C15.2262 41.1238 14.8743 41.1584 14.5349 41.0909C14.1954 41.0234 13.8836 40.8567 13.6388 40.612C13.3941 40.3672 13.2274 40.0554 13.1599 39.7159C13.0924 39.3765 13.127 39.0246 13.2595 38.7048C13.3919 38.3851 13.6162 38.1117 13.904 37.9195C14.1918 37.7272 14.5302 37.6245 14.8763 37.6245C15.3404 37.6245 15.7855 37.8089 16.1137 38.1371C16.4419 38.4653 16.6263 38.9104 16.6263 39.3745Z" fill="#003DA6"/>
</svg>
