<svg width="48" height="48" viewBox="0 0 48 48" fill="none" xmlns="http://www.w3.org/2000/svg">
<path d="M41.0756 11.52C41.0053 11.4356 40.9173 11.3676 40.8178 11.321C40.7184 11.2743 40.6099 11.2501 40.5 11.25H9.62625L8.59875 5.59688C8.50434 5.07845 8.23096 4.60961 7.82629 4.2721C7.42162 3.93459 6.91132 3.74982 6.38437 3.75H3C2.80109 3.75 2.61032 3.82902 2.46967 3.96967C2.32902 4.11032 2.25 4.30109 2.25 4.5C2.25 4.69891 2.32902 4.88968 2.46967 5.03033C2.61032 5.17098 2.80109 5.25 3 5.25H6.375C6.55259 5.2471 6.72545 5.30733 6.86279 5.41995C7.00013 5.53257 7.09305 5.69028 7.125 5.865L11.9062 32.1713C12.0735 33.086 12.5747 33.9059 13.3125 34.4719C12.5389 34.9705 11.9367 35.6944 11.5873 36.5459C11.2379 37.3974 11.1579 38.3356 11.3583 39.2339C11.5587 40.1322 12.0297 40.9475 12.7078 41.5698C13.3859 42.1922 14.2386 42.5916 15.1508 42.7142C16.063 42.8368 16.9909 42.6768 17.8093 42.2557C18.6277 41.8345 19.2973 41.1726 19.7278 40.359C20.1583 39.5455 20.329 38.6195 20.2168 37.706C20.1047 36.7924 19.7151 35.9352 19.1006 35.25H30.3994C29.7124 36.0181 29.3098 36.9987 29.259 38.0279C29.2081 39.0572 29.5121 40.0727 30.12 40.9048C30.7279 41.7368 31.603 42.335 32.599 42.5994C33.5951 42.8638 34.6516 42.7783 35.5922 42.3572C36.5327 41.9361 37.3003 41.205 37.7665 40.286C38.2328 39.3671 38.3695 38.3159 38.1538 37.3082C37.9381 36.3005 37.3832 35.3974 36.5816 34.7498C35.78 34.1021 34.7805 33.7492 33.75 33.75H15.5944C15.0677 33.7497 14.5579 33.5648 14.1536 33.2273C13.7493 32.8898 13.4762 32.4212 13.3819 31.9031L12.6319 27.75H35.2687C36.147 27.7501 36.9974 27.442 37.6717 26.8794C38.3461 26.3168 38.8015 25.5353 38.9587 24.6713L41.2387 12.135C41.2583 12.0268 41.2538 11.9156 41.2256 11.8093C41.1974 11.7031 41.1462 11.6043 41.0756 11.52ZM18.75 38.25C18.75 38.8433 18.5741 39.4234 18.2444 39.9167C17.9148 40.4101 17.4462 40.7946 16.898 41.0216C16.3499 41.2487 15.7467 41.3081 15.1647 41.1924C14.5828 41.0766 14.0482 40.7909 13.6287 40.3713C13.2091 39.9518 12.9234 39.4172 12.8076 38.8353C12.6919 38.2533 12.7513 37.6501 12.9784 37.102C13.2054 36.5538 13.5899 36.0852 14.0833 35.7556C14.5766 35.4259 15.1567 35.25 15.75 35.25C16.5456 35.25 17.3087 35.5661 17.8713 36.1287C18.4339 36.6913 18.75 37.4544 18.75 38.25ZM36.75 38.25C36.75 38.8433 36.5741 39.4234 36.2444 39.9167C35.9148 40.4101 35.4462 40.7946 34.898 41.0216C34.3499 41.2487 33.7467 41.3081 33.1647 41.1924C32.5828 41.0766 32.0482 40.7909 31.6287 40.3713C31.2091 39.9518 30.9234 39.4172 30.8076 38.8353C30.6919 38.2533 30.7513 37.6501 30.9784 37.102C31.2054 36.5538 31.5899 36.0852 32.0833 35.7556C32.5766 35.4259 33.1567 35.25 33.75 35.25C34.5456 35.25 35.3087 35.5661 35.8713 36.1287C36.4339 36.6913 36.75 37.4544 36.75 38.25ZM37.4831 24.4031C37.3887 24.9215 37.1153 25.3904 36.7107 25.7279C36.306 26.0654 35.7957 26.2502 35.2687 26.25H12.3525L9.89812 12.75H39.6019L37.4831 24.4031Z" fill="#003DA6"/>
</svg>
