<svg width="48" height="48" viewBox="0 0 48 48" fill="none" xmlns="http://www.w3.org/2000/svg">
<path d="M40.9242 15.9173C42.943 20.1317 43.318 24.9473 41.976 29.4235C40.6341 33.8996 37.6716 37.7146 33.6672 40.1233C29.6629 42.5319 24.9044 43.3612 20.3213 42.4491C15.7382 41.5369 11.6599 38.9489 8.88289 35.1906C6.10592 31.4323 4.82986 26.7737 5.30399 22.1248C5.77812 17.476 7.96839 13.1709 11.4469 10.0506C14.9254 6.93028 19.4423 5.21889 24.1151 5.25075C28.788 5.28262 33.2811 7.05545 36.7167 10.2229L41.4699 5.46979C41.5395 5.40011 41.6223 5.34483 41.7133 5.30712C41.8044 5.26941 41.9019 5.25 42.0005 5.25C42.099 5.25 42.1966 5.26941 42.2877 5.30712C42.3787 5.34483 42.4614 5.40011 42.5311 5.46979C42.6008 5.53947 42.6561 5.6222 42.6938 5.71324C42.7315 5.80429 42.7509 5.90187 42.7509 6.00042C42.7509 6.09896 42.7315 6.19654 42.6938 6.28759C42.6561 6.37863 42.6008 6.46136 42.5311 6.53104L24.5311 24.531C24.3904 24.6718 24.1995 24.7508 24.0005 24.7508C23.8015 24.7508 23.6106 24.6718 23.4699 24.531C23.3291 24.3903 23.2501 24.1994 23.2501 24.0004C23.2501 23.8014 23.3291 23.6105 23.4699 23.4698L29.2824 17.6573C27.8246 16.444 25.9933 15.77 24.0967 15.7488C22.2002 15.7276 20.3543 16.3606 18.8698 17.541C17.3853 18.7215 16.3529 20.3775 15.9464 22.23C15.5398 24.0826 15.7841 26.0187 16.6379 27.7123C17.4917 29.4058 18.903 30.7535 20.6342 31.5284C22.3653 32.3032 24.3106 32.458 26.1424 31.9665C27.9743 31.475 29.5809 30.3674 30.6917 28.83C31.8025 27.2927 32.3497 25.4196 32.2411 23.526C32.2354 23.4276 32.2492 23.3289 32.2817 23.2357C32.3142 23.1426 32.3646 23.0567 32.4303 22.9831C32.4959 22.9094 32.5754 22.8494 32.6643 22.8065C32.7531 22.7636 32.8495 22.7386 32.948 22.7329C33.0465 22.7273 33.1451 22.741 33.2383 22.7735C33.3314 22.806 33.4173 22.8565 33.4909 22.9221C33.5646 22.9877 33.6246 23.0672 33.6675 23.1561C33.7104 23.2449 33.7354 23.3413 33.7411 23.4398C33.8705 25.6835 33.2209 27.903 31.9021 29.7228C30.5833 31.5425 28.6763 32.8508 26.5038 33.4263C24.3313 34.0017 22.0267 33.809 19.98 32.8807C17.9333 31.9524 16.2701 30.3455 15.2718 28.332C14.2736 26.3184 14.0016 24.0218 14.502 21.8308C15.0023 19.6398 16.2441 17.6889 18.0174 16.3082C19.7907 14.9275 21.9865 14.2018 24.2333 14.254C26.4802 14.3061 28.64 15.1328 30.3474 16.5942L35.6611 11.2823C32.3331 8.25412 27.9536 6.64617 23.4567 6.80141C18.9599 6.95665 14.7017 8.8628 11.5904 12.1133C8.47911 15.3637 6.76103 19.7012 6.80261 24.2006C6.84419 28.6999 8.64215 33.0049 11.813 36.1973C14.6924 39.0661 18.4924 40.8259 22.5427 41.1664C26.593 41.5069 30.6335 40.4063 33.9515 38.0585C37.2695 35.7108 39.6519 32.2669 40.6786 28.3341C41.7052 24.4013 41.3101 20.2322 39.563 16.5623C39.5178 16.4731 39.4909 16.3757 39.4838 16.2759C39.4768 16.1761 39.4898 16.0759 39.5221 15.9813C39.5544 15.8866 39.6053 15.7993 39.6718 15.7246C39.7383 15.6499 39.8191 15.5892 39.9094 15.5462C39.9997 15.5032 40.0977 15.4787 40.1976 15.4741C40.2976 15.4695 40.3974 15.4849 40.4912 15.5195C40.5851 15.5541 40.6711 15.6071 40.7442 15.6754C40.8172 15.7437 40.8759 15.826 40.9167 15.9173H40.9242Z" fill="#003DA6"/>
</svg>
