<svg width="48" height="48" viewBox="0 0 48 48" fill="none" xmlns="http://www.w3.org/2000/svg">
<path d="M43.3125 15.5175C42.9604 15.1189 42.5275 14.7997 42.0426 14.5811C41.5577 14.3626 41.0319 14.2497 40.5 14.25H29.25V10.5C29.25 8.70979 28.5388 6.9929 27.273 5.72703C26.0071 4.46116 24.2902 3.75 22.5 3.75C22.3607 3.7499 22.2241 3.78862 22.1055 3.86181C21.9869 3.935 21.8911 4.03977 21.8288 4.16438L14.5369 18.75H6C5.40326 18.75 4.83097 18.9871 4.40901 19.409C3.98705 19.831 3.75 20.4033 3.75 21V37.5C3.75 38.0967 3.98705 38.669 4.40901 39.091C4.83097 39.5129 5.40326 39.75 6 39.75H38.25C39.1642 39.7502 40.0469 39.4165 40.7323 38.8115C41.4177 38.2066 41.8585 37.3721 41.9719 36.465L44.2219 18.465C44.288 17.9373 44.2411 17.4016 44.0843 16.8934C43.9275 16.3852 43.6644 15.9162 43.3125 15.5175ZM14.25 38.25H6C5.80109 38.25 5.61032 38.171 5.46967 38.0303C5.32902 37.8897 5.25 37.6989 5.25 37.5V21C5.25 20.8011 5.32902 20.6103 5.46967 20.4697C5.61032 20.329 5.80109 20.25 6 20.25H14.25V38.25ZM42.7331 18.2794L40.4831 36.2794C40.415 36.8236 40.1505 37.3242 39.7393 37.6871C39.3281 38.0499 38.7984 38.2501 38.25 38.25H15.75V19.6763L22.9538 5.26875C24.2628 5.38232 25.4817 5.98265 26.3697 6.95117C27.2577 7.9197 27.7502 9.18601 27.75 10.5V15C27.75 15.1989 27.829 15.3897 27.9697 15.5303C28.1103 15.671 28.3011 15.75 28.5 15.75H40.5C40.8191 15.7499 41.1346 15.8177 41.4255 15.9489C41.7164 16.0801 41.976 16.2716 42.1872 16.5109C42.3984 16.7501 42.5563 17.0315 42.6504 17.3364C42.7446 17.6413 42.7727 17.9627 42.7331 18.2794Z" fill="#003DA6"/>
</svg>
