<svg width="56" height="56" viewBox="0 0 56 56" fill="none" xmlns="http://www.w3.org/2000/svg">
<path d="M49.0015 6.125C44.5631 6.125 39.5602 8.58375 34.1265 13.4313C30.0862 17.0384 26.6037 21.2691 24.2827 24.3534C22.4332 23.6863 20.4503 23.4743 18.5015 23.7351C16.5527 23.9959 14.6954 24.7219 13.0863 25.8519C11.4773 26.9819 10.1639 28.4825 9.25713 30.2271C8.35033 31.9716 7.87678 33.9088 7.87649 35.875C7.87649 43.1419 3.22587 46.375 3.01587 46.5238C2.8604 46.6282 2.74255 46.7798 2.67968 46.9563C2.6168 47.1327 2.6122 47.3247 2.66657 47.504C2.72093 47.6832 2.83138 47.8403 2.98168 47.9521C3.13197 48.0639 3.31418 48.1245 3.50149 48.125H20.1265C22.0926 48.1247 24.0298 47.6512 25.7744 46.7444C27.519 45.8376 29.0196 44.5242 30.1496 42.9152C31.2796 41.3061 32.0056 39.4488 32.2664 37.5C32.5272 35.5512 32.3151 33.5683 31.6481 31.7188C34.7346 29.3934 38.9631 25.9109 42.5702 21.875C47.4177 16.4412 49.8765 11.4384 49.8765 7C49.8765 6.76794 49.7843 6.54538 49.6202 6.38128C49.4561 6.21719 49.2336 6.125 49.0015 6.125ZM20.1265 46.375H5.76556C7.41931 44.5572 9.62649 41.1425 9.62649 35.875C9.62649 33.7983 10.2423 31.7682 11.3961 30.0415C12.5498 28.3148 14.1897 26.969 16.1083 26.1743C18.0269 25.3795 20.1381 25.1716 22.1749 25.5768C24.2117 25.9819 26.0827 26.9819 27.5511 28.4504C29.0196 29.9188 30.0196 31.7898 30.4247 33.8266C30.8299 35.8634 30.6219 37.9746 29.8272 39.8932C29.0325 41.8118 27.6867 43.4517 25.96 44.6054C24.2333 45.7592 22.2032 46.375 20.1265 46.375ZM25.9277 25.0884C26.8312 23.8984 27.9665 22.4634 29.2724 20.9541C31.6256 22.3972 33.6043 24.3759 35.0474 26.7291C33.5293 28.0416 32.1031 29.1703 30.9131 30.0737C29.7724 27.9618 28.0397 26.2291 25.9277 25.0884ZM36.3774 25.5566C34.8592 23.1677 32.8338 21.1423 30.4449 19.6241C35.2202 14.3128 41.8396 8.45031 48.0871 7.91438C47.5512 14.1619 41.6887 20.7812 36.3774 25.5566Z" fill="#003DA6"/>
</svg>
