<svg width="48" height="48" viewBox="0 0 48 48" fill="none" xmlns="http://www.w3.org/2000/svg">
<path d="M21.7267 40.6875C21.685 40.8487 21.5909 40.9915 21.4592 41.0933C21.3275 41.1952 21.1656 41.2503 20.9992 41.25C20.936 41.2502 20.873 41.2427 20.8117 41.2275L14.8117 39.7275C14.7282 39.7068 14.6489 39.6719 14.5773 39.6244L10.0773 36.6244C9.99528 36.5697 9.92486 36.4994 9.87002 36.4175C9.81519 36.3357 9.77702 36.2438 9.75769 36.1472C9.73837 36.0505 9.73826 35.951 9.75739 35.8544C9.77651 35.7577 9.81449 35.6657 9.86915 35.5837C9.97955 35.4181 10.1512 35.3032 10.3464 35.2642C10.443 35.2448 10.5425 35.2447 10.6392 35.2639C10.7358 35.283 10.8278 35.3209 10.9098 35.3756L15.301 38.3044L21.1867 39.7725C21.2823 39.797 21.3721 39.8401 21.4511 39.8993C21.53 39.9586 21.5964 40.0329 21.6466 40.1179C21.6968 40.2029 21.7297 40.297 21.7434 40.3947C21.7571 40.4925 21.7514 40.5919 21.7267 40.6875ZM46.621 22.5469C46.5289 22.8272 46.382 23.0864 46.1889 23.3094C45.9958 23.5325 45.7603 23.715 45.496 23.8462L40.9473 26.1225L30.5335 36.5362C30.4409 36.6262 30.3267 36.6907 30.2019 36.7235C30.0771 36.7564 29.9459 36.7564 29.821 36.7237L17.821 33.7237C17.7291 33.7015 17.6424 33.6614 17.566 33.6056L7.11103 26.145L2.50603 23.8406C2.24168 23.7085 2.00595 23.5257 1.81228 23.3025C1.61862 23.0793 1.47081 22.8201 1.37731 22.5398C1.28381 22.2595 1.24645 21.9635 1.26736 21.6687C1.28826 21.3739 1.36703 21.0862 1.49915 20.8219L6.15665 11.5069C6.28874 11.2425 6.4716 11.0068 6.69479 10.8131C6.91799 10.6195 7.17715 10.4716 7.45747 10.3781C7.7378 10.2847 8.03379 10.2473 8.32856 10.2682C8.62332 10.2891 8.91108 10.3679 9.1754 10.5L13.5742 12.6994L23.7929 9.77811C23.9278 9.74063 24.0705 9.74063 24.2054 9.77811L34.4242 12.6994L38.8229 10.5C39.0872 10.3679 39.375 10.2891 39.6697 10.2682C39.9645 10.2473 40.2605 10.2847 40.5408 10.3781C40.8212 10.4716 41.0803 10.6195 41.3035 10.8131C41.5267 11.0068 41.7096 11.2425 41.8417 11.5069L46.4992 20.8237C46.6322 21.0877 46.7115 21.3754 46.7324 21.6703C46.7534 21.9651 46.7155 22.2612 46.621 22.5412V22.5469ZM3.1754 22.5L7.16353 24.4931L12.4923 13.8356L8.50603 11.8425C8.418 11.7983 8.32213 11.7718 8.22389 11.7647C8.12565 11.7575 8.02696 11.7698 7.93346 11.8008C7.83996 11.8318 7.75348 11.8809 7.67896 11.9453C7.60444 12.0097 7.54334 12.0882 7.49915 12.1762L2.84165 21.4931C2.79745 21.5811 2.77101 21.677 2.76386 21.7753C2.75671 21.8735 2.76898 21.9722 2.79997 22.0657C2.83096 22.1592 2.88007 22.2457 2.94449 22.3202C3.0089 22.3947 3.08737 22.4558 3.1754 22.5ZM36.3742 28.5619L30.0404 23.4881C26.566 26.6306 22.0192 27.1462 18.2917 24.765C18.0068 24.5844 17.7662 24.3421 17.5877 24.056C17.4091 23.7699 17.2971 23.4473 17.2601 23.1121C17.223 22.7769 17.2617 22.4377 17.3734 22.1195C17.4851 21.8012 17.6669 21.5122 17.9054 21.2737L26.4742 12.9619C26.6148 12.8254 26.8032 12.7493 26.9992 12.75H29.1442L23.9992 11.28L14.0223 14.13L8.45728 25.2619L18.3198 32.3062L29.7685 35.1694L36.3742 28.5619ZM39.5842 25.3519L34.036 14.25H27.3029L18.961 22.3425C18.8833 22.4203 18.8243 22.5147 18.7882 22.6186C18.7522 22.7226 18.7401 22.8333 18.7529 22.9425C18.7649 23.0563 18.8022 23.1659 18.8623 23.2632C18.9223 23.3606 19.0035 23.4432 19.0998 23.505C21.7154 25.1756 25.8123 25.65 29.4667 21.9675C29.5972 21.8362 29.7716 21.7578 29.9565 21.7474C30.1413 21.737 30.3235 21.7954 30.4679 21.9112L37.4448 27.4987L39.5842 25.3519ZM45.1548 21.4931L40.4992 12.1762C40.455 12.0882 40.3939 12.0097 40.3193 11.9453C40.2448 11.8809 40.1583 11.8318 40.0648 11.8008C39.9713 11.7698 39.8727 11.7575 39.7744 11.7647C39.6762 11.7718 39.5803 11.7983 39.4923 11.8425L35.506 13.8356L40.8348 24.4931L44.8229 22.5C44.9109 22.4558 44.9894 22.3947 45.0538 22.3202C45.1182 22.2457 45.1673 22.1592 45.1983 22.0657C45.2293 21.9722 45.2416 21.8735 45.2344 21.7753C45.2273 21.677 45.2009 21.5811 45.1567 21.4931H45.1548Z" fill="#003DA6"/>
</svg>
