<svg width="56" height="56" viewBox="0 0 56 56" fill="none" xmlns="http://www.w3.org/2000/svg">
<path d="M22.75 9.625H12.25C11.5538 9.625 10.8861 9.90156 10.3938 10.3938C9.90156 10.8861 9.625 11.5538 9.625 12.25V22.75C9.625 23.4462 9.90156 24.1139 10.3938 24.6062C10.8861 25.0984 11.5538 25.375 12.25 25.375H22.75C23.4462 25.375 24.1139 25.0984 24.6062 24.6062C25.0984 24.1139 25.375 23.4462 25.375 22.75V12.25C25.375 11.5538 25.0984 10.8861 24.6062 10.3938C24.1139 9.90156 23.4462 9.625 22.75 9.625ZM23.625 22.75C23.625 22.9821 23.5328 23.2046 23.3687 23.3687C23.2046 23.5328 22.9821 23.625 22.75 23.625H12.25C12.0179 23.625 11.7954 23.5328 11.6313 23.3687C11.4672 23.2046 11.375 22.9821 11.375 22.75V12.25C11.375 12.0179 11.4672 11.7954 11.6313 11.6313C11.7954 11.4672 12.0179 11.375 12.25 11.375H22.75C22.9821 11.375 23.2046 11.4672 23.3687 11.6313C23.5328 11.7954 23.625 12.0179 23.625 12.25V22.75ZM22.75 30.625H12.25C11.5538 30.625 10.8861 30.9016 10.3938 31.3938C9.90156 31.8861 9.625 32.5538 9.625 33.25V43.75C9.625 44.4462 9.90156 45.1139 10.3938 45.6062C10.8861 46.0984 11.5538 46.375 12.25 46.375H22.75C23.4462 46.375 24.1139 46.0984 24.6062 45.6062C25.0984 45.1139 25.375 44.4462 25.375 43.75V33.25C25.375 32.5538 25.0984 31.8861 24.6062 31.3938C24.1139 30.9016 23.4462 30.625 22.75 30.625ZM23.625 43.75C23.625 43.9821 23.5328 44.2046 23.3687 44.3687C23.2046 44.5328 22.9821 44.625 22.75 44.625H12.25C12.0179 44.625 11.7954 44.5328 11.6313 44.3687C11.4672 44.2046 11.375 43.9821 11.375 43.75V33.25C11.375 33.0179 11.4672 32.7954 11.6313 32.6313C11.7954 32.4672 12.0179 32.375 12.25 32.375H22.75C22.9821 32.375 23.2046 32.4672 23.3687 32.6313C23.5328 32.7954 23.625 33.0179 23.625 33.25V43.75ZM43.75 9.625H33.25C32.5538 9.625 31.8861 9.90156 31.3938 10.3938C30.9016 10.8861 30.625 11.5538 30.625 12.25V22.75C30.625 23.4462 30.9016 24.1139 31.3938 24.6062C31.8861 25.0984 32.5538 25.375 33.25 25.375H43.75C44.4462 25.375 45.1139 25.0984 45.6062 24.6062C46.0984 24.1139 46.375 23.4462 46.375 22.75V12.25C46.375 11.5538 46.0984 10.8861 45.6062 10.3938C45.1139 9.90156 44.4462 9.625 43.75 9.625ZM44.625 22.75C44.625 22.9821 44.5328 23.2046 44.3687 23.3687C44.2046 23.5328 43.9821 23.625 43.75 23.625H33.25C33.0179 23.625 32.7954 23.5328 32.6313 23.3687C32.4672 23.2046 32.375 22.9821 32.375 22.75V12.25C32.375 12.0179 32.4672 11.7954 32.6313 11.6313C32.7954 11.4672 33.0179 11.375 33.25 11.375H43.75C43.9821 11.375 44.2046 11.4672 44.3687 11.6313C44.5328 11.7954 44.625 12.0179 44.625 12.25V22.75ZM30.625 38.5V31.5C30.625 31.2679 30.7172 31.0454 30.8813 30.8813C31.0454 30.7172 31.2679 30.625 31.5 30.625C31.7321 30.625 31.9546 30.7172 32.1187 30.8813C32.2828 31.0454 32.375 31.2679 32.375 31.5V38.5C32.375 38.7321 32.2828 38.9546 32.1187 39.1187C31.9546 39.2828 31.7321 39.375 31.5 39.375C31.2679 39.375 31.0454 39.2828 30.8813 39.1187C30.7172 38.9546 30.625 38.7321 30.625 38.5ZM46.375 35C46.375 35.2321 46.2828 35.4546 46.1187 35.6187C45.9546 35.7828 45.7321 35.875 45.5 35.875H39.375V45.5C39.375 45.7321 39.2828 45.9546 39.1187 46.1187C38.9546 46.2828 38.7321 46.375 38.5 46.375H31.5C31.2679 46.375 31.0454 46.2828 30.8813 46.1187C30.7172 45.9546 30.625 45.7321 30.625 45.5C30.625 45.2679 30.7172 45.0454 30.8813 44.8813C31.0454 44.7172 31.2679 44.625 31.5 44.625H37.625V31.5C37.625 31.2679 37.7172 31.0454 37.8813 30.8813C38.0454 30.7172 38.2679 30.625 38.5 30.625C38.7321 30.625 38.9546 30.7172 39.1187 30.8813C39.2828 31.0454 39.375 31.2679 39.375 31.5V34.125H45.5C45.7321 34.125 45.9546 34.2172 46.1187 34.3813C46.2828 34.5454 46.375 34.7679 46.375 35ZM46.375 42V45.5C46.375 45.7321 46.2828 45.9546 46.1187 46.1187C45.9546 46.2828 45.7321 46.375 45.5 46.375C45.2679 46.375 45.0454 46.2828 44.8813 46.1187C44.7172 45.9546 44.625 45.7321 44.625 45.5V42C44.625 41.7679 44.7172 41.5454 44.8813 41.3813C45.0454 41.2172 45.2679 41.125 45.5 41.125C45.7321 41.125 45.9546 41.2172 46.1187 41.3813C46.2828 41.5454 46.375 41.7679 46.375 42Z" fill="#003DA6"/>
</svg>
