<svg width="56" height="56" viewBox="0 0 56 56" fill="none" xmlns="http://www.w3.org/2000/svg">
<path d="M46.9591 16.625H42.875V8.75C42.875 8.51794 42.7828 8.29538 42.6187 8.13128C42.4546 7.96719 42.2321 7.875 42 7.875H14C13.7679 7.875 13.5454 7.96719 13.3813 8.13128C13.2172 8.29538 13.125 8.51794 13.125 8.75V16.625H9.04094C6.46844 16.625 4.375 18.5938 4.375 21V38.5C4.375 38.7321 4.46719 38.9546 4.63128 39.1187C4.79538 39.2828 5.01794 39.375 5.25 39.375H13.125V47.25C13.125 47.4821 13.2172 47.7046 13.3813 47.8687C13.5454 48.0328 13.7679 48.125 14 48.125H42C42.2321 48.125 42.4546 48.0328 42.6187 47.8687C42.7828 47.7046 42.875 47.4821 42.875 47.25V39.375H50.75C50.9821 39.375 51.2046 39.2828 51.3687 39.1187C51.5328 38.9546 51.625 38.7321 51.625 38.5V21C51.625 18.5938 49.5316 16.625 46.9591 16.625ZM14.875 9.625H41.125V16.625H14.875V9.625ZM41.125 46.375H14.875V34.125H41.125V46.375ZM49.875 37.625H42.875V33.25C42.875 33.0179 42.7828 32.7954 42.6187 32.6313C42.4546 32.4672 42.2321 32.375 42 32.375H14C13.7679 32.375 13.5454 32.4672 13.3813 32.6313C13.2172 32.7954 13.125 33.0179 13.125 33.25V37.625H6.125V21C6.125 19.5519 7.4375 18.375 9.04094 18.375H46.9591C48.5625 18.375 49.875 19.5519 49.875 21V37.625ZM42.875 25.375C42.875 25.7211 42.7724 26.0595 42.5801 26.3472C42.3878 26.635 42.1145 26.8593 41.7947 26.9918C41.4749 27.1242 41.1231 27.1589 40.7836 27.0914C40.4441 27.0238 40.1323 26.8572 39.8876 26.6124C39.6428 26.3677 39.4762 26.0559 39.4086 25.7164C39.3411 25.3769 39.3758 25.0251 39.5082 24.7053C39.6407 24.3855 39.865 24.1122 40.1528 23.9199C40.4405 23.7276 40.7789 23.625 41.125 23.625C41.5891 23.625 42.0342 23.8094 42.3624 24.1376C42.6906 24.4658 42.875 24.9109 42.875 25.375Z" fill="#003DA6"/>
</svg>
