<svg width="56" height="56" viewBox="0 0 56 56" fill="none" xmlns="http://www.w3.org/2000/svg">
<path d="M44.625 20.2125V19.25C44.625 14.8408 42.8734 10.6121 39.7556 7.49435C36.6379 4.37656 32.4092 2.625 28 2.625C23.5908 2.625 19.3621 4.37656 16.2443 7.49435C13.1266 10.6121 11.375 14.8408 11.375 19.25V20.2125C10.3117 20.4284 9.36663 21.0317 8.72315 21.9052C8.07966 22.7787 7.78371 23.8602 7.89275 24.9397C8.00179 26.0191 8.50803 27.0196 9.3132 27.7468C10.1184 28.474 11.165 28.8761 12.25 28.875H13.4925L27.2409 52.9375C27.3176 53.0711 27.4281 53.1822 27.5614 53.2594C27.6947 53.3366 27.846 53.3772 28 53.3772C28.154 53.3772 28.3053 53.3366 28.4386 53.2594C28.5719 53.1822 28.6824 53.0711 28.7591 52.9375L42.5075 28.875H43.75C44.835 28.8761 45.8816 28.474 46.6868 27.7468C47.492 27.0196 47.9982 26.0191 48.1072 24.9397C48.2163 23.8602 47.9203 22.7787 47.2768 21.9052C46.6334 21.0317 45.6883 20.4284 44.625 20.2125ZM28 50.7369L15.5072 28.875H21.7416L31.1172 45.2812L28 50.7369ZM29.9928 28.875L35.2428 38.0625L32.1256 43.5181L23.7584 28.875H29.9928ZM36.2491 36.2994L32.0075 28.875H40.4928L36.2491 36.2994ZM43.75 27.125H12.25C11.5538 27.125 10.8861 26.8484 10.3938 26.3562C9.90156 25.8639 9.625 25.1962 9.625 24.5C9.625 23.8038 9.90156 23.1361 10.3938 22.6438C10.8861 22.1516 11.5538 21.875 12.25 21.875C12.4821 21.875 12.7046 21.7828 12.8687 21.6187C13.0328 21.4546 13.125 21.2321 13.125 21V19.25C13.125 15.3049 14.6922 11.5214 17.4818 8.73179C20.2714 5.94218 24.0549 4.375 28 4.375C31.9451 4.375 35.7286 5.94218 38.5182 8.73179C41.3078 11.5214 42.875 15.3049 42.875 19.25V21C42.875 21.2321 42.9672 21.4546 43.1313 21.6187C43.2954 21.7828 43.5179 21.875 43.75 21.875C44.4462 21.875 45.1139 22.1516 45.6062 22.6438C46.0984 23.1361 46.375 23.8038 46.375 24.5C46.375 25.1962 46.0984 25.8639 45.6062 26.3562C45.1139 26.8484 44.4462 27.125 43.75 27.125Z" fill="#003DA6"/>
</svg>
