<svg width="56" height="56" viewBox="0 0 56 56" fill="none" xmlns="http://www.w3.org/2000/svg">
<path d="M45.5 6.125H15.75C14.1255 6.125 12.5676 6.77031 11.419 7.91897C10.2703 9.06763 9.625 10.6255 9.625 12.25V49C9.625 49.2321 9.71719 49.4546 9.88128 49.6187C10.0454 49.7828 10.2679 49.875 10.5 49.875H42C42.2321 49.875 42.4546 49.7828 42.6187 49.6187C42.7828 49.4546 42.875 49.2321 42.875 49C42.875 48.7679 42.7828 48.5454 42.6187 48.3813C42.4546 48.2172 42.2321 48.125 42 48.125H11.375V47.25C11.375 46.0897 11.8359 44.9769 12.6564 44.1564C13.4769 43.3359 14.5897 42.875 15.75 42.875H45.5C45.7321 42.875 45.9546 42.7828 46.1187 42.6187C46.2828 42.4546 46.375 42.2321 46.375 42V7C46.375 6.76794 46.2828 6.54538 46.1187 6.38128C45.9546 6.21719 45.7321 6.125 45.5 6.125ZM25.375 7.875H37.625V26.25L32.0228 22.05C31.8714 21.9364 31.6871 21.875 31.4978 21.875C31.3085 21.875 31.1243 21.9364 30.9728 22.05L25.375 26.25V7.875ZM44.625 41.125H15.75C14.9348 41.1247 14.1277 41.2875 13.3764 41.6039C12.625 41.9202 11.9445 42.3836 11.375 42.9669V12.25C11.375 11.0897 11.8359 9.97688 12.6564 9.15641C13.4769 8.33594 14.5897 7.875 15.75 7.875H23.625V28C23.625 28.1625 23.6702 28.3218 23.7557 28.46C23.8411 28.5982 23.9633 28.71 24.1087 28.7826C24.254 28.8553 24.4167 28.8861 24.5786 28.8715C24.7404 28.8569 24.895 28.7975 25.025 28.7L31.5 23.8438L37.9772 28.7C38.1286 28.8136 38.3129 28.875 38.5022 28.875C38.7343 28.875 38.9568 28.7828 39.1209 28.6187C39.285 28.4546 39.3772 28.2321 39.3772 28V7.875H44.6272L44.625 41.125Z" fill="#003DA6"/>
</svg>
