<svg width="56" height="56" viewBox="0 0 56 56" fill="none" xmlns="http://www.w3.org/2000/svg">
<path d="M54.25 22.375H1.75C1.51794 22.375 1.29538 22.4672 1.13128 22.6313C0.967187 22.7954 0.875 23.0179 0.875 23.25C0.875 30.444 3.7328 37.3433 8.81973 42.4303C13.9067 47.5172 20.806 50.375 28 50.375C35.194 50.375 42.0933 47.5172 47.1803 42.4303C52.2672 37.3433 55.125 30.444 55.125 23.25C55.125 23.0179 55.0328 22.7954 54.8687 22.6313C54.7046 22.4672 54.4821 22.375 54.25 22.375ZM15.6472 36.8409L27.125 25.3631V41.6031C22.8608 41.4028 18.8007 39.7183 15.6472 36.8409ZM14.4091 35.6028C11.5317 32.4493 9.84716 28.3892 9.64687 24.125H25.8869L14.4091 35.6028ZM28.875 25.3631L40.3528 36.8409C37.1993 39.7183 33.1392 41.4028 28.875 41.6031V25.3631ZM41.5909 35.6028L30.1131 24.125H46.3531C46.1528 28.3892 44.4683 32.4493 41.5909 35.6028ZM28 48.625C21.424 48.6173 15.1071 46.06 10.3777 41.4909C5.64824 36.9218 2.87472 30.6969 2.64031 24.125H7.89031C8.11953 29.3033 10.3379 34.1935 14.0833 37.7768C17.8287 41.3601 22.8122 43.36 27.9956 43.36C33.179 43.36 38.1626 41.3601 41.9079 37.7768C45.6533 34.1935 47.8717 29.3033 48.1009 24.125H53.3509C53.1166 30.6953 50.3443 36.919 45.6167 41.4879C40.8892 46.0568 34.5745 48.615 28 48.625Z" fill="#003DA6"/>
</svg>
