<svg width="56" height="56" viewBox="0 0 56 56" fill="none" xmlns="http://www.w3.org/2000/svg">
<path d="M46.375 13.125C45.3366 13.125 44.3216 13.4329 43.4583 14.0098C42.5949 14.5867 41.922 15.4066 41.5246 16.3659C41.1273 17.3252 41.0233 18.3808 41.2259 19.3992C41.4284 20.4176 41.9285 21.3531 42.6627 22.0873C43.3969 22.8215 44.3324 23.3216 45.3508 23.5241C46.3692 23.7267 47.4248 23.6227 48.3841 23.2254C49.3434 22.828 50.1633 22.1551 50.7402 21.2917C51.3171 20.4284 51.625 19.4134 51.625 18.375C51.625 16.9826 51.0719 15.6473 50.0873 14.6627C49.1027 13.6781 47.7674 13.125 46.375 13.125ZM46.375 21.875C45.6828 21.875 45.0061 21.6697 44.4305 21.2851C43.8549 20.9006 43.4063 20.3539 43.1414 19.7144C42.8765 19.0749 42.8072 18.3711 42.9423 17.6922C43.0773 17.0133 43.4106 16.3896 43.9001 15.9001C44.3896 15.4106 45.0133 15.0773 45.6922 14.9423C46.3711 14.8072 47.0749 14.8765 47.7144 15.1414C48.3539 15.4063 48.9006 15.8549 49.2851 16.4305C49.6697 17.0061 49.875 17.6828 49.875 18.375C49.875 19.3033 49.5062 20.1935 48.8499 20.8499C48.1935 21.5063 47.3033 21.875 46.375 21.875ZM27.125 34.1884V19.25C27.125 19.0179 27.0328 18.7954 26.8687 18.6313C26.7046 18.4672 26.4821 18.375 26.25 18.375C26.0179 18.375 25.7954 18.4672 25.6313 18.6313C25.4672 18.7954 25.375 19.0179 25.375 19.25V34.1884C23.8424 34.4097 22.4504 35.2032 21.4792 36.4093C20.5081 37.6155 20.0298 39.1447 20.1407 40.6892C20.2516 42.2338 20.9434 43.679 22.0769 44.734C23.2104 45.7891 24.7015 46.3756 26.25 46.3756C27.7985 46.3756 29.2896 45.7891 30.4231 44.734C31.5566 43.679 32.2484 42.2338 32.3593 40.6892C32.4702 39.1447 31.9919 37.6155 31.0208 36.4093C30.0496 35.2032 28.6576 34.4097 27.125 34.1884ZM26.25 44.625C25.3847 44.625 24.5388 44.3684 23.8194 43.8877C23.0999 43.4069 22.5392 42.7237 22.208 41.9242C21.8769 41.1248 21.7903 40.2451 21.9591 39.3965C22.1279 38.5478 22.5446 37.7683 23.1564 37.1564C23.7683 36.5446 24.5478 36.1279 25.3965 35.9591C26.2451 35.7903 27.1248 35.8769 27.9242 36.208C28.7237 36.5392 29.4069 37.0999 29.8877 37.8194C30.3684 38.5388 30.625 39.3847 30.625 40.25C30.625 41.4103 30.1641 42.5231 29.3436 43.3436C28.5231 44.1641 27.4103 44.625 26.25 44.625ZM34.125 29.75V10.5C34.125 8.41142 33.2953 6.40838 31.8185 4.93153C30.3416 3.45468 28.3386 2.625 26.25 2.625C24.1614 2.625 22.1584 3.45468 20.6815 4.93153C19.2047 6.40838 18.375 8.41142 18.375 10.5V29.75C16.1712 31.4028 14.5434 33.7071 13.722 36.3365C12.9006 38.966 12.9274 41.7871 13.7985 44.4005C14.6696 47.0138 16.3409 49.2868 18.5757 50.8976C20.8104 52.5083 23.4953 53.375 26.25 53.375C29.0047 53.375 31.6896 52.5083 33.9243 50.8976C36.1591 49.2868 37.8304 47.0138 38.7015 44.4005C39.5726 41.7871 39.5994 38.966 38.778 36.3365C37.9566 33.7071 36.3288 31.4028 34.125 29.75ZM26.25 51.625C23.828 51.6252 21.4692 50.8524 19.517 49.419C17.5647 47.9856 16.1209 45.9665 15.3958 43.6557C14.6707 41.3448 14.7021 38.8628 15.4854 36.571C16.2687 34.2793 17.7631 32.2973 19.7509 30.9138C19.8677 30.8323 19.9627 30.7235 20.0279 30.597C20.0931 30.4704 20.1264 30.3299 20.125 30.1875V10.5C20.125 8.87555 20.7703 7.31763 21.919 6.16897C23.0676 5.02031 24.6255 4.375 26.25 4.375C27.8745 4.375 29.4324 5.02031 30.581 6.16897C31.7297 7.31763 32.375 8.87555 32.375 10.5V30.1875C32.375 30.3284 32.409 30.4672 32.4741 30.5921C32.5392 30.717 32.6336 30.8243 32.7491 30.905C34.7408 32.2872 36.2387 34.2697 37.0245 36.5631C37.8103 38.8566 37.8428 41.3411 37.1172 43.6544C36.3916 45.9676 34.946 47.9885 32.9911 49.4223C31.0362 50.8561 28.6743 51.6279 26.25 51.625Z" fill="#003DA6"/>
</svg>
