<svg width="619" height="708" viewBox="0 0 619 708" fill="none" xmlns="http://www.w3.org/2000/svg">
<path d="M579.48 706.984L617.857 676.422V1M579.48 706.984H332.163C326.887 650.346 313.157 528.746 300.486 495.494M579.48 706.984C574.607 387.305 449.121 331.07 300.486 495.494M617.857 1H366.885L329.726 35.8408M617.857 1L580.699 35.8408M300.486 495.494H1.99917C18.2393 475.116 69.6157 428.625 145.151 405.642L257.845 406.155M257.845 406.155L432.064 406.95M257.845 406.155C246.15 384.566 218.043 358.919 205.458 348.796M329.726 35.8408H580.699M329.726 35.8408V66.4028M580.699 35.8408L604.456 558.452M329.726 66.4028H514.91C537.327 102.588 591.871 430.495 604.456 558.452M329.726 66.4028H232.261C238.961 77.4052 252.363 102.711 252.363 115.913M604.456 558.452C587.607 443.135 517.225 142.808 465.568 115.913H252.363M252.363 115.913H188.401C195.711 123.86 221.296 161.145 226.778 175.204M594.1 601.85C570.343 366.852 498.584 183.517 416.226 175.204H226.778M226.778 175.204H123.831C144.335 184.372 192.056 212.856 218.859 253.443M407.698 334.823C529.931 364.185 586.206 481.67 594.1 661.385C587.4 571.532 553.449 260.778 407.698 253.443H218.859M407.698 334.823C389.448 335.484 369.382 339.823 347.391 348.796H205.458M407.698 334.823H226.778M218.859 253.443H73.8798C104.24 256.743 177.315 277.648 226.778 334.823M205.458 348.796H26.9746C33.2733 344.713 46.8332 336.29 58.0417 334.823H226.778" stroke="#003DA6"/>
</svg>
