<svg width="474" height="492" viewBox="0 0 474 492" fill="none" xmlns="http://www.w3.org/2000/svg">
<path d="M374.356 136.724C350.5 103.996 321.079 82.3801 284.854 80.5524H96.0283H95.7593L95.611 80.3279C68.8816 39.8528 21.2564 11.4191 0.795593 2.26992L0.999695 1.31348H293.395H293.405L293.415 1.31386C313.051 2.07904 333.582 15.0581 353.42 37.5166C373.27 59.9884 392.491 92.022 409.506 131.063C443.536 209.148 468.771 315.343 472.52 429.357C472.898 440.863 472.46 464.58 472.159 480.853C472.087 484.788 472.022 488.288 471.979 491.075L470.98 491.101C468.302 452.223 458.09 351.346 430.341 259.284C416.466 213.251 398.217 169.457 374.356 136.724Z" fill="#003DA6" stroke="#003DA6"/>
</svg>
