<svg width="618" height="709" viewBox="0 0 618 709" fill="none" xmlns="http://www.w3.org/2000/svg">
<path d="M578.552 706.984L616.929 676.422V1M578.552 706.984H331.234C325.959 650.346 312.228 528.746 299.558 495.494M578.552 706.984C573.679 387.305 448.192 331.07 299.558 495.494M616.929 1H365.956L328.797 35.8408M616.929 1L579.77 35.8408M299.558 495.494H1.07046C17.3106 475.116 68.687 428.625 144.222 405.642L256.917 406.155M256.917 406.155L431.136 406.95M256.917 406.155C245.221 384.566 217.114 358.919 204.529 348.796M328.797 35.8408H579.77M328.797 35.8408V66.4028M579.77 35.8408L603.527 558.452M328.797 66.4028H513.981C536.398 102.588 590.942 430.495 603.527 558.452M328.797 66.4028H231.332C238.033 77.4052 251.434 102.711 251.434 115.913M603.527 558.452C586.678 443.135 516.296 142.808 464.639 115.913H251.434M251.434 115.913H187.473C194.783 123.86 220.367 161.145 225.85 175.204M593.172 601.85C569.414 366.852 497.656 183.517 415.298 175.204H225.85M225.85 175.204H122.902C143.406 184.372 191.128 212.856 217.931 253.443M406.769 334.823C529.002 364.185 585.277 481.67 593.172 661.385C586.471 571.532 552.52 260.778 406.769 253.443H217.931M406.769 334.823C388.519 335.484 368.453 339.823 346.463 348.796H204.529M406.769 334.823H225.85M217.931 253.443H72.9511C103.311 256.743 176.386 277.648 225.85 334.823M204.529 348.796H26.0459C32.3446 344.713 45.9045 336.29 57.113 334.823H225.85" stroke="#003DA6"/>
<path d="M56.8624 334.916C46.5623 335.345 31.8275 344.751 25.7476 349.401L204.389 348.328C204.389 348.328 224.931 365.433 235.504 377.833C244.639 388.546 256.963 406.265 256.963 406.265H429.703C429.703 406.265 573.475 363.348 577.767 707.221C584.741 699.71 593.324 694.345 593.324 694.345C593.324 694.345 612.1 376.224 406.099 334.916C293.979 334.737 67.1624 334.487 56.8624 334.916Z" fill="#003DA6" stroke="#003DA6" stroke-linecap="round"/>
</svg>
