<svg id="Слой_1" data-name="Слой 1" xmlns="http://www.w3.org/2000/svg" viewBox="0 0 617.4 706.98">
    <defs>
        <style>.cls-1,.cls-2{fill:none;}.cls-1{stroke:#003da6;}</style>
    </defs>
    <path class="cls-1"
          d="M579.48,707l38.38-30.56V1M579.48,707H332.16c-5.27-56.63-19-178.23-31.67-211.49M579.48,707c-4.87-319.68-130.36-375.91-279-211.49M617.86,1h-251L329.73,35.84M617.86,1,580.7,35.84M300.49,495.49H2c16.24-20.37,67.62-66.87,143.15-89.85l112.7.51m0,0,174.21.8m-174.21-.8c-11.7-21.58-39.81-47.23-52.39-57.35m124.27-313h251m-251,0V66.4m251-30.56,23.76,522.61M329.73,66.4H514.91c22.42,36.19,77,364.09,89.55,492.05M329.73,66.4H232.26c6.7,11,20.1,36.31,20.1,49.51m352.1,442.54c-16.85-115.31-87.24-415.64-138.89-442.54H252.36m0,0h-64c7.31,8,32.9,45.24,38.38,59.29M594.1,601.85c-23.76-235-95.52-418.33-177.87-426.65H226.78m0,0H123.83c20.51,9.17,68.23,37.66,95,78.24M407.7,334.82c122.23,29.36,178.51,146.85,186.4,326.57-6.7-89.86-40.65-400.61-186.4-407.95H218.86M407.7,334.82c-18.25.66-38.32,5-60.31,14H205.46m202.24-14H226.78m-7.92-81.38h-145c30.36,3.3,103.44,24.21,152.9,81.38m-21.32,14H27c6.3-4.09,19.86-12.51,31.07-14H226.78"
          transform="translate(-0.96 -0.5)"/>
    <path class="cls-2"
          d="M232.26,66.19s20.39,35.94,20.39,49.36H467.23s23.07,13.94,57.4,110.51,57.4,206,80.47,332.6c0,0-53.11-416.29-90.66-492.47Z"
          transform="translate(-0.96 -0.5)"/>
    <path class="cls-2"
          d="M58.68,334.48c-10.3.43-25,9.83-31.11,14.48l178.64-1.07s20.54,17.11,31.11,29.5c9.14,10.72,21.46,28.44,21.46,28.44H431.52s143.78-42.92,148.07,301a87.16,87.16,0,0,1,15.55-12.87s18.78-318.12-187.22-359.43C295.8,334.3,69,334.05,58.68,334.48Z"
          transform="translate(-0.96 -0.5)"/>
    <path class="cls-2"
          d="M495.68,309.46c-23.69-32.5-52.91-54-88.88-55.78H219l-.14-.22C192.32,213.26,145,185,124.71,175.94l.2-.95H415.3c19.5.76,39.89,13.65,59.59,35.95s38.8,54.13,55.7,92.9c33.79,77.54,58.85,183,62.57,296.23.38,11.42-.06,35-.35,51.14-.08,3.91-.14,7.38-.18,10.15l-1,0c-2.66-38.61-12.8-138.79-40.35-230.22C537.5,385.46,519.38,342,495.68,309.46Z"
          transform="translate(-0.96 -0.5)"/>
</svg>
