<?xml version="1.0" encoding="utf-8"?>
<!-- Generator: Adobe Illustrator 26.0.1, SVG Export Plug-In . SVG Version: 6.00 Build 0)  -->
<svg version="1.1" id="Слой_1" xmlns="http://www.w3.org/2000/svg" xmlns:xlink="http://www.w3.org/1999/xlink" x="0px" y="0px"
	 viewBox="0 0 617.4 707" style="enable-background:new 0 0 617.4 707;" xml:space="preserve">
<style type="text/css">
	.st0{fill:#C0B9A3;}
	.st1{fill:none;stroke:#1B3D96;}
	.st2{display:none;fill:none;stroke:#003DA6;}
	.st3{fill:none;}
	.st4{fill:none;stroke:#003DA6;}
</style>
<path class="st0" d="M365.4,0.5h251l-37.2,34.8h-251L365.4,0.5z"/>
<path class="st0" d="M616.4,0.5v675.4l-9.4,7.5l-4-125.4L579.2,35.3L616.4,0.5z"/>
<path class="st1" d="M579,706.4H331.7c-5.3-56.6-19-178.2-31.7-211.5 M579,706.4c-4.9-319.7-130.4-375.9-279-211.5 M579,706.4
	l29-23.1 M617.4,0.5v675.4l-9.4,7.5 M617.4,0.5h-251l-37.2,34.8 M617.4,0.5l-37.2,34.8 M300,494.9H1.5
	c16.2-20.4,67.6-66.9,143.2-89.9l112.7,0.5 M257.4,405.6l174.2,0.8 M257.4,405.6c-11.7-21.6-39.8-47.2-52.4-57.4 M329.3,35.3h251
	 M329.3,35.3v30.6 M580.2,35.3L604,557.9 M329.3,65.9h185.2c22.4,36.2,77,364.1,89.5,492 M329.3,65.9h-97.5
	c6.7,11,20.1,36.3,20.1,49.5 M604,557.9c-16.8-115.3-87.2-415.6-138.9-442.5H251.9 M604,557.9l4,125.4 M251.9,115.4h-64
	c7.3,7.9,32.9,45.2,38.4,59.3 M593.6,601.3c-23.8-235-95.5-418.3-177.9-426.6H226.3 M226.3,174.7H123.4c20.5,9.2,68.2,37.7,95,78.2
	 M407.2,334.3c-18.2,0.7-38.3,5-60.3,14H205 M407.2,334.3H226.3 M407.2,334.3c92.9,22.3,147.7,95.5,172.1,208.3 M218.4,252.9h188.8
	c104.3,5.2,151.3,165.8,172.1,289.6 M218.4,252.9h-145c30.4,3.3,103.4,24.2,152.9,81.4 M205,348.2H26.5c6.3-4.1,19.9-12.5,31.1-14
	h168.7 M579.4,542.5c8.3,49.3,12.4,92.7,14.3,118.3C591.7,617.7,587.1,578.1,579.4,542.5z"/>
<path class="st2" d="M578.5,706.5l38.4-30.6V0.5 M578.5,706.5H331.2c-5.3-56.6-19-178.2-31.7-211.5 M578.5,706.5
	c-4.9-319.7-130.4-375.9-279-211.5 M616.9,0.5h-251l-37.1,34.8 M616.9,0.5l-37.2,34.8 M299.5,495H1c16.2-20.4,67.6-66.9,143.1-89.9
	l112.7,0.5 M256.9,405.6l174.2,0.8 M256.9,405.6c-11.7-21.6-39.8-47.2-52.4-57.4 M328.8,35.3h251 M328.8,35.3v30.6 M579.8,35.3
	L603.5,558 M328.8,65.9H514c22.4,36.2,77,364.1,89.5,492.1 M328.8,65.9h-97.5c6.7,11,20.1,36.3,20.1,49.5 M603.5,558
	c-16.8-115.3-87.2-415.6-138.9-442.5H251.4 M251.4,115.4h-64c7.3,8,32.9,45.2,38.4,59.3 M593.1,601.3
	c-23.8-235-95.5-418.3-177.9-426.6H225.8 M225.8,174.7H122.9c20.5,9.2,68.2,37.7,95,78.2 M406.7,334.3
	C529,363.7,585.2,481.2,593.1,660.9c-6.7-89.9-40.7-400.6-186.4-408H217.9 M406.7,334.3c-18.2,0.7-38.3,5-60.3,14H204.5
	 M406.7,334.3H225.8 M217.9,252.9h-145c30.4,3.3,103.4,24.2,152.9,81.4 M204.5,348.3H26c6.3-4.1,19.9-12.5,31.1-14h168.7"/>
<path class="st3" d="M231.3,65.7c0,0,20.4,35.9,20.4,49.4h214.6c0,0,23.1,13.9,57.4,110.5s57.4,206,80.5,332.6
	c0,0-53.1-416.3-90.7-492.5L231.3,65.7z"/>
<path class="st3" d="M57.7,334c-10.3,0.4-25,9.8-31.1,14.5l178.6-1.1c0,0,20.5,17.1,31.1,29.5c9.1,10.7,21.5,28.4,21.5,28.4h172.7
	c0,0,143.8-42.9,148.1,301c4.7-4.9,9.9-9.2,15.5-12.9c0,0,18.8-318.1-187.2-359.4C294.8,333.8,68,333.5,57.7,334z"/>
<path class="st3" d="M494.7,309c-23.7-32.5-52.9-54-88.9-55.8H218l-0.1-0.2c-26.5-40.2-73.9-68.5-94.1-77.5l0.2-0.9h290.4
	c19.5,0.8,39.9,13.6,59.6,35.9s38.8,54.1,55.7,92.9c33.8,77.5,58.8,183,62.6,296.2c0.4,11.4-0.1,35-0.3,51.1
	c-0.1,3.9-0.1,7.4-0.2,10.2h-1c-2.7-38.6-12.8-138.8-40.3-230.2C536.5,385,518.4,341.5,494.7,309z"/>
<path class="st4" d="M299.5,495.3c12.7,33.3,26.4,154.9,31.7,211.5h247.3C573.6,387.2,448.1,330.9,299.5,495.3z M299.5,495.3H1
	c16.2-20.4,67.6-66.9,143.2-89.9l112.7,0.5l174.2,0.8"/>
<path class="st4" d="M328.8,35.3h251l23.8,522.6c-12.6-128-67.1-455.9-89.5-492H328.8V35.3z"/>
<path class="st4" d="M406.2,334.3c122.2,29.4,178.5,146.8,186.4,326.6c-6.7-89.9-40.6-400.6-186.4-408H217.4 M406.2,334.3H225.3
	H406.2z M217.4,252.9h-145c30.4,3.3,103.4,24.2,152.9,81.4"/>
</svg>
