<svg width="40" height="40" viewBox="0 0 40 40" fill="none" xmlns="http://www.w3.org/2000/svg">
<path d="M34.8515 11.0156C34.8136 10.9219 34.7535 10.8388 34.6764 10.7734C34.5994 10.708 34.5076 10.6623 34.4089 10.6402C34.3103 10.6181 34.2078 10.6202 34.1101 10.6464C34.0125 10.6726 33.9227 10.7221 33.8484 10.7906L27.314 16.8219L23.9062 16.0937L23.175 12.6891L29.2062 6.15468C29.2751 6.08038 29.3249 5.99045 29.3513 5.89264C29.3777 5.79483 29.3799 5.69207 29.3577 5.59321C29.3356 5.49435 29.2898 5.40235 29.2242 5.32514C29.1586 5.24793 29.0752 5.18782 28.9812 5.14999C26.986 4.34215 24.7926 4.15935 22.6912 4.62578C20.5899 5.09221 18.6797 6.18589 17.2137 7.76199C15.7478 9.3381 14.795 11.3223 14.4817 13.4519C14.1685 15.5815 14.5094 17.756 15.4593 19.6875L5.68745 28.125L5.65464 28.1562C4.83413 28.9768 4.37317 30.0896 4.37317 31.25C4.37317 32.4104 4.83413 33.5232 5.65464 34.3437C6.47516 35.1643 7.58801 35.6252 8.74839 35.6252C9.90877 35.6252 11.0216 35.1643 11.8421 34.3437L11.8734 34.3109L20.3109 24.5391C21.9311 25.3359 23.7277 25.7067 25.531 25.6165C27.3344 25.5262 29.085 24.9779 30.6175 24.0232C32.1501 23.0686 33.4141 21.7391 34.2903 20.1604C35.1664 18.5816 35.6258 16.8056 35.625 15C35.6275 13.6343 35.3648 12.2812 34.8515 11.0156ZM25 24.375C23.4152 24.3752 21.8562 23.9736 20.4687 23.2078C20.3425 23.137 20.1957 23.1121 20.0532 23.1374C19.9107 23.1628 19.7814 23.2368 19.6875 23.3469L10.9375 33.4766C10.343 34.0152 9.56419 34.3046 8.76225 34.2848C7.96032 34.2651 7.19669 33.9377 6.62946 33.3705C6.06224 32.8033 5.73486 32.0396 5.71512 31.2377C5.69537 30.4358 5.98477 29.6569 6.52339 29.0625L16.6515 20.3125C16.7616 20.2185 16.8356 20.0892 16.8609 19.9468C16.8863 19.8043 16.8614 19.6574 16.7906 19.5312C15.8909 17.9043 15.4953 16.0466 15.654 14.1942C15.8127 12.3419 16.5186 10.5786 17.6819 9.12835C18.8452 7.67815 20.4134 6.60657 22.1872 6.04981C23.961 5.49305 25.8603 5.47626 27.6437 6.00156L22.039 12.0766C21.9704 12.1497 21.9203 12.2383 21.8931 12.3348C21.866 12.4314 21.8624 12.533 21.8828 12.6312L22.7671 16.7484C22.7924 16.8661 22.8512 16.9739 22.9362 17.059C23.0213 17.1441 23.1292 17.2028 23.2468 17.2281L27.364 18.1125C27.4622 18.1329 27.5639 18.1293 27.6604 18.1021C27.757 18.0749 27.8456 18.0249 27.9187 17.9562L33.9921 12.3516C34.4022 13.7495 34.481 15.2238 34.2224 16.6575C33.9638 18.0912 33.375 19.445 32.5024 20.6117C31.6299 21.7784 30.4977 22.7258 29.1955 23.379C27.8932 24.0322 26.4568 24.3732 25 24.375Z" fill="#003DA6"/>
</svg>
