<svg width="40" height="40" viewBox="0 0 40 40" fill="none" xmlns="http://www.w3.org/2000/svg">
<path d="M36.25 19.375H33.1094C33.0212 17.4962 32.527 15.6587 31.6609 13.9891L34.3859 12.4156C34.522 12.3291 34.6193 12.1934 34.6577 12.0369C34.696 11.8803 34.6724 11.715 34.5917 11.5754C34.5111 11.4358 34.3796 11.3328 34.2248 11.2879C34.07 11.243 33.9038 11.2597 33.7609 11.3344L31.0344 12.9078C30.0157 11.3283 28.6717 9.98426 27.0922 8.96563L28.6656 6.23906C28.7403 6.09622 28.757 5.93004 28.7121 5.77522C28.6672 5.6204 28.5642 5.48893 28.4246 5.40825C28.285 5.32758 28.1197 5.30395 27.9631 5.34231C27.8066 5.38066 27.6709 5.47802 27.5844 5.61406L26.0109 8.33906C24.3413 7.47298 22.5038 6.97884 20.625 6.89062V3.75C20.625 3.58424 20.5592 3.42527 20.4419 3.30806C20.3247 3.19085 20.1658 3.125 20 3.125C19.8342 3.125 19.6753 3.19085 19.5581 3.30806C19.4408 3.42527 19.375 3.58424 19.375 3.75V6.89062C17.4962 6.97884 15.6587 7.47298 13.9891 8.33906L12.4156 5.61406C12.3291 5.47802 12.1934 5.38066 12.0369 5.34231C11.8803 5.30395 11.715 5.32758 11.5754 5.40825C11.4358 5.48893 11.3328 5.6204 11.2879 5.77522C11.243 5.93004 11.2597 6.09622 11.3344 6.23906L12.9078 8.96563C11.3283 9.98426 9.98426 11.3283 8.96563 12.9078L6.23906 11.3344C6.16793 11.2892 6.08838 11.2588 6.0052 11.2451C5.92203 11.2314 5.83694 11.2347 5.75507 11.2548C5.6732 11.2748 5.59623 11.3112 5.52879 11.3618C5.46135 11.4124 5.40484 11.4761 5.36266 11.549C5.32048 11.622 5.29349 11.7028 5.28333 11.7865C5.27316 11.8701 5.28003 11.955 5.30351 12.036C5.327 12.1169 5.36662 12.1923 5.41999 12.2575C5.47336 12.3228 5.53937 12.3766 5.61406 12.4156L8.33906 13.9891C7.47298 15.6587 6.97884 17.4962 6.89062 19.375H3.75C3.58424 19.375 3.42527 19.4408 3.30806 19.5581C3.19085 19.6753 3.125 19.8342 3.125 20C3.125 20.1658 3.19085 20.3247 3.30806 20.4419C3.42527 20.5592 3.58424 20.625 3.75 20.625H6.89062C6.97884 22.5038 7.47298 24.3413 8.33906 26.0109L5.61406 27.5844C5.49523 27.6533 5.40242 27.7595 5.34998 27.8865C5.29755 28.0134 5.28841 28.1542 5.32399 28.2868C5.35956 28.4195 5.43787 28.5368 5.54679 28.6205C5.65571 28.7043 5.78918 28.7498 5.92656 28.75C6.03643 28.7506 6.14441 28.7214 6.23906 28.6656L8.96563 27.0922C9.98426 28.6717 11.3283 30.0157 12.9078 31.0344L11.3344 33.7609C11.2516 33.9044 11.2292 34.0747 11.272 34.2347C11.3147 34.3946 11.4192 34.5311 11.5625 34.6141C11.7059 34.6968 11.8763 34.7192 12.0362 34.6765C12.1962 34.6337 12.3326 34.5292 12.4156 34.3859L13.9891 31.6609C15.6587 32.527 17.4962 33.0212 19.375 33.1094V36.25C19.375 36.4158 19.4408 36.5747 19.5581 36.6919C19.6753 36.8092 19.8342 36.875 20 36.875C20.1658 36.875 20.3247 36.8092 20.4419 36.6919C20.5592 36.5747 20.625 36.4158 20.625 36.25V33.1094C22.5038 33.0212 24.3413 32.527 26.0109 31.6609L27.5844 34.3859C27.6709 34.522 27.8066 34.6193 27.9631 34.6577C28.1197 34.696 28.285 34.6724 28.4246 34.5917C28.5642 34.5111 28.6672 34.3796 28.7121 34.2248C28.757 34.07 28.7403 33.9038 28.6656 33.7609L27.0922 31.0344C28.6717 30.0157 30.0157 28.6717 31.0344 27.0922L33.7609 28.6656C33.8556 28.7214 33.9636 28.7506 34.0734 28.75C34.2108 28.7498 34.3443 28.7043 34.4532 28.6205C34.5621 28.5368 34.6404 28.4195 34.676 28.2868C34.7116 28.1542 34.7025 28.0134 34.65 27.8865C34.5976 27.7595 34.5048 27.6533 34.3859 27.5844L31.6609 26.0109C32.527 24.3413 33.0212 22.5038 33.1094 20.625H36.25C36.4158 20.625 36.5747 20.5592 36.6919 20.4419C36.8092 20.3247 36.875 20.1658 36.875 20C36.875 19.8342 36.8092 19.6753 36.6919 19.5581C36.5747 19.4408 36.4158 19.375 36.25 19.375ZM20 8.125C23.0401 8.1286 25.9633 9.29665 28.1688 11.3891C30.3743 13.4815 31.6944 16.3393 31.8578 19.375H20.3609L14.6141 9.42187C16.2812 8.5687 18.1273 8.12418 20 8.125ZM8.125 20C8.12632 18.0221 8.62166 16.0758 9.56605 14.338C10.5104 12.6001 11.874 11.1256 13.5328 10.0484L19.2781 20L13.5328 29.9516C11.874 28.8744 10.5104 27.3999 9.56605 25.662C8.62166 23.9242 8.12632 21.9779 8.125 20ZM20 31.875C18.1273 31.8758 16.2812 31.4313 14.6141 30.5781L20.3609 20.625H31.8578C31.6944 23.6607 30.3743 26.5185 28.1688 28.6109C25.9633 30.7033 23.0401 31.8714 20 31.875Z" fill="#003DA6"/>
</svg>
