<svg width="40" height="40" viewBox="0 0 40 40" fill="none" xmlns="http://www.w3.org/2000/svg">
<path d="M31.2499 24.375C30.1188 24.3741 29.0317 24.8135 28.2187 25.6L23.7999 22.1625C24.1773 21.5043 24.3756 20.7587 24.3749 20C24.3749 19.738 24.3513 19.4765 24.3046 19.2188L27.3437 18.2109C27.841 19.2022 28.6954 19.9683 29.7348 20.355C30.7743 20.7417 31.9216 20.7202 32.9459 20.2949C33.9702 19.8696 34.7953 19.0721 35.2551 18.0629C35.715 17.0536 35.7754 15.9077 35.4243 14.8557C35.0732 13.8037 34.3366 12.9238 33.3627 12.3931C32.3889 11.8624 31.2502 11.7203 30.1758 11.9955C29.1014 12.2707 28.1712 12.9426 27.5724 13.8761C26.9735 14.8096 26.7506 15.9353 26.9484 17.0266L23.9062 18.0391C23.5428 17.3142 22.985 16.7046 22.2953 16.2783C21.6055 15.8521 20.8108 15.6259 19.9999 15.625C19.5983 15.6248 19.1987 15.6806 18.8124 15.7906L17.3281 12.4516C18.2201 11.8895 18.8792 11.0243 19.184 10.015C19.4889 9.00574 19.419 7.92032 18.9873 6.95846C18.5555 5.9966 17.791 5.223 16.8342 4.77998C15.8775 4.33696 14.793 4.25433 13.7802 4.5473C12.7674 4.84026 11.8945 5.4891 11.322 6.37446C10.7495 7.25981 10.516 8.32211 10.6645 9.36593C10.8129 10.4097 11.3333 11.3648 12.1298 12.0555C12.9264 12.7462 13.9456 13.126 14.9999 13.125C15.4016 13.1252 15.8012 13.0695 16.1874 12.9594L17.6718 16.2984C17.1784 16.6079 16.7519 17.0129 16.4173 17.4897C16.0828 17.9665 15.847 18.5054 15.7238 19.0746C15.6006 19.6439 15.5926 20.2321 15.7001 20.8045C15.8076 21.3769 16.0286 21.9221 16.3499 22.4078L11.5624 26.6578C10.7178 25.9439 9.63408 25.5764 8.52938 25.6292C7.42468 25.682 6.38098 26.1512 5.60826 26.9424C4.83555 27.7337 4.39118 28.7882 4.36455 29.8939C4.33793 30.9995 4.73103 32.0742 5.46476 32.9017C6.19849 33.7292 7.2184 34.2481 8.31927 34.3541C9.42015 34.46 10.5203 34.145 11.3983 33.4726C12.2764 32.8002 12.8672 31.8201 13.0519 30.7297C13.2365 29.6393 13.0014 28.5194 12.3937 27.5953L17.1749 23.3453C18.0004 24.0441 19.056 24.4114 20.137 24.3759C21.2179 24.3404 22.2471 23.9046 23.0249 23.1531L27.4437 26.5906C26.9691 27.427 26.7832 28.3964 26.9149 29.349C27.0465 30.3016 27.4884 31.1843 28.1721 31.8605C28.8558 32.5368 29.7432 32.9689 30.6972 33.0901C31.6512 33.2113 32.6185 33.0148 33.4496 32.5311C34.2807 32.0473 34.9293 31.3031 35.295 30.4138C35.6607 29.5244 35.7231 28.5392 35.4727 27.6108C35.2223 26.6823 34.673 25.8622 33.9097 25.2773C33.1464 24.6924 32.2116 24.3753 31.2499 24.375ZM31.2499 13.125C31.868 13.125 32.4722 13.3083 32.9861 13.6517C33.5 13.995 33.9005 14.4831 34.1371 15.0541C34.3736 15.6251 34.4355 16.2535 34.3149 16.8597C34.1943 17.4658 33.8967 18.0227 33.4597 18.4597C33.0226 18.8967 32.4658 19.1944 31.8596 19.315C31.2534 19.4355 30.6251 19.3736 30.0541 19.1371C29.483 18.9006 28.995 18.5001 28.6516 17.9862C28.3082 17.4723 28.1249 16.8681 28.1249 16.25C28.1249 15.4212 28.4542 14.6263 29.0402 14.0403C29.6263 13.4542 30.4211 13.125 31.2499 13.125ZM11.8749 8.75C11.8749 8.13193 12.0582 7.52775 12.4016 7.01384C12.745 6.49994 13.233 6.0994 13.8041 5.86288C14.3751 5.62635 15.0034 5.56447 15.6096 5.68505C16.2158 5.80563 16.7726 6.10325 17.2097 6.54029C17.6467 6.97733 17.9443 7.53415 18.0649 8.14034C18.1855 8.74653 18.1236 9.37487 17.8871 9.94589C17.6505 10.5169 17.25 11.005 16.7361 11.3483C16.2222 11.6917 15.618 11.875 14.9999 11.875C14.1711 11.875 13.3763 11.5458 12.7902 10.9597C12.2042 10.3737 11.8749 9.5788 11.8749 8.75ZM8.74995 33.125C8.13188 33.125 7.52769 32.9417 7.01379 32.5983C6.49989 32.255 6.09935 31.7669 5.86282 31.1959C5.6263 30.6249 5.56441 29.9965 5.68499 29.3903C5.80557 28.7842 6.1032 28.2273 6.54024 27.7903C6.97728 27.3533 7.5341 27.0556 8.14029 26.935C8.74648 26.8145 9.37481 26.8764 9.94583 27.1129C10.5169 27.3494 11.0049 27.7499 11.3483 28.2638C11.6917 28.7777 11.8749 29.3819 11.8749 30C11.8749 30.8288 11.5457 31.6237 10.9597 32.2097C10.3736 32.7958 9.57875 33.125 8.74995 33.125ZM19.9999 23.125C19.3819 23.125 18.7777 22.9417 18.2638 22.5983C17.7499 22.255 17.3493 21.7669 17.1128 21.1959C16.8763 20.6249 16.8144 19.9965 16.935 19.3903C17.0556 18.7842 17.3532 18.2273 17.7902 17.7903C18.2273 17.3533 18.7841 17.0556 19.3903 16.935C19.9965 16.8145 20.6248 16.8764 21.1958 17.1129C21.7669 17.3494 22.2549 17.7499 22.5983 18.2638C22.9417 18.7777 23.1249 19.3819 23.1249 20C23.1249 20.8288 22.7957 21.6237 22.2097 22.2097C21.6236 22.7958 20.8287 23.125 19.9999 23.125ZM31.2499 31.875C30.6319 31.875 30.0277 31.6917 29.5138 31.3483C28.9999 31.005 28.5993 30.5169 28.3628 29.9459C28.1263 29.3749 28.0644 28.7465 28.185 28.1403C28.3056 27.5342 28.6032 26.9773 29.0402 26.5403C29.4773 26.1033 30.0341 25.8056 30.6403 25.685C31.2465 25.5645 31.8748 25.6264 32.4458 25.8629C33.0169 26.0994 33.5049 26.4999 33.8483 27.0138C34.1917 27.5277 34.3749 28.1319 34.3749 28.75C34.3749 29.5788 34.0457 30.3737 33.4597 30.9597C32.8736 31.5458 32.0787 31.875 31.2499 31.875Z" fill="#003DA6"/>
</svg>
