<svg width="32" height="32" viewBox="0 0 32 32" fill="none" xmlns="http://www.w3.org/2000/svg">
<path d="M30.4538 5.015C30.4463 4.8929 30.3944 4.77776 30.3078 4.69138C30.2212 4.605 30.1059 4.55336 29.9838 4.54625C23.7025 4.17125 18.6788 6.05875 16.5438 9.5825C15.0888 11.985 15.1475 14.8225 16.6988 17.6087C15.604 18.8113 14.8811 20.3053 14.6175 21.91L11.6813 18.9737C12.76 16.9737 12.7825 14.9325 11.7338 13.2C10.1813 10.6362 6.54376 9.26625 2.00001 9.5325C1.87853 9.54017 1.76403 9.59189 1.67796 9.67795C1.59189 9.76402 1.54018 9.87853 1.53251 10C1.26626 14.5413 2.63626 18.1788 5.20001 19.7313C6.02284 20.2364 6.96949 20.5038 7.93501 20.5037C9.00075 20.4856 10.0452 20.2021 10.9738 19.6787L14.5 23.2087C14.5 23.2437 14.5 23.2787 14.5 23.3137V27C14.5 27.1326 14.5527 27.2598 14.6465 27.3536C14.7402 27.4473 14.8674 27.5 15 27.5C15.1326 27.5 15.2598 27.4473 15.3536 27.3536C15.4473 27.2598 15.5 27.1326 15.5 27V23.3137C15.4953 21.4678 16.1764 19.6859 17.4113 18.3137C18.8475 19.1087 20.295 19.5088 21.6913 19.5088C23.0066 19.509 24.2963 19.1451 25.4175 18.4575C28.94 16.3212 30.8238 11.2975 30.4538 5.015ZM5.71751 18.875C3.55876 17.57 2.37501 14.4613 2.51001 10.51C6.46126 10.375 9.57001 11.5587 10.875 13.7175C11.685 15.0562 11.6988 16.6387 10.9325 18.2287L7.35251 14.6462C7.25739 14.5601 7.13278 14.5138 7.00447 14.5169C6.87616 14.5201 6.75398 14.5725 6.66323 14.6632C6.57247 14.754 6.52009 14.8762 6.51693 15.0045C6.51377 15.1328 6.56008 15.2574 6.64626 15.3525L10.23 18.9363C8.63876 19.7025 7.05626 19.6887 5.71751 18.875ZM24.8988 17.6C22.8925 18.815 20.5125 18.7987 18.1388 17.5687L25.3538 10.3525C25.4437 10.258 25.4931 10.1322 25.4915 10.0018C25.49 9.87145 25.4376 9.74683 25.3454 9.65455C25.2533 9.56226 25.1288 9.50962 24.9984 9.50784C24.868 9.50605 24.7421 9.55527 24.6475 9.645L17.4313 16.8612C16.2013 14.4862 16.1813 12.1112 17.4 10.1012C19.2888 6.97625 23.785 5.285 29.4788 5.52125C29.7163 11.215 28.0188 15.7112 24.8988 17.6Z" fill="#003DA6"/>
</svg>
