<svg width="32" height="32" viewBox="0 0 32 32" fill="none" xmlns="http://www.w3.org/2000/svg">
<path d="M25.5 11.55V11C25.5 8.48044 24.4991 6.06408 22.7175 4.28249C20.9359 2.50089 18.5195 1.5 16 1.5C13.4804 1.5 11.064 2.50089 9.28244 4.28249C7.50085 6.06408 6.49995 8.48044 6.49995 11V11.55C5.89238 11.6734 5.35232 12.0181 4.98461 12.5173C4.61691 13.0164 4.44779 13.6344 4.5101 14.2512C4.57241 14.8681 4.86169 15.4398 5.32179 15.8553C5.78189 16.2709 6.37998 16.5006 6.99995 16.5H7.70995L15.5662 30.25C15.61 30.3264 15.6732 30.3898 15.7493 30.4339C15.8255 30.478 15.9119 30.5013 16 30.5013C16.088 30.5013 16.1744 30.478 16.2506 30.4339C16.3268 30.3898 16.3899 30.3264 16.4337 30.25L24.29 16.5H25C25.6199 16.5006 26.218 16.2709 26.6781 15.8553C27.1382 15.4398 27.4275 14.8681 27.4898 14.2512C27.5521 13.6344 27.383 13.0164 27.0153 12.5173C26.6476 12.0181 26.1075 11.6734 25.5 11.55ZM16 28.9925L8.8612 16.5H12.4237L17.7812 25.875L16 28.9925ZM17.1387 16.5L20.1387 21.75L18.3575 24.8675L13.5762 16.5H17.1387ZM20.7137 20.7425L18.29 16.5H23.1387L20.7137 20.7425ZM25 15.5H6.99995C6.60213 15.5 6.2206 15.342 5.93929 15.0607C5.65799 14.7794 5.49995 14.3978 5.49995 14C5.49995 13.6022 5.65799 13.2206 5.93929 12.9393C6.2206 12.658 6.60213 12.5 6.99995 12.5C7.13256 12.5 7.25974 12.4473 7.35351 12.3536C7.44728 12.2598 7.49995 12.1326 7.49995 12V11C7.49995 8.74566 8.39549 6.58365 9.98955 4.98959C11.5836 3.39553 13.7456 2.5 16 2.5C18.2543 2.5 20.4163 3.39553 22.0104 4.98959C23.6044 6.58365 24.5 8.74566 24.5 11V12C24.5 12.1326 24.5526 12.2598 24.6464 12.3536C24.7402 12.4473 24.8673 12.5 25 12.5C25.3978 12.5 25.7793 12.658 26.0606 12.9393C26.3419 13.2206 26.5 13.6022 26.5 14C26.5 14.3978 26.3419 14.7794 26.0606 15.0607C25.7793 15.342 25.3978 15.5 25 15.5Z" fill="#003DA6"/>
</svg>
