<svg width="32" height="32" viewBox="0 0 32 32" fill="none" xmlns="http://www.w3.org/2000/svg">
<path d="M21.375 6.2975C19.8578 4.54433 18.1502 2.96544 16.2838 1.59C16.1998 1.53139 16.0999 1.49995 15.9975 1.49995C15.8951 1.49995 15.7952 1.53139 15.7113 1.59C13.8465 2.96573 12.1406 4.54461 10.625 6.2975C7.27125 10.1513 5.5 14.1975 5.5 18C5.5 20.7848 6.60625 23.4555 8.57538 25.4246C10.5445 27.3938 13.2152 28.5 16 28.5C18.7848 28.5 21.4555 27.3938 23.4246 25.4246C25.3938 23.4555 26.5 20.7848 26.5 18C26.5 14.1975 24.7287 10.1513 21.375 6.2975ZM16 27.5C13.4813 27.4974 11.0664 26.4956 9.28541 24.7146C7.50439 22.9336 6.50265 20.5187 6.5 18C6.5 13.5125 9.14375 9.525 11.3625 6.97C12.7597 5.3708 14.3133 3.91524 16 2.625C17.687 3.91681 19.2405 5.37406 20.6375 6.975C22.8563 9.525 25.5 13.5125 25.5 18C25.4974 20.5187 24.4956 22.9336 22.7146 24.7146C20.9336 26.4956 18.5187 27.4974 16 27.5ZM22.4925 19.0838C22.252 20.4303 21.6044 21.6708 20.6371 22.6379C19.6697 23.605 18.4291 24.2523 17.0825 24.4925C17.0553 24.4975 17.0277 24.5 17 24.5C16.8752 24.4991 16.7553 24.4515 16.6637 24.3667C16.5722 24.2818 16.5158 24.1658 16.5054 24.0414C16.4951 23.9171 16.5316 23.7933 16.6079 23.6945C16.6841 23.5957 16.7946 23.529 16.9175 23.5075C19.19 23.125 21.1212 21.1938 21.5075 18.9163C21.5344 18.7901 21.609 18.6792 21.7158 18.6067C21.8225 18.5343 21.9532 18.5059 22.0803 18.5275C22.2075 18.5491 22.3214 18.6191 22.3983 18.7228C22.4751 18.8264 22.5088 18.9558 22.4925 19.0838Z" fill="#003DA6"/>
</svg>
