<svg width="263" height="140" fill="none" xmlns="http://www.w3.org/2000/svg"><g clip-path="url(#clip0_66_570)" fill="#D4D4D4"><path d="M128.538 137.943c-12.536-.458-25.414-3.523-38.58-9.184-5.358-2.304-11.024-5.157-16.79-8.456-3.804-2.175-12.51-7.518-12.994-7.974-.305-.287-.425-.556-.425-.957 0-.741.532-1.271 1.274-1.27.385.001.478.041 1.388.606 3.648 2.268 8.695 4.837 13.612 6.929 22.901 9.744 50.033 13.166 76.078 9.594 17.786-2.439 34.883-8.146 48.219-16.096 1.924-1.147 2.102-1.207 2.678-.909.796.411.969 1.418.349 2.035-.244.242-.543.434-4.921 3.16-11.675 7.268-21.101 12.067-30.915 15.739-13.201 4.938-26.43 7.241-38.973 6.783z"/><path fill-rule="evenodd" clip-rule="evenodd" d="M0 56.283s.247.779.486 2.993C.772 64.79.787 69.363.82 74.46c.066 3.936.027 7.772-.006 11.465-.023 2.502-.04 3.865-.04 6.14 0 6.767-.536 11.51-.536 11.51s4.99 1.076 12.52 1.076c7.535 0 15.528-2.614 20.14-6.536 4.612-3.922 8.762-9.536 8.762-19.61 0-10.073-4.304-15.61-9.991-19.223-5.689-3.616-14.374-4.306-21.062-4-6.686.309-10.376 1-10.607 1zm261.948 37.91l-10.062-2.382c-2.64 2.613-5.492 3.911-9.155 3.844-7.542-.139-11.29-4.586-12.683-11.92h32.435c.461-2.614.612-5.383.46-7.997-.309-5.28-1.93-10.14-5.227-14.302-3.264-4.12-8.879-6.281-15.822-6.23-6.519.05-11.847 2.285-16.065 6.768-3.964 4.212-6.337 10.635-6.227 18.993.106 7.94 2.126 13.851 7.072 18.687 3.443 3.366 8.072 5.165 14.143 5.152 11.569-.35 16.376-4.08 21.131-10.612zm-8.236-18.608h-23.283c.41-6.025 5.924-11.636 11.765-11.608 6.046.028 11.239 4.354 11.518 11.608zM151.614 64.323c7.699 0 13.944 6.973 13.944 15.573 0 8.599-6.245 15.573-13.944 15.573-7.698 0-13.943-6.974-13.943-15.573 0-8.6 6.245-15.573 13.943-15.573zm.299-9.323c12.921 0 23.398 11.231 23.398 24.895 0 13.665-10.777 24.746-23.697 24.746-12.919 0-23.397-11.081-23.397-24.746 0-13.664 10.778-24.895 23.696-24.895zm25.426 47.961h10.445V71.355c9.557 8.382 16.6 18.918 20.827 31.606l8.973.053V56.59h-10.002l-.011 22.744c-3.131-5.239-6.966-9.547-10.736-13.262-3.775-3.72-6.842-6.87-10.665-9.482h-8.831v46.371zm-91.251 0h10.146V71.355c9.557 8.382 16.451 18.918 20.678 31.606h9.069V56.59h-10.147v22.374c-5.895-8.498-13.038-16.131-21.213-22.374h-8.533v46.371zM57.11 56.59h9.839c9.554 10.574 15.401 25.954 17.371 46.37H73.636c-.277-3.546-.71-6.805-1.298-10.077H51.245a98.057 98.057 0 00-1.283 10.077H39.585c1.872-20.54 8.143-36.432 17.526-46.371zm13.258 27.608c-2.293-7.329-5.024-13.358-8.72-18.918-3.672 5.582-6.544 11.875-8.574 18.918H70.37zm-59.673-19.84s2.063-.078 4.6-.078c2.538 0 8.08.462 12.152 4.46 4.074 4 4.151 8.536 4.151 11.69 0 3.152-1.083 9.996-7.771 13.071-6.686 3.078-13.209 1.924-13.209 1.924l.077-31.068z"/></g><defs><clipPath id="clip0_66_570"><path fill="#fff" transform="translate(0 55)" d="M0 0h263v83H0z"/></clipPath></defs></svg>