<svg width="266" height="140" fill="none" xmlns="http://www.w3.org/2000/svg"><g clip-path="url(#clip0_66_587)" fill="#D4D4D4"><path d="M8.785 86.759h15.006a9.663 9.663 0 00-4.399-5.228 14.837 14.837 0 00-7.503-1.793 13.977 13.977 0 00-4.232.679 13.789 13.789 0 00-4.066 2.1L.256 75.985a18.154 18.154 0 015.387-3.114 22.917 22.917 0 018.375-1.358 20.348 20.348 0 017.696 1.423 18.148 18.148 0 016.105 4.01 18.217 18.217 0 014.04 6.214 21.685 21.685 0 011.449 8.097 22.783 22.783 0 01-1.45 8.212 16.724 16.724 0 01-4.09 6.214 18.26 18.26 0 01-6.414 3.844A24.746 24.746 0 0112.826 111a23.992 23.992 0 01-4.015-.32 26.017 26.017 0 01-3.578-.961 18.65 18.65 0 01-3.027-1.281A10.157 10.157 0 010 106.976l3.707-7.354a14.114 14.114 0 003.847 2.203 13.58 13.58 0 005.207.949 15.583 15.583 0 003.707-.436 11.138 11.138 0 003.322-1.384 10.245 10.245 0 002.668-2.421 9.709 9.709 0 001.692-3.6H8.76l.025-8.174zM37 72.166h8.735V88.82l12.492-16.655h10.478l-14.364 17.59 15.493 20.5H58.765l-13.043-18.09v18.141H37v-38.14z"/><path d="M65.666 91.23a20.235 20.235 0 011.475-7.687 18.676 18.676 0 0110.504-10.468 21.827 21.827 0 018.286-1.575c2.748-.028 5.48.432 8.067 1.358a18.69 18.69 0 016.413 3.92 17.858 17.858 0 014.258 6.214 21.158 21.158 0 011.526 8.225 20.394 20.394 0 01-1.526 7.982 18.489 18.489 0 01-4.258 6.24 19.336 19.336 0 01-6.413 4.061 22.08 22.08 0 01-8.067 1.499 23.24 23.24 0 01-8.067-1.358 18.635 18.635 0 01-6.413-3.921 17.798 17.798 0 01-4.258-6.252 21.122 21.122 0 01-1.527-8.238zm9.273 0a11.931 11.931 0 00.872 4.574 11.783 11.783 0 002.347 3.664 10.478 10.478 0 003.489 2.422c1.36.584 2.828.881 4.31.871 1.635.035 3.26-.271 4.77-.897a9.884 9.884 0 003.438-2.396 10.349 10.349 0 002.103-3.677 14.18 14.18 0 00.705-4.523 12.814 12.814 0 00-.846-4.74 10.889 10.889 0 00-2.347-3.715 10.262 10.262 0 00-3.514-2.345 11.377 11.377 0 00-4.335-.782 11.657 11.657 0 00-4.425.82 10.014 10.014 0 00-3.463 2.307 10.735 10.735 0 00-2.296 3.651 13.097 13.097 0 00-.808 4.766zm57.663 3.703H118.7v15.374h-8.735V72.166h8.735V86.77h13.915V72.166h8.721v38.141h-8.721l-.013-15.374zm13.096 15.374V72.166h8.734v23.702l16.904-23.702h7.694v38.141h-8.732V86.656l-16.905 23.702-7.695-.051zm78.326-38.141h7.785l15.852 38.141h-9.273l-3.168-8.007h-15.147l-3.168 8.007h-8.72l15.839-38.141zm-.667 21.96h8.58l-4.272-10.788-4.308 10.788zM37 29.656h28.922v8.174h-20.2v6.7h18.559v8.174H45.722v6.919h20.739v8.174H36.962l.039-38.141zm33.963 0h8.735V46.31L92.19 29.656h10.414l-14.3 17.603 15.493 20.5H92.728L79.685 49.654v18.142h-8.722v-38.14z"/><path d="M101.013 48.733a20.211 20.211 0 011.475-7.688 18.698 18.698 0 0110.503-10.519 21.83 21.83 0 018.324-1.524 23.29 23.29 0 018.068 1.358 18.686 18.686 0 016.412 3.92 17.863 17.863 0 014.284 6.253 21.156 21.156 0 011.526 8.225 20.358 20.358 0 01-1.526 7.982 18.476 18.476 0 01-4.258 6.24 19.312 19.312 0 01-6.413 4.06 22.068 22.068 0 01-8.067 1.449 23.252 23.252 0 01-8.067-1.359 18.653 18.653 0 01-6.413-3.92 17.81 17.81 0 01-4.258-6.252 21.112 21.112 0 01-1.59-8.225zm9.272 0a11.93 11.93 0 00.873 4.612 11.769 11.769 0 002.347 3.677 10.478 10.478 0 003.488 2.422c1.361.584 2.828.88 4.309.87a11.79 11.79 0 004.772-.896 9.899 9.899 0 003.463-2.486 10.356 10.356 0 002.103-3.677c.478-1.46.716-2.987.705-4.522a12.81 12.81 0 00-.846-4.74 10.897 10.897 0 00-2.347-3.652 10.262 10.262 0 00-3.527-2.37 11.374 11.374 0 00-4.31-.82 11.651 11.651 0 00-4.424.82 10.021 10.021 0 00-3.489 2.344 10.726 10.726 0 00-2.296 3.651 13.087 13.087 0 00-.808 4.767h-.013zm61.703 19.064l-18.082-22.882v22.882h-8.208V29.656h6.925l18.112 22.997V29.656h8.181v38.14h-6.928zm11.339-38.141h8.72v38.14h-8.72v-38.14zm58.242 0h7.785l15.851 38.14h-9.272l-3.169-8.045h-15.146l-3.169 8.008h-8.72l15.84-38.103zm-.668 21.96h8.58l-4.258-10.788-4.322 10.787zm-14.633-21.96l-11.184 26.918-11.186-26.918h-9.337l15.853 38.14h9.337l15.854-38.14h-9.337zm-42.941 42.612l2.128-.102 2.887-.115 3.27-.077h3.271a20.42 20.42 0 015.861.73c1.45.4 2.805 1.084 3.988 2.011a7.604 7.604 0 012.272 2.973 9.78 9.78 0 01.703 3.702 10.395 10.395 0 01-1.115 5.036 9.801 9.801 0 01-3.244 3.459V90a8.001 8.001 0 012.013 1.115 8.254 8.254 0 011.745 1.793 8.98 8.98 0 011.282 2.563c.324 1.067.478 2.178.461 3.292a11.608 11.608 0 01-1.077 5.189 10.135 10.135 0 01-3.054 3.677 13.314 13.314 0 01-4.603 2.178c-1.88.487-3.815.724-5.757.705h-6.03l-2.807-.077c-.875 0-1.578-.09-2.132-.166l-.062-38zm11.453 7.841h-1.386l-1.281.167v6.918h2.833a4.898 4.898 0 002.862-.82 3.289 3.289 0 001.167-2.882 2.855 2.855 0 00-.3-1.453 2.854 2.854 0 00-.983-1.11 5.238 5.238 0 00-2.912-.82zm-2.733 14.773v7.149c.295.076.642.14 1.066.217.623.085 1.255.119 1.885.103a5.795 5.795 0 003.846-1.063 3.665 3.665 0 001.285-2.973 2.913 2.913 0 00-.302-1.45 2.91 2.91 0 00-.983-1.112 6.118 6.118 0 00-3.385-.82l-3.412-.052z"/></g><defs><clipPath id="clip0_66_587"><path fill="#fff" transform="translate(0 29)" d="M0 0h266v82H0z"/></clipPath></defs></svg>