<svg width="32" height="32" fill="none" xmlns="http://www.w3.org/2000/svg"><path d="M14.455 20.318c-.78 1.342-1.166 2.475-1.166 3.694 0 1.276.453 2.294 1.253 2.98H1.91L17.105 1l4.335 7.426-6.976 11.892h-.01z" fill="#54C0E8"/><path d="M26.036 16.271h-7.082l2.361 4.037c.78 1.342 1.166 2.475 1.166 3.694 0 2.6-1.946 4.094-4.596 4.094-1.522 0-2.611-.486-3.344-1.114C15.996 30 18.155 31 21.277 31c1.377 0 2.669-.162 3.796-.629 2.447-.99 4.124-3.084 4.124-5.96 0-2.132-.983-4.465-1.667-5.579l-1.503-2.552.01-.009z" fill="#003DA6"/></svg>