<svg width="440" height="140" fill="none" xmlns="http://www.w3.org/2000/svg"><g clip-path="url(#clip0_66_596)"><path d="M120.823 66.82c2.366 0 2.366-3.149 0-3.149h-12.389c-2.366 0-3.619-1.231-3.758-2.6 0-1.369 1.113-2.6 3.758-2.464h16.425c5.846 0 9.883 3.011 9.605 9.992-.279 7.117-4.455 9.17-9.883 9.17h-8.213c-2.366 0-2.366 3.56 0 3.56h12.945c2.228 0 4.594 0 4.594 2.463 0 1.369-.557 2.6-4.594 2.6H112.61c-5.846 0-10.022-3.147-9.744-10.265.279-7.254 4.454-9.307 10.161-9.307h7.796zm209.212 2.737c0-8.897-3.48-10.813-10.44-10.95-2.923 0-7.516 0-8.908 3.559h-.14c-.556-3.148-5.15-3.696-9.743-3.833-4.594 0-9.048.822-9.466 3.559h-.139c-.417-2.053-1.531-3.285-3.48-3.422h-5.707c-.974 0-1.809.821-1.809 1.78v24.09c0 .958.835 1.78 1.809 1.78h7.795c.975 0 1.81-.822 1.81-1.78V65.588c0-1.37.696-1.78 1.67-1.78h1.67c2.088 0 3.202.958 3.62 2.19a6.12 6.12 0 01.417 2.19v16.289c0 .958.835 1.779 1.81 1.779h7.934c.974 0 1.809-.821 1.809-1.78V65.589c0-1.37.696-1.78 1.671-1.78h1.67c2.227 0 3.202 1.095 3.619 2.464.279.684.279 1.506.279 2.19v16.151c0 .959.835 1.78 1.809 1.78h7.934c.975 0 1.81-.821 1.81-1.78.696-5.064.696-9.992.696-15.056zM206.289 83.245l-9.187-21.216c-.835-1.916-.696-3.422-3.758-3.422h-8.909c-1.392 0-2.505.274-3.34 2.327l-1.392 3.422-7.795 19.3c-.696 1.779-1.114 2.874.556 2.737h3.898c1.253 0 1.392-.958 1.67-1.78l5.429-14.371 1.392-3.56 7.516 17.384c.557 1.369 1.532 2.464 3.063 2.464h9.326c1.253 0 1.81-.41 2.088-.822.418-.82-.139-1.779-.557-2.463zM440 68.599c0-7.665-3.202-9.992-8.352-9.992h-20.323c-2.644 0-3.758 1.232-3.758 2.738 0 1.368 1.392 2.737 3.758 2.737h13.92c1.253 0 1.949.684 1.949 1.78v1.779h-11.832c-5.429 0-9.604 2.19-9.744 9.034-.139 6.844 3.759 9.855 9.466 9.855h7.795c2.923 0 4.315-.685 4.872-3.148h.139c.278 2.463 1.809 3.148 4.454 3.148h5.846c.975 0 1.81-.822 1.81-1.916V68.599zm-12.806 9.034c0 2.6-.139 3.422-2.367 3.422h-3.479c-3.898 0-3.898-7.94.139-7.94h5.568v4.518h.139z" fill="#D4D4D4"/><path fill-rule="evenodd" clip-rule="evenodd" d="M335.046 58.607h9.048c.974 0 1.809.821 1.809 1.78V75.58c0 2.6.557 5.338 5.011 5.338h2.088c.975 0 1.671-.548 1.671-1.643V60.523c0-.958.835-1.78 1.809-1.78h9.048c.974 0 1.81.822 1.81 1.78v24.09c0 .959-.836 1.917-1.81 1.917h-6.821c-2.088 0-2.923-.685-3.48-2.875h-.139c-.696 1.78-1.67 2.875-3.48 2.875h-10.3c-5.846 0-8.352-3.97-8.352-9.855V60.523c.278-1.095 1.114-1.916 2.088-1.916z" fill="#D4D4D4"/><path d="M241.228 82.15V68.599c0-7.665-3.202-9.992-8.352-9.992h-20.184c-2.644 0-3.758 1.232-3.758 2.738 0 1.368 1.392 2.737 3.758 2.737h13.92c1.253 0 1.949.684 1.949 1.78v1.779h-11.832c-5.429 0-9.605 2.19-9.744 9.034-.278 6.844 3.759 9.855 9.466 9.855h7.795c2.923 0 4.315-.685 4.871-3.148h.14c.278 2.463 1.809 3.148 4.454 3.148h5.846c.975 0 1.81-.822 1.81-1.916V82.15h-.139zm-12.667-4.517c0 2.6-.14 3.422-2.367 3.422h-3.48c-3.897 0-3.897-7.94.14-7.94h5.568v4.518h.139zm-58.602 4.517V68.599c0-7.665-3.202-9.992-8.352-9.992h-20.183c-2.645 0-3.759 1.232-3.759 2.738 0 1.368 1.392 2.737 3.759 2.737h13.919c1.253 0 1.949.684 1.949 1.78v1.779H145.46c-5.428 0-9.604 2.19-9.743 9.034-.279 6.844 3.758 9.855 9.465 9.855h7.795c2.923 0 4.315-.685 4.872-3.148h.139c.279 2.463 1.81 3.148 4.454 3.148h5.847c.974 0 1.809-.822 1.809-1.916V82.15h-.139zm-12.806-4.517c0 2.6-.139 3.422-2.366 3.422h-3.48c-3.898 0-3.898-7.94.139-7.94h5.568v4.518h.139zm120.962 5.201l-11.136-15.33 7.934-7.254c1.392-1.232.975-2.054-.557-2.054h-4.871c-1.253 0-1.81.411-2.506 1.095l-9.883 8.76v-7.528c0-.958-.835-1.78-1.809-1.78h-9.048c-.975 0-1.81.822-1.81 1.78v24.09c0 .959.835 1.78 1.81 1.78h9.048c.974 0 1.809-.821 1.809-1.78V74.486l6.125 8.76c1.392 2.053 2.644 3.148 5.011 3.148h7.934c1.67 0 2.506-.137 2.923-.958.418-.822-.278-1.506-.974-2.6zm126.668 0l-11.136-15.33 7.935-7.254c1.392-1.232.974-2.054-.557-2.054h-4.872c-1.253 0-1.81.411-2.506 1.095l-9.882 8.76v-7.528c0-.958-.836-1.78-1.81-1.78h-8.909c-.974 0-1.948.822-1.948 1.917v24.09c0 .959.835 1.78 1.809 1.78h9.048c.974 0 1.81-.822 1.81-1.78V74.621l6.124 8.76c1.392 2.054 2.645 3.149 5.011 3.149h7.934c1.671 0 2.506-.137 2.924-.958.417-.959-.14-1.643-.975-2.738z" fill="#D4D4D4"/><path d="M81.151 49.573c-3.48-4.79-6.542-8.486-11.553-12.73-2.227-1.779-4.454-1.505-5.707-.41l-.835-.821-.696-.684c-.835-.822-2.784-2.875-5.429-1.78-.417.137-.835.548-1.113.821-.14-.273-.418-.547-.418-.547-1.114-1.506-2.227-3.148-4.593-2.874-.836 0-1.393.41-1.95.82-.695-.684-1.67-1.368-3.062-1.368-.556 0-1.113.137-1.53.547A2.706 2.706 0 0042.593 30c-1.392 0-2.366.547-3.062 1.369-.557-.41-1.114-.822-1.95-.822-2.365-.136-3.618 1.506-4.593 2.875 0 0-.139.274-.417.547-.279-.41-.696-.684-1.253-.82-2.505-1.096-4.593 1.094-5.429 1.779l-.696.684-.835.821c-1.113-1.095-3.34-1.369-5.568.41-5.15 4.244-8.073 7.803-11.553 12.73C2.227 56.691-.696 63.672.278 76.264c1.531 17.794 16.008 33.672 34.382 37.641 6.681 1.232 13.92 1.369 19.07.274 18.374-3.97 32.71-19.847 34.381-37.778.974-12.73-1.949-19.71-6.96-26.828z" fill="#fff"/><path fill-rule="evenodd" clip-rule="evenodd" d="M8.908 50.805c3.48-4.79 6.264-8.35 11.136-12.182 2.227-1.916 4.454-.684 2.227 1.643-2.505 2.327-6.96 6.843-12.249 16.425-.557.958.557 1.642.835.821 2.088-4.106 6.264-10.129 10.44-14.92a103.033 103.033 0 005.429-5.748c.139-.137.417-.274.556-.548.835-.821 1.95-1.78 3.063-1.368 1.113.547.974 1.642 0 2.737-1.81 2.464-4.176 4.79-5.986 7.118-3.619 4.517-7.099 9.17-10.3 15.33-.557 1.095.696 1.505.974.82 3.202-5.885 9.465-15.055 14.198-20.12 1.67-1.78 3.062-3.559 4.176-4.927 1.67-2.053 2.227-3.56 3.898-3.422 2.087.137 1.392 3.148-2.506 8.212-5.985 6.844-12.528 16.015-16.425 23.543-.557 1.095.557 1.643.835.958 3.062-5.886 8.213-13.003 12.388-18.615 1.95-2.6 4.037-5.064 5.15-6.707 1.532-2.19 2.506-4.243 3.341-5.886.557-1.095 1.114-1.916 2.367-1.916s1.253 1.369 1.253 2.327c-.14 1.506-.697 3.285-1.81 5.612-.696 1.506-2.088 3.559-3.758 6.023-6.264 8.623-10.997 16.288-13.78 23.132-1.81 4.653-3.341 9.17-3.341 13.413-.279 11.361 7.238 21.216 19.487 22.996 1.531.273 3.34.41 5.15.41 2.506.137 5.29.548 5.568 2.738.835 5.885-12.667 3.832-16.147 3.285-16.286-3.559-31.319-17.794-32.85-35.862C1.392 64.63 3.619 58.06 8.908 50.805z" fill="#D4D4D4"/><path fill-rule="evenodd" clip-rule="evenodd" d="M79.481 50.805c-3.48-4.79-6.264-8.35-11.136-12.182-2.227-1.916-4.454-.684-2.227 1.643 2.506 2.327 6.96 6.843 12.25 16.425.556.958-.557 1.642-.836.821-2.366-4.243-6.403-10.266-10.718-14.92-1.67-1.916-3.619-3.832-5.29-5.748-.139-.137-.417-.274-.556-.548-.835-.821-1.949-1.78-3.062-1.368-1.114.547-.836 1.642 0 2.737 1.81 2.464 4.175 4.79 5.985 7.118 3.62 4.517 7.1 9.17 10.3 15.33.557 1.095-.695 1.505-.974.82-3.201-5.885-9.465-15.055-14.198-20.12-1.67-1.78-2.923-3.559-4.176-4.927-1.67-2.053-2.227-3.56-3.897-3.422-2.088.137-1.392 3.148 2.505 8.212C59.437 47.52 65.98 56.691 69.876 64.22c.557 1.095-.556 1.643-.835.958-3.062-5.886-8.212-13.003-12.388-18.615-1.949-2.6-4.037-5.064-5.15-6.707-1.532-2.19-2.506-4.243-3.341-5.886-.557-1.095-1.114-1.916-2.367-1.916-1.392 0-1.392 1.369-1.252 2.327.139 1.506.696 3.285 1.81 5.612.695 1.506 2.087 3.559 3.758 6.023 6.263 8.623 10.996 16.288 13.78 23.132 1.81 4.653 2.784 9.17 3.062 13.413.557 11.224-6.403 20.669-18.374 22.996.696 0 1.95.136 2.924.821 1.252.958 1.67 3.011.974 4.38-.418.958-1.253 1.642-1.81 1.779 1.114-.137 2.088-.274 2.784-.41 16.147-3.422 31.041-17.931 32.572-35.862.975-11.634-1.392-18.204-6.542-25.459z" fill="#D4D4D4"/><path fill-rule="evenodd" clip-rule="evenodd" d="M44.125 38.212c1.114 6.023 6.124 11.498 10.718 18.752 4.733 7.666 8.63 16.152 9.605 22.585.696 4.654.417 9.992-2.367 14.509-3.48 5.475-10.161 9.718-17.817 9.718-7.795 0-14.476-4.243-17.956-9.718-2.923-4.517-3.48-9.992-2.645-14.646.974-6.433 4.872-14.92 9.605-22.584 4.593-7.255 9.743-12.73 10.857-18.616z" fill="#D4D4D4"/><path fill-rule="evenodd" clip-rule="evenodd" d="M33.407 67.915c1.81-3.149 5.429-10.54 6.681-13.414-4.732 3.695-6.82 9.855-6.681 13.414zm26.169 10.813c.974 5.064.557 9.718-1.531 13.414-3.62 6.57-15.869 11.36-26.308 3.558 15.45 3.696 27.004-7.528 27.84-16.972z" fill="#fff"/></g><defs><clipPath id="clip0_66_596"><path fill="#fff" transform="translate(0 30)" d="M0 0h440v85H0z"/></clipPath></defs></svg>