<svg width="100" height="100" fill="none" xmlns="http://www.w3.org/2000/svg"><path d="M32.675 68.373L7 71.003v-28.19c0-5.998 6.004-10.975 13.2-11.108 6.976-.131 12.475 4.363 12.475 10.03v26.638zm-5.244-47.811c0 4.063-3.376 7.4-7.621 7.453-4.344.053-7.935-3.33-7.935-7.562s3.591-7.563 7.935-7.45c4.245.113 7.621 3.496 7.621 7.56z" fill="#54C0E8"/><path d="M48.83 76.079l-28.059 3.258V47.85c0-6.701 6.593-12.273 14.472-12.44 7.609-.162 13.588 4.812 13.588 11.105v29.564z" fill="#F1F1F1"/><path d="M57.998 83.134L27.096 87.28V51.618c0-7.59 7.306-13.923 16.001-14.137C51.457 37.277 58 42.847 58 49.915v33.219h-.002zm-5.914-59.627c0 5.08-4.177 9.26-9.46 9.345-5.432.084-9.949-4.175-9.949-9.516s4.517-9.52 9.949-9.34c5.283.178 9.46 4.435 9.46 9.511z" fill="#003DA6"/></svg>