<svg width="100" height="100" fill="none" xmlns="http://www.w3.org/2000/svg"><path d="M67.933 91.114l-22.221 2.981V19.883l22.221.811v70.42z" fill="#003DA6"/><path d="M39.653 89.359l6.059 4.736V19.883l-6.059 1.289v68.186z" fill="#F1F1F1"/><path d="M58.93 6.824L47.788 5.762l-2.075 14.12 22.242.812-9.023-13.87z" fill="#003DA6"/><path d="M39.653 21.172l8.134-15.41-2.075 14.12-6.059 1.29z" fill="#F1F1F1"/><path d="M60.376 9.742c.338-1.628-1.322-3.35-3.707-3.845-2.385-.495-4.593.423-4.931 2.052-.338 1.628 1.321 3.35 3.707 3.845 2.385.496 4.593-.423 4.93-2.052z" fill="#003DA6"/><path d="M56.728 11.925c-2.38 0-4.611-1.379-4.982-3.081a2.193 2.193 0 01-.051-.51l-.533 2.389-.025.106c-.053.277-.05.568.015.87.37 1.704 2.602 3.082 4.982 3.082 2.02 0 3.5-.993 3.674-2.333l.545-2.61c-.314 1.213-1.731 2.087-3.625 2.087z" fill="#F1F1F1"/><path d="M39.65 83.116l-24.073 3.229V36.303l24.074-.588v47.401z" fill="#54C0E8"/><path d="M9.224 81.376l6.353 4.969V36.303l-6.353-.906v45.98zm6.353-45.074l-6.353-.905 22.525-.498 7.902.815-24.074.588z" fill="#F1F1F1"/><path d="M15.577 36.303l-3.389 8.615-2.964-9.521 6.353.906z" fill="#54C0E8"/><path d="M21.412 91.227L4.47 93.5V58.284l16.942-.414v33.357z" fill="#003DA6"/><path d="M0 90.004l4.47 3.495V58.284L0 57.647v32.357z" fill="#F1F1F1"/><path d="M4.47 58.284L0 57.647l15.85-.35 5.562.573-16.941.414z" fill="#F1F1F1"/><path d="M4.47 58.284l-2.384 6.063L0 57.647l4.47.637z" fill="#003DA6"/></svg>