<svg width="100" height="100" fill="none" xmlns="http://www.w3.org/2000/svg"><path d="M44.286 44.518V33.953L23.621 46.466V35.159L0 48.603v24.45l62.228-10.418V42.82l-17.942 1.697z" fill="#F1F1F1"/><path d="M46.617 8.382l.005 35.494 8.2-.43V8.315l-8.205.066z" fill="#54C0E8"/><path d="M52.288 44.01c-2.185.23-4.654.23-5.436 0s.399-.573 2.512-.78c2.114-.207 4.341-.203 5.167 0 .825.202-.121.558-2.245.78h.002z" fill="#54C0E8"/><path d="M52.288 8.477c-2.185.058-4.654.058-5.436 0s.399-.144 2.512-.196c2.058-.05 4.341-.05 5.167 0 .848.052-.121.14-2.245.196h.002z" fill="#F1F1F1"/><path d="M57.239 8.139l.004 34.632 8.202-.43V8.071l-8.206.067z" fill="#54C0E8"/><path d="M62.909 42.905c-2.184.23-4.654.23-5.436 0s.399-.574 2.513-.78c2.113-.207 4.34-.203 5.166 0 .825.202-.12.558-2.245.78h.002z" fill="#54C0E8"/><path d="M62.909 8.233c-2.184.058-4.654.058-5.436 0s.399-.144 2.513-.196c2.057-.05 4.34-.05 5.166 0 .849.052-.12.14-2.245.196h.002z" fill="#F1F1F1"/><path d="M54.897 47.614V35.855L32.557 50.05 6.576 52.775v38.316L74 78.05V45.526l-19.103 2.088z" fill="#003DA6"/><path d="M22.499 66.993l-6.287.98v-6.015l6.287-.849v5.884zm9.613-1.495l-5.865.913v-5.806l5.865-.79v5.683zm8.981-1.398l-5.48.852V59.34l5.48-.739V64.1zm3.193-30.147l10.61 1.902L32.559 50.05v-8.995l11.728-7.101z" fill="#F1F1F1"/></svg>