<svg width="100" height="100" fill="none" xmlns="http://www.w3.org/2000/svg"><path d="M32.39 62.96L6.824 67.904v-53.17l25.566-3.199V62.96z" fill="#54C0E8"/><path d="M0 60.206l6.824 7.698V14.736L.2 9.903 0 60.206z" fill="#F1F1F1"/><path d="M.2 9.903l6.624 4.833 25.566-3.2L24.781 7 .2 9.903z" fill="#F1F1F1"/><path d="M6.824 14.736l-3.965 7.178L.2 9.903l6.625 4.833z" fill="#54C0E8"/><path d="M53.898 75.045L28.33 79.991V26.82l25.57-3.198v51.423z" fill="#003DA6"/><path d="M21.508 72.29l6.822 7.7V26.82l-6.622-4.831-.2 50.301z" fill="#F1F1F1"/><path d="M21.708 21.989l6.622 4.83 25.568-3.197-7.61-4.536-24.58 2.903z" fill="#F1F1F1"/><path d="M28.33 26.82L24.368 34l-2.66-12.011 6.622 4.83z" fill="#003DA6"/><path d="M76 87.129l-25.568 4.945v-53.17L76 35.706V87.13z" fill="#54C0E8"/><path d="M43.608 84.374l6.824 7.7v-53.17l-6.622-4.831-.202 50.301z" fill="#F1F1F1"/><path d="M43.81 34.073l6.622 4.83L76 35.707l-7.611-4.536-24.58 2.903z" fill="#F1F1F1"/><path d="M50.432 38.904l-3.963 7.18-2.66-12.011 6.623 4.83z" fill="#54C0E8"/></svg>