<svg width="385" height="500" fill="none" xmlns="http://www.w3.org/2000/svg"><g opacity=".8" filter="url(#filter0_f_583_4913)"><g filter="url(#filter1_f_583_4913)"><path fill-rule="evenodd" clip-rule="evenodd" d="M212.105 199c20.206-22.572 31.931-53.975 27.574-78.581-5.568-31.443-35.287-39.881-66.38-18.849-12.56 8.496-23.423 20.502-31.543 33.867-19.452 4.328-36.756 23.144-45.407 53.13-14.194 49.196.28 109.829 32.329 135.425 15.128 12.083 31.468 14.199 45.999 7.891 9.042 26.913 27.892 52.881 50.864 67.095 34.54 21.371 65.317 8.073 68.744-29.701 3.426-37.775-21.797-85.722-56.337-107.093-7.077-4.379-13.997-7.303-20.555-8.858 1.441-18.437-.488-37.243-5.288-54.326z" fill="#F28B3E" fill-opacity=".92"/></g></g><defs><filter id="filter0_f_583_4913" x="55.215" y="54.319" width="275.063" height="390.542" filterUnits="userSpaceOnUse" color-interpolation-filters="sRGB"><feFlood flood-opacity="0" result="BackgroundImageFix"/><feBlend in="SourceGraphic" in2="BackgroundImageFix" result="shape"/><feGaussianBlur stdDeviation="17.841" result="effect1_foregroundBlur_583_4913"/></filter><filter id="filter1_f_583_4913" x=".896" y="0" width="383.7" height="499.18" filterUnits="userSpaceOnUse" color-interpolation-filters="sRGB"><feFlood flood-opacity="0" result="BackgroundImageFix"/><feBlend in="SourceGraphic" in2="BackgroundImageFix" result="shape"/><feGaussianBlur stdDeviation="45" result="effect1_foregroundBlur_583_4913"/></filter></defs></svg>