<svg width="152" height="48" fill="none" xmlns="http://www.w3.org/2000/svg"><g clip-path="url(#clip0_143_235)"><path d="M19.808 30.502c-1.232 2.12-1.84 3.908-1.84 5.832 0 2.015.714 3.623 1.977 4.706H0L23.992 0l6.846 11.726-11.015 18.776h-.015z" fill="#54C0E8"/><path d="M38.095 24.113H26.913l3.727 6.374c1.233 2.12 1.841 3.908 1.841 5.832 0 4.104-3.073 6.465-7.257 6.465-2.404 0-4.123-.767-5.279-1.76 2.297 4.766 5.705 6.345 10.634 6.345 2.176 0 4.215-.256 5.995-.992 3.864-1.564 6.511-4.871 6.511-9.411 0-3.367-1.552-7.05-2.632-8.81l-2.373-4.028.015-.015zm16.233 5.863l2.328-5.863h2.267l-3.302 8.163c-.547 1.413-1.445 2.12-2.708 2.12h-2.556V32.29h2.51c.138 0 .244-.015.32-.06l-4.26-8.103h2.48l2.936 5.848h-.015zm12.992-3.217v7.621h-2.099v-5.652h-3.15v5.652h-2.099v-7.62h7.349zm7.623.991v-.976h2.069v7.621h-2.07v-1.007h-.075c-.244.36-.594.662-1.02.887a3.14 3.14 0 01-1.475.346c-1.05 0-1.933-.376-2.632-1.128-.7-.751-1.05-1.713-1.05-2.901 0-1.188.35-2.165 1.035-2.931.684-.767 1.567-1.143 2.662-1.128.532 0 1.02.105 1.46.33.442.226.776.512 1.02.873h.076v.015zm-3.56 4.33c.38.391.882.587 1.49.587.61 0 1.111-.196 1.492-.602.38-.406.578-.902.578-1.473a2.13 2.13 0 00-.578-1.488c-.38-.406-.883-.601-1.476-.601s-1.11.195-1.491.586c-.38.39-.578.887-.578 1.488s.198 1.097.578 1.488l-.015.015zm22.637 1.398c-.76.767-1.764 1.143-3.012 1.143-1.247 0-2.236-.376-3.012-1.143-.76-.766-1.141-1.728-1.141-2.901 0-1.173.38-2.12 1.141-2.886.76-.767 1.765-1.158 3.012-1.158 1.248 0 2.237.391 3.013 1.158.76.766 1.14 1.729 1.14 2.886 0 1.158-.38 2.135-1.14 2.901zm-3.012-.857c.594 0 1.096-.195 1.476-.586.38-.39.578-.872.578-1.443a2.03 2.03 0 00-.578-1.458c-.38-.391-.882-.586-1.49-.586-.61 0-1.112.195-1.492.586a2.03 2.03 0 00-.578 1.458c0 .571.198 1.067.578 1.458.38.391.883.587 1.491.587l.015-.016zm11.563-2.225v.06c.441.15.761.376.989.692.228.316.334.677.334 1.082 0 .587-.213 1.083-.623 1.519-.411.436-.989.646-1.735.646h-4.96v-7.622h4.626c.76 0 1.338.196 1.749.602.411.39.609.872.609 1.443 0 .752-.32 1.278-.974 1.593l-.015-.015zm-1.78-1.924h-2.13v1.263h2.13c.213 0 .365-.06.487-.195a.61.61 0 00.182-.451.68.68 0 00-.167-.436c-.107-.12-.274-.18-.502-.18zm-2.13 4.224h2.404c.213 0 .395-.06.517-.195a.69.69 0 00.198-.481.632.632 0 00-.183-.451c-.122-.135-.304-.18-.532-.18h-2.404v1.307zm13.616.782c-.761.767-1.765 1.143-3.012 1.143-1.248 0-2.237-.376-3.013-1.143-.76-.766-1.141-1.728-1.141-2.901 0-1.173.381-2.12 1.141-2.886.761-.767 1.765-1.158 3.013-1.158 1.247 0 2.236.391 3.012 1.158.761.766 1.141 1.729 1.141 2.886 0 1.158-.38 2.135-1.141 2.901zm-3.012-.857c.593 0 1.095-.195 1.475-.586.381-.39.579-.872.579-1.443a2.03 2.03 0 00-.579-1.458c-.38-.391-.882-.586-1.491-.586-.608 0-1.11.195-1.49.586-.381.39-.579.887-.579 1.458s.198 1.067.579 1.458c.38.391.882.587 1.49.587l.016-.016zm10.36-2.555v-3.307h2.1v7.621h-2.1v-2.375h-2.753c-.715 0-1.278-.195-1.704-.601-.426-.391-.624-.932-.624-1.624v-3.036h2.099v2.736c0 .375.213.57.639.57h2.359l-.016.016zm9.341-.526v-2.767h2.1v7.622h-2.1v-2.901h-3.271v2.901h-2.099v-7.622h2.099v2.767h3.271zm6.086-.511h1.978c.836 0 1.506.255 2.008.782.502.526.761 1.157.761 1.879a2.68 2.68 0 01-.761 1.894c-.502.526-1.172.796-2.008.796h-4.078v-7.62h2.1v2.27zm0 3.472h1.856c.243 0 .456-.075.609-.24a.848.848 0 00.228-.602c0-.24-.076-.42-.228-.586-.153-.165-.35-.24-.609-.24h-1.856V32.5zm5.462 1.88v-7.622h2.099v7.621h-2.099zm-56.063 5.757v1.969h-2.525v5.652h-2.1v-5.652h-2.525v-1.97h7.15zm19.869 0v7.621h-2.099v-5.291l-2.008 5.291H98.6l-1.993-5.276v5.276h-2.1v-7.621h3.241l1.689 4.585 1.673-4.585h3.21zm3.971 2.27h1.978c.837 0 1.506.255 2.008.781s.761 1.158.761 1.88a2.68 2.68 0 01-.761 1.894c-.502.526-1.171.796-2.008.796h-4.077v-7.621h2.099v2.27zm0 3.472h1.856c.244 0 .457-.075.609-.24a.848.848 0 00.228-.602c0-.24-.076-.42-.228-.586-.152-.165-.35-.24-.609-.24h-1.856v1.668zm5.462 1.88v-7.622h2.099v7.621h-2.099zM90.81 45.34h-.015c-.274.495-.974.811-1.689.781-1.064-.045-1.75-.707-1.87-1.488h5.826c.274-2.691-1.37-4.736-3.94-4.736-2.374 0-4.032 1.774-4.032 4.044 0 2.15 1.415 4.044 4.016 4.044 1.446 0 2.693-.586 3.424-1.669l-1.704-.977h-.016zm-1.704-3.579c.898 0 1.598.482 1.826 1.278H87.25c.213-.766.944-1.278 1.856-1.278zm60.612-9.786h-.015c-.274.496-.974.812-1.689.782-1.065-.045-1.75-.707-1.871-1.488h5.827c.273-2.691-1.37-4.736-3.941-4.736-2.373 0-4.031 1.774-4.031 4.044 0 2.15 1.414 4.044 4.016 4.044 1.445 0 2.693-.586 3.423-1.669l-1.704-.977h-.015zm-1.704-3.578c.898 0 1.597.481 1.826 1.278h-3.682c.213-.767.943-1.278 1.856-1.278zM84.07 34.395l-3.057-4.029v4.03h-2.084v-7.623h2.084v3.563l2.921-3.563h2.434l-2.92 3.488 3.164 4.15H84.07v-.016zm-27.46 9.606c-.41 1.113-1.46 1.864-2.845 1.864-1.962 0-3.134-1.503-3.134-3.217 0-1.713 1.172-3.202 3.104-3.217 1.43 0 2.45.767 2.86 1.864l1.962-1.127c-.79-1.699-2.54-2.886-4.807-2.886-3.256 0-5.355 2.435-5.355 5.382 0 2.946 2.114 5.321 5.355 5.321 2.297 0 4.032-1.172 4.823-2.871L56.61 44zm16.4-2.134c.822 0 1.491.496 1.735 1.142l1.825-1.067c-.578-1.218-1.901-2.044-3.56-2.044-2.556 0-4.138 1.803-4.138 3.998 0 2.195 1.567 4.09 4.138 4.09 1.659 0 2.982-.813 3.56-2.12l-1.825-1.068c-.244.737-.913 1.143-1.735 1.143-1.232 0-1.977-.902-1.977-2.045 0-1.067.745-2.044 1.977-2.044v.015zm-7.439 2.36c0 1.217-.654 1.713-1.826 1.713-1.171 0-1.658-.496-1.658-1.713v-4.09h-2.145v4.09c0 2.45 1.4 3.758 3.301 3.758 1.08 0 1.978-.496 2.48-1.218v.977h1.902v-7.591h-2.07v4.089l.016-.015z" fill="#003DA6"/></g><defs><clipPath id="clip0_143_235"><path fill="#fff" d="M0 0h152v48H0z"/></clipPath></defs></svg>