<svg width="286" height="140" fill="none" xmlns="http://www.w3.org/2000/svg"><g clip-path="url(#clip0_66_585)" fill="#D4D4D4"><path d="M53.584 76.673c0 1.763 0 4.115.296 6.466 0 3.234.296 6.467.296 9.407 0 .587 0 .587-.592.587H44.11c-.296 0-.592 0-.592-.587-.297-4.41-.297-9.113-.593-13.228l-.592-12.64v-2.645c0-.294 0-.587-.296-.587s-.888-.294-.888.293c-.592 1.764-.888 3.234-1.48 4.703-1.48 5.291-3.257 10.582-4.738 15.873 0 .588-.296.882-.296 1.47-.296.588-.592 1.176-1.48 1.764-.592.293-1.184.587-2.073.587h-7.106c-.888 0-1.776-.294-2.368-.881-.592-.588-1.185-1.47-1.185-2.352l-4.737-15.579c-.592-2.057-1.184-3.821-1.776-5.878v-.294s0-.294-.296-.294h-.889v.294c0 2.351 0 4.409-.296 6.466 0 4.41-.296 9.112-.296 13.521 0 2.646-.296 5.585-.296 8.23 0 1.177 0 1.177-1.184 1.177H1.178c-.592 0-.592 0-.592-.295.296-4.115.296-8.818.592-13.52 0-3.528.296-7.055.296-10.582 0-3.528 0-6.173.296-9.407 0-.587 0-.881.297-1.47 0-.293.296-.881.592-1.175.296-.294.592-.588 1.184-.882.296-.294.888-.294 1.48-.294h11.548c.888 0 2.072.294 2.664.882.888.588 1.184 1.47 1.48 2.646.889 2.645 6.218 22.339 6.218 22.339s0 .294.296.294.593 0 .593-.294S33.45 60.8 34.339 57.86c.296-.882.888-1.764 1.48-2.352.889-.588 1.777-.882 2.665-.588h10.659c.592 0 1.184 0 1.776.294.593.294 1.185.588 1.48 1.176.297.588.593 1.176.593 1.764 0 1.763.296 3.527.296 5.584l.296 12.934zm24.279 16.754h-1.777c-.888 0-1.776-.294-2.664-.588-.889-.587-1.48-1.47-1.48-2.351l-3.258-9.112-9.178-25.573c0-.294 0-.294-.296-.294-.296-.294.296 0 .296 0h12.139v.294c2.369 8.23 4.737 16.167 7.106 24.103.592 1.764.888 3.821 1.184 5.585 0 .294 0 .588.296.588.297 0 .593 0 .889-.588 2.664-9.994 5.921-19.988 8.586-29.982 0-.294.296-.588.592-.588h12.139c-.296 1.176-.888 2.352-1.184 3.234-4.441 11.757-8.882 23.809-13.028 35.566-.888 2.352-1.776 4.997-3.256 7.055a17.053 17.053 0 01-6.218 5.879c-2.369 1.469-5.33 2.351-7.994 2.645-2.96.294-6.218.294-9.179-.294-.296 0-.296 0-.296-.294.297-2.351.593-4.703.889-6.76 0-.294.296-.294.296-.294 2.072 0 4.145 0 6.217-.294 1.48 0 2.961-.588 4.442-1.47a16.904 16.904 0 003.256-3.233c.593-1.47 1.185-2.352 1.48-3.234zm207.551-19.106V92.84c0 .294 0 .588-.593.588h-10.362c-.593 0-.593 0-.593-.588V77.555c0-.588 0-.588-.592-.588h-13.915c-.296 0-.593 0-.593.588v15.284c0 .588 0 .588-.592.588h-10.658c-.297 0-.593 0-.593-.588V55.51c0-.294 0-.588.593-.588h10.954c.593 0 .593 0 .593.588v13.227c0 .294 0 .588.592.588h13.619c.592 0 .592 0 .592-.588V55.803c0-.294 0-.588.593-.588h10.362c.296 0 .593 0 .593.588v18.518zm-143.302-.294V92.84c0 .294 0 .588-.592.588h-10.659c-.296 0-.592 0-.592-.588V63.446c0-.588 0-.588-.592-.588h-4.442c-.592 0-1.184 0-1.776.294-.592.294-1.184.587-1.48 1.175-.296.588-.593 1.176-.593 1.764-.592 3.233-.888 6.467-1.184 9.994-.296 3.233-1.184 6.76-2.072 9.994-.593 2.057-1.777 3.821-3.553 4.997-1.481 1.47-3.553 2.057-5.626 2.351-2.072.294-4.145.294-6.217.294-.297 0-.297 0-.593-.294-.296-2.645-.592-4.997-1.184-7.642 0-.294 0-.294.296-.588l2.665-.588c.888-.294 1.48-.588 2.072-1.176.593-.588 1.185-1.175 1.185-2.057a36.995 36.995 0 001.776-8.23c.592-3.234.592-6.173.888-9.407.296-2.351 1.185-4.703 2.961-6.466 1.481-1.176 3.257-2.058 5.034-2.352.888 0 16.284-.294 22.798-.294.888 0 .592 0 .592.588l.888 18.812zm43.523-19.106c.593 0 .593 0 .593.588v7.643c0 .587 0 .587-.593.587h-11.843c-.592 0-.592 0-.592.588v28.219c0 .587 0 .587-.592.587h-10.659c-.296 0-.296 0-.296-.587V64.032c0-.587 0-.587-.592-.587h-12.139c-.296 0-.592 0-.592-.588V54.92c0-.294 0-.588.592-.588l36.713.588zm43.82 19.106c0-2.645-.889-5.29-2.369-7.642-1.48-2.352-3.849-4.115-6.218-4.997-2.664-1.176-5.329-1.47-7.994-.882-2.664.588-5.329 1.764-7.106 3.821-2.072 2.058-3.256 4.41-3.849 7.055-.592 2.645-.296 5.585.889 7.936 1.184 2.646 2.96 4.703 5.033 6.173 2.369 1.47 5.033 2.351 7.698 2.351 1.776 0 3.553-.294 5.329-1.175 1.777-.588 3.257-1.764 4.442-2.94 1.184-1.175 2.368-2.94 2.96-4.409.593-1.763 1.185-3.527 1.185-5.29zm-13.916-23.809c4.737 0 9.474 1.47 13.62 4.115 4.145 2.646 7.105 6.467 8.882 10.876 1.776 4.41 2.369 9.112 1.48 13.815-.888 4.703-3.257 8.818-6.513 12.346-3.257 3.233-7.698 5.584-12.436 6.466-4.737.882-9.474.588-13.915-1.47-4.442-1.763-8.291-4.996-10.955-8.818-2.665-3.82-4.145-8.524-4.145-13.227v-.294c0-6.172 2.664-12.345 7.106-16.754 4.145-4.703 10.362-7.055 16.876-7.055zm11.844-19.694c.888 0 2.072 0 2.96.294 0 0 .296 0 .296.294l.296.294c.889 2.94.297 6.173-1.184 8.818-1.48 2.646-4.145 4.703-7.106 5.585-.592 0-1.184.294-1.776.294-1.481.294-2.961 0-4.441-.294-.296 0-.296 0-.593-.294 0 0-.296-.294-.296-.588-.888-2.94-.296-6.172 1.185-8.818 1.48-2.645 4.145-4.703 7.402-5.585.888 0 2.072-.294 3.257 0z"/></g><defs><clipPath id="clip0_66_585"><path fill="#fff" transform="translate(0 30)" d="M0 0h286v80H0z"/></clipPath></defs></svg>