<svg width="432" height="140" fill="none" xmlns="http://www.w3.org/2000/svg"><g clip-path="url(#clip0_66_558)"><g clip-path="url(#clip1_66_558)" fill-rule="evenodd" clip-rule="evenodd" fill="#D4D4D4"><path d="M111.082 68.01h9.992c3.899 0 5.381 1.345 5.381 4.642 0 3.175-1.483 4.52-5.381 4.52h-9.992v-9.163zm-15.479 33.346h15.48v-13.56h16.581c10.978 0 14.93-6.47 14.93-14.837 0-9.711-4.064-15.207-15.042-15.207H95.603v43.604zM147.7 57.752h41.663v10.624H163.18v5.863h24.319v10.629H163.18v5.862h26.183v10.626H147.7V57.752zm63.622 10.257h9.991c3.898 0 5.381 1.346 5.381 4.643 0 3.175-1.483 4.52-5.381 4.52h-9.991v-9.163zm-15.48 33.347h15.48v-13.56H227.9c10.981 0 14.934-6.47 14.934-14.837 0-9.711-4.064-15.207-15.044-15.207h-31.948v43.604zm61.976-18.504c-7.575-1.285-10.701-6.17-10.701-12.276 0-11.3 9.936-14.35 22.668-14.35 17.455 0 24.647 5.066 25.197 14.29h-18.006c0-1.772-.934-2.874-2.359-3.484-1.373-.67-3.128-.914-4.832-.914-4.611 0-6.201 1.281-6.201 3.115 0 1.22.492 2.016 2.029 2.26l18.499 3.052c7.796 1.282 12.628 5.313 12.628 12.7 0 10.63-7.796 15.638-25.199 15.638-11.911 0-24.922-1.831-24.976-14.657h18.664c.053 1.464.549 2.441 1.648 3.113 1.15.612 2.853.918 5.267.918 4.83 0 6.15-1.467 6.15-3.544 0-1.282-.715-2.564-2.797-2.928l-17.679-2.933zm43.97-25.1h15.479v43.604h-15.479V57.752zm72.848 26.627c-.989 5.74-2.748 10.382-6.591 13.556-3.785 3.177-9.716 4.948-19.155 4.948-9.387 0-26.789-.734-26.789-23.328 0-22.597 17.402-23.33 26.789-23.33 9.329 0 23.713 1.342 25.746 18.627h-17.457c-.439-3.117-2.309-7.636-8.289-7.636-6.316 0-10.323 3.48-10.323 12.339 0 8.855 3.899 12.334 9.552 12.334 4.887 0 7.797-2.26 9.059-7.511h17.458zm20.254-4.823c0-8.858 4.009-12.338 10.323-12.338 6.311 0 10.321 3.48 10.321 12.338 0 8.856-4.01 12.334-10.321 12.334-6.314 0-10.323-3.48-10.323-12.334zm-16.47 0c0 22.593 17.402 23.328 26.792 23.328 9.387 0 26.789-.735 26.789-23.328 0-22.598-17.402-23.33-26.789-23.33-9.39 0-26.792.732-26.792 23.33zM72.212 58.184c1-20.92-17.03-44.479-41.609-47.39l.042-.287c24.232 0 42.808 22.447 42.808 40.156-.024 3.686-.315 5.97-.834 7.629l-.407-.108zm-1.468 2.66c-1.612 1.97-3.64 3.955-6.015 5.84-4.37-25.151-22.84-47.143-35.898-53.562l-.28.195C41.684 24.1 57.347 45.047 63.437 67.67a50.893 50.893 0 01-10.003 5.733C41.042 59.262 29.489 31.99 25.766 14.685l-.379.114c.084 16.798 12.003 45.315 26.538 59.23a50.077 50.077 0 01-10.337 2.858c-13.933-5.523-23.851-23.213-23.851-41.334 0-11.83 3.605-19.148 4.302-20.646l-.297-.117c-.844 1.277-6.124 8.59-6.124 21.362 0 20.484 10.095 36.14 23.498 41.07-4.793.528-9.639.3-14.361-.674l-.1.312c1.434.528 6.298 2.572 13.719 2.572 16.784 0 28.13-10.435 32.697-18.367l-.327-.221z"/><path d="M36.696 3.116c-12.724 0-27.643 9.188-27.643 17.588 0 3.249 2.97 5.993 9.117 5.993 14.27 0 27.529-9.81 27.529-17.439 0-4.014-3.853-6.142-9.003-6.142zm5.08 5.905c0 6.43-12.341 14.29-22.657 14.29-4.558 0-7.02-1.794-7.02-4.755 0-6.523 12.48-14.25 22.156-14.25 6.31 0 7.52 3.212 7.52 4.715z"/><path d="M3.984 24.593c-.358.619-1.79 3.425-1.79 6.3 0 5.333 5.385 10.284 15.289 10.284 19.053 0 41.065-14.034 41.065-27.06 0-5.848-5.531-9.027-9.372-9.684l-.072.228c1.195.378 5.57 2.414 5.57 7.623 0 10.379-19.435 24.521-38.794 24.521-7.412 0-12.081-3.66-12.081-8.993 0-1.687.35-2.798.444-3.12l-.259-.1z"/><path d="M66.404 15.09c.523.398 3.66 3.015 3.66 7.964 0 16.875-26.423 33.469-49.783 33.469-13.93 0-20.281-6.883-20-12.995h.25c.546 3.174 5.069 8.853 17.262 8.853 23.389 0 49.504-17.17 49.504-32.213 0-2.58-.7-4.188-1.096-4.903l.203-.174z"/><path d="M75.236 30.845c.11.359.678 1.974.678 4.505 0 18.771-26.74 34.842-49.997 34.842-11.97 0-18.22-5.818-19.54-8.18l.213-.159c3.312 2.899 9.835 5.101 17.449 5.101 20.54 0 51.189-15.637 50.915-36.041l.282-.069z"/></g></g><defs><clipPath id="clip0_66_558"><path fill="#fff" d="M0 0h432v140H0z"/></clipPath><clipPath id="clip1_66_558"><path fill="#fff" transform="translate(0 -7)" d="M0 0h432v120H0z"/></clipPath></defs></svg>