<svg width="576.69" height="233.7" xmlns="http://www.w3.org/2000/svg"><path d="M91.27 142.21c-5.68 9.86-8.52 18.22-8.52 27.19 0 9.41 3.29 16.88 9.11 21.96H0L110.54 0l31.52 54.67-50.79 87.54z" fill="#62c3f7"/><path d="M175.52 112.48h-51.54l17.18 29.73c5.68 9.86 8.51 18.22 8.51 27.19 0 19.12-14.19 30.18-33.46 30.18-11.05 0-18.97-3.59-24.35-8.22 10.61 22.26 26.29 29.58 49 29.58 10.01 0 19.42-1.2 27.63-4.63 17.78-7.32 30.03-22.71 30.03-43.92 0-15.68-7.17-32.86-12.1-41.08l-10.9-18.82zm75.02-.08c4.59 0 8.44 1.52 11.55 4.56s4.66 6.85 4.66 11.44-1.57 8.52-4.7 11.51-6.97 4.49-11.51 4.49h-13.5v14.61h-9.88V112.4h23.38zm-13.5 22.61h12.73c1.99 0 3.65-.6 4.97-1.81 1.32-1.21 1.98-2.81 1.98-4.8 0-1.85-.67-3.38-2.02-4.59s-2.99-1.81-4.94-1.81h-12.73v13.01zm61.52-6.19v-4.45h9.32v34.65h-9.32v-4.59h-.35c-1.11 1.67-2.64 3.02-4.59 4.04-1.95 1.02-4.15 1.55-6.61 1.6-4.73 0-8.66-1.7-11.79-5.11-3.13-3.41-4.7-7.8-4.7-13.18s1.54-9.81 4.63-13.29c3.08-3.48 7.06-5.19 11.93-5.15 2.41 0 4.59.51 6.54 1.53 1.95 1.02 3.48 2.34 4.59 3.97h.35zm-15.97 19.65c1.74 1.79 3.98 2.68 6.71 2.68s4.96-.91 6.68-2.75c1.71-1.83 2.57-4.07 2.57-6.71s-.87-4.94-2.61-6.75c-1.74-1.81-3.95-2.71-6.64-2.71s-4.97.89-6.71 2.68c-1.74 1.79-2.61 4.05-2.61 6.78s.87 5 2.61 6.78m136.87-19.65v-4.45h9.32v34.65h-9.32v-4.59h-.35c-1.11 1.67-2.64 3.02-4.59 4.04-1.95 1.02-4.15 1.55-6.61 1.6-4.73 0-8.66-1.7-11.79-5.11-3.13-3.41-4.7-7.8-4.7-13.18s1.54-9.81 4.63-13.29c3.08-3.48 7.06-5.19 11.93-5.15 2.41 0 4.59.51 6.54 1.53 1.95 1.02 3.48 2.34 4.59 3.97h.35zm-15.97 19.65c1.74 1.79 3.98 2.68 6.71 2.68s4.96-.91 6.68-2.75c1.71-1.83 2.57-4.07 2.57-6.71s-.87-4.94-2.61-6.75c-1.74-1.81-3.95-2.71-6.64-2.71s-4.97.89-6.71 2.68c-1.74 1.79-2.61 4.05-2.61 6.78s.87 5 2.61 6.78m59.87-19.65v-4.45h9.32v38.19c0 3.34-.92 5.9-2.75 7.69-1.83 1.78-4.44 2.68-7.83 2.68h-22.26v-9.39h20.25c2.18 0 3.27-1.04 3.27-3.13v-5.98h-.35c-1.11 1.67-2.64 3.02-4.59 4.04s-4.15 1.55-6.61 1.6c-4.73 0-8.66-1.7-11.79-5.11-3.13-3.41-4.7-7.8-4.7-13.18s1.54-9.81 4.63-13.29c3.08-3.48 7.06-5.19 11.93-5.15 2.41 0 4.59.51 6.54 1.53 1.95 1.02 3.48 2.34 4.59 3.97h.35zm-15.97 19.65c1.74 1.79 3.98 2.68 6.71 2.68s4.96-.91 6.68-2.75c1.72-1.83 2.57-4.07 2.57-6.71s-.87-4.94-2.61-6.75c-1.74-1.81-3.95-2.71-6.64-2.71s-4.97.89-6.71 2.68c-1.74 1.79-2.61 4.05-2.61 6.78s.87 5 2.61 6.78m34.06-39.54h9.39v10.99h-9.39v-10.99zm0 15.44h9.39v34.65h-9.39v-34.65zm38.05-.97c4.27 0 7.63 1.37 10.09 4.1 2.46 2.74 3.69 6.56 3.69 11.48v20.04h-9.39v-18.65c0-2.41-.67-4.31-2.02-5.7-1.35-1.39-3.04-2.09-5.08-2.09-2.18 0-4.04.78-5.57 2.33-1.53 1.55-2.3 3.61-2.3 6.16v17.95h-9.39v-34.65h9.11v4.17h.35c2.46-3.43 5.96-5.15 10.51-5.15m47.87 6.39v-4.45h9.32v38.2c0 3.34-.92 5.9-2.75 7.69-1.83 1.78-4.44 2.68-7.83 2.68h-22.26v-9.39h20.25c2.18 0 3.27-1.04 3.27-3.13v-5.98h-.35c-1.11 1.67-2.64 3.02-4.59 4.04-1.95 1.02-4.15 1.55-6.61 1.6-4.73 0-8.66-1.7-11.79-5.11-3.13-3.41-4.7-7.8-4.7-13.18s1.54-9.81 4.63-13.29c3.08-3.48 7.06-5.19 11.93-5.15 2.41 0 4.59.51 6.54 1.53 1.95 1.02 3.48 2.34 4.59 3.97h.35zm-15.97 19.65c1.74 1.79 3.98 2.68 6.71 2.68s4.96-.91 6.68-2.75c1.71-1.83 2.57-4.07 2.57-6.71s-.87-4.94-2.61-6.75c-1.74-1.81-3.95-2.71-6.64-2.71s-4.97.89-6.71 2.68c-1.74 1.79-2.61 4.05-2.61 6.78s.87 5 2.61 6.78m-269.59 62.01l8.49-26.3h9.53l-13.77 40.28c-.93 2.64-2.34 4.68-4.24 6.12-1.9 1.44-4.2 2.16-6.89 2.16h-9.88v-9.18h9.6c.93 0 1.72-.21 2.37-.63l-15.93-38.75h10.3l10.44 26.3zm78.81-26.3v9.04h-14.26v13.84c0 .83.26 1.48.77 1.95.51.46 1.18.7 2.02.7h11.48v9.11h-13.22c-3.2 0-5.74-.92-7.62-2.75s-2.82-4.3-2.82-7.41l-.19-36.46h9.58v11.97h14.26zm86.69-.98c3.76 0 6.89 1.25 9.39 3.76 2.5 2.5 3.76 6.15 3.76 10.92v20.94h-9.39V200.3c0-2.36-.56-4.13-1.67-5.29-1.11-1.16-2.57-1.74-4.38-1.74s-3.37.67-4.7 2.02c-1.32 1.35-1.98 3.36-1.98 6.05v18.44h-9.39v-19.41c0-2.37-.56-4.13-1.67-5.29-1.11-1.16-2.55-1.74-4.31-1.74-1.99.05-3.61.83-4.84 2.37-1.23 1.53-1.84 3.55-1.84 6.05v18.02h-9.39v-34.65h8.98v4.38h.28c2.37-3.57 5.66-5.36 9.88-5.36 4.55 0 7.81 1.88 9.81 5.64h.28c2.74-3.76 6.47-5.64 11.2-5.64m-191.98 14.53c-1.89-2.1-4.83-4.05-8.74-5.8l-5.29-2.33c-1.95-.88-3.35-1.69-4.15-2.4-.79-.7-1.17-1.61-1.17-2.79 0-1.41.52-2.45 1.58-3.2 1.07-.75 2.42-1.13 4.02-1.13 3.44 0 6.38 1.78 8.73 5.28l.11.17 6.78-5.23-.08-.14c-1.47-2.7-3.54-4.88-6.17-6.49-2.63-1.61-5.78-2.43-9.38-2.43-2.93 0-5.61.55-7.98 1.64-2.37 1.09-4.26 2.67-5.62 4.69-1.36 2.02-2.04 4.4-2.04 7.05 0 3.14 1.01 5.82 3.01 7.96 1.98 2.13 4.81 4.02 8.38 5.62l5.01 2.26c2.18 1.02 3.73 1.9 4.58 2.62.82.69 1.24 1.7 1.24 3 0 1.53-.57 2.75-1.69 3.63-1.14.89-2.73 1.34-4.75 1.34-2.49 0-4.64-.61-6.38-1.8-1.76-1.2-3.41-2.85-4.89-4.89l-.11-.15-6.85 5.15.08.14c1.8 3.17 4.3 5.72 7.44 7.58 3.14 1.87 6.75 2.81 10.71 2.81 3.12 0 5.96-.57 8.44-1.71 2.49-1.14 4.48-2.8 5.9-4.93 1.43-2.14 2.15-4.67 2.15-7.51 0-3.18-.97-5.87-2.87-7.99m236.86 4.58c-1.58-1.58-4.09-3.07-7.47-4.43l-3.39-1.41c-1.35-.56-2.3-1.05-2.83-1.47-.52-.41-.77-.91-.77-1.55 0-.77.31-1.35.94-1.75.64-.41 1.55-.62 2.7-.62 2.83 0 5.44 1.11 7.76 3.29l.07.07 4.91-6-.06-.06c-3.16-3.49-7.4-5.25-12.63-5.25-3.81 0-6.95.93-9.33 2.77-2.39 1.84-3.6 4.46-3.6 7.77 0 2.6.8 4.74 2.39 6.35 1.58 1.6 4 3.08 7.19 4.4l3.74 1.55c1.3.56 2.23 1.04 2.77 1.44.51.38.77.93.77 1.65 0 .91-.4 1.59-1.22 2.07-.83.48-1.88.73-3.13.73-3.44 0-6.71-1.58-9.74-4.7l-.08-.08-4.91 5.93.05.06c1.6 2.12 3.68 3.8 6.17 5 2.49 1.2 5.31 1.81 8.37 1.81 3.95 0 7.26-1 9.83-2.98 2.58-1.99 3.88-4.76 3.88-8.26 0-2.6-.8-4.72-2.39-6.31m-164.89-.02c-1.58-1.58-4.09-3.07-7.47-4.43l-3.39-1.41c-1.35-.56-2.3-1.05-2.83-1.47-.52-.41-.77-.91-.77-1.55 0-.77.31-1.35.94-1.75.64-.41 1.55-.62 2.7-.62 2.83 0 5.44 1.11 7.76 3.29l.08.07 4.91-6-.06-.06c-3.16-3.49-7.4-5.25-12.63-5.25-3.81 0-6.95.93-9.33 2.77-2.39 1.84-3.6 4.46-3.6 7.77 0 2.6.8 4.74 2.39 6.35 1.58 1.6 4 3.08 7.19 4.4l3.74 1.55c1.3.56 2.23 1.04 2.77 1.44.51.38.77.93.77 1.65 0 .91-.4 1.59-1.22 2.07-.83.48-1.88.73-3.13.73-3.44 0-6.71-1.58-9.74-4.7l-.08-.08-4.91 5.93.05.06c1.6 2.12 3.68 3.8 6.17 5 2.49 1.2 5.31 1.81 8.37 1.81 3.95 0 7.26-1 9.83-2.98 2.58-1.99 3.88-4.76 3.88-8.26 0-2.6-.8-4.72-2.39-6.31m51.12-44.28l-13.61-18.2v-.14l13.34-16.46h10.62l-13.33 16.12 14.09 18.68h-11.11zm-23.03-50.09h9.31v50h-9.31zm35.08 99.86h-.08c-1.25 2.23-4.38 3.69-7.58 3.55-4.8-.21-7.86-3.2-8.42-6.75h26.16c1.25-12.24-6.12-21.5-17.67-21.5-10.64 0-18.09 8.07-18.09 18.37 0 9.74 6.33 18.37 18.02 18.37 6.47 0 12.12-2.68 15.35-7.6l-7.68-4.44zm-7.66-16.28c4.04 0 7.17 2.16 8.21 5.77h-16.56c.97-3.48 4.24-5.77 8.35-5.77m-49.92-60.28c3.71 0 6.68 2.23 7.79 5.2l8.16-4.82c-2.6-5.57-8.53-9.28-15.96-9.28-11.5 0-18.55 8.16-18.55 18.18s7.05 18.55 18.55 18.55c7.42 0 13.36-3.71 15.96-9.65l-8.16-4.82c-1.11 3.34-4.08 5.2-7.79 5.2-5.57 0-8.91-4.08-8.91-9.28 0-4.82 3.34-9.28 8.91-9.28" fill="#003fa7"/></svg>