<svg width="449" height="140" fill="none" xmlns="http://www.w3.org/2000/svg"><g clip-path="url(#clip0_66_578)"><path fill-rule="evenodd" clip-rule="evenodd" d="M42.174 26.856c-5.518 1.706-9.593 7.033-9.601 12.552l-.005 3.105-2.722.97c-3.43 1.223-6.639 4.104-8.142 7.312-1.724 3.68-1.61 9.177.27 12.963C25.31 70.472 33.173 74.25 39 71.938c.856-.34.971-.011.971 2.774 0 2.747-.127 3.123-.971 2.876-6.68-1.954-14.792-1.801-21.512.407-5.18 1.702-11.337 1.972-14.52.638-1.096-.46-2.211-.835-2.48-.835-.268 0-.487 1.357-.487 3.017v3.017l2.536.972c4.02 1.54 9.5 1.265 15.99-.804 6.914-2.204 9.845-2.215 18.577-.076 3.752.92 7.18 1.671 7.62 1.671.67 0 .799-1.925.799-11.974V61.647l-2.868 2.068c-2.404 1.732-3.415 2.1-6.246 2.275-2.836.175-3.684 0-5.29-1.095-2.79-1.901-4.162-4.586-4.113-8.044.074-5.088 3.672-8.439 9.648-8.982 1.825-.166 3.317-.362 3.317-.435 0-.073-.401-1.096-.891-2.274-1.853-4.448.14-10.333 4.148-12.252 2.492-1.194 7.471-1.104 9.645.173 2.744 1.612 3.932 3.682 4.193 7.303.165 2.291-.03 3.775-.657 4.993-1.2 2.328-1.193 2.344 1.188 2.348 8.608.013 13.621 7.003 9.979 13.913-1.561 2.963-4.175 4.463-7.772 4.463-2.724 0-6.247-1.403-7.586-3.022-.398-.482-.949-.876-1.223-.876-.283 0-.433 5.106-.348 11.835.095 7.497.353 11.802.705 11.744.305-.05 3.053-.756 6.106-1.567 3.053-.812 7.454-1.618 9.779-1.793 3.746-.281 4.913-.105 10.27 1.55 6.862 2.122 12.206 2.371 16.224.758 2.31-.927 2.31-.927 2.31-3.93 0-1.651-.22-3.002-.488-3.002s-1.384.376-2.48.835c-3.283 1.376-9.072 1.063-15.442-.835-6.322-1.885-11.645-2.154-17.536-.886-1.908.412-3.48.716-3.492.677-.012-.038-.103-1.4-.202-3.025-.155-2.534-.054-2.905.716-2.606 5.538 2.15 13.164-1.598 16.438-8.08 3.114-6.166 2.138-12.298-2.713-17.038-1.892-1.848-3.754-3.084-5.365-3.562l-2.467-.731-.035-3.122c-.105-9.474-10.5-15.755-20.8-12.57zm75.079 36.043c.146 4.727.251 5.152 1.27 5.152.882 0 1.146-.43 1.282-2.089.149-1.796.363-2.089 1.527-2.089 1.336 0 1.429.183 1.575 3.064.037.708.512 1.178 1.306 1.292 1.221.174 1.249.058 1.249-5.191s-.028-5.365-1.249-5.19c-1.024.145-1.234.504-1.167 1.988.074 1.644-.065 1.81-1.527 1.81-1.468 0-1.608-.17-1.608-1.95 0-1.715-.169-1.95-1.409-1.95h-1.409l.16 5.153zm10.773-.476c-1.747 5.622-1.763 5.906-.329 5.906.687 0 1.328-.54 1.651-1.392.326-.86.963-1.393 1.666-1.393.702 0 1.339.533 1.665 1.393.572 1.51 2.776 1.974 2.776.586 0-.444-.636-2.825-1.413-5.291-1.329-4.223-1.503-4.485-2.987-4.485-1.491 0-1.655.253-3.029 4.676zm8.657.476l.16 5.152 3.469.166c3.015.143 3.47.308 3.47 1.253 0 .716.379 1.087 1.11 1.087.926 0 1.11-.371 1.11-2.228 0-1.225-.249-2.228-.555-2.228-.321 0-.555-1.776-.555-4.216 0-4.053-.048-4.209-1.249-4.038-1.146.164-1.262.511-1.412 4.208-.158 3.9-.207 4.026-1.527 3.917-1.313-.11-1.363-.264-1.363-4.17 0-3.97-.03-4.055-1.409-4.055h-1.409l.16 5.152zm10.126-4.448c-.166.433-.228 2.77-.138 5.193.16 4.284.203 4.407 1.55 4.407 1.092 0 1.702-.588 2.879-2.774l1.493-2.774.174 2.774c.148 2.344.347 2.774 1.285 2.774 1.028 0 1.11-.372 1.11-5.013 0-4.736-.067-5.022-1.218-5.186-.963-.138-1.565.436-2.88 2.745l-1.662 2.92-.173-2.741c-.132-2.085-.406-2.785-1.146-2.926-.536-.102-1.109.169-1.274.6zm11.126.64c-1.75 1.756-2.233 3.843-1.371 5.93 1.487 3.602 5.108 4.382 7.801 1.68 1.839-1.844 2.118-4.15.81-6.686-1.387-2.692-5.016-3.155-7.24-.924zm9.163 3.947c0 5.249.028 5.365 1.249 5.19 1.003-.142 1.283-.588 1.421-2.266.147-1.78.368-2.089 1.493-2.089 1.126 0 1.347.309 1.494 2.09.138 1.677.418 2.123 1.421 2.266 1.221.174 1.249.058 1.249-5.191s-.028-5.365-1.249-5.19c-.958.136-1.29.6-1.423 1.988-.143 1.484-.411 1.81-1.492 1.81-1.08 0-1.349-.326-1.491-1.81-.133-1.388-.465-1.852-1.423-1.989-1.221-.174-1.249-.058-1.249 5.191zm10.859-.615c-1.713 5.633-1.727 5.906-.298 5.906.688 0 1.329-.54 1.652-1.392.707-1.867 2.63-1.851 3.341.028.48 1.263.789 1.395 2.802 1.193 2.996-.3 4.037-1.472 4.39-4.942.462-4.542 1.6-4.06 1.794.759.15 3.744.265 4.09 1.413 4.254 1.221.174 1.249.057 1.249-5.179v-5.356l-3.47.165-3.469.166-.164 3.71c-.122 2.78-.385 3.794-1.051 4.05-1.106.427-.909.765-2.331-4-1.138-3.81-1.296-4.038-2.821-4.038-1.543 0-1.68.21-3.037 4.676zm18.008.576v5.33h1.907c4.433 0 6.879-2.542 5.086-5.287-.515-.789-1.661-1.58-2.546-1.757-1.223-.246-1.65-.676-1.779-1.791-.119-1.033-.54-1.522-1.419-1.647-1.22-.174-1.249-.057-1.249 5.152zm8.738-4.834c-.115.23-.192 2.548-.17 5.151.038 4.428.119 4.746 1.252 4.908 1.041.149 1.237-.127 1.386-1.95.151-1.836.376-2.145 1.666-2.295 1.363-.158 1.506.01 1.665 1.95.139 1.692.399 2.122 1.285 2.122 1.019 0 1.123-.425 1.27-5.152l.159-5.152h-1.408c-1.24 0-1.409.234-1.409 1.95 0 1.794-.132 1.949-1.665 1.949-1.534 0-1.666-.155-1.666-1.95 0-1.558-.216-1.95-1.077-1.95-.593 0-1.172.189-1.288.419zm12.192-.032c-.15.247-.907 2.531-1.683 5.075-1.185 3.885-1.282 4.676-.607 4.936.957.368 2.456-.75 2.456-1.832 0-.438.57-.768 1.328-.768.936 0 1.425.392 1.659 1.329.295 1.177.647 1.328 3.101 1.328 2.642 0 2.8-.086 3.448-1.885.862-2.391 1.999-2.43 2.226-.075.132 1.38.437 1.81 1.284 1.81 1.028 0 1.11-.372 1.11-5.013v-5.013l-1.881-.18c-2.8-.268-4.468.328-5.156 1.844-.476 1.048-.436 1.642.179 2.63.699 1.124.678 1.503-.179 3.186-1.078 2.122-.947 2.289-2.821-3.58-1.094-3.427-1.424-3.92-2.719-4.07-.811-.095-1.596.03-1.745.278zm18.73.335c-.162.423-.221 2.753-.131 5.176.152 4.088.254 4.42 1.413 4.585 1.201.17 1.249.015 1.249-4.038v-4.216h3.331v4.216c0 4.053.048 4.209 1.249 4.038 1.19-.17 1.249-.417 1.249-5.191v-5.013l-4.032-.163c-3.036-.123-4.106.026-4.328.606zm9.983.024c-.157.41-.211 2.729-.121 5.152.147 3.98.271 4.407 1.274 4.407.846 0 1.151-.43 1.284-1.81.14-1.454.42-1.81 1.421-1.81.685 0 1.643-.314 2.129-.697 2.83-2.232.674-5.987-3.439-5.987-1.378 0-2.374.291-2.548.745zm9.924.092c-1.905 1.338-2.607 4.239-1.609 6.638 1.409 3.383 4.997 4.082 7.592 1.48 4.407-4.422-.933-11.667-5.983-8.118zm10.196-.466c-.203.204-.37 1.66-.37 3.236 0 1.656-.344 3.32-.815 3.945-1.149 1.524-1.125 5.258.035 5.258.486 0 1.015-.501 1.174-1.114.233-.894.757-1.114 2.659-1.114 1.902 0 2.426.22 2.66 1.114.159.613.699 1.114 1.2 1.114.806 0 .871-.648.563-5.709-.192-3.14-.445-6.022-.564-6.405-.227-.734-5.855-1.014-6.542-.325zm9.58 1.257c-4.532 4.547 1.589 11.878 6.43 7.7.96-.828 1.556-2.02 1.755-3.508.252-1.888.058-2.544-1.194-4.037-2.02-2.408-4.687-2.467-6.991-.155zm9.48 3.734v5.362l2.758-.266c1.516-.146 3.14-.585 3.608-.974.983-.819 1.132-3.41.248-4.297-.435-.436-.435-.71 0-.98 1.013-.628.673-2.423-.631-3.34-.679-.477-2.302-.867-3.609-.867h-2.374v5.362zm9.69-3.995c-1.789 1.795-2.008 4.998-.503 7.357 1.63 2.555 6.671 2.104 7.95-.712 1.804-3.971-.259-8.012-4.091-8.012-1.376 0-2.415.423-3.356 1.367zm10.271-1.228c-.013.077-.123 1.76-.245 3.743-.155 2.548-.494 3.804-1.155 4.29-1.16.85-.624 2.677.642 2.19.48-.185 1.063-.337 1.294-.337.796 0 1.709-2.841 1.709-5.317 0-1.8.221-2.48.808-2.48.619 0 .847.949.972 4.038.149 3.705.266 4.052 1.412 4.216 1.221.174 1.249.057 1.249-5.152v-5.33h-3.331c-1.832 0-3.342.062-3.355.14zm8.469 4.971l.16 5.194 2.718-.04c2.134-.032 2.94-.314 3.748-1.315 1.895-2.35.846-4.78-2.339-5.42-1.18-.236-1.609-.677-1.737-1.783-.12-1.041-.539-1.52-1.44-1.649-1.255-.178-1.269-.119-1.11 5.013zm9.796-3.445c-1.203 1.207-1.586 2.116-1.586 3.765 0 2.973 1.897 4.759 5.128 4.825 2.06.043 2.389-.116 2.546-1.226.159-1.12.006-1.23-1.271-.908-1.882.473-3.628-1.054-3.628-3.175 0-1.766 1.661-2.995 3.422-2.533.661.173 1.213-.043 1.408-.553.259-.678.409-.697.776-.102.25.406.902.74 1.449.743.834.005 1.011.546 1.095 3.347.055 1.838.117 3.655.139 4.038.021.383.527.696 1.124.696.963 0 1.105-.457 1.249-4.038.15-3.705.266-4.052 1.413-4.216.8-.114 1.249-.562 1.249-1.247 0-.995-.449-1.067-6.464-1.038-6.351.03-6.491.058-8.049 1.622zm15.303-.92c-.157.41-.211 2.729-.121 5.152l.163 4.407 2.854-.02c1.57-.012 3.256-.356 3.748-.765.986-.821 1.214-3.685.336-4.23-.371-.23-.372-.69-.002-1.384.678-1.269.215-2.639-1.136-3.364-1.512-.812-5.507-.672-5.842.204zm8.765 4.407l.16 5.152 3.192.167c2.847.148 3.192.05 3.192-.915 0-1.108-2.308-2.114-3.357-1.465-.291.181-.529-.187-.529-.818 0-.903.354-1.146 1.665-1.146 1.295 0 1.666-.248 1.666-1.114 0-.867-.371-1.114-1.666-1.114-1.11 0-1.665-.279-1.665-.836 0-.584.586-.835 1.943-.835 1.572 0 1.943-.212 1.943-1.114 0-.991-.371-1.114-3.352-1.114h-3.352l.16 5.152zm7.772 0c.146 4.727.251 5.152 1.27 5.152.885 0 1.146-.43 1.285-2.122.159-1.94.302-2.108 1.665-1.95 1.295.15 1.495.43 1.519 2.122.025 1.687.211 1.95 1.381 1.95 1.332 0 1.352-.075 1.36-5.013.007-4.977-.003-5.013-1.381-5.013-1.233 0-1.368.203-1.208 1.81.169 1.69.067 1.81-1.526 1.81-1.581 0-1.707-.144-1.707-1.949 0-1.715-.169-1.95-1.409-1.95h-1.409l.16 5.153zm9.992 0c.147 4.727.252 5.152 1.27 5.152.886 0 1.146-.43 1.285-2.122.159-1.94.303-2.108 1.666-1.95 1.301.15 1.491.421 1.491 2.122 0 1.598.225 1.982 1.249 2.128 1.221.174 1.249.058 1.249-5.191s-.028-5.365-1.249-5.19c-1.011.143-1.243.523-1.219 1.988.027 1.619-.133 1.81-1.526 1.81-1.41 0-1.558-.185-1.558-1.95 0-1.715-.168-1.95-1.409-1.95h-1.408l.159 5.153zm10.782-.505c-1.757 5.653-1.772 5.935-.338 5.935.688 0 1.329-.54 1.652-1.392.326-.86.962-1.393 1.665-1.393.703 0 1.34.533 1.666 1.393.618 1.632 2.78 1.958 2.768.418-.004-.537-.603-2.855-1.332-5.152-1.227-3.868-1.447-4.19-2.971-4.346-1.612-.166-1.677-.07-3.11 4.537zm9.765-3.78c-1.291.907-1.639 2.96-.666 3.936.386.388.298 1.215-.278 2.6-1.111 2.668-1.068 3.18.274 3.18.732 0 1.439-.674 2.045-1.95 1.156-2.43 1.711-2.47 1.936-.14.133 1.388.465 1.853 1.422 1.989 1.221.174 1.249.057 1.249-5.152v-5.33h-2.374c-1.306 0-2.93.39-3.608.867zm10.541 4.256c.147 4.756.251 5.18 1.27 5.18.993 0 1.128-.425 1.273-4.004l.163-4.004 1.78-.173c1.136-.11 1.781-.475 1.781-1.008 0-.627-.802-.877-3.213-1.003l-3.214-.168.16 5.18zm7.099.207c0 5.209.029 5.326 1.25 5.152.957-.136 1.289-.601 1.422-1.988.141-1.463.418-1.81 1.441-1.81 2.866 0 4.208-4.174 1.87-5.817-.678-.477-2.302-.867-3.608-.867h-2.375v5.33zm7.772-4.84c0 .269.642 1.895 1.426 3.612 1.431 3.138 1.413 4.252-.07 4.252-.926 0-1.081 1.432-.214 1.97.323.2 1.218.204 1.989.01 1.08-.272 1.841-1.303 3.3-4.472 2.196-4.768 2.34-5.862.775-5.862-1.052 0-1.545.72-2.473 3.609-.298.926-.524.725-1.406-1.253-.741-1.66-1.387-2.356-2.189-2.356-.626 0-1.138.22-1.138.49zm9 4.638c.151 4.887.23 5.186 1.409 5.354 1.201.17 1.249.015 1.249-4.038 0-4.106.036-4.216 1.364-4.216 1.308 0 1.37.166 1.527 4.038.149 3.705.265 4.052 1.412 4.216 1.212.173 1.249.036 1.249-4.595 0-2.626.062-4.96.139-5.19.076-.23-1.807-.492-4.185-.582l-4.323-.162.159 5.175zm9.875.202c0 5.209.029 5.326 1.249 5.152 1.147-.164 1.263-.51 1.413-4.216.155-3.852.224-4.038 1.502-4.038 1.277 0 1.347.186 1.502 4.038.146 3.612.28 4.038 1.274 4.038 1.018 0 1.123-.425 1.27-5.152l.159-5.152h-8.369v5.33zm11.915-4.634c-1.097 2.901-2.839 9.338-2.594 9.583.811.814 2.345.187 2.664-1.09.242-.964.729-1.392 1.587-1.392.783 0 1.472.513 1.871 1.393.371.817 1.097 1.392 1.755 1.392.617 0 1.122-.138 1.122-.308 0-.17-.669-2.55-1.487-5.291-1.42-4.76-1.557-4.983-3.071-4.983-.871 0-1.702.313-1.847.696zM159.537 61.39c-.744 1.14-.801 1.685-.295 2.8 1.316 2.898 3.97 1.945 3.97-1.425 0-2.857-2.176-3.67-3.675-1.375zm67.239-.858c-.465.754.162 1.67 1.143 1.67.44 0 .8-.5.8-1.113 0-1.153-1.34-1.538-1.943-.557zm21.373.814c0 1.294.125 1.386 1.144.838 1.292-.694 1.173-1.84-.219-2.11-.673-.132-.925.215-.925 1.272zm8.993-.703c-.956.96-.822 4.079.213 4.94 1.271 1.059 2.689-.024 2.906-2.22.271-2.749-1.527-4.317-3.119-2.72zm10.992.966c0 .9-.244 2.278-.541 3.064-.491 1.295-.413 1.428.832 1.428 1.295 0 1.374-.175 1.374-3.063 0-2.351-.193-3.063-.832-3.063-.552 0-.833.553-.833 1.634zm8.8-.283c-1.161 2.557.416 5.253 2.585 4.418 2.109-.812 1.39-5.77-.837-5.77-.662 0-1.39.563-1.748 1.352zm10.075-.475c0 .519.377.803.925.696 1.393-.27 1.584-1.572.231-1.572-.682 0-1.156.36-1.156.876zm9.548-.208c-.956.96-.821 4.079.213 4.94 1.272 1.059 2.689-.024 2.906-2.22.271-2.749-1.527-4.317-3.119-2.72zm44.301.167c0 .574.363.847.971.73 1.17-.226 1.096-1.215-.109-1.467-.503-.105-.862.202-.862.737zm46.175.093c.269 1.398 1.567 1.59 1.567.232 0-.684-.359-1.16-.873-1.16-.518 0-.801.378-.694.928zm18.776.447c0 .993.231 1.285.833 1.054.458-.176.833-.795.833-1.375s-.375-1.054-.833-1.054c-.515 0-.833.524-.833 1.375zm-187.799.853c-.182.696-.017 1.113.439 1.113.455 0 .62-.417.438-1.113-.16-.613-.357-1.114-.438-1.114-.082 0-.279.5-.439 1.114zm224.833 0c-.182.696-.017 1.113.438 1.113.456 0 .62-.417.439-1.113-.16-.613-.357-1.114-.439-1.114-.081 0-.278.5-.438 1.114zm-312.385.278c0 .46.25.835.556.835.305 0 .555-.375.555-.835 0-.46-.25-.835-.555-.835-.306 0-.556.376-.556.835zm49.963-.033c0 .477.25.868.555.868.306 0 .556-.235.556-.524 0-.288-.25-.678-.556-.868-.305-.19-.555.047-.555.524zm197.631.033c0 .46.25.835.555.835.306 0 .555-.375.555-.835 0-.46-.249-.835-.555-.835-.305 0-.555.376-.555.835zM198.741 64.71c0 1.514.519 1.763 1.541.737.477-.478.489-.854.043-1.392-.943-1.141-1.584-.876-1.584.655zm117.135 0c0 1.557 1.345 1.92 1.885.507.422-1.102-.034-1.9-1.085-1.9-.483 0-.8.552-.8 1.393zm-28.867.278c0 .743.37 1.114 1.11 1.114.74 0 1.11-.371 1.11-1.114 0-.742-.37-1.113-1.11-1.113-.74 0-1.11.371-1.11 1.113zm53.849.041c0 1.428 1.837 1.265 2.116-.186.128-.668-.171-.968-.966-.968-.794 0-1.15.357-1.15 1.154zM122.871 77.682c-4.085 1.463-6.541 3.555-8.225 7.008-3.947 8.095-1.234 17.44 6.064 20.882 3.234 1.525 8.711 2.001 12.247 1.064 2.593-.687 2.768-.844 2.657-2.394-.267-3.735-.549-4.136-2.516-3.57-4.588 1.321-9.142-.012-11.363-3.324-.969-1.444-1.269-2.678-1.269-5.207 0-4.081 1.17-6.705 3.685-8.264 1.617-1.003 2.574-1.15 6.401-.984l4.5.196.694-2.352c.933-3.168.255-3.65-5.467-3.892-3.387-.142-5.267.07-7.408.837zm145.818-.533l-2.498.37-.148 14.62-.148 14.621h7.235V96.178l3.192-.013c5.484-.021 9.214-2.474 10.719-7.05 1.393-4.233-.683-9.065-4.722-10.988-2.192-1.043-9.602-1.575-13.63-.978zm84.515.54c-3.075 1.228-6.123 4.183-7.568 7.338-.862 1.88-1.156 3.655-1.162 7.013-.007 3.914.207 4.911 1.657 7.725 2.035 3.947 4.966 6.198 9.241 7.098 6.575 1.383 12.715-1.552 15.675-7.491 1.361-2.73 1.6-3.873 1.6-7.642 0-3.688-.252-4.95-1.504-7.516-2.415-4.952-6.661-7.487-12.521-7.476-1.679.004-4.117.431-5.418.95zm81.654-.457c-3.111.662-5.54 1.98-6.579 3.572-1.385 2.12-1.899 4.626-1.347 6.56.562 1.962 3.108 4.914 4.24 4.914 1.039 0 .927.273-.847 2.053-.922.924-2.106 3.2-2.852 5.474-.701 2.14-1.622 4.581-2.046 5.423l-.771 1.532h3.832c4.251 0 3.736.464 5.717-5.152 1.405-3.985 2.28-5.355 3.831-6 2.951-1.226 3.302-.634 3.302 5.565v5.587h3.27c3.249 0 3.27-.011 3.601-1.811.292-1.591-.051-27.179-.369-27.497-.44-.442-11.092-.622-12.982-.22zm-290.723 2.654c-.791 2.472-7.296 23.75-7.918 25.899-.248.858.153.975 3.342.975h3.625l.854-2.887c.47-1.586.854-3.216.854-3.62 0-.518.979-.755 3.331-.804 1.832-.038 3.74-.1 4.24-.139.661-.05 1.213.956 2.025 3.69l1.117 3.76h7.052V114h2.775c2.657 0 2.776-.066 2.782-1.532.004-.842.161-2.471.351-3.62l.344-2.088h16.509V114h5.551l.099-5.013c.055-2.757.117-5.576.139-6.265.028-.891-.322-1.305-1.209-1.432l-1.25-.177V77.241h-19.845l-.281 7.936c-.218 6.145-.546 8.678-1.455 11.218-1.373 3.839-2.057 4.795-3.431 4.795-.684 0-1.061.49-1.181 1.532-.113.981-1.662-3.322-4.314-11.975l-4.138-13.506h-9.121l-.847 2.645zm48.629 11.975l.148 14.62 5.274.179c2.901.098 6.611-.113 8.245-.47 5.583-1.221 9.004-5.944 8.118-11.209-.766-4.545-5.42-7.762-11.432-7.9l-3.266-.076v-9.764h-7.235l.148 14.62zm24.297.14v14.759h6.661V77.24h-6.661V92zm21.65 0v14.759h6.64l.15-11.836.15-11.835 4.857-.161 4.858-.161v23.993h7.216V77.24h-23.871V92zm50.648-.14l.148 14.62 3.902.161 3.902.162 3.976-7.124c2.187-3.918 4.484-8.25 5.107-9.63l1.131-2.506.012 9.608.012 9.608h6.662V77.24h-7.551l-1.217 2.368c-.669 1.302-3.089 5.876-5.376 10.164l-4.159 7.798-.009-10.165-.008-10.164h-6.68l.148 14.62zm32.055-7.798c-.015 7.305-.471 10.169-2.298 14.431-.918 2.142-1.427 2.696-2.475 2.696-1.313 0-1.32.033-1.32 6.405V114h2.706c2.587 0 2.722-.077 3.054-1.74.191-.958.347-2.587.347-3.621v-1.879h16.601l.165 3.481.165 3.481 2.558.166 2.558.167.356-2.612c.197-1.436.357-4.33.357-6.432 0-3.705-.042-3.821-1.387-3.821h-1.388V77.241h-19.985l-.014 6.822zm53.437 7.798l.148 14.62 3.469.166 3.47.165V94.506h10.548v12.254h7.217V77.24h-7.217v11.14h-10.548V77.24h-7.235l.148 14.62zm28.182.183v14.804l7.097-.184c6.321-.163 7.399-.339 9.854-1.608 6.371-3.294 7.017-12.036 1.181-15.996-2.028-1.376-7.544-2.522-9.623-1.999-1.281.323-1.292.285-1.292-4.748v-5.072h-7.217v14.803zM273.13 86.358v4.25h2.402c2.908 0 4.815-1.69 4.815-4.266 0-2.25-1.603-3.599-4.696-3.948l-2.521-.286v4.25zm82.394-3.054c-2.363 1.445-3.564 4.269-3.564 8.38 0 6.207 2.313 9.506 6.663 9.506 2.087 0 2.832-.286 3.983-1.532 5.195-5.618 2.42-17.413-4.095-17.403-.702.002-2.046.473-2.987 1.049zm79.436.285c-.766.769-1.394 1.911-1.394 2.538 0 1.616 1.826 3.242 4.129 3.675 3.301.622 3.719.175 3.531-3.782l-.165-3.488-2.354-.171c-1.906-.139-2.616.094-3.747 1.228zM175.285 88.24c-.188 3.39-.739 6.678-1.468 8.752-.643 1.828-1.168 3.48-1.168 3.672 0 .192 1.937.327 4.303.298l4.302-.052.153-9.05.152-9.05h-5.972l-.302 5.43zm152.659.278c-.191 3.749-.692 6.838-1.46 8.999-.644 1.809-1.17 3.386-1.17 3.504 0 .118 1.935.142 4.302.052l4.302-.163.153-9.05.153-9.05h-5.989l-.291 5.708zm-179.996-.523c-.596 2.509-1.171 4.875-1.278 5.257-.137.492.644.696 2.66.696 2.459 0 2.813-.134 2.563-.974a390.93 390.93 0 01-1.412-5.092c-.616-2.265-1.195-4.192-1.285-4.283-.091-.09-.653 1.887-1.248 4.396zm-130.461.398c-5.625 1.85-8.593 2.034-13.234.821-1.758-.46-3.31-.835-3.447-.835-.138 0-.25 1.384-.25 3.077 0 2.834.12 3.126 1.526 3.699.84.342 3.65.737 6.245.878 4.188.227 5.306.062 9.927-1.47 6.664-2.21 10.019-2.22 18.85-.058 8.594 2.106 13.028 2.164 20.105.262 2.885-.775 7.493-1.55 10.24-1.723 4.563-.287 5.447-.164 10.182 1.409 5.945 1.976 10.884 2.251 15.532.866l2.877-.856V91.42c0-3.422-.036-3.44-4.113-2.2-4.085 1.243-7.673 1.02-13.463-.841-7.217-2.32-11.204-2.254-22.233.367l-8.576 2.039-8.248-2.039c-10.594-2.618-14.824-2.686-21.92-.353zm183.336 4.328c-.82.165-.972.836-.972 4.299 0 2.301.26 4.264.592 4.47.974.604 4.39-.287 5.546-1.446 1.466-1.471 1.427-4.613-.075-6.017-1.177-1.1-3.346-1.656-5.091-1.306zm210.121-.037c-.476.167-.694 1.626-.694 4.652v4.41l1.527-.001c2.351-.001 5.334-1.748 5.705-3.34.486-2.093-.019-3.879-1.335-4.726-1.3-.836-4.12-1.375-5.203-.995zm-393.457 6.34c-5.54 1.833-10.074 1.941-14.572.346l-2.36-.836v3.222c0 3.134.05 3.24 1.802 3.853 4.236 1.482 9.229 1.334 16.072-.475 3.57-.945 7.26-1.717 8.197-1.717.937 0 4.886.641 8.773 1.424 9.576 1.929 13.402 2.163 18.727 1.146a631.035 631.035 0 0110.077-1.811l5.636-.963 7.58 1.848c7.961 1.943 11.324 2.043 16.47.497l2.15-.647v-6.089l-1.804.405c-8.105 1.821-9.337 1.8-16.19-.272-6.917-2.093-9.533-2.093-20.033-.003-4.58.911-9.148 1.663-10.153 1.669-1.004.006-5.469-.74-9.922-1.66-10.24-2.113-13.908-2.101-20.45.063z" fill="#D4D4D4"/></g><defs><clipPath id="clip0_66_578"><path fill="#fff" transform="translate(0 26)" d="M0 0h448v88H0z"/></clipPath></defs></svg>