<svg width="879" height="863" fill="none" xmlns="http://www.w3.org/2000/svg"><g opacity=".56" fill-rule="evenodd" clip-rule="evenodd" fill="#FBFBFB"><path d="M172.769 608.684h231.874V788.92H230.359c-31.068 0-60.621 3.818-87.9-16.802-11.367-9.164-18.187-21.384-18.187-36.658 0-22.148 21.975-81.717 48.497-126.776zM727.448 124.49l-52.285 25.203C642.579 80.195 597.114-.758 563.772.005l-185.65 11.456c32.583 27.494 56.074 66.443 78.049 104.629 21.217 35.894 37.888 75.607 53.043 115.32l-57.59 28.258 206.111 74.08 69.713-209.258z"/><path d="M444.047 124.49L322.805 323.819l-152.309-94.7 90.931-149.688c16.67-26.73 28.795-54.223 59.863-66.442 13.639-5.347 27.279-4.583 40.919 3.054 18.944 11.456 57.589 61.861 81.838 108.447zm154.582 731.636l.758-58.805c76.534 1.527 168.98-3.819 182.62-34.367l72.745-172.599c-38.646 16.801-84.112 20.62-127.304 24.438-41.677 3.055-84.111 1.528-126.545-3.054l.757-65.68-166.707 145.106 163.676 164.961zM24.248 365.06l49.255 31.312C31.826 461.288-12.882 542.241 4.547 570.498L111.39 724.004c6.062-42.004 27.279-82.48 46.981-121.43 18.944-37.422 43.95-72.552 69.713-106.156l53.801 34.367-43.95-226.058L24.248 365.06z"/><path d="M724.417 600.283L600.903 402.482l151.551-96.228 92.447 148.924c16.671 26.73 35.615 49.641 32.583 84.008-1.515 14.511-8.335 26.73-21.217 35.131-18.186 12.219-80.322 24.439-131.85 25.966z"/></g></svg>