<?xml version="1.0" encoding="utf-8"?><svg viewBox="0 0 40 40" xmlns="http://www.w3.org/2000/svg" xmlns:xlink="http://www.w3.org/1999/xlink"><style>:root>svg{display:none}:root>svg:target{display:block}</style><svg viewBox="0 0 10 7" id="angle-down" xmlns="http://www.w3.org/2000/svg"><path d="M1 1l4 4 4-4" stroke="currentColor" stroke-width="1.5"/></svg><svg viewBox="0 0 7 10" id="angle-right" xmlns="http://www.w3.org/2000/svg"><path d="M1 9l4-4-4-4" stroke="currentColor" stroke-width="1.5"/></svg><svg viewBox="0 0 37 18" id="arrow-right" xmlns="http://www.w3.org/2000/svg"><path d="M.667 9H35m0 0l-8 8m8-8l-8-8" stroke="currentColor" stroke-width="2"/></svg><svg viewBox="0 0 40 40" id="box" xmlns="http://www.w3.org/2000/svg"><path d="M34.8 10.61L21.05 3.084a2.172 2.172 0 00-2.1 0L5.2 10.61a2.188 2.188 0 00-1.138 1.917v14.944A2.187 2.187 0 005.2 29.389l13.75 7.528a2.175 2.175 0 002.1 0L34.8 29.39a2.188 2.188 0 001.138-1.917V12.528a2.187 2.187 0 00-1.138-1.917zM19.844 4.728a.312.312 0 01.3 0l13.06 7.148-5.302 2.902-13.207-7.229 5.149-2.821zm-.782 30.117L6.095 27.745a.312.312 0 01-.157-.273V13.54l13.125 7.187v14.116zM6.796 11.875l5.949-3.258 13.204 7.228L20 19.1 6.795 11.875zm27.267 15.597a.312.312 0 01-.156.273l-12.968 7.099V20.725l5.625-3.08v6.105a.938.938 0 001.875 0v-7.13l5.625-3.08v13.932z"/></svg><svg viewBox="0 0 32 32" id="close" xmlns="http://www.w3.org/2000/svg"><path d="M25.53 24.47a.75.75 0 11-1.06 1.06L16 17.06 7.53 25.53a.75.75 0 01-1.06-1.06L14.939 16l-8.47-8.47a.75.75 0 011.06-1.06L16 14.939l8.47-8.47a.75.75 0 011.06 1.06L17.062 16l8.469 8.47z"/></svg><svg viewBox="0 0 32 32" id="download" xmlns="http://www.w3.org/2000/svg"><path d="M27.75 19v7A1.75 1.75 0 0126 27.75H6A1.75 1.75 0 014.25 26v-7a.75.75 0 111.5 0v7a.25.25 0 00.25.25h20a.25.25 0 00.25-.25v-7a.75.75 0 111.5 0zm-12.28.53a.75.75 0 001.06 0l5-5a.75.75 0 00-1.06-1.06l-3.72 3.719V5a.75.75 0 10-1.5 0v12.189l-3.72-3.719a.75.75 0 00-1.06 1.06l5 5z"/></svg><svg viewBox="0 0 24 24" id="email" xmlns="http://www.w3.org/2000/svg"><path d="M21 4.5H3a.75.75 0 00-.75.75V18a1.5 1.5 0 001.5 1.5h16.5a1.5 1.5 0 001.5-1.5V5.25A.75.75 0 0021 4.5zM19.072 6L12 12.483 4.928 6h14.144zm1.178 12H3.75V6.955l7.743 7.098a.75.75 0 001.014 0l7.743-7.098V18z"/></svg><svg viewBox="0 0 6 10" id="header-angle-right" xmlns="http://www.w3.org/2000/svg"><path d="M1 9l4-4-4-4" stroke="currentColor"/></svg><svg viewBox="0 0 16 16" id="header-email" xmlns="http://www.w3.org/2000/svg"><path d="M14 3H2a.5.5 0 00-.5.5V12a1 1 0 001 1h11a1 1 0 001-1V3.5A.5.5 0 0014 3zm-1.286 1L8 8.322 3.286 4h9.428zm.786 8h-11V4.637l5.162 4.732a.5.5 0 00.676 0L13.5 4.637V12z"/></svg><svg viewBox="0 0 16 16" id="header-phone" xmlns="http://www.w3.org/2000/svg"><path d="M13.898 9.904l-2.944-1.32-.008-.003a1 1 0 00-.995.122L8.429 10c-.963-.468-1.958-1.456-2.426-2.407L7.3 6.05a1 1 0 00.118-.99v-.007l-1.323-2.95a1 1 0 00-1.038-.594A3.516 3.516 0 002 5c0 4.963 4.038 9 9 9a3.516 3.516 0 003.492-3.057 1 1 0 00-.594-1.04zM11 13a8.009 8.009 0 01-8-8 2.512 2.512 0 012.18-2.5v.007l1.312 2.938L5.2 6.991a1 1 0 00-.098 1.03c.566 1.158 1.733 2.316 2.904 2.882a1 1 0 001.03-.107l1.52-1.296 2.937 1.316h.007A2.513 2.513 0 0111 13z"/></svg><svg viewBox="0 0 24 24" id="location" xmlns="http://www.w3.org/2000/svg"><path d="M12 6a3.75 3.75 0 100 7.5A3.75 3.75 0 0012 6zm0 6a2.25 2.25 0 110-4.5 2.25 2.25 0 010 4.5zm0-10.5a8.26 8.26 0 00-8.25 8.25c0 2.944 1.36 6.064 3.938 9.023a23.837 23.837 0 003.885 3.591.75.75 0 00.861 0 23.835 23.835 0 003.879-3.59c2.573-2.96 3.937-6.08 3.937-9.024A8.26 8.26 0 0012 1.5zm0 19.313c-1.55-1.22-6.75-5.696-6.75-11.063a6.75 6.75 0 0113.5 0c0 5.365-5.2 9.844-6.75 11.063z"/></svg><svg viewBox="0 0 24 24" id="phone" xmlns="http://www.w3.org/2000/svg"><path d="M20.847 14.855l-4.416-1.979-.013-.005a1.5 1.5 0 00-1.492.184L12.644 15c-1.446-.702-2.938-2.184-3.64-3.61l1.948-2.317a1.5 1.5 0 00.177-1.484v-.011L9.144 3.154a1.5 1.5 0 00-1.558-.893A5.274 5.274 0 003 7.5C3 14.944 9.056 21 16.5 21a5.274 5.274 0 005.239-4.586 1.5 1.5 0 00-.892-1.559zM16.5 19.5a12.014 12.014 0 01-12-12 3.769 3.769 0 013.27-3.75v.011l1.968 4.406-1.938 2.32a.574.574 0 00-.053.072 1.5 1.5 0 00-.094 1.472c.85 1.737 2.6 3.474 4.355 4.323a1.5 1.5 0 001.477-.107.804.804 0 00.07-.053l2.278-1.944 4.407 1.973h.01A3.77 3.77 0 0116.5 19.5z"/></svg><svg viewBox="0 0 24 30" id="recycle" xmlns="http://www.w3.org/2000/svg"><path d="M8.812 22.5a.563.563 0 01-.562.563h-4.5a2.063 2.063 0 01-1.781-3.094L5.41 14.02l-1.758.47a.563.563 0 01-.291-1.088l3.072-.823a.562.562 0 01.692.4l.825 3.071a.562.562 0 01-1.087.292l-.468-1.763-3.453 5.951a.938.938 0 00.808 1.407h4.5a.562.562 0 01.562.562zm13.22-2.531l-2.17-3.75a.562.562 0 00-.973.562l2.17 3.75a.938.938 0 01-.809 1.407h-6.893l1.29-1.29a.563.563 0 00-.795-.795l-2.25 2.25a.562.562 0 000 .795l2.25 2.25a.562.562 0 00.796-.795l-1.29-1.29h6.892a2.063 2.063 0 001.781-3.094zM12.81 6.28l3.442 5.948-1.758-.469a.562.562 0 00-.292 1.084l3.073.824a.563.563 0 00.688-.399l.824-3.073a.562.562 0 10-1.085-.291l-.474 1.764-3.448-5.95a2.063 2.063 0 00-3.562 0l-2.175 3.75a.563.563 0 00.974.562l2.171-3.75a.937.937 0 011.622 0z"/></svg><svg viewBox="0 0 40 40" id="truck" xmlns="http://www.w3.org/2000/svg"><path d="M38.37 18.403l-2.187-5.469a2.176 2.176 0 00-2.031-1.375h-5.715V10a.938.938 0 00-.937-.938H3.75a2.188 2.188 0 00-2.188 2.188v17.5a2.187 2.187 0 002.188 2.188h2.906a4.688 4.688 0 009.188 0h8.312a4.688 4.688 0 009.188 0h2.906a2.188 2.188 0 002.188-2.188v-10a.937.937 0 00-.068-.347zm-9.932-4.965h5.715a.312.312 0 01.29.196l1.673 4.178h-7.678v-4.375zm-25-2.188a.313.313 0 01.312-.313h22.813v10.626H3.438V11.25zm7.812 21.563a2.813 2.813 0 110-5.626 2.813 2.813 0 010 5.625zm12.906-3.75h-8.312a4.688 4.688 0 00-9.188 0H3.75a.312.312 0 01-.313-.313v-5.313h23.125v2.42a4.703 4.703 0 00-2.406 3.206zm4.594 3.75a2.813 2.813 0 110-5.626 2.813 2.813 0 010 5.625zm7.813-4.063a.313.313 0 01-.313.313h-2.906a4.696 4.696 0 00-4.594-3.75c-.105 0-.21 0-.313.01v-5.636h8.125v9.063z"/></svg></svg>