<?xml version="1.0" encoding="utf-8"?><svg viewBox="0 0 40 40" xmlns="http://www.w3.org/2000/svg" xmlns:xlink="http://www.w3.org/1999/xlink"><style>:root>svg{display:none}:root>svg:target{display:block}</style><svg viewBox="0 0 10 7" id="angle-down" xmlns="http://www.w3.org/2000/svg"><path d="M1 1l4 4 4-4" stroke="currentColor" stroke-width="1.5"/></svg><svg viewBox="0 0 7 10" id="angle-right" xmlns="http://www.w3.org/2000/svg"><path d="M1 9l4-4-4-4" stroke="currentColor" stroke-width="1.5"/></svg><svg viewBox="0 0 37 18" id="arrow-right" xmlns="http://www.w3.org/2000/svg"><path d="M.667 9H35m0 0l-8 8m8-8l-8-8" stroke="currentColor" stroke-width="2"/></svg><svg viewBox="0 0 40 40" id="box" xmlns="http://www.w3.org/2000/svg"><path d="M34.8 10.61L21.05 3.084a2.172 2.172 0 00-2.1 0L5.2 10.61a2.188 2.188 0 00-1.138 1.917v14.944A2.187 2.187 0 005.2 29.389l13.75 7.528a2.175 2.175 0 002.1 0L34.8 29.39a2.188 2.188 0 001.138-1.917V12.528a2.187 2.187 0 00-1.138-1.917zM19.844 4.728a.312.312 0 01.3 0l13.06 7.148-5.302 2.902-13.207-7.229 5.149-2.821zm-.782 30.117L6.095 27.745a.312.312 0 01-.157-.273V13.54l13.125 7.187v14.116zM6.796 11.875l5.949-3.258 13.204 7.228L20 19.1 6.795 11.875zm27.267 15.597a.312.312 0 01-.156.273l-12.968 7.099V20.725l5.625-3.08v6.105a.938.938 0 001.875 0v-7.13l5.625-3.08v13.932z"/></svg><svg viewBox="0 0 32 32" id="close" xmlns="http://www.w3.org/2000/svg"><path d="M25.53 24.47a.75.75 0 11-1.06 1.06L16 17.06 7.53 25.53a.75.75 0 01-1.06-1.06L14.939 16l-8.47-8.47a.75.75 0 011.06-1.06L16 14.939l8.47-8.47a.75.75 0 011.06 1.06L17.062 16l8.469 8.47z"/></svg><svg viewBox="0 0 24 24" id="document" xmlns="http://www.w3.org/2000/svg"><path d="M19.275 6.975l-5.25-5.25A.68.68 0 0013.5 1.5H6c-.825 0-1.5.675-1.5 1.5v18c0 .825.675 1.5 1.5 1.5h12c.825 0 1.5-.675 1.5-1.5V7.5a.68.68 0 00-.225-.525zM13.5 3.3l4.2 4.2h-4.2V3.3zM18 21H6V3h6v4.5c0 .825.675 1.5 1.5 1.5H18v12z"/><path d="M7.5 16.5h9V18h-9v-1.5zm0-4.5h9v1.5h-9V12z"/></svg><svg viewBox="0 0 32 32" id="download" xmlns="http://www.w3.org/2000/svg"><path d="M27.75 19v7A1.75 1.75 0 0126 27.75H6A1.75 1.75 0 014.25 26v-7a.75.75 0 111.5 0v7a.25.25 0 00.25.25h20a.25.25 0 00.25-.25v-7a.75.75 0 111.5 0zm-12.28.53a.75.75 0 001.06 0l5-5a.75.75 0 00-1.06-1.06l-3.72 3.719V5a.75.75 0 10-1.5 0v12.189l-3.72-3.719a.75.75 0 00-1.06 1.06l5 5z"/></svg><svg viewBox="0 0 24 24" id="email" xmlns="http://www.w3.org/2000/svg"><path d="M21 4.5H3a.75.75 0 00-.75.75V18a1.5 1.5 0 001.5 1.5h16.5a1.5 1.5 0 001.5-1.5V5.25A.75.75 0 0021 4.5zM19.072 6L12 12.483 4.928 6h14.144zm1.178 12H3.75V6.955l7.743 7.098a.75.75 0 001.014 0l7.743-7.098V18z"/></svg><svg viewBox="0 0 40 40" id="filter" xmlns="http://www.w3.org/2000/svg"><path d="M5.35 9.736h0c-.08.553-.082 1.256-.082 2.13v1.074c0 .688 0 1.237.048 1.686v.001c.05.473.151.87.376 1.24L5.35 9.736zm0 0c.084-.583.263-1.065.67-1.446l-.67 1.446zm1.283 7.063h.001c.39.269.893.552 1.529.906h0L12.268 20h0c.899.502 1.296.726 1.57.96a3.27 3.27 0 011.12 1.835c.076.338.077.746.077 1.684v3.75c0 .595.001 1.08.047 1.474.05.42.153.779.386 1.105h.001c.231.324.543.547.934.747h0c.371.19.849.377 1.445.607l.002.002.117.046h.003l.043.017c1.243.482 2.222.86 3.006 1.044h0c.819.192 1.524.202 2.142-.181h0c.623-.386.892-1.01 1.017-1.8h0c.12-.758.122-1.762.122-3.028v-3.783c0-.945.004-1.348.08-1.686h0c.163-.727.52-1.317 1.111-1.827h.001c.275-.237.67-.46 1.576-.966l4.105-2.293h0c.636-.355 1.14-.638 1.529-.906v-.001c.405-.278.715-.561.941-.932l-27.01.932zm0 0c-.404-.278-.714-.561-.94-.932l.94.932zm27.353-7.063h0c-.084-.583-.264-1.065-.67-1.446l.67 1.446zm0 0c.08.553.082 1.256.082 2.13v1.074c0 .687 0 1.235-.047 1.687l-.035-4.89z" stroke="currentColor" stroke-width="1.2"/></svg><svg viewBox="0 0 6 10" id="header-angle-right" xmlns="http://www.w3.org/2000/svg"><path d="M1 9l4-4-4-4" stroke="currentColor"/></svg><svg viewBox="0 0 16 16" id="header-email" xmlns="http://www.w3.org/2000/svg"><path d="M14 3H2a.5.5 0 00-.5.5V12a1 1 0 001 1h11a1 1 0 001-1V3.5A.5.5 0 0014 3zm-1.286 1L8 8.322 3.286 4h9.428zm.786 8h-11V4.637l5.162 4.732a.5.5 0 00.676 0L13.5 4.637V12z"/></svg><svg viewBox="0 0 16 16" id="header-phone" xmlns="http://www.w3.org/2000/svg"><path d="M13.898 9.904l-2.944-1.32-.008-.003a1 1 0 00-.995.122L8.429 10c-.963-.468-1.958-1.456-2.426-2.407L7.3 6.05a1 1 0 00.118-.99v-.007l-1.323-2.95a1 1 0 00-1.038-.594A3.516 3.516 0 002 5c0 4.963 4.038 9 9 9a3.516 3.516 0 003.492-3.057 1 1 0 00-.594-1.04zM11 13a8.009 8.009 0 01-8-8 2.512 2.512 0 012.18-2.5v.007l1.312 2.938L5.2 6.991a1 1 0 00-.098 1.03c.566 1.158 1.733 2.316 2.904 2.882a1 1 0 001.03-.107l1.52-1.296 2.937 1.316h.007A2.513 2.513 0 0111 13z"/></svg><svg viewBox="0 0 24 24" id="location" xmlns="http://www.w3.org/2000/svg"><path d="M12 6a3.75 3.75 0 100 7.5A3.75 3.75 0 0012 6zm0 6a2.25 2.25 0 110-4.5 2.25 2.25 0 010 4.5zm0-10.5a8.26 8.26 0 00-8.25 8.25c0 2.944 1.36 6.064 3.938 9.023a23.837 23.837 0 003.885 3.591.75.75 0 00.861 0 23.835 23.835 0 003.879-3.59c2.573-2.96 3.937-6.08 3.937-9.024A8.26 8.26 0 0012 1.5zm0 19.313c-1.55-1.22-6.75-5.696-6.75-11.063a6.75 6.75 0 0113.5 0c0 5.365-5.2 9.844-6.75 11.063z"/></svg><svg viewBox="0 0 24 24" id="phone" xmlns="http://www.w3.org/2000/svg"><path d="M20.847 14.855l-4.416-1.979-.013-.005a1.5 1.5 0 00-1.492.184L12.644 15c-1.446-.702-2.938-2.184-3.64-3.61l1.948-2.317a1.5 1.5 0 00.177-1.484v-.011L9.144 3.154a1.5 1.5 0 00-1.558-.893A5.274 5.274 0 003 7.5C3 14.944 9.056 21 16.5 21a5.274 5.274 0 005.239-4.586 1.5 1.5 0 00-.892-1.559zM16.5 19.5a12.014 12.014 0 01-12-12 3.769 3.769 0 013.27-3.75v.011l1.968 4.406-1.938 2.32a.574.574 0 00-.053.072 1.5 1.5 0 00-.094 1.472c.85 1.737 2.6 3.474 4.355 4.323a1.5 1.5 0 001.477-.107.804.804 0 00.07-.053l2.278-1.944 4.407 1.973h.01A3.77 3.77 0 0116.5 19.5z"/></svg><svg viewBox="0 0 24 30" id="recycle" xmlns="http://www.w3.org/2000/svg"><path d="M8.812 22.5a.563.563 0 01-.562.563h-4.5a2.063 2.063 0 01-1.781-3.094L5.41 14.02l-1.758.47a.563.563 0 01-.291-1.088l3.072-.823a.562.562 0 01.692.4l.825 3.071a.562.562 0 01-1.087.292l-.468-1.763-3.453 5.951a.938.938 0 00.808 1.407h4.5a.562.562 0 01.562.562zm13.22-2.531l-2.17-3.75a.562.562 0 00-.973.562l2.17 3.75a.938.938 0 01-.809 1.407h-6.893l1.29-1.29a.563.563 0 00-.795-.795l-2.25 2.25a.562.562 0 000 .795l2.25 2.25a.562.562 0 00.796-.795l-1.29-1.29h6.892a2.063 2.063 0 001.781-3.094zM12.81 6.28l3.442 5.948-1.758-.469a.562.562 0 00-.292 1.084l3.073.824a.563.563 0 00.688-.399l.824-3.073a.562.562 0 10-1.085-.291l-.474 1.764-3.448-5.95a2.063 2.063 0 00-3.562 0l-2.175 3.75a.563.563 0 00.974.562l2.171-3.75a.937.937 0 011.622 0z"/></svg><svg viewBox="0 0 25 24" id="search" xmlns="http://www.w3.org/2000/svg"><path d="M22.277 20.47l-4.694-4.693a8.26 8.26 0 10-1.06 1.06l4.693 4.694a.75.75 0 101.06-1.061zM4.497 10.5a6.75 6.75 0 116.75 6.75 6.758 6.758 0 01-6.75-6.75z"/></svg><svg viewBox="0 0 28 28" id="telegram" xmlns="http://www.w3.org/2000/svg"><g clip-path="url(#qclip0_1_490)"><path d="M13.989 27.998c-3.008 0-6.016.005-9.024-.002-2.118-.003-3.902-1.166-4.614-3.068a5.158 5.158 0 01-.33-1.748A2830.33 2830.33 0 01.01 4.822C.017 2.135 2.1.028 4.786.017c6.142-.023 12.286-.024 18.428 0 2.728.012 4.771 2.161 4.779 4.956.01 4.057.002 8.114.002 12.17 0 1.97.01 3.942-.002 5.912-.015 2.484-1.61 4.412-4.018 4.864a5.742 5.742 0 01-1.032.075c-2.985.006-5.97.004-8.955.003v.001zm10.022-22.1c-.079-.137-.15-.353-.293-.496-.271-.272-.593-.217-.928-.077-6.063 2.53-12.128 5.053-18.192 7.579-.451.188-.62.432-.584.828.033.36.244.56.713.684 1.1.29 2.197.6 3.304.867.46.111.7.361.839.802.567 1.799 1.16 3.59 1.736 5.386.105.329.268.59.632.657.351.066.588-.118.802-.367.628-.735 1.263-1.466 1.897-2.197.43-.496.767-.53 1.278-.131.372.29.74.586 1.11.88.949.751 1.893 1.507 2.845 2.254.406.32.865.283 1.117-.097.105-.157.157-.356.199-.545 1.01-4.572 2.016-9.145 3.022-13.718.163-.74.323-1.483.503-2.307v-.002z"/><path d="M19.61 9.24c-.082.085-.158.176-.247.253-2.508 2.19-5.016 4.382-7.532 6.564a1.305 1.305 0 00-.475.953c-.063.884-.147 1.767-.226 2.65a.67.67 0 01-.142.362c-.054-.093-.132-.179-.16-.28-.393-1.394-.78-2.791-1.173-4.186-.083-.295-.016-.497.263-.664 3.121-1.87 6.237-3.748 9.355-5.622.082-.05.173-.085.26-.128l.076.098h.001z"/></g><defs><clipPath id="qclip0_1_490"><path d="M0 0h28v28H0z"/></clipPath></defs></svg><svg viewBox="0 0 40 40" id="truck" xmlns="http://www.w3.org/2000/svg"><path d="M38.37 18.403l-2.187-5.469a2.176 2.176 0 00-2.031-1.375h-5.715V10a.938.938 0 00-.937-.938H3.75a2.188 2.188 0 00-2.188 2.188v17.5a2.187 2.187 0 002.188 2.188h2.906a4.688 4.688 0 009.188 0h8.312a4.688 4.688 0 009.188 0h2.906a2.188 2.188 0 002.188-2.188v-10a.937.937 0 00-.068-.347zm-9.932-4.965h5.715a.312.312 0 01.29.196l1.673 4.178h-7.678v-4.375zm-25-2.188a.313.313 0 01.312-.313h22.813v10.626H3.438V11.25zm7.812 21.563a2.813 2.813 0 110-5.626 2.813 2.813 0 010 5.625zm12.906-3.75h-8.312a4.688 4.688 0 00-9.188 0H3.75a.312.312 0 01-.313-.313v-5.313h23.125v2.42a4.703 4.703 0 00-2.406 3.206zm4.594 3.75a2.813 2.813 0 110-5.626 2.813 2.813 0 010 5.625zm7.813-4.063a.313.313 0 01-.313.313h-2.906a4.696 4.696 0 00-4.594-3.75c-.105 0-.21 0-.313.01v-5.636h8.125v9.063z"/></svg><svg viewBox="0 0 29 29" id="vk" xmlns="http://www.w3.org/2000/svg"><g clip-path="url(#sclip0_1_487)"><path d="M.007 14.492c0-1.792-.006-3.585.003-5.377.005-.919.064-1.835.184-2.747.113-.86.284-1.706.601-2.517.23-.589.534-1.136.948-1.617.546-.632 1.223-1.076 1.99-1.392A9.42 9.42 0 015.708.295C6.636.133 7.572.055 8.512.028A61.298 61.298 0 0110.24 0c3.11-.002 6.221 0 9.332.002.777.001 1.554.039 2.329.11.92.084 1.83.222 2.716.496.466.145.916.33 1.343.57.976.552 1.667 1.358 2.119 2.377.295.666.48 1.365.61 2.08.19 1.062.267 2.135.29 3.211.014.637.02 1.274.02 1.911.002 2.496.003 4.992 0 7.487 0 .712-.004 1.424-.026 2.135-.031 1.046-.113 2.087-.311 3.117-.138.718-.336 1.417-.649 2.081-.543 1.155-1.404 1.98-2.567 2.497a8.873 8.873 0 01-1.937.585c-.743.142-1.494.221-2.248.27-.873.055-1.747.07-2.622.07-2.934-.001-5.87.003-8.804-.005a40.31 40.31 0 01-2.225-.076c-.948-.055-1.889-.176-2.81-.415a7.36 7.36 0 01-1.692-.65c-1.001-.547-1.714-1.356-2.178-2.392-.31-.694-.502-1.423-.632-2.169a19.355 19.355 0 01-.267-2.79 71.918 71.918 0 01-.028-1.832c-.004-1.393-.001-2.786-.001-4.179h.006zm16.154-2.38v-2.096c-.001-.167-.012-.333-.072-.492a.433.433 0 00-.358-.293 1.69 1.69 0 00-.262-.021h-3.136c-.04 0-.08-.003-.12 0-.204.018-.375.097-.468.291-.092.19-.045.369.074.532.064.089.132.175.202.26.338.415.501.898.507 1.425.012 1.116.005 2.232 0 3.348 0 .13-.026.262-.057.389a.271.271 0 01-.276.221.515.515 0 01-.216-.038.962.962 0 01-.266-.166 6.436 6.436 0 01-.531-.548c-.464-.56-.838-1.181-1.185-1.818a20.65 20.65 0 01-1.344-3.045 3.294 3.294 0 00-.22-.49.651.651 0 00-.495-.337c-.1-.015-.2-.023-.301-.024a316.78 316.78 0 00-1.938 0c-.11 0-.22.006-.328.02-.369.05-.534.26-.503.639.015.2.06.399.109.594.22.876.562 1.709.947 2.523.664 1.406 1.477 2.724 2.385 3.985a10.046 10.046 0 001.853 1.973c1.043.84 2.203 1.437 3.535 1.663.562.095 1.127.11 1.692.033.15-.02.3-.069.44-.127a.503.503 0 00.313-.44c.01-.1.018-.2.018-.301.001-.628 0-1.257.002-1.885 0-.109.012-.22.033-.326a.346.346 0 01.307-.3.945.945 0 01.494.03c.155.06.31.125.453.208.416.243.775.56 1.128.885.473.435.898.915 1.331 1.388.18.198.366.392.56.577.233.225.516.342.844.342.69-.002 1.38.001 2.07-.002.153 0 .307-.012.453-.07a.515.515 0 00.35-.506 1.089 1.089 0 00-.094-.448 3.585 3.585 0 00-.396-.697 19.084 19.084 0 00-2.024-2.374c-.207-.209-.421-.411-.62-.627a2.55 2.55 0 01-.289-.392.454.454 0 01-.014-.454c.029-.059.056-.12.092-.174.104-.158.21-.314.317-.47.709-1.032 1.4-2.075 2.007-3.171.185-.335.361-.674.492-1.034.066-.181.13-.364.132-.561.003-.233-.104-.386-.329-.448a1.417 1.417 0 00-.363-.051c-.695-.005-1.389-.004-2.083 0-.1 0-.202.011-.3.033-.324.072-.521.287-.647.583a19.666 19.666 0 01-.975 1.97c-.44.783-.921 1.539-1.515 2.215a5.905 5.905 0 01-.622.586.902.902 0 01-.325.165c-.2.058-.327-.015-.407-.208a.921.921 0 01-.062-.361v-2.083z"/></g><defs><clipPath id="sclip0_1_487"><path d="M0 0h29v29H0z"/></clipPath></defs></svg></svg>