<?xml version="1.0" encoding="utf-8"?><svg viewBox="0 0 40 40" xmlns="http://www.w3.org/2000/svg" xmlns:xlink="http://www.w3.org/1999/xlink"><style>:root>svg{display:none}:root>svg:target{display:block}</style><svg viewBox="0 0 7 10" id="angle-right" xmlns="http://www.w3.org/2000/svg"><path d="M1 9l4-4-4-4" stroke="currentColor" stroke-width="1.5"/></svg><svg viewBox="0 0 37 18" id="arrow-right" xmlns="http://www.w3.org/2000/svg"><path d="M.667 9H35m0 0l-8 8m8-8l-8-8" stroke="currentColor" stroke-width="2"/></svg><svg viewBox="0 0 40 40" id="box" xmlns="http://www.w3.org/2000/svg"><path d="M34.8 10.61L21.05 3.084a2.172 2.172 0 00-2.1 0L5.2 10.61a2.188 2.188 0 00-1.138 1.917v14.944A2.187 2.187 0 005.2 29.389l13.75 7.528a2.175 2.175 0 002.1 0L34.8 29.39a2.188 2.188 0 001.138-1.917V12.528a2.187 2.187 0 00-1.138-1.917zM19.844 4.728a.312.312 0 01.3 0l13.06 7.148-5.302 2.902-13.207-7.229 5.149-2.821zm-.782 30.117L6.095 27.745a.312.312 0 01-.157-.273V13.54l13.125 7.187v14.116zM6.796 11.875l5.949-3.258 13.204 7.228L20 19.1 6.795 11.875zm27.267 15.597a.312.312 0 01-.156.273l-12.968 7.099V20.725l5.625-3.08v6.105a.938.938 0 001.875 0v-7.13l5.625-3.08v13.932z"/></svg><svg viewBox="0 0 32 32" id="download" xmlns="http://www.w3.org/2000/svg"><path d="M27.75 19v7A1.75 1.75 0 0126 27.75H6A1.75 1.75 0 014.25 26v-7a.75.75 0 111.5 0v7a.25.25 0 00.25.25h20a.25.25 0 00.25-.25v-7a.75.75 0 111.5 0zm-12.28.53a.75.75 0 001.06 0l5-5a.75.75 0 00-1.06-1.06l-3.72 3.719V5a.75.75 0 10-1.5 0v12.189l-3.72-3.719a.75.75 0 00-1.06 1.06l5 5z"/></svg><svg viewBox="0 0 24 30" id="recycle" xmlns="http://www.w3.org/2000/svg"><path d="M8.812 22.5a.563.563 0 01-.562.563h-4.5a2.063 2.063 0 01-1.781-3.094L5.41 14.02l-1.758.47a.563.563 0 01-.291-1.088l3.072-.823a.562.562 0 01.692.4l.825 3.071a.562.562 0 01-1.087.292l-.468-1.763-3.453 5.951a.938.938 0 00.808 1.407h4.5a.562.562 0 01.562.562zm13.22-2.531l-2.17-3.75a.562.562 0 00-.973.562l2.17 3.75a.938.938 0 01-.809 1.407h-6.893l1.29-1.29a.563.563 0 00-.795-.795l-2.25 2.25a.562.562 0 000 .795l2.25 2.25a.562.562 0 00.796-.795l-1.29-1.29h6.892a2.063 2.063 0 001.781-3.094zM12.81 6.28l3.442 5.948-1.758-.469a.562.562 0 00-.292 1.084l3.073.824a.563.563 0 00.688-.399l.824-3.073a.562.562 0 10-1.085-.291l-.474 1.764-3.448-5.95a2.063 2.063 0 00-3.562 0l-2.175 3.75a.563.563 0 00.974.562l2.171-3.75a.937.937 0 011.622 0z"/></svg><svg viewBox="0 0 40 40" id="truck" xmlns="http://www.w3.org/2000/svg"><path d="M38.37 18.403l-2.187-5.469a2.176 2.176 0 00-2.031-1.375h-5.715V10a.938.938 0 00-.937-.938H3.75a2.188 2.188 0 00-2.188 2.188v17.5a2.187 2.187 0 002.188 2.188h2.906a4.688 4.688 0 009.188 0h8.312a4.688 4.688 0 009.188 0h2.906a2.188 2.188 0 002.188-2.188v-10a.937.937 0 00-.068-.347zm-9.932-4.965h5.715a.312.312 0 01.29.196l1.673 4.178h-7.678v-4.375zm-25-2.188a.313.313 0 01.312-.313h22.813v10.626H3.438V11.25zm7.812 21.563a2.813 2.813 0 110-5.626 2.813 2.813 0 010 5.625zm12.906-3.75h-8.312a4.688 4.688 0 00-9.188 0H3.75a.312.312 0 01-.313-.313v-5.313h23.125v2.42a4.703 4.703 0 00-2.406 3.206zm4.594 3.75a2.813 2.813 0 110-5.626 2.813 2.813 0 010 5.625zm7.813-4.063a.313.313 0 01-.313.313h-2.906a4.696 4.696 0 00-4.594-3.75c-.105 0-.21 0-.313.01v-5.636h8.125v9.063z"/></svg></svg>