<svg width="56" height="56" viewBox="0 0 56 56" fill="none" xmlns="http://www.w3.org/2000/svg">
<path d="M48.7927 15.4219C48.7397 15.2907 48.6556 15.1744 48.5476 15.0828C48.4397 14.9913 48.3112 14.9273 48.1731 14.8963C48.035 14.8653 47.8915 14.8683 47.7548 14.905C47.6181 14.9417 47.4924 15.0109 47.3884 15.1069L38.2402 23.5506L33.4693 22.5313L32.4455 17.7647L40.8893 8.61658C40.9857 8.51257 41.0554 8.38667 41.0924 8.24973C41.1293 8.1128 41.1324 7.96893 41.1014 7.83052C41.0704 7.69211 41.0063 7.56332 40.9144 7.45522C40.8226 7.34713 40.7059 7.26298 40.5743 7.21002C37.7811 6.07904 34.7102 5.82312 31.7683 6.47612C28.8264 7.12913 26.1523 8.66027 24.0999 10.8668C22.0475 13.0734 20.7137 15.8512 20.2751 18.8327C19.8364 21.8141 20.3137 24.8584 21.6437 27.5625L7.96305 39.375L7.91711 39.4188C6.76839 40.5675 6.12305 42.1255 6.12305 43.75C6.12305 45.3746 6.76839 46.9326 7.91711 48.0813C9.06583 49.23 10.6238 49.8753 12.2484 49.8753C13.8729 49.8753 15.4309 49.23 16.5796 48.0813L16.6234 48.0353L28.4359 34.3547C30.7042 35.4703 33.2194 35.9894 35.7441 35.8631C38.2687 35.7367 40.7196 34.9691 42.8652 33.6326C45.0108 32.2961 46.7804 30.4348 48.007 28.2245C49.2336 26.0143 49.8767 23.5278 49.8755 21C49.8791 19.0881 49.5114 17.1936 48.7927 15.4219ZM35.0005 34.125C32.7818 34.1253 30.5993 33.5631 28.6568 32.491C28.4801 32.3918 28.2745 32.357 28.0751 32.3925C27.8756 32.428 27.6946 32.5316 27.563 32.6856L15.313 46.8672C14.4808 47.6213 13.3905 48.0264 12.2678 47.9988C11.1451 47.9712 10.076 47.5128 9.28186 46.7187C8.48774 45.9246 8.02941 44.8555 8.00177 43.7328C7.97413 42.6101 8.37929 41.5198 9.13336 40.6875L23.3127 28.4375C23.4668 28.3059 23.5704 28.125 23.6059 27.9255C23.6414 27.726 23.6066 27.5204 23.5074 27.3438C22.2479 25.066 21.694 22.4652 21.9162 19.872C22.1384 17.2787 23.1266 14.81 24.7553 12.7797C26.3839 10.7494 28.5794 9.24923 31.0627 8.46977C33.5461 7.6903 36.2051 7.66679 38.7018 8.40221L30.8552 16.9072C30.7591 17.0096 30.6891 17.1336 30.651 17.2688C30.6129 17.4039 30.608 17.5463 30.6365 17.6838L31.8746 23.4478C31.91 23.6125 31.9922 23.7635 32.1113 23.8827C32.2305 24.0018 32.3815 24.084 32.5462 24.1194L38.3102 25.3575C38.4477 25.386 38.5901 25.3811 38.7252 25.343C38.8604 25.3049 38.9844 25.2349 39.0868 25.1388L47.5896 17.2922C48.1636 19.2494 48.274 21.3133 47.912 23.3205C47.55 25.3277 46.7256 27.2231 45.504 28.8564C44.2825 30.4898 42.6974 31.8162 40.8743 32.7307C39.0512 33.6452 37.0401 34.1225 35.0005 34.125Z" fill="#003DA6"/>
</svg>
