<svg width="56" height="56" viewBox="0 0 56 56" fill="none" xmlns="http://www.w3.org/2000/svg">
<path d="M47.25 13.125H37.625V10.5C37.625 9.33968 37.1641 8.22688 36.3436 7.40641C35.5231 6.58594 34.4103 6.125 33.25 6.125H22.75C21.5897 6.125 20.4769 6.58594 19.6564 7.40641C18.8359 8.22688 18.375 9.33968 18.375 10.5V13.125H8.75C8.05381 13.125 7.38613 13.4016 6.89384 13.8938C6.40156 14.3861 6.125 15.0538 6.125 15.75V43.75C6.125 44.4462 6.40156 45.1139 6.89384 45.6062C7.38613 46.0984 8.05381 46.375 8.75 46.375H47.25C47.9462 46.375 48.6139 46.0984 49.1062 45.6062C49.5984 45.1139 49.875 44.4462 49.875 43.75V15.75C49.875 15.0538 49.5984 14.3861 49.1062 13.8938C48.6139 13.4016 47.9462 13.125 47.25 13.125ZM20.125 10.5C20.125 9.80381 20.4016 9.13613 20.8938 8.64384C21.3861 8.15156 22.0538 7.875 22.75 7.875H33.25C33.9462 7.875 34.6139 8.15156 35.1062 8.64384C35.5984 9.13613 35.875 9.80381 35.875 10.5V13.125H20.125V10.5ZM8.75 14.875H47.25C47.4821 14.875 47.7046 14.9672 47.8687 15.1313C48.0328 15.2954 48.125 15.5179 48.125 15.75V32.375H7.875V15.75C7.875 15.5179 7.96719 15.2954 8.13128 15.1313C8.29538 14.9672 8.51794 14.875 8.75 14.875ZM47.25 44.625H8.75C8.51794 44.625 8.29538 44.5328 8.13128 44.3687C7.96719 44.2046 7.875 43.9821 7.875 43.75V34.125H48.125V43.75C48.125 43.9821 48.0328 44.2046 47.8687 44.3687C47.7046 44.5328 47.4821 44.625 47.25 44.625Z" fill="#003DA6"/>
</svg>
