<svg width="56" height="56" viewBox="0 0 56 56" fill="none" xmlns="http://www.w3.org/2000/svg">
<path d="M52.6019 15.5509L47.3519 10.3928C47.108 10.1481 46.8183 9.95391 46.4992 9.82142C46.1801 9.68893 45.838 9.62073 45.4925 9.62073C45.1471 9.62073 44.805 9.68893 44.4859 9.82142C44.1668 9.95391 43.877 10.1481 43.6332 10.3928L23.3529 30.3734C23.2716 30.4548 23.1751 30.5193 23.0689 30.5634C22.9626 30.6074 22.8488 30.63 22.7338 30.63C22.6188 30.63 22.5049 30.6074 22.3987 30.5634C22.2925 30.5193 22.196 30.4548 22.1147 30.3734V30.3603L14.1041 22.6428C13.8602 22.3981 13.5704 22.2039 13.2514 22.0714C12.9323 21.9389 12.5902 21.8707 12.2447 21.8707C11.8992 21.8707 11.5572 21.9389 11.2381 22.0714C10.919 22.2039 10.6292 22.3981 10.3854 22.6428L5.13535 27.8928C4.89063 28.1367 4.69646 28.4264 4.56397 28.7455C4.43148 29.0646 4.36328 29.4067 4.36328 29.7522C4.36328 30.0977 4.43148 30.4397 4.56397 30.7588C4.69646 31.0779 4.89063 31.3677 5.13535 31.6115L20.8 47.3615C21.0439 47.6063 21.3337 47.8004 21.6528 47.9329C21.9718 48.0654 22.3139 48.1336 22.6594 48.1336C23.0049 48.1336 23.347 48.0654 23.6661 47.9329C23.9851 47.8004 24.2749 47.6063 24.5188 47.3615L52.6063 19.2675C52.8504 19.0234 53.0439 18.7335 53.1759 18.4145C53.3078 18.0954 53.3755 17.7535 53.3751 17.4083C53.3747 17.0631 53.3062 16.7213 53.1735 16.4026C53.0408 16.0839 52.8466 15.7945 52.6019 15.5509ZM51.3704 18.0315L23.2807 46.119C23.1166 46.2827 22.8944 46.3746 22.6627 46.3746C22.431 46.3746 22.2088 46.2827 22.0447 46.119L6.38004 30.369C6.29868 30.2878 6.23415 30.1913 6.19011 30.0851C6.14608 29.9788 6.12341 29.865 6.12341 29.75C6.12341 29.635 6.14608 29.5211 6.19011 29.4149C6.23415 29.3087 6.29868 29.2122 6.38004 29.1309L11.63 23.8809C11.7114 23.7997 11.8079 23.7353 11.9141 23.6914C12.0203 23.6475 12.1342 23.6249 12.2491 23.625C12.3671 23.6251 12.4839 23.6485 12.5927 23.694C12.7016 23.7394 12.8004 23.8059 12.8835 23.8897L20.9029 31.6094C21.3948 32.0989 22.0605 32.3738 22.7546 32.3738C23.4486 32.3738 24.1144 32.0989 24.6063 31.6094L44.8866 11.6309C44.9679 11.5489 45.0647 11.4838 45.1713 11.4394C45.278 11.395 45.3923 11.3721 45.5079 11.3721C45.6234 11.3721 45.7377 11.395 45.8444 11.4394C45.951 11.4838 46.0478 11.5489 46.1291 11.6309L51.3791 16.789C51.4605 16.871 51.525 16.9682 51.5686 17.0751C51.6123 17.1821 51.6344 17.2966 51.6336 17.4121C51.6327 17.5276 51.6091 17.6418 51.5639 17.7482C51.5187 17.8545 51.4529 17.9508 51.3704 18.0315Z" fill="#003DA6"/>
</svg>
