<svg width="56" height="56" viewBox="0 0 56 56" fill="none" xmlns="http://www.w3.org/2000/svg">
<path d="M52.5 41.125H49.875V11.9569L52.6838 11.3553C52.798 11.3331 52.9066 11.2884 53.0034 11.2237C53.1001 11.159 53.183 11.0757 53.2471 10.9786C53.3112 10.8815 53.3554 10.7725 53.3769 10.6582C53.3984 10.5438 53.3969 10.4263 53.3725 10.3126C53.348 10.1988 53.3011 10.091 53.2345 9.9956C53.1679 9.90017 53.083 9.81898 52.9846 9.75679C52.8863 9.6946 52.7765 9.65265 52.6617 9.63339C52.547 9.61414 52.4295 9.61798 52.3162 9.64467L3.31625 20.1447C3.10518 20.1902 2.91841 20.3122 2.79186 20.4872C2.6653 20.6621 2.60791 20.8777 2.63071 21.0924C2.65351 21.3071 2.7549 21.5058 2.91537 21.6503C3.07585 21.7948 3.28407 21.8748 3.5 21.875C3.56177 21.8748 3.62335 21.8682 3.68375 21.8553L6.125 21.3325V41.125H3.5C3.26794 41.125 3.04538 41.2172 2.88128 41.3813C2.71719 41.5454 2.625 41.7679 2.625 42C2.625 42.2321 2.71719 42.4546 2.88128 42.6187C3.04538 42.7828 3.26794 42.875 3.5 42.875H52.5C52.7321 42.875 52.9546 42.7828 53.1187 42.6187C53.2828 42.4546 53.375 42.2321 53.375 42C53.375 41.7679 53.2828 41.5454 53.1187 41.3813C52.9546 41.2172 52.7321 41.125 52.5 41.125ZM7.875 20.9584L48.125 12.3331V41.125H41.125V28C41.125 27.7679 41.0328 27.5454 40.8687 27.3813C40.7046 27.2172 40.4821 27.125 40.25 27.125H15.75C15.5179 27.125 15.2954 27.2172 15.1313 27.3813C14.9672 27.5454 14.875 27.7679 14.875 28V41.125H7.875V20.9584ZM39.375 34.125H16.625V28.875H39.375V34.125ZM16.625 35.875H39.375V41.125H16.625V35.875Z" fill="#003DA6"/>
</svg>
