<svg width="56" height="56" viewBox="0 0 56 56" fill="none" xmlns="http://www.w3.org/2000/svg">
<path d="M50.75 27.125H46.3531C46.2296 24.4946 45.5378 21.9222 44.3253 19.5847L48.1403 17.3819C48.3308 17.2608 48.4671 17.0708 48.5208 16.8516C48.5745 16.6324 48.5414 16.4009 48.4284 16.2056C48.3155 16.0102 48.1314 15.866 47.9147 15.8031C47.6979 15.7402 47.4653 15.7635 47.2653 15.8681L43.4481 18.0709C42.022 15.8596 40.1404 13.978 37.9291 12.5519L40.1319 8.73469C40.2365 8.53471 40.2598 8.30206 40.1969 8.08531C40.134 7.86856 39.9898 7.6845 39.7944 7.57156C39.599 7.45861 39.3676 7.42554 39.1484 7.47923C38.9292 7.53292 38.7392 7.66923 38.6181 7.85969L36.4153 11.6747C34.0778 10.4622 31.5054 9.77038 28.875 9.64687V5.25C28.875 5.01794 28.7828 4.79538 28.6187 4.63128C28.4546 4.46719 28.2321 4.375 28 4.375C27.7679 4.375 27.5454 4.46719 27.3813 4.63128C27.2172 4.79538 27.125 5.01794 27.125 5.25V9.64687C24.4946 9.77038 21.9222 10.4622 19.5847 11.6747L17.3819 7.85969C17.2608 7.66923 17.0708 7.53292 16.8516 7.47923C16.6324 7.42554 16.4009 7.45861 16.2056 7.57156C16.0102 7.6845 15.866 7.86856 15.8031 8.08531C15.7402 8.30206 15.7635 8.53471 15.8681 8.73469L18.0709 12.5519C15.8596 13.978 13.978 15.8596 12.5519 18.0709L8.73469 15.8681C8.6351 15.8048 8.52373 15.7623 8.40728 15.7432C8.29084 15.724 8.17172 15.7286 8.0571 15.7567C7.94248 15.7848 7.83472 15.8357 7.74031 15.9065C7.6459 15.9773 7.56678 16.0665 7.50772 16.1687C7.44867 16.2708 7.41089 16.3839 7.39666 16.501C7.38243 16.6182 7.39204 16.737 7.42492 16.8503C7.4578 16.9637 7.51327 17.0692 7.58798 17.1605C7.6627 17.2519 7.75512 17.3272 7.85969 17.3819L11.6747 19.5847C10.4622 21.9222 9.77038 24.4946 9.64687 27.125H5.25C5.01794 27.125 4.79538 27.2172 4.63128 27.3813C4.46719 27.5454 4.375 27.7679 4.375 28C4.375 28.2321 4.46719 28.4546 4.63128 28.6187C4.79538 28.7828 5.01794 28.875 5.25 28.875H9.64687C9.77038 31.5054 10.4622 34.0778 11.6747 36.4153L7.85969 38.6181C7.69332 38.7146 7.56338 38.8633 7.48998 39.041C7.41657 39.2188 7.40378 39.4158 7.45358 39.6016C7.50339 39.7874 7.61301 39.9515 7.7655 40.0688C7.91799 40.186 8.10486 40.2497 8.29719 40.25C8.451 40.2508 8.60217 40.21 8.73469 40.1319L12.5519 37.9291C13.978 40.1404 15.8596 42.022 18.0709 43.4481L15.8681 47.2653C15.7523 47.4661 15.7209 47.7046 15.7808 47.9286C15.8406 48.1525 15.9869 48.3435 16.1875 48.4597C16.3883 48.5755 16.6268 48.6069 16.8507 48.5471C17.0747 48.4872 17.2657 48.3409 17.3819 48.1403L19.5847 44.3253C21.9222 45.5378 24.4946 46.2296 27.125 46.3531V50.75C27.125 50.9821 27.2172 51.2046 27.3813 51.3687C27.5454 51.5328 27.7679 51.625 28 51.625C28.2321 51.625 28.4546 51.5328 28.6187 51.3687C28.7828 51.2046 28.875 50.9821 28.875 50.75V46.3531C31.5054 46.2296 34.0778 45.5378 36.4153 44.3253L38.6181 48.1403C38.7392 48.3308 38.9292 48.4671 39.1484 48.5208C39.3676 48.5745 39.599 48.5414 39.7944 48.4284C39.9898 48.3155 40.134 48.1314 40.1969 47.9147C40.2598 47.6979 40.2365 47.4653 40.1319 47.2653L37.9291 43.4481C40.1404 42.022 42.022 40.1404 43.4481 37.9291L47.2653 40.1319C47.3978 40.21 47.549 40.2508 47.7028 40.25C47.8951 40.2497 48.082 40.186 48.2345 40.0688C48.387 39.9515 48.4966 39.7874 48.5464 39.6016C48.5962 39.4158 48.5834 39.2188 48.51 39.041C48.4366 38.8633 48.3067 38.7146 48.1403 38.6181L44.3253 36.4153C45.5378 34.0778 46.2296 31.5054 46.3531 28.875H50.75C50.9821 28.875 51.2046 28.7828 51.3687 28.6187C51.5328 28.4546 51.625 28.2321 51.625 28C51.625 27.7679 51.5328 27.5454 51.3687 27.3813C51.2046 27.2172 50.9821 27.125 50.75 27.125ZM28 11.375C32.2562 11.38 36.3487 13.0153 39.4363 15.9447C42.524 18.8741 44.3722 22.875 44.6009 27.125H28.5053L20.4597 13.1906C22.7936 11.9962 25.3782 11.3739 28 11.375ZM11.375 28C11.3768 25.2309 12.0703 22.5062 13.3925 20.0731C14.7146 17.6401 16.6235 15.5759 18.9459 14.0678L26.9894 28L18.9459 41.9322C16.6235 40.4241 14.7146 38.3599 13.3925 35.9268C12.0703 33.4938 11.3768 30.7691 11.375 28ZM28 44.625C25.3782 44.6261 22.7936 44.0038 20.4597 42.8094L28.5053 28.875H44.6009C44.3722 33.125 42.524 37.1259 39.4363 40.0553C36.3487 42.9847 32.2562 44.62 28 44.625Z" fill="#003DA6"/>
</svg>
