<svg width="56" height="56" viewBox="0 0 56 56" fill="none" xmlns="http://www.w3.org/2000/svg">
<path d="M30.625 38.5C30.625 38.7321 30.5328 38.9546 30.3687 39.1187C30.2046 39.2828 29.9821 39.375 29.75 39.375C29.0538 39.375 28.3861 39.0984 27.8939 38.6062C27.4016 38.1139 27.125 37.4462 27.125 36.75V28C27.125 27.7679 27.0328 27.5454 26.8687 27.3813C26.7046 27.2172 26.4821 27.125 26.25 27.125C26.0179 27.125 25.7954 27.0328 25.6313 26.8687C25.4672 26.7046 25.375 26.4821 25.375 26.25C25.375 26.0179 25.4672 25.7954 25.6313 25.6313C25.7954 25.4672 26.0179 25.375 26.25 25.375C26.9462 25.375 27.6139 25.6516 28.1062 26.1438C28.5984 26.6361 28.875 27.3038 28.875 28V36.75C28.875 36.9821 28.9672 37.2046 29.1313 37.3687C29.2954 37.5328 29.5179 37.625 29.75 37.625C29.9821 37.625 30.2046 37.7172 30.3687 37.8813C30.5328 38.0454 30.625 38.2679 30.625 38.5ZM27.125 20.125C27.4711 20.125 27.8095 20.0224 28.0973 19.8301C28.385 19.6378 28.6093 19.3645 28.7418 19.0447C28.8743 18.7249 28.9089 18.3731 28.8414 18.0336C28.7739 17.6941 28.6072 17.3823 28.3624 17.1376C28.1177 16.8928 27.8059 16.7261 27.4664 16.6586C27.1269 16.5911 26.7751 16.6258 26.4553 16.7582C26.1355 16.8907 25.8622 17.115 25.6699 17.4028C25.4776 17.6905 25.375 18.0289 25.375 18.375C25.375 18.8391 25.5594 19.2842 25.8876 19.6124C26.2158 19.9406 26.6609 20.125 27.125 20.125ZM49.875 28C49.875 32.3265 48.5921 36.5558 46.1884 40.1531C43.7847 43.7504 40.3683 46.5542 36.3712 48.2099C32.3741 49.8655 27.9757 50.2987 23.7324 49.4547C19.4891 48.6106 15.5913 46.5272 12.532 43.468C9.47278 40.4087 7.38938 36.5109 6.54533 32.2676C5.70128 28.0243 6.13448 23.6259 7.79014 19.6288C9.44581 15.6317 12.2496 12.2153 15.8469 9.8116C19.4442 7.40795 23.6735 6.125 28 6.125C33.7997 6.13137 39.36 8.4381 43.4609 12.5391C47.5619 16.6401 49.8686 22.2003 49.875 28ZM48.125 28C48.125 24.0196 46.9447 20.1287 44.7333 16.8191C42.522 13.5096 39.3789 10.9301 35.7015 9.40692C32.0242 7.88371 27.9777 7.48517 24.0738 8.2617C20.1699 9.03822 16.584 10.9549 13.7695 13.7695C10.955 16.584 9.03823 20.1699 8.26171 24.0738C7.48518 27.9777 7.88372 32.0241 9.40693 35.7015C10.9301 39.3789 13.5096 42.522 16.8192 44.7333C20.1287 46.9447 24.0197 48.125 28 48.125C33.3357 48.1192 38.4512 45.997 42.2241 42.2241C45.9971 38.4512 48.1192 33.3357 48.125 28Z" fill="#003DA6"/>
</svg>
