<svg width="56" height="56" viewBox="0 0 56 56" fill="none" xmlns="http://www.w3.org/2000/svg">
<path d="M52.5 41.1252H49.875V11.9571L52.6838 11.3555C52.798 11.3334 52.9066 11.2886 53.0034 11.2239C53.1001 11.1592 53.183 11.0759 53.2471 10.9788C53.3112 10.8817 53.3554 10.7728 53.3769 10.6584C53.3984 10.5441 53.3969 10.4266 53.3725 10.3128C53.348 10.199 53.3011 10.0913 53.2345 9.99584C53.1679 9.90041 53.083 9.81923 52.9846 9.75703C52.8863 9.69484 52.7765 9.65289 52.6617 9.63364C52.547 9.61439 52.4295 9.61822 52.3162 9.64492L3.31625 20.1449C3.10518 20.1905 2.91841 20.3124 2.79186 20.4874C2.6653 20.6623 2.60791 20.8779 2.63071 21.0926C2.65351 21.3073 2.7549 21.5061 2.91537 21.6505C3.07585 21.795 3.28407 21.875 3.5 21.8752C3.56177 21.8751 3.62335 21.8685 3.68375 21.8555L6.125 21.3327V41.1252H3.5C3.26794 41.1252 3.04538 41.2174 2.88128 41.3815C2.71719 41.5456 2.625 41.7682 2.625 42.0002C2.625 42.2323 2.71719 42.4549 2.88128 42.6189C3.04538 42.783 3.26794 42.8752 3.5 42.8752H52.5C52.7321 42.8752 52.9546 42.783 53.1187 42.6189C53.2828 42.4549 53.375 42.2323 53.375 42.0002C53.375 41.7682 53.2828 41.5456 53.1187 41.3815C52.9546 41.2174 52.7321 41.1252 52.5 41.1252ZM7.875 20.9587L48.125 12.3334V41.1252H41.125V28.0002C41.125 27.7682 41.0328 27.5456 40.8687 27.3815C40.7046 27.2174 40.4821 27.1252 40.25 27.1252H15.75C15.5179 27.1252 15.2954 27.2174 15.1313 27.3815C14.9672 27.5456 14.875 27.7682 14.875 28.0002V41.1252H7.875V20.9587ZM39.375 34.1252H16.625V28.8752H39.375V34.1252ZM16.625 35.8752H39.375V41.1252H16.625V35.8752Z" fill="#003DA6"/>
</svg>
