<svg width="56" height="56" viewBox="0 0 56 56" fill="none" xmlns="http://www.w3.org/2000/svg">
<path d="M48.51 15.238L29.26 4.69864C28.8737 4.48726 28.4404 4.37646 28 4.37646C27.5596 4.37646 27.1263 4.48726 26.74 4.69864L7.49 15.238C7.07704 15.464 6.73244 15.7968 6.49229 16.2017C6.25214 16.6065 6.12528 17.0685 6.125 17.5393V38.4605C6.12528 38.9312 6.25214 39.3932 6.49229 39.7981C6.73244 40.203 7.07704 40.5358 7.49 40.7618L26.74 51.3011C27.126 51.5135 27.5594 51.6248 28 51.6248C28.4406 51.6248 28.874 51.5135 29.26 51.3011L48.51 40.7618C48.923 40.5358 49.2676 40.203 49.5077 39.7981C49.7479 39.3932 49.8747 38.9312 49.875 38.4605V17.5393C49.8747 17.0685 49.7479 16.6065 49.5077 16.2017C49.2676 15.7968 48.923 15.464 48.51 15.238ZM27.58 6.23426C27.7084 6.16261 27.853 6.125 28 6.125C28.147 6.125 28.2916 6.16261 28.42 6.23426L47.3966 16.6249L39.0469 21.1946C39.0072 21.1617 38.9648 21.1325 38.92 21.1071L19.67 10.5677L27.58 6.23426ZM28 27.2343L8.60344 16.6249L17.8412 11.5652L37.2378 22.1833L28 27.2343ZM8.33 39.2218C8.19256 39.1466 8.07784 39.0358 7.9978 38.9012C7.91777 38.7665 7.87536 38.6128 7.875 38.4561V18.2196L27.125 28.7546V49.5161L8.33 39.2218ZM47.67 39.2218L28.875 49.503V28.7546L37.625 23.9661V33.2499C37.625 33.482 37.7172 33.7045 37.8813 33.8686C38.0454 34.0327 38.2679 34.1249 38.5 34.1249C38.7321 34.1249 38.9546 34.0327 39.1187 33.8686C39.2828 33.7045 39.375 33.482 39.375 33.2499V23.008L48.125 18.2196V38.4605C48.1246 38.6172 48.0822 38.7709 48.0022 38.9055C47.9222 39.0402 47.8074 39.1509 47.67 39.2261V39.2218Z" fill="#003DA6"/>
</svg>
