<svg width="56" height="56" viewBox="0 0 56 56" fill="none" xmlns="http://www.w3.org/2000/svg">
<path d="M46.1191 18.6309L33.8691 6.38094C33.7877 6.29971 33.6912 6.2353 33.585 6.19138C33.4788 6.14747 33.3649 6.12491 33.25 6.125H12.25C11.5538 6.125 10.8861 6.40156 10.3938 6.89385C9.90156 7.38613 9.625 8.05381 9.625 8.75V47.25C9.625 47.9462 9.90156 48.6139 10.3938 49.1062C10.8861 49.5984 11.5538 49.875 12.25 49.875H43.75C44.4462 49.875 45.1139 49.5984 45.6062 49.1062C46.0984 48.6139 46.375 47.9462 46.375 47.25V19.25C46.3751 19.1351 46.3525 19.0212 46.3086 18.915C46.2647 18.8088 46.2003 18.7123 46.1191 18.6309ZM34.125 9.11094L43.3869 18.375H34.125V9.11094ZM43.75 48.125H12.25C12.0179 48.125 11.7954 48.0328 11.6313 47.8687C11.4672 47.7046 11.375 47.4821 11.375 47.25V8.75C11.375 8.51794 11.4672 8.29538 11.6313 8.13128C11.7954 7.96719 12.0179 7.875 12.25 7.875H32.375V19.25C32.375 19.4821 32.4672 19.7046 32.6313 19.8687C32.7954 20.0328 33.0179 20.125 33.25 20.125H44.625V47.25C44.625 47.4821 44.5328 47.7046 44.3687 47.8687C44.2046 48.0328 43.9821 48.125 43.75 48.125ZM35.875 29.75C35.875 29.9821 35.7828 30.2046 35.6187 30.3687C35.4546 30.5328 35.2321 30.625 35 30.625H21C20.7679 30.625 20.5454 30.5328 20.3813 30.3687C20.2172 30.2046 20.125 29.9821 20.125 29.75C20.125 29.5179 20.2172 29.2954 20.3813 29.1313C20.5454 28.9672 20.7679 28.875 21 28.875H35C35.2321 28.875 35.4546 28.9672 35.6187 29.1313C35.7828 29.2954 35.875 29.5179 35.875 29.75ZM35.875 36.75C35.875 36.9821 35.7828 37.2046 35.6187 37.3687C35.4546 37.5328 35.2321 37.625 35 37.625H21C20.7679 37.625 20.5454 37.5328 20.3813 37.3687C20.2172 37.2046 20.125 36.9821 20.125 36.75C20.125 36.5179 20.2172 36.2954 20.3813 36.1313C20.5454 35.9672 20.7679 35.875 21 35.875H35C35.2321 35.875 35.4546 35.9672 35.6187 36.1313C35.7828 36.2954 35.875 36.5179 35.875 36.75Z" fill="#003DA6"/>
</svg>
