<svg width="56" height="56" viewBox="0 0 56 56" fill="none" xmlns="http://www.w3.org/2000/svg">
<path d="M37.3691 22.1309C37.4504 22.2122 37.515 22.3087 37.559 22.4149C37.603 22.5212 37.6257 22.635 37.6257 22.75C37.6257 22.865 37.603 22.9788 37.559 23.0851C37.515 23.1913 37.4504 23.2878 37.3691 23.3691L25.1191 35.6191C25.0378 35.7004 24.9413 35.765 24.8351 35.809C24.7288 35.853 24.615 35.8757 24.5 35.8757C24.385 35.8757 24.2712 35.853 24.1649 35.809C24.0587 35.765 23.9622 35.7004 23.8809 35.6191L18.6309 30.3691C18.4668 30.2049 18.3745 29.9822 18.3745 29.75C18.3745 29.5178 18.4668 29.2951 18.6309 29.1309C18.7951 28.9668 19.0178 28.8745 19.25 28.8745C19.4822 28.8745 19.7049 28.9668 19.8691 29.1309L24.5 33.7619L36.1309 22.1309C36.2122 22.0496 36.3087 21.985 36.4149 21.941C36.5211 21.897 36.635 21.8743 36.75 21.8743C36.865 21.8743 36.9789 21.897 37.0851 21.941C37.1913 21.985 37.2878 22.0496 37.3691 22.1309ZM48.125 10.5V45.5C48.125 46.1962 47.8484 46.8639 47.3562 47.3562C46.8639 47.8484 46.1962 48.125 45.5 48.125H10.5C9.80381 48.125 9.13613 47.8484 8.64384 47.3562C8.15156 46.8639 7.875 46.1962 7.875 45.5V10.5C7.875 9.80381 8.15156 9.13613 8.64384 8.64384C9.13613 8.15156 9.80381 7.875 10.5 7.875H45.5C46.1962 7.875 46.8639 8.15156 47.3562 8.64384C47.8484 9.13613 48.125 9.80381 48.125 10.5ZM46.375 10.5C46.375 10.2679 46.2828 10.0454 46.1187 9.88128C45.9546 9.71719 45.7321 9.625 45.5 9.625H10.5C10.2679 9.625 10.0454 9.71719 9.88128 9.88128C9.71719 10.0454 9.625 10.2679 9.625 10.5V45.5C9.625 45.7321 9.71719 45.9546 9.88128 46.1187C10.0454 46.2828 10.2679 46.375 10.5 46.375H45.5C45.7321 46.375 45.9546 46.2828 46.1187 46.1187C46.2828 45.9546 46.375 45.7321 46.375 45.5V10.5Z" fill="#003DA6"/>
</svg>
