<svg width="40" height="40" viewBox="0 0 40 40" fill="none" xmlns="http://www.w3.org/2000/svg">
<path d="M32.5 6.5625H7.5C6.91984 6.5625 6.36344 6.79297 5.9532 7.2032C5.54297 7.61344 5.3125 8.16984 5.3125 8.75V17.9328C5.3125 31.7219 16.9812 36.2953 19.3203 37.0719C19.761 37.2219 20.239 37.2219 20.6797 37.0719C23.0234 36.2906 34.6875 31.7219 34.6875 17.9328V8.75C34.6875 8.16984 34.457 7.61344 34.0468 7.2032C33.6366 6.79297 33.0802 6.5625 32.5 6.5625ZM32.8125 8.75V17.9328C32.8125 18.3172 32.8016 18.6922 32.7828 19.0594H20.9375V8.4375H32.5C32.5829 8.4375 32.6624 8.47042 32.721 8.52903C32.7796 8.58763 32.8125 8.66712 32.8125 8.75ZM7.1875 8.75C7.1875 8.66712 7.22042 8.58763 7.27903 8.52903C7.33763 8.47042 7.41712 8.4375 7.5 8.4375H19.0625V19.0625H7.21719C7.19844 18.6953 7.1875 18.3203 7.1875 17.9359V8.75ZM7.40625 20.9375H19.0625V34.9844C16.1203 33.8187 8.7625 30.0281 7.40625 20.9375ZM20.9375 34.9844V20.9375H32.5938C31.2375 30.0266 23.8797 33.8187 20.9375 34.9844Z" fill="#003DA6"/>
</svg>
