<svg width="40" height="40" viewBox="0 0 40 40" fill="none" xmlns="http://www.w3.org/2000/svg">
<path d="M38.3791 6.24987C38.3653 6.02105 38.2682 5.80519 38.1062 5.64309C37.9441 5.481 37.7282 5.38391 37.4994 5.37019C29.5306 4.90144 23.1431 7.31081 20.4134 11.8171C18.5962 14.8186 18.6353 18.4858 20.4962 21.9733C19.3031 23.3393 18.4715 24.9826 18.0775 26.753L14.9837 23.6577C16.2572 21.1421 16.2494 18.5092 14.9337 16.3374C12.9322 13.0327 8.28062 11.2608 2.48375 11.6046C2.25467 11.6183 2.0386 11.7156 1.87647 11.878C1.71434 12.0405 1.61742 12.2567 1.60406 12.4858C1.26344 18.2811 3.03219 22.9327 6.33687 24.9342C7.41317 25.5921 8.65048 25.9392 9.91187 25.9374C11.2182 25.9241 12.503 25.6029 13.6619 24.9999L17.8119 29.1374V33.7499C17.8119 33.9985 17.9106 34.237 18.0865 34.4128C18.2623 34.5886 18.5007 34.6874 18.7494 34.6874C18.998 34.6874 19.2365 34.5886 19.4123 34.4128C19.5881 34.237 19.6869 33.9985 19.6869 33.7499V29.1421C19.6806 26.9943 20.4433 24.9153 21.8369 23.2811C23.5884 24.2077 25.3869 24.6733 27.1212 24.6733C28.8177 24.6789 30.4826 24.2155 31.9322 23.3342C36.4384 20.6077 38.8478 14.2186 38.3791 6.24987ZM7.30875 23.3296C4.76031 21.7874 3.34156 18.1249 3.43687 13.4374C8.12437 13.3358 11.7822 14.7561 13.3244 17.3046C14.2119 18.7686 14.2869 20.4889 13.565 22.2405L9.41187 18.0858C9.23596 17.9099 8.99737 17.8111 8.74859 17.8111C8.49981 17.8111 8.26122 17.9099 8.08531 18.0858C7.9094 18.2617 7.81057 18.5003 7.81057 18.7491C7.81057 18.9979 7.9094 19.2365 8.08531 19.4124L12.2447 23.5702C10.4931 24.2921 8.77281 24.2186 7.30875 23.3296ZM30.9619 21.7327C28.6587 23.1264 25.94 23.1671 23.2009 21.8733L31.9134 13.1624C32.0005 13.0753 32.0696 12.9719 32.1168 12.8581C32.1639 12.7443 32.1882 12.6223 32.1882 12.4991C32.1882 12.3759 32.1639 12.2539 32.1168 12.1401C32.0696 12.0263 32.0005 11.9229 31.9134 11.8358C31.8263 11.7487 31.7229 11.6796 31.6091 11.6325C31.4953 11.5853 31.3733 11.5611 31.2502 11.5611C31.127 11.5611 31.005 11.5853 30.8912 11.6325C30.7774 11.6796 30.674 11.7487 30.5869 11.8358L21.8744 20.5483C20.5806 17.8092 20.6244 15.0905 22.015 12.7889C24.2837 9.03894 29.6806 6.97956 36.5462 7.203C36.7697 14.0624 34.7087 19.4624 30.9619 21.7327Z" fill="#003DA6"/>
</svg>
