<svg width="40" height="40" viewBox="0 0 40 40" fill="none" xmlns="http://www.w3.org/2000/svg">
<path d="M35.7408 29.4252L28.1674 19.6877H32.5002C32.6753 19.6878 32.8471 19.6389 32.9959 19.5464C33.1446 19.454 33.2646 19.3217 33.342 19.1645C33.4194 19.0074 33.4513 18.8317 33.4339 18.6574C33.4166 18.4831 33.3508 18.3171 33.2439 18.1783L20.7439 1.92829C20.6564 1.81421 20.5438 1.7218 20.4148 1.6582C20.2858 1.5946 20.144 1.56152 20.0002 1.56152C19.8564 1.56152 19.7145 1.5946 19.5855 1.6582C19.4566 1.7218 19.344 1.81421 19.2564 1.92829L6.75642 18.1783C6.64956 18.3171 6.58373 18.4831 6.56639 18.6574C6.54906 18.8317 6.58091 19.0074 6.65834 19.1645C6.73577 19.3217 6.85568 19.454 7.00447 19.5464C7.15326 19.6389 7.32499 19.6878 7.50017 19.6877H11.833L4.25954 29.4252C4.15193 29.5637 4.08536 29.7297 4.06742 29.9043C4.04947 30.0788 4.08086 30.2549 4.15802 30.4125C4.23519 30.57 4.35502 30.7028 4.50389 30.7956C4.65277 30.8885 4.82471 30.9377 5.00017 30.9377H19.0627V37.5002C19.0627 37.7488 19.1614 37.9873 19.3373 38.1631C19.5131 38.3389 19.7515 38.4377 20.0002 38.4377C20.2488 38.4377 20.4873 38.3389 20.6631 38.1631C20.8389 37.9873 20.9377 37.7488 20.9377 37.5002V30.9377H35.0002C35.1756 30.9377 35.3476 30.8885 35.4964 30.7956C35.6453 30.7028 35.7651 30.57 35.8423 30.4125C35.9195 30.2549 35.9509 30.0788 35.9329 29.9043C35.915 29.7297 35.8484 29.5637 35.7408 29.4252ZM6.91735 29.0627L14.4908 19.3252C14.5984 19.1866 14.665 19.0206 14.6829 18.8461C14.7009 18.6715 14.6695 18.4954 14.5923 18.3379C14.5151 18.1803 14.3953 18.0475 14.2464 17.9547C14.0976 17.8618 13.9256 17.8126 13.7502 17.8127H9.40485L20.0002 4.03766L30.5955 17.8127H26.2502C26.0747 17.8126 25.9028 17.8618 25.7539 17.9547C25.605 18.0475 25.4852 18.1803 25.408 18.3379C25.3309 18.4954 25.2995 18.6715 25.3174 18.8461C25.3354 19.0206 25.4019 19.1866 25.5095 19.3252L33.083 29.0627H6.91735Z" fill="#003DA6"/>
</svg>
