<svg width="40" height="40" viewBox="0 0 40 40" fill="none" xmlns="http://www.w3.org/2000/svg">
<path d="M30.8219 10.0643C30.7525 10.033 30.697 9.97746 30.6657 9.90809C29.7854 7.80547 28.3034 6.00992 26.4057 4.74711C24.5081 3.48429 22.2795 2.81055 20 2.81055C17.7206 2.81055 15.492 3.48429 13.5944 4.74711C11.6967 6.00992 10.2146 7.80547 9.33441 9.90809C9.3031 9.97746 9.24754 10.033 9.17816 10.0643C7.28594 10.9402 5.68232 12.3369 4.555 14.091C3.42767 15.8451 2.82327 17.884 2.81254 19.969C2.79691 25.8659 7.5766 30.7815 13.4688 30.9378C15.4232 30.9921 17.356 30.517 19.0625 29.5628V36.2503C19.0625 36.4989 19.1613 36.7374 19.3371 36.9132C19.5129 37.089 19.7514 37.1878 20 37.1878C20.2487 37.1878 20.4871 37.089 20.663 36.9132C20.8388 36.7374 20.9375 36.4989 20.9375 36.2503V29.5597C22.5613 30.4661 24.3905 30.9406 26.25 30.9378H26.5329C32.4235 30.7815 37.2032 25.869 37.1875 19.9722C37.177 17.8866 36.5727 15.8472 35.4454 14.0926C34.3181 12.338 32.7144 10.9407 30.8219 10.0643ZM26.4844 29.0628C24.6142 29.1152 22.7741 28.5832 21.2204 27.5409C21.1298 27.4823 21.0353 27.4301 20.9375 27.3847V20.5878L27.9188 17.0972C28.1413 16.9861 28.3106 16.7912 28.3894 16.5553C28.4683 16.3194 28.4502 16.0619 28.3391 15.8393C28.228 15.6168 28.0331 15.4475 27.7972 15.3687C27.5614 15.2899 27.3038 15.308 27.0813 15.419L20.9375 18.4831V13.7503C20.9375 13.5016 20.8388 13.2632 20.663 13.0874C20.4871 12.9115 20.2487 12.8128 20 12.8128C19.7514 12.8128 19.5129 12.9115 19.3371 13.0874C19.1613 13.2632 19.0625 13.5016 19.0625 13.7503V22.2331L12.9188 19.1612C12.6963 19.0502 12.4387 19.032 12.2028 19.1109C11.9669 19.1897 11.772 19.359 11.661 19.5815C11.5499 19.8041 11.5318 20.0616 11.6106 20.2975C11.6895 20.5334 11.8588 20.7283 12.0813 20.8393L19.0625 24.33V27.3768C18.9647 27.4223 18.8702 27.4745 18.7797 27.5331C17.2272 28.5788 15.3868 29.1136 13.5157 29.0628C11.4686 29.0111 9.49947 28.2677 7.92899 26.9537C6.35851 25.6397 5.27932 23.8326 4.86725 21.8269C4.45519 19.8211 4.73455 17.7349 5.65981 15.9082C6.58507 14.0815 8.10169 12.622 9.96254 11.7675C10.4597 11.538 10.8528 11.1305 11.0641 10.6253C11.8016 8.8637 13.0434 7.3594 14.6333 6.30142C16.2232 5.24344 18.0903 4.67899 20 4.67899C21.9098 4.67899 23.7769 5.24344 25.3668 6.30142C26.9567 7.3594 28.1985 8.8637 28.936 10.6253C29.1479 11.1293 29.5409 11.5357 30.0375 11.7643C31.9001 12.6179 33.4185 14.0773 34.3451 15.9047C35.2716 17.7321 35.5516 19.8195 35.1394 21.8264C34.7271 23.8333 33.647 25.6413 32.0752 26.9555C30.5034 28.2697 28.5326 29.0125 26.4844 29.0628Z" fill="#003DA6"/>
</svg>
