<svg width="40" height="40" viewBox="0 0 40 40" fill="none" xmlns="http://www.w3.org/2000/svg">
<path d="M14.6871 32.4995C14.6871 32.7482 14.5883 32.9866 14.4125 33.1624C14.2367 33.3383 13.9982 33.437 13.7496 33.437H6.24961C5.6469 33.4356 5.05516 33.2757 4.53373 32.9734C4.01231 32.6711 3.57953 32.2371 3.2788 31.7147C2.97807 31.1924 2.81995 30.6002 2.82031 29.9975C2.82067 29.3948 2.9795 28.8027 3.28086 28.2808L9.01679 18.3683L6.08554 19.1495C5.84519 19.2138 5.58917 19.1799 5.37379 19.0553C5.15842 18.9308 5.00134 18.7258 4.93711 18.4855C4.87287 18.2451 4.90675 17.9891 5.03129 17.7737C5.15582 17.5583 5.36082 17.4013 5.60117 17.337L10.7215 15.9667C10.8409 15.9342 10.9656 15.9256 11.0884 15.9415C11.2111 15.9573 11.3295 15.9974 11.4367 16.0593C11.5439 16.1212 11.6378 16.2037 11.713 16.302C11.7881 16.4004 11.8431 16.5126 11.8746 16.6323L13.2496 21.7511C13.2815 21.87 13.2897 21.994 13.2737 22.1161C13.2576 22.2382 13.2177 22.3559 13.1562 22.4625C13.0947 22.5692 13.0128 22.6626 12.9151 22.7376C12.8175 22.8126 12.706 22.8676 12.5871 22.8995C12.5076 22.921 12.4257 22.932 12.3434 22.9323C12.1371 22.9321 11.9366 22.8639 11.7731 22.7382C11.6095 22.6125 11.492 22.4363 11.4387 22.237L10.6574 19.2995L4.90273 29.2183C4.76586 29.4553 4.69367 29.7242 4.69339 29.998C4.69311 30.2717 4.76476 30.5407 4.90115 30.7781C5.03755 31.0154 5.2339 31.2128 5.47056 31.3503C5.70721 31.4879 5.97586 31.5609 6.24961 31.562H13.7496C13.9982 31.562 14.2367 31.6608 14.4125 31.8366C14.5883 32.0124 14.6871 32.2509 14.6871 32.4995ZM36.7184 28.2808L33.1027 22.0308C32.973 21.8267 32.7695 21.6807 32.5346 21.6231C32.2997 21.5656 32.0517 21.6011 31.8424 21.7221C31.6331 21.8431 31.4786 22.0403 31.4112 22.2725C31.3438 22.5047 31.3688 22.754 31.4809 22.9683L35.0965 29.2183C35.2334 29.4553 35.3055 29.7242 35.3058 29.998C35.3061 30.2717 35.2345 30.5407 35.0981 30.7781C34.9617 31.0154 34.7653 31.2128 34.5287 31.3503C34.292 31.4879 34.0234 31.5609 33.7496 31.562H22.2621L24.4121 29.412C24.5777 29.2343 24.6679 28.9993 24.6636 28.7564C24.6593 28.5135 24.5609 28.2818 24.3891 28.11C24.2174 27.9382 23.9856 27.8398 23.7428 27.8356C23.4999 27.8313 23.2648 27.9214 23.0871 28.087L19.3371 31.837C19.1615 32.0128 19.0629 32.2511 19.0629 32.4995C19.0629 32.748 19.1615 32.9862 19.3371 33.162L23.0871 36.912C23.2648 37.0776 23.4999 37.1678 23.7428 37.1635C23.9856 37.1592 24.2174 37.0608 24.3891 36.8891C24.5609 36.7173 24.6593 36.4856 24.6636 36.2427C24.6679 35.9998 24.5777 35.7647 24.4121 35.587L22.2621 33.437H33.7496C34.3523 33.4356 34.9441 33.2757 35.4655 32.9734C35.9869 32.6711 36.4197 32.2371 36.7204 31.7147C37.0211 31.1924 37.1793 30.6002 37.1789 29.9975C37.1785 29.3948 37.0197 28.8027 36.7184 28.2808ZM21.3512 5.46828L27.0887 15.3808L24.1574 14.5995C23.9245 14.5539 23.6829 14.5984 23.4814 14.7239C23.28 14.8495 23.1337 15.0468 23.072 15.276C23.0103 15.5052 23.0379 15.7493 23.1492 15.959C23.2604 16.1687 23.4471 16.3283 23.6715 16.4058L28.7934 17.7792C29.0335 17.8431 29.2892 17.8091 29.5042 17.6846C29.7193 17.56 29.8761 17.3552 29.9402 17.1152L31.3137 11.9933C31.3513 11.8727 31.3642 11.7458 31.3515 11.6202C31.3389 11.4945 31.301 11.3727 31.2401 11.2621C31.1793 11.1515 31.0967 11.0543 30.9973 10.9763C30.8979 10.8984 30.7839 10.8413 30.6619 10.8086C30.5399 10.7758 30.4126 10.7681 30.2876 10.7857C30.1625 10.8034 30.0424 10.8461 29.9343 10.9114C29.8262 10.9766 29.7323 11.0631 29.6585 11.1655C29.5846 11.2679 29.5321 11.3842 29.5043 11.5073L28.7152 14.448L22.9684 4.53078C22.6656 4.01205 22.2321 3.58171 21.7113 3.28263C21.1904 2.98355 20.6002 2.82617 19.9996 2.82617C19.399 2.82617 18.8088 2.98355 18.2879 3.28263C17.7671 3.58171 17.3336 4.01205 17.0309 4.53078L13.4059 10.7808C13.2869 10.9957 13.2571 11.2488 13.3228 11.4855C13.3885 11.7222 13.5445 11.9237 13.7573 12.0466C13.9701 12.1694 14.2225 12.2039 14.4604 12.1425C14.6983 12.0811 14.9026 11.9288 15.0293 11.7183L18.648 5.46828C18.7854 5.2315 18.9825 5.03495 19.2197 4.89833C19.4569 4.76171 19.7259 4.68979 19.9996 4.68979C20.2733 4.68979 20.5423 4.76171 20.7795 4.89833C21.0167 5.03495 21.2138 5.2315 21.3512 5.46828Z" fill="#003DA6"/>
</svg>
