<svg width="56" height="56" viewBox="0 0 56 56" fill="none" xmlns="http://www.w3.org/2000/svg">
<path d="M24.5 38.5C24.5 38.7321 24.4078 38.9546 24.2437 39.1187C24.0796 39.2828 23.8571 39.375 23.625 39.375H17.5C17.2679 39.375 17.0454 39.2828 16.8813 39.1187C16.7172 38.9546 16.625 38.7321 16.625 38.5C16.625 38.2679 16.7172 38.0454 16.8813 37.8813C17.0454 37.7172 17.2679 37.625 17.5 37.625H23.625C23.8571 37.625 24.0796 37.7172 24.2437 37.8813C24.4078 38.0454 24.5 38.2679 24.5 38.5ZM38.5 37.625H32.375C32.1429 37.625 31.9204 37.7172 31.7563 37.8813C31.5922 38.0454 31.5 38.2679 31.5 38.5C31.5 38.7321 31.5922 38.9546 31.7563 39.1187C31.9204 39.2828 32.1429 39.375 32.375 39.375H38.5C38.7321 39.375 38.9546 39.2828 39.1187 39.1187C39.2828 38.9546 39.375 38.7321 39.375 38.5C39.375 38.2679 39.2828 38.0454 39.1187 37.8813C38.9546 37.7172 38.7321 37.625 38.5 37.625ZM53.375 47.25C53.375 47.4821 53.2828 47.7046 53.1187 47.8687C52.9546 48.0328 52.7321 48.125 52.5 48.125H3.5C3.26794 48.125 3.04538 48.0328 2.88128 47.8687C2.71719 47.7046 2.625 47.4821 2.625 47.25C2.625 47.0179 2.71719 46.7954 2.88128 46.6313C3.04538 46.4672 3.26794 46.375 3.5 46.375H7.875V19.25C7.875 19.0875 7.92025 18.9282 8.00568 18.79C8.09111 18.6518 8.21335 18.54 8.35869 18.4674C8.50403 18.3947 8.66674 18.3639 8.82858 18.3785C8.99042 18.3931 9.145 18.4525 9.275 18.55L21.875 28V19.25C21.875 19.0875 21.9202 18.9282 22.0057 18.79C22.0911 18.6518 22.2133 18.54 22.3587 18.4674C22.504 18.3947 22.6667 18.3639 22.8286 18.3785C22.9904 18.3931 23.145 18.4525 23.275 18.55L32.9306 25.7928L35.6694 6.62812C35.7615 6.00383 36.0743 5.43322 36.5511 5.01983C37.0279 4.60644 37.6371 4.37766 38.2681 4.375H42.2319C42.8629 4.37766 43.4721 4.60644 43.9489 5.01983C44.4257 5.43322 44.7385 6.00383 44.8306 6.62812L48.1119 29.6253C48.1151 29.6668 48.1151 29.7085 48.1119 29.75V46.375H52.4869C52.6029 46.3733 52.7181 46.3946 52.8258 46.4378C52.9334 46.481 53.0314 46.5452 53.1141 46.6266C53.1967 46.708 53.2624 46.8051 53.3072 46.9121C53.352 47.0191 53.375 47.134 53.375 47.25ZM34.5275 26.9894L37.0409 28.875H46.2416L43.0938 6.87531C43.0635 6.66547 42.9582 6.47373 42.7973 6.33572C42.6363 6.19772 42.4307 6.12284 42.2188 6.125H38.2681C38.0561 6.12284 37.8506 6.19772 37.6896 6.33572C37.5287 6.47373 37.4233 6.66547 37.3931 6.87531L34.5275 26.9894ZM9.625 46.375H46.375V30.625H36.75C36.5607 30.625 36.3765 30.5636 36.225 30.45L23.625 21V29.75C23.625 29.9125 23.5798 30.0718 23.4943 30.21C23.4089 30.3482 23.2867 30.46 23.1413 30.5326C22.996 30.6053 22.8333 30.6361 22.6714 30.6215C22.5096 30.6069 22.355 30.5475 22.225 30.45L9.625 21V46.375Z" fill="#003DA6"/>
</svg>
