<svg width="56" height="56" viewBox="0 0 56 56" fill="none" xmlns="http://www.w3.org/2000/svg">
<path d="M20.1249 45.4999C20.1249 45.732 20.0327 45.9546 19.8686 46.1186C19.7045 46.2827 19.482 46.3749 19.2499 46.3749H8.7499C7.98212 46.3745 7.22797 46.1721 6.5632 45.7879C5.89844 45.4038 5.34648 44.8515 4.96276 44.1864C4.57905 43.5214 4.3771 42.7671 4.3772 41.9994C4.3773 41.2316 4.57945 40.4773 4.96334 39.8124L13.5252 25.0206L8.3999 26.3921C8.28728 26.4275 8.16867 26.4398 8.05119 26.4282C7.93371 26.4165 7.8198 26.3812 7.71632 26.3244C7.61284 26.2676 7.52192 26.1905 7.44904 26.0976C7.37616 26.0047 7.32283 25.8981 7.29226 25.784C7.26168 25.67 7.2545 25.551 7.27114 25.4341C7.28777 25.3172 7.32789 25.2049 7.38907 25.104C7.45025 25.003 7.53122 24.9155 7.62712 24.8466C7.72302 24.7778 7.83186 24.729 7.94709 24.7034L15.1155 22.7849C15.2267 22.7552 15.3426 22.7477 15.4567 22.7628C15.5708 22.778 15.6808 22.8155 15.7803 22.8732C15.8799 22.9309 15.9671 23.0077 16.037 23.0991C16.1068 23.1906 16.1579 23.2949 16.1874 23.4062L18.1102 30.5746C18.1704 30.7986 18.1392 31.0372 18.0236 31.2382C17.9079 31.4392 17.7172 31.586 17.4933 31.6465C17.4221 31.6665 17.3485 31.6768 17.2746 31.6771C17.0811 31.6765 16.8933 31.6117 16.7405 31.493C16.5877 31.3743 16.4786 31.2082 16.4302 31.0209L15.0521 25.8868L6.48584 40.6874C6.25583 41.0858 6.13455 41.5376 6.13414 41.9976C6.13374 42.4576 6.25422 42.9097 6.48351 43.3084C6.71281 43.7072 7.04288 44.0387 7.44064 44.2698C7.8384 44.5008 8.2899 44.6233 8.7499 44.6249H19.2499C19.482 44.6249 19.7045 44.7171 19.8686 44.8812C20.0327 45.0453 20.1249 45.2679 20.1249 45.4999ZM51.0299 39.8124L45.968 31.0624C45.852 30.8614 45.6609 30.7147 45.4367 30.6546C45.2125 30.5945 44.9736 30.6259 44.7726 30.742C44.5715 30.858 44.4248 31.0491 44.3647 31.2733C44.3046 31.4975 44.3361 31.7364 44.4521 31.9374L49.514 40.6874C49.744 41.0858 49.8652 41.5376 49.8657 41.9976C49.8661 42.4576 49.7456 42.9097 49.5163 43.3084C49.287 43.7072 48.9569 44.0387 48.5592 44.2698C48.1614 44.5008 47.7099 44.6233 47.2499 44.6249H30.113L33.869 40.869C34.0331 40.7048 34.1254 40.4821 34.1254 40.2499C34.1254 40.0177 34.0331 39.7951 33.869 39.6309C33.7048 39.4667 33.4821 39.3744 33.2499 39.3744C33.0177 39.3744 32.795 39.4667 32.6308 39.6309L27.3808 44.8809C27.2995 44.9621 27.2349 45.0586 27.1909 45.1649C27.1469 45.2711 27.1242 45.3849 27.1242 45.4999C27.1242 45.6149 27.1469 45.7288 27.1909 45.835C27.2349 45.9412 27.2995 46.0377 27.3808 46.119L32.6308 51.369C32.795 51.5332 33.0177 51.6254 33.2499 51.6254C33.4821 51.6254 33.7048 51.5332 33.869 51.369C34.0331 51.2048 34.1254 50.9821 34.1254 50.7499C34.1254 50.5177 34.0331 50.2951 33.869 50.1309L30.113 46.3749H47.2499C48.0177 46.3745 48.7718 46.1721 49.4366 45.7879C50.1014 45.4038 50.6533 44.8515 51.037 44.1864C51.4207 43.5214 51.6227 42.7671 51.6226 41.9994C51.6225 41.2316 51.4203 40.4773 51.0365 39.8124H51.0299ZM30.2705 7.43743L38.8324 22.2293L33.7071 20.8556C33.4829 20.7955 33.244 20.827 33.0429 20.9431C32.8419 21.0592 32.6953 21.2504 32.6352 21.4746C32.5752 21.6988 32.6067 21.9378 32.7227 22.1388C32.8388 22.3398 33.03 22.4864 33.2543 22.5465L40.4249 24.4671C40.496 24.4874 40.5697 24.4977 40.6436 24.4977C40.8371 24.4971 41.025 24.4324 41.1778 24.3136C41.3305 24.1949 41.4397 24.0288 41.488 23.8415L43.4108 16.6687C43.4463 16.5561 43.4585 16.4374 43.4469 16.32C43.4352 16.2025 43.4 16.0886 43.3432 15.9851C43.2863 15.8816 43.2092 15.7907 43.1163 15.7178C43.0234 15.6449 42.9168 15.5916 42.8027 15.561C42.6887 15.5305 42.5697 15.5233 42.4528 15.5399C42.3359 15.5566 42.2236 15.5967 42.1227 15.6578C42.0217 15.719 41.9342 15.8 41.8653 15.8959C41.7965 15.9918 41.7478 16.1006 41.7221 16.2159L40.344 21.3499L31.7865 6.56243C31.4022 5.89842 30.85 5.34715 30.1854 4.9639C29.5208 4.58065 28.7671 4.37891 27.9999 4.37891C27.2327 4.37891 26.479 4.58065 25.8144 4.9639C25.1498 5.34715 24.5976 5.89842 24.2133 6.56243L19.1471 15.3124C19.0311 15.5135 18.9996 15.7523 19.0597 15.9765C19.1198 16.2007 19.2665 16.3919 19.4676 16.5079C19.6686 16.6239 19.9075 16.6554 20.1317 16.5953C20.3559 16.5352 20.547 16.3885 20.663 16.1874L25.7271 7.43743C25.9577 7.03913 26.289 6.70846 26.6877 6.47858C27.0864 6.2487 27.5386 6.12769 27.9988 6.12769C28.459 6.12769 28.9112 6.2487 29.3099 6.47858C29.7086 6.70846 30.0399 7.03913 30.2705 7.43743Z" fill="#003DA6"/>
</svg>
