<svg width="56" height="56" viewBox="0 0 56 56" fill="none" xmlns="http://www.w3.org/2000/svg">
<path d="M28 6.125C23.6735 6.125 19.4442 7.40795 15.8469 9.8116C12.2496 12.2153 9.44581 15.6317 7.79014 19.6288C6.13448 23.6259 5.70128 28.0243 6.54533 32.2676C7.38938 36.5109 9.47278 40.4087 12.532 43.468C15.5913 46.5272 19.4891 48.6106 23.7324 49.4547C27.9757 50.2987 32.3741 49.8655 36.3712 48.2099C40.3683 46.5542 43.7848 43.7504 46.1884 40.1531C48.5921 36.5558 49.875 32.3265 49.875 28C49.8686 22.2003 47.5619 16.6401 43.4609 12.5391C39.36 8.4381 33.7997 6.13137 28 6.125ZM28 7.875C32.0624 7.87072 36.0298 9.10292 39.375 11.4078V16.1875C39.3731 16.3979 39.2955 16.6006 39.1563 16.7584L34.3066 22.3934C34.1671 22.555 33.9734 22.66 33.7619 22.6888L26.8844 23.625C26.6619 23.6566 26.4358 23.6001 26.2544 23.4675L26.2194 23.4434L21.9034 20.6106C21.6173 20.4072 21.2933 20.2632 20.9505 20.1872C20.6078 20.1111 20.2533 20.1047 19.908 20.1681C19.5626 20.2315 19.2336 20.3636 18.9402 20.5565C18.6468 20.7493 18.3951 20.9991 18.2 21.2909L13.6063 28.1378C13.3215 28.5655 13.1693 29.0677 13.1688 29.5816L13.125 37.5069C13.1246 37.6514 13.0885 37.7935 13.0198 37.9206C12.951 38.0477 12.8519 38.1558 12.7313 38.2353L11.2766 39.1891C9.2501 36.1595 8.08445 32.6364 7.90407 28.996C7.72368 25.3556 8.53534 21.7345 10.2524 18.5194C11.9694 15.3043 14.5274 12.6159 17.6531 10.7412C20.7789 8.86644 24.3551 7.8758 28 7.875ZM12.32 40.6L13.6959 39.6966C14.0587 39.4582 14.3566 39.1336 14.5632 38.7519C14.7697 38.3701 14.8784 37.9431 14.8794 37.5091L14.9253 29.5838C14.926 29.4124 14.977 29.2451 15.0719 29.1025L19.6547 22.2556C19.7204 22.1581 19.805 22.0749 19.9036 22.0108C20.0022 21.9468 20.1126 21.9032 20.2284 21.8828C20.3442 21.8624 20.4629 21.8655 20.5774 21.892C20.6919 21.9185 20.7999 21.9677 20.895 22.0369L20.9278 22.0609L25.2459 24.885C25.7889 25.2709 26.4583 25.4359 27.1184 25.3466L34.0025 24.4147C34.6389 24.329 35.2218 24.013 35.6409 23.5266L40.4906 17.8959C40.8993 17.4205 41.1244 16.8145 41.125 16.1875V12.7553C44.3011 15.4843 46.5458 19.1369 47.5458 23.2033C48.5458 27.2696 48.2512 31.5467 46.7031 35.4375L42.2034 31.3206C41.8346 30.9837 41.3772 30.7591 40.8851 30.673C40.393 30.587 39.8866 30.6432 39.4253 30.835L32.7644 33.6044C32.3463 33.7793 31.9804 34.059 31.7018 34.4165C31.4233 34.774 31.2415 35.1972 31.1741 35.6453L30.6534 39.1869C30.5618 39.8262 30.709 40.4768 31.067 41.0144C31.425 41.552 31.9685 41.9387 32.5938 42.1006L37.2859 43.3322C37.4356 43.3688 37.5729 43.4442 37.6841 43.5509L38.9834 44.8634C34.8035 47.5918 29.7577 48.6666 24.8288 47.8784C19.8998 47.0903 15.4407 44.4957 12.32 40.6ZM40.4141 43.8288L38.9134 42.3237C38.5839 41.9937 38.1724 41.7573 37.7213 41.6391L33.0313 40.4075C32.8207 40.3555 32.6369 40.227 32.5157 40.0472C32.3944 39.8673 32.3443 39.6488 32.375 39.4341L32.8978 35.8903C32.9198 35.7409 32.9802 35.5997 33.0729 35.4804C33.1657 35.3612 33.2877 35.2681 33.4272 35.21L40.0881 32.4428C40.2421 32.3786 40.4112 32.3597 40.5755 32.3884C40.7398 32.417 40.8925 32.4921 41.0156 32.6047L45.9375 37.1044C44.6063 39.7202 42.7215 42.0148 40.4141 43.8288Z" fill="#003DA6"/>
</svg>
