<svg width="56" height="56" viewBox="0 0 56 56" fill="none" xmlns="http://www.w3.org/2000/svg">
<path d="M27.9999 14.875C29.2113 14.875 30.3956 14.5158 31.4028 13.8428C32.4101 13.1697 33.1951 12.2131 33.6587 11.0939C34.1223 9.97474 34.2436 8.74321 34.0072 7.55507C33.7709 6.36694 33.1876 5.27557 32.331 4.41897C31.4744 3.56237 30.383 2.97902 29.1949 2.74269C28.0067 2.50636 26.7752 2.62765 25.656 3.09124C24.5368 3.55482 23.5802 4.33988 22.9072 5.34713C22.2342 6.35438 21.8749 7.53859 21.8749 8.75C21.8749 10.3745 22.5202 11.9324 23.6689 13.081C24.8176 14.2297 26.3755 14.875 27.9999 14.875ZM27.9999 4.375C28.8652 4.375 29.7111 4.63159 30.4306 5.11232C31.15 5.59305 31.7108 6.27633 32.0419 7.07576C32.373 7.87519 32.4597 8.75485 32.2909 9.60352C32.1221 10.4522 31.7054 11.2317 31.0935 11.8436C30.4817 12.4554 29.7021 12.8721 28.8535 13.0409C28.0048 13.2097 27.1251 13.1231 26.3257 12.792C25.5263 12.4608 24.843 11.9001 24.3623 11.1806C23.8815 10.4612 23.6249 9.61529 23.6249 8.75C23.6249 7.58968 24.0859 6.47688 24.9063 5.65641C25.7268 4.83594 26.8396 4.375 27.9999 4.375ZM47.1231 29.9206L37.2246 18.6988C36.6498 18.047 35.943 17.525 35.1509 17.1675C34.3589 16.8099 33.4999 16.625 32.6309 16.625H23.369C22.5 16.625 21.641 16.8099 20.8489 17.1675C20.0569 17.525 19.35 18.047 18.7753 18.6988L8.87681 29.9206C8.23407 30.5783 7.87597 31.4624 7.87992 32.382C7.88386 33.3016 8.24955 34.1826 8.89791 34.8347C9.54627 35.4868 10.4252 35.8576 11.3447 35.8668C12.2643 35.876 13.1505 35.523 13.8118 34.8841L19.4687 30.3406L15.1593 46.7206C14.7844 47.5623 14.7565 48.5179 15.0817 49.38C15.4068 50.2421 16.0588 50.9412 16.8962 51.3256C17.7336 51.71 18.6888 51.7488 19.5545 51.4334C20.4202 51.118 21.1267 50.4739 21.5206 49.6409L27.9999 38.5L34.4706 49.6563C34.8644 50.4892 35.5709 51.1333 36.4366 51.4487C37.3024 51.7641 38.2575 51.7254 39.0949 51.3409C39.9323 50.9565 40.5843 50.2574 40.9095 49.3953C41.2346 48.5332 41.2067 47.5776 40.8318 46.7359L36.5312 30.3406L42.1968 34.8841C42.8581 35.523 43.7444 35.876 44.6639 35.8668C45.5834 35.8576 46.4624 35.4868 47.1107 34.8347C47.7591 34.1826 48.1248 33.3016 48.1287 32.382C48.1327 31.4624 47.7746 30.5783 47.1318 29.9206H47.1231ZM45.8631 33.6109C45.5349 33.9389 45.09 34.1231 44.626 34.1231C44.1621 34.1231 43.7172 33.9389 43.389 33.6109C43.3665 33.5881 43.3423 33.5669 43.3168 33.5475L35.549 27.3175C35.4056 27.2018 35.2293 27.1343 35.0452 27.1247C34.8612 27.1151 34.6789 27.1639 34.5242 27.264C34.3695 27.3642 34.2503 27.5106 34.1838 27.6824C34.1172 27.8542 34.1065 28.0427 34.1534 28.2209L39.1562 47.2369C39.1694 47.2872 39.187 47.3362 39.2087 47.3834C39.3097 47.5922 39.3682 47.819 39.3808 48.0506C39.3933 48.2821 39.3598 48.5139 39.282 48.7324C39.2042 48.9509 39.0838 49.1517 38.9277 49.3233C38.7716 49.4948 38.583 49.6336 38.3728 49.7316C38.1626 49.8296 37.935 49.8848 37.7033 49.8941C37.4715 49.9034 37.2403 49.8665 37.0229 49.7856C36.8056 49.7047 36.6064 49.5814 36.4372 49.4229C36.2679 49.2644 36.1318 49.0738 36.0368 48.8622C36.0259 48.8381 36.0128 48.8163 35.9996 48.7922L28.7568 36.3125C28.6799 36.1799 28.5695 36.0698 28.4367 35.9933C28.3038 35.9168 28.1532 35.8765 27.9999 35.8765C27.8466 35.8765 27.696 35.9168 27.5632 35.9933C27.4304 36.0698 27.32 36.1799 27.2431 36.3125L19.9981 48.7922C19.9849 48.8163 19.9718 48.8381 19.9609 48.8622C19.8659 49.0738 19.7298 49.2644 19.5605 49.4229C19.3912 49.5814 19.1921 49.7047 18.9748 49.7856C18.7574 49.8665 18.5262 49.9034 18.2944 49.8941C18.0627 49.8848 17.8351 49.8296 17.6249 49.7316C17.4147 49.6336 17.2261 49.4948 17.07 49.3233C16.9139 49.1517 16.7935 48.9509 16.7157 48.7324C16.6379 48.5139 16.6044 48.2821 16.6169 48.0506C16.6295 47.819 16.688 47.5922 16.789 47.3834C16.8107 47.3362 16.8283 47.2872 16.8415 47.2369L21.8465 28.2188C21.8933 28.0405 21.8827 27.8521 21.8161 27.6802C21.7495 27.5084 21.6304 27.362 21.4757 27.2618C21.321 27.1617 21.1387 27.113 20.9546 27.1226C20.7706 27.1322 20.5943 27.1996 20.4509 27.3153L12.6874 33.5475C12.6619 33.5669 12.6378 33.5881 12.6153 33.6109C12.2844 33.9253 11.8438 34.0979 11.3875 34.0921C10.9312 34.0862 10.4952 33.9024 10.1725 33.5797C9.84976 33.257 9.66589 32.821 9.66005 32.3646C9.6542 31.9083 9.82685 31.4677 10.1412 31.1369L10.1784 31.0975L20.0878 19.8559C20.4983 19.3905 21.0033 19.0177 21.569 18.7623C22.1347 18.507 22.7483 18.375 23.369 18.375H32.6309C33.2516 18.375 33.8651 18.507 34.4309 18.7623C34.9966 19.0177 35.5015 19.3905 35.9121 19.8559L45.8259 31.0975L45.8631 31.1369C46.191 31.465 46.3752 31.91 46.3752 32.3739C46.3752 32.8378 46.191 33.2828 45.8631 33.6109Z" fill="#003DA6"/>
</svg>
