<svg width="48" height="48" viewBox="0 0 48 48" fill="none" xmlns="http://www.w3.org/2000/svg">
<path d="M39 7.875H9C8.30381 7.875 7.63613 8.15156 7.14384 8.64384C6.65156 9.13613 6.375 9.80381 6.375 10.5V21.5194C6.375 38.0662 20.3775 43.5544 23.1844 44.4862C23.7132 44.6663 24.2868 44.6663 24.8156 44.4862C27.6281 43.5487 41.625 38.0662 41.625 21.5194V10.5C41.625 9.80381 41.3484 9.13613 40.8562 8.64384C40.3639 8.15156 39.6962 7.875 39 7.875ZM39.375 10.5V21.5194C39.375 21.9806 39.3619 22.4306 39.3394 22.8713H25.125V10.125H39C39.0995 10.125 39.1948 10.1645 39.2652 10.2348C39.3355 10.3052 39.375 10.4005 39.375 10.5ZM8.625 10.5C8.625 10.4005 8.66451 10.3052 8.73483 10.2348C8.80516 10.1645 8.90054 10.125 9 10.125H22.875V22.875H8.66062C8.63812 22.4344 8.625 21.9844 8.625 21.5231V10.5ZM8.8875 25.125H22.875V41.9812C19.3444 40.5825 10.515 36.0338 8.8875 25.125ZM25.125 41.9812V25.125H39.1125C37.485 36.0319 28.6556 40.5825 25.125 41.9812Z" fill="#003DA6"/>
</svg>
