<svg width="48" height="48" viewBox="0 0 48 48" fill="none" xmlns="http://www.w3.org/2000/svg">
<path d="M46.0559 7.50009C46.0394 7.22551 45.9229 6.96647 45.7284 6.77196C45.5339 6.57744 45.2748 6.46094 45.0002 6.44447C35.4377 5.88197 27.7727 8.77322 24.4971 14.1807C22.3165 17.7826 22.3633 22.1832 24.5965 26.3682C23.1647 28.0074 22.1667 29.9794 21.694 32.1038L17.9815 28.3895C19.5096 25.3707 19.5002 22.2113 17.9215 19.6051C15.5196 15.6395 9.93772 13.5132 2.98147 13.9257C2.70658 13.9422 2.4473 14.059 2.25274 14.2539C2.05819 14.4488 1.94188 14.7083 1.92585 14.9832C1.5171 21.9376 3.6396 27.5195 7.60522 29.9213C8.89678 30.7107 10.3816 31.1273 11.8952 31.1251C13.4628 31.1091 15.0045 30.7237 16.3952 30.0001L21.3752 34.9651V40.5001C21.3752 40.7985 21.4938 41.0846 21.7047 41.2956C21.9157 41.5066 22.2019 41.6251 22.5002 41.6251C22.7986 41.6251 23.0847 41.5066 23.2957 41.2956C23.5067 41.0846 23.6252 40.7985 23.6252 40.5001V34.9707C23.6177 32.3935 24.5329 29.8986 26.2052 27.9376C28.3071 29.0495 30.4652 29.6082 32.5465 29.6082C34.5822 29.6149 36.5801 29.0588 38.3196 28.0013C43.7271 24.7295 46.6184 17.0626 46.0559 7.50009ZM8.77147 27.9957C5.71335 26.1451 4.01085 21.7501 4.12522 16.1251C9.75022 16.0032 14.1396 17.7076 15.9902 20.7657C17.0552 22.5226 17.1452 24.587 16.279 26.6888L11.2952 21.7032C11.0841 21.4921 10.7978 21.3735 10.4993 21.3735C10.2008 21.3735 9.91444 21.4921 9.70335 21.7032C9.49225 21.9143 9.37366 22.2006 9.37366 22.4992C9.37366 22.7977 9.49225 23.084 9.70335 23.2951L14.6946 28.2845C12.5927 29.1507 10.5283 29.0626 8.77147 27.9957ZM37.1552 26.0795C34.3915 27.752 31.129 27.8007 27.8421 26.2482L38.2971 15.7951C38.4016 15.6906 38.4845 15.5665 38.5411 15.4299C38.5977 15.2933 38.6268 15.147 38.6268 14.9992C38.6268 14.8513 38.5977 14.705 38.5411 14.5684C38.4845 14.4318 38.4016 14.3077 38.2971 14.2032C38.1926 14.0987 38.0685 14.0158 37.9319 13.9592C37.7954 13.9026 37.649 13.8735 37.5012 13.8735C37.3533 13.8735 37.207 13.9026 37.0704 13.9592C36.9338 14.0158 36.8097 14.0987 36.7052 14.2032L26.2502 24.6582C24.6977 21.3713 24.7502 18.1088 26.419 15.347C29.1415 10.847 35.6177 8.37572 43.8565 8.64384C44.1246 16.8751 41.6515 23.3551 37.1552 26.0795Z" fill="#003DA6"/>
</svg>
