<svg width="48" height="48" viewBox="0 0 48 48" fill="none" xmlns="http://www.w3.org/2000/svg">
<g clip-path="url(#clip0_0_1845)">
<path d="M16.9156 12.0091C17.6901 9.66028 19.5721 8.366 19.5721 8.366M16.9156 12.0091C18.1925 12.4002 18.9079 12.6194 20.1848 13.0108M16.9156 12.0091C16.8756 13.7574 16.9686 14.1712 17.342 15.8262M20.1848 13.0108C21.0451 12.3072 22.3877 11.2093 22.3877 11.2093M20.1848 13.0108C20.367 13.8187 20.9316 16.3208 20.9316 16.3208M19.5721 8.366L29.8504 0.859048C30.3383 0.502759 31.0282 0.657015 31.3178 1.18713L31.8597 2.17893C32.0877 2.59631 31.9902 3.11655 31.6265 3.42305L22.3877 11.2093M19.5721 8.366L22.3877 11.2093M17.342 15.8262C19.2663 24.3547 22.3408 36.5862 23.2125 40.0351C23.3453 40.5603 23.8708 40.877 24.3992 40.7578L25.3706 40.5386C25.9094 40.417 26.2476 39.8818 26.126 39.343L20.9316 16.3208M17.342 15.8262C18.4731 15.571 20.9316 16.3208 20.9316 16.3208" stroke="#003DA6" stroke-width="1.7" stroke-linecap="round"/>
<path d="M7.10982 10.6414L7.03011 3.56132C7.02623 3.21656 7.20023 2.89411 7.49054 2.70809L8.87388 1.82169C9.5352 1.39794 10.4045 1.86702 10.4133 2.65241L10.5028 10.6032M7.10982 10.6414L10.5028 10.6032M7.10982 10.6414L7.14802 14.0344M10.5028 10.6032L10.541 13.9962M10.541 13.9962L7.14802 14.0344M10.541 13.9962L10.5792 17.3892M7.14802 14.0344L7.18622 17.4274M7.18622 17.4274L7.44712 40.6028C7.45334 41.155 7.90607 41.5977 8.45832 41.5915L9.85146 41.5758C10.4037 41.5696 10.8464 41.1168 10.8401 40.5646L10.5792 17.3892M7.18622 17.4274L10.5792 17.3892" stroke="#003DA6" stroke-width="1.7" stroke-linecap="round"/>
</g>
<defs>
<clipPath id="clip0_0_1845">
<rect width="48" height="48" fill="white"/>
</clipPath>
</defs>
</svg>
