<svg width="48" height="48" viewBox="0 0 48 48" fill="none" xmlns="http://www.w3.org/2000/svg">
<path d="M39 7.875H9C8.30381 7.875 7.63613 8.15156 7.14384 8.64384C6.65156 9.13613 6.375 9.80381 6.375 10.5V21.5194C6.375 38.0662 20.3775 43.5544 23.1844 44.4862C23.7132 44.6663 24.2868 44.6663 24.8156 44.4862C27.6281 43.5487 41.625 38.0662 41.625 21.5194V10.5C41.625 9.80381 41.3484 9.13613 40.8562 8.64384C40.3639 8.15156 39.6962 7.875 39 7.875ZM39.375 21.5231C39.375 36.5231 26.655 41.5088 24.105 42.3544C24.0374 42.3806 23.9626 42.3806 23.895 42.3544C21.345 41.5088 8.625 36.5231 8.625 21.5231V10.5C8.625 10.4005 8.66451 10.3052 8.73483 10.2348C8.80516 10.1645 8.90054 10.125 9 10.125H39C39.0995 10.125 39.1948 10.1645 39.2652 10.2348C39.3355 10.3052 39.375 10.4005 39.375 10.5V21.5231ZM31.125 24C31.125 24.2984 31.0065 24.5845 30.7955 24.7955C30.5845 25.0065 30.2984 25.125 30 25.125H25.125V30C25.125 30.2984 25.0065 30.5845 24.7955 30.7955C24.5845 31.0065 24.2984 31.125 24 31.125C23.7016 31.125 23.4155 31.0065 23.2045 30.7955C22.9935 30.5845 22.875 30.2984 22.875 30V25.125H18C17.7016 25.125 17.4155 25.0065 17.2045 24.7955C16.9935 24.5845 16.875 24.2984 16.875 24C16.875 23.7016 16.9935 23.4155 17.2045 23.2045C17.4155 22.9935 17.7016 22.875 18 22.875H22.875V18C22.875 17.7016 22.9935 17.4155 23.2045 17.2045C23.4155 16.9935 23.7016 16.875 24 16.875C24.2984 16.875 24.5845 16.9935 24.7955 17.2045C25.0065 17.4155 25.125 17.7016 25.125 18V22.875H30C30.2984 22.875 30.5845 22.9935 30.7955 23.2045C31.0065 23.4155 31.125 23.7016 31.125 24Z" fill="#003DA6"/>
</svg>
