<svg width="48" height="48" viewBox="0 0 48 48" fill="none" xmlns="http://www.w3.org/2000/svg">
<path d="M17.25 25.875C16.8792 25.875 16.5167 25.765 16.2083 25.559C15.9 25.353 15.6596 25.0601 15.5177 24.7175C15.3758 24.3749 15.3387 23.9979 15.411 23.6342C15.4834 23.2705 15.662 22.9364 15.9242 22.6742C16.1864 22.412 16.5205 22.2334 16.8842 22.161C17.2479 22.0887 17.6249 22.1258 17.9675 22.2677C18.3102 22.4096 18.603 22.65 18.809 22.9583C19.015 23.2666 19.125 23.6292 19.125 24C19.125 24.4973 18.9275 24.9742 18.5758 25.3258C18.2242 25.6775 17.7473 25.875 17.25 25.875ZM30.75 22.125C30.3792 22.125 30.0167 22.235 29.7083 22.441C29.4 22.647 29.1596 22.9399 29.0177 23.2825C28.8758 23.6251 28.8387 24.0021 28.911 24.3658C28.9834 24.7295 29.162 25.0636 29.4242 25.3258C29.6864 25.5881 30.0205 25.7666 30.3842 25.839C30.7479 25.9113 31.1249 25.8742 31.4675 25.7323C31.8102 25.5904 32.103 25.35 32.309 25.0417C32.515 24.7334 32.625 24.3708 32.625 24C32.625 23.5027 32.4275 23.0258 32.0758 22.6742C31.7242 22.3225 31.2473 22.125 30.75 22.125ZM28.65 30.5475C27.254 31.4146 25.6434 31.8742 24 31.8742C22.3566 31.8742 20.746 31.4146 19.35 30.5475C19.0974 30.3884 18.7919 30.3361 18.5008 30.4022C18.2096 30.4683 17.9566 30.6474 17.7975 30.9C17.6384 31.1526 17.5861 31.4581 17.6522 31.7493C17.7183 32.0404 17.8974 32.2934 18.15 32.4525C19.9053 33.5461 21.9319 34.1258 24 34.1258C26.0681 34.1258 28.0948 33.5461 29.85 32.4525C29.9751 32.3737 30.0834 32.271 30.1688 32.1504C30.2543 32.0297 30.3151 31.8934 30.3478 31.7493C30.3805 31.6051 30.3845 31.4559 30.3596 31.3102C30.3347 31.1645 30.2813 31.0251 30.2025 30.9C30.1237 30.7749 30.0211 30.6666 29.9004 30.5812C29.7797 30.4958 29.6434 30.4349 29.4993 30.4022C29.3551 30.3695 29.2059 30.3655 29.0602 30.3904C28.9145 30.4153 28.7751 30.4687 28.65 30.5475ZM43.125 24C43.125 27.7826 42.0033 31.4802 39.9019 34.6253C37.8004 37.7704 34.8135 40.2217 31.3188 41.6692C27.8242 43.1167 23.9788 43.4955 20.2689 42.7575C16.559 42.0196 13.1513 40.1981 10.4766 37.5234C7.80191 34.8487 5.98043 31.441 5.24249 27.7311C4.50455 24.0212 4.88329 20.1758 6.33081 16.6812C7.77834 13.1865 10.2296 10.1996 13.3747 8.09814C16.5198 5.99666 20.2174 4.875 24 4.875C29.0704 4.88095 33.9315 6.89782 37.5168 10.4832C41.1022 14.0685 43.1191 18.9296 43.125 24ZM40.875 24C40.8697 19.6212 39.1647 15.4155 36.1192 12.2693C33.0737 9.12307 28.9257 7.2821 24.5494 7.13437C22.1813 10.3556 22.125 13.4719 22.125 13.5C22.125 13.9973 22.3226 14.4742 22.6742 14.8258C23.0258 15.1775 23.5027 15.375 24 15.375C24.4973 15.375 24.9742 15.1775 25.3258 14.8258C25.6775 14.4742 25.875 13.9973 25.875 13.5C25.875 13.2016 25.9935 12.9155 26.2045 12.7045C26.4155 12.4935 26.7016 12.375 27 12.375C27.2984 12.375 27.5845 12.4935 27.7955 12.7045C28.0065 12.9155 28.125 13.2016 28.125 13.5C28.125 14.594 27.6904 15.6432 26.9168 16.4168C26.1432 17.1904 25.094 17.625 24 17.625C22.906 17.625 21.8568 17.1904 21.0832 16.4168C20.3096 15.6432 19.875 14.594 19.875 13.5C19.875 13.3594 19.9031 10.5337 21.7763 7.27125C18.5619 7.69855 15.5388 9.0429 13.0685 11.1434C10.5982 13.244 8.78546 16.0117 7.84708 19.1156C6.90869 22.2195 6.88444 25.528 7.77722 28.6452C8.67 31.7625 10.442 34.5566 12.8812 36.6931C15.3204 38.8296 18.3236 40.2182 21.5313 40.6925C24.739 41.1669 28.0155 40.7071 30.9687 39.368C33.9219 38.0289 36.4267 35.8674 38.1836 33.1419C39.9404 30.4165 40.8748 27.2426 40.875 24Z" fill="#003DA6"/>
</svg>
