<svg width="48" height="48" viewBox="0 0 48 48" fill="none" xmlns="http://www.w3.org/2000/svg">
<path d="M17.6249 39C17.6249 39.2984 17.5064 39.5845 17.2954 39.7955C17.0844 40.0065 16.7983 40.125 16.4999 40.125H7.49992C6.77666 40.1233 6.06658 39.9314 5.44087 39.5687C4.81516 39.2059 4.29583 38.685 3.93495 38.0582C3.57407 37.4314 3.38433 36.7208 3.38477 35.9975C3.3852 35.2743 3.57579 34.5638 3.93742 33.9375L10.8205 22.0425L7.30304 22.98C7.01462 23.0571 6.70739 23.0164 6.44894 22.867C6.19049 22.7175 6.002 22.4715 5.92492 22.1831C5.84784 21.8947 5.88849 21.5875 6.03794 21.329C6.18738 21.0706 6.43337 20.8821 6.72179 20.805L12.8662 19.1606C13.0095 19.1215 13.1591 19.1112 13.3064 19.1303C13.4537 19.1494 13.5958 19.1974 13.7245 19.2717C13.8531 19.3459 13.9658 19.4449 14.056 19.563C14.1462 19.681 14.2121 19.8157 14.2499 19.9594L15.8999 26.1019C15.9382 26.2446 15.948 26.3934 15.9288 26.5399C15.9096 26.6863 15.8617 26.8276 15.7878 26.9556C15.714 27.0835 15.6157 27.1957 15.4985 27.2857C15.3814 27.3757 15.2476 27.4417 15.1049 27.48C15.0095 27.5057 14.9112 27.519 14.8124 27.5194C14.5649 27.5191 14.3243 27.4372 14.1281 27.2864C13.9318 27.1355 13.7907 26.9241 13.7268 26.685L12.7893 23.16L5.88367 35.0625C5.71942 35.347 5.63279 35.6696 5.63246 35.9981C5.63213 36.3266 5.7181 36.6494 5.88177 36.9342C6.04545 37.219 6.28107 37.4559 6.56506 37.621C6.84905 37.7861 7.17143 37.8737 7.49992 37.875H16.4999C16.7983 37.875 17.0844 37.9935 17.2954 38.2045C17.5064 38.4155 17.6249 38.7016 17.6249 39ZM44.0624 33.9375L39.7237 26.4375C39.568 26.1926 39.3237 26.0174 39.0419 25.9483C38.7601 25.8793 38.4625 25.9218 38.2113 26.067C37.9601 26.2122 37.7747 26.4489 37.6938 26.7276C37.613 27.0063 37.6429 27.3054 37.7774 27.5625L42.1162 35.0625C42.2804 35.347 42.3671 35.6696 42.3674 35.9981C42.3677 36.3266 42.2817 36.6494 42.1181 36.9342C41.9544 37.219 41.7188 37.4559 41.4348 37.621C41.1508 37.7861 40.8284 37.8737 40.4999 37.875H26.7149L29.2949 35.295C29.4936 35.0817 29.6018 34.7997 29.5967 34.5082C29.5915 34.2168 29.4735 33.9387 29.2674 33.7326C29.0612 33.5264 28.7832 33.4084 28.4917 33.4032C28.2003 33.3981 27.9182 33.5063 27.7049 33.705L23.2049 38.205C22.9942 38.4159 22.8759 38.7019 22.8759 39C22.8759 39.2981 22.9942 39.5841 23.2049 39.795L27.7049 44.295C27.9182 44.4937 28.2003 44.6019 28.4917 44.5968C28.7832 44.5916 29.0612 44.4735 29.2674 44.2674C29.4735 44.0613 29.5915 43.7832 29.5967 43.4918C29.6018 43.2003 29.4936 42.9183 29.2949 42.705L26.7149 40.125H40.4999C41.2232 40.1233 41.9333 39.9314 42.559 39.5687C43.1847 39.2059 43.704 38.685 44.0649 38.0582C44.4258 37.4314 44.6155 36.7208 44.6151 35.9975C44.6146 35.2743 44.424 34.5638 44.0624 33.9375ZM25.6218 6.56249L32.5068 18.4575L28.9893 17.52C28.7098 17.4653 28.4199 17.5186 28.1781 17.6693C27.9364 17.8199 27.7608 18.0567 27.6868 18.3318C27.6128 18.6068 27.6459 18.8997 27.7794 19.1513C27.9129 19.403 28.1369 19.5946 28.4062 19.6875L34.5524 21.3356C34.8406 21.4123 35.1474 21.3715 35.4055 21.222C35.6635 21.0726 35.8517 20.8268 35.9287 20.5387L37.5768 14.3925C37.6219 14.2478 37.6374 14.0956 37.6222 13.9448C37.6071 13.794 37.5616 13.6478 37.4885 13.5151C37.4155 13.3823 37.3164 13.2657 37.1972 13.1722C37.0779 13.0786 36.941 13.0102 36.7947 12.9709C36.6483 12.9316 36.4955 12.9222 36.3455 12.9434C36.1954 12.9646 36.0512 13.0159 35.9215 13.0942C35.7918 13.1725 35.6792 13.2762 35.5905 13.3991C35.5019 13.522 35.4389 13.6616 35.4055 13.8094L34.4587 17.3381L27.5624 5.43749C27.1991 4.81502 26.679 4.29861 26.0539 3.93972C25.4289 3.58082 24.7207 3.39197 23.9999 3.39197C23.2792 3.39197 22.571 3.58082 21.9459 3.93972C21.3209 4.29861 20.8008 4.81502 20.4374 5.43749L16.0874 12.9375C15.9447 13.1954 15.9089 13.4991 15.9877 13.7832C16.0666 14.0673 16.2538 14.309 16.5091 14.4564C16.7645 14.6039 17.0674 14.6452 17.3529 14.5715C17.6383 14.4979 17.8835 14.3151 18.0355 14.0625L22.378 6.56249C22.5429 6.27836 22.7794 6.04251 23.0641 5.87856C23.3487 5.71461 23.6714 5.62831 23.9999 5.62831C24.3284 5.62831 24.6511 5.71461 24.9358 5.87856C25.2204 6.04251 25.457 6.27836 25.6218 6.56249Z" fill="#003DA6"/>
</svg>
