<svg width="56" height="56" viewBox="0 0 56 56" fill="none" xmlns="http://www.w3.org/2000/svg">
<path d="M33.25 18.375C34.4614 18.375 35.6456 18.0158 36.6528 17.3428C37.6601 16.6697 38.4451 15.7131 38.9087 14.5939C39.3723 13.4747 39.4936 12.2432 39.2573 11.0551C39.0209 9.86694 38.4376 8.77557 37.581 7.91897C36.7244 7.06238 35.633 6.47903 34.4449 6.24269C33.2568 6.00636 32.0252 6.12765 30.906 6.59124C29.7868 7.05483 28.8302 7.83988 28.1572 8.84714C27.4842 9.85439 27.125 11.0386 27.125 12.25C27.125 13.8745 27.7703 15.4324 28.9189 16.581C30.0676 17.7297 31.6255 18.375 33.25 18.375ZM33.25 7.875C34.1153 7.875 34.9611 8.13159 35.6806 8.61232C36.4 9.09305 36.9608 9.77634 37.2919 10.5758C37.6231 11.3752 37.7097 12.2549 37.5409 13.1035C37.3721 13.9522 36.9554 14.7317 36.3436 15.3436C35.7317 15.9554 34.9522 16.3721 34.1035 16.5409C33.2548 16.7097 32.3751 16.6231 31.5757 16.292C30.7763 15.9608 30.093 15.4001 29.6123 14.6806C29.1315 13.9612 28.875 13.1153 28.875 12.25C28.875 11.0897 29.3359 9.97688 30.1564 9.15641C30.9768 8.33594 32.0896 7.875 33.25 7.875ZM47.6131 29.9688C47.4884 30.0256 46.1168 30.625 43.6581 30.625C40.6262 30.625 35.9472 29.7172 29.9184 25.7775C28.9195 28.935 27.4845 31.9376 25.655 34.6981C27.7265 35.2581 30.7037 36.3388 33.3418 38.3447C37.345 41.3897 39.375 45.5634 39.375 50.7434C39.375 50.9755 39.2828 51.1981 39.1187 51.3622C38.9546 51.5263 38.732 51.6184 38.5 51.6184C38.2679 51.6184 38.0453 51.5263 37.8812 51.3622C37.7171 51.1981 37.625 50.9755 37.625 50.7434C37.625 47.2675 36.3387 38.9813 24.5656 36.225C24.3381 36.5254 24.1033 36.8229 23.8612 37.1175C19.7378 42.1116 14.5818 44.7125 8.85496 44.7125C8.21329 44.7125 7.56506 44.6797 6.91027 44.6141C6.79537 44.6026 6.68385 44.5686 6.58208 44.514C6.48032 44.4594 6.39031 44.3853 6.31718 44.2959C6.24406 44.2065 6.18925 44.1036 6.15589 43.9931C6.12254 43.8825 6.11128 43.7665 6.12277 43.6516C6.13426 43.5367 6.16827 43.4251 6.22286 43.3234C6.27745 43.2216 6.35155 43.1316 6.44093 43.0585C6.5303 42.9853 6.63321 42.9305 6.74376 42.8972C6.85432 42.8638 6.97037 42.8526 7.08527 42.8641C13.0637 43.4613 18.2547 41.1513 22.5115 35.9931C25.5347 32.3313 27.5187 27.8031 28.3959 24.7669C19.0246 18.9284 12.8646 23.7169 12.7946 23.7672C12.7055 23.8433 12.602 23.9007 12.4902 23.9361C12.3785 23.9714 12.2608 23.9839 12.1441 23.9729C12.0274 23.9619 11.9141 23.9275 11.811 23.8718C11.7078 23.8162 11.6169 23.7404 11.5436 23.6489C11.4703 23.5575 11.4162 23.4522 11.3843 23.3394C11.3525 23.2266 11.3437 23.1085 11.3583 22.9923C11.373 22.876 11.4109 22.7638 11.4697 22.6625C11.5286 22.5611 11.6072 22.4726 11.7009 22.4022C11.7796 22.3388 13.6696 20.8491 16.9159 20.3066C19.869 19.81 24.5722 20.0309 30.24 23.8809C35.7087 27.5997 39.9547 28.6147 42.5534 28.8159C45.3425 29.0347 46.8781 28.3784 46.8934 28.3675C47.1039 28.2781 47.341 28.2747 47.554 28.3579C47.767 28.4412 47.9389 28.6045 48.033 28.8129C48.1271 29.0214 48.1358 29.2584 48.0573 29.4732C47.9788 29.688 47.8194 29.8635 47.6131 29.9622V29.9688Z" fill="#003DA6"/>
</svg>
