<svg width="56" height="56" viewBox="0 0 56 56" fill="none" xmlns="http://www.w3.org/2000/svg">
<path d="M37.5069 33.6875C35.4178 37.3013 31.9528 39.375 28 39.375C24.0472 39.375 20.5822 37.3013 18.4931 33.6875C18.3885 33.4875 18.3652 33.2549 18.4281 33.0381C18.491 32.8214 18.6352 32.6373 18.8306 32.5244C19.026 32.4114 19.2574 32.3783 19.4766 32.432C19.6958 32.4857 19.8858 32.622 20.0069 32.8125C21.8028 35.9166 24.6422 37.625 28 37.625C31.3578 37.625 34.1972 35.9166 35.9931 32.8125C36.0478 32.7079 36.1231 32.6155 36.2145 32.5408C36.3058 32.4661 36.4113 32.4106 36.5247 32.3777C36.638 32.3449 36.7568 32.3352 36.874 32.3495C36.9911 32.3637 37.1042 32.4015 37.2063 32.4605C37.3085 32.5196 37.3977 32.5987 37.4685 32.6931C37.5393 32.7875 37.5903 32.8953 37.6183 33.0099C37.6464 33.1245 37.651 33.2437 37.6319 33.3601C37.6127 33.4765 37.5702 33.5879 37.5069 33.6875ZM49.875 28C49.875 32.3265 48.5921 36.5558 46.1884 40.1531C43.7848 43.7504 40.3683 46.5542 36.3712 48.2099C32.3741 49.8655 27.9757 50.2987 23.7324 49.4547C19.4891 48.6106 15.5913 46.5272 12.532 43.468C9.47278 40.4087 7.38938 36.5109 6.54533 32.2676C5.70128 28.0243 6.13448 23.6259 7.79014 19.6288C9.44581 15.6317 12.2496 12.2153 15.8469 9.8116C19.4442 7.40795 23.6735 6.125 28 6.125C33.7997 6.13137 39.36 8.4381 43.4609 12.5391C47.5619 16.6401 49.8686 22.2003 49.875 28ZM48.125 28C48.125 24.0197 46.9447 20.1287 44.7333 16.8191C42.522 13.5096 39.3789 10.9301 35.7015 9.40692C32.0242 7.88371 27.9777 7.48517 24.0738 8.2617C20.1699 9.03822 16.584 10.9549 13.7695 13.7695C10.955 16.584 9.03823 20.1699 8.26171 24.0738C7.48518 27.9777 7.88372 32.0241 9.40693 35.7015C10.9301 39.3789 13.5096 42.522 16.8192 44.7333C20.1287 46.9447 24.0197 48.125 28 48.125C33.3357 48.1192 38.4512 45.997 42.2241 42.2241C45.9971 38.4512 48.1192 33.3357 48.125 28ZM20.125 25.375C20.4711 25.375 20.8095 25.2724 21.0973 25.0801C21.385 24.8878 21.6093 24.6145 21.7418 24.2947C21.8743 23.9749 21.9089 23.6231 21.8414 23.2836C21.7739 22.9441 21.6072 22.6323 21.3624 22.3876C21.1177 22.1428 20.8059 21.9761 20.4664 21.9086C20.127 21.8411 19.7751 21.8758 19.4553 22.0082C19.1355 22.1407 18.8622 22.365 18.6699 22.6528C18.4776 22.9405 18.375 23.2789 18.375 23.625C18.375 24.0891 18.5594 24.5342 18.8876 24.8624C19.2158 25.1906 19.6609 25.375 20.125 25.375ZM35.875 21.875C35.5289 21.875 35.1905 21.9776 34.9028 22.1699C34.615 22.3622 34.3907 22.6355 34.2582 22.9553C34.1258 23.2751 34.0911 23.6269 34.1586 23.9664C34.2262 24.3059 34.3928 24.6177 34.6376 24.8624C34.8823 25.1072 35.1941 25.2738 35.5336 25.3414C35.8731 25.4089 36.2249 25.3742 36.5447 25.2418C36.8645 25.1093 37.1378 24.885 37.3301 24.5972C37.5224 24.3095 37.625 23.9711 37.625 23.625C37.625 23.1609 37.4406 22.7158 37.1124 22.3876C36.7843 22.0594 36.3391 21.875 35.875 21.875Z" fill="#003DA6"/>
</svg>
