<svg width="56" height="56" viewBox="0 0 56 56" fill="none" xmlns="http://www.w3.org/2000/svg">
<path d="M25.3488 47.4687C25.3002 47.6568 25.1905 47.8234 25.0368 47.9422C24.8831 48.061 24.6943 48.1253 24.5 48.125C24.4263 48.1253 24.3528 48.1165 24.2813 48.0987L17.2813 46.3487C17.1839 46.3246 17.0914 46.2839 17.0078 46.2284L11.7578 42.7284C11.6622 42.6647 11.58 42.5827 11.516 42.4871C11.4521 42.3916 11.4075 42.2844 11.385 42.1717C11.3624 42.0589 11.3623 41.9429 11.3846 41.8301C11.4069 41.7173 11.4513 41.61 11.515 41.5144C11.6438 41.3212 11.8441 41.1871 12.0718 41.1415C12.1845 41.119 12.3006 41.1188 12.4134 41.1412C12.5261 41.1635 12.6334 41.2078 12.7291 41.2715L17.8522 44.6884L24.7188 46.4012C24.8303 46.4298 24.9352 46.4801 25.0273 46.5492C25.1193 46.6184 25.1969 46.705 25.2554 46.8042C25.3139 46.9034 25.3523 47.0131 25.3683 47.1272C25.3844 47.2412 25.3777 47.3573 25.3488 47.4687ZM54.3922 26.3047C54.2847 26.6317 54.1134 26.9341 53.8881 27.1943C53.6628 27.4546 53.388 27.6674 53.0797 27.8206L47.7728 30.4762L35.6235 42.6256C35.5154 42.7305 35.3822 42.8058 35.2366 42.8441C35.0909 42.8824 34.9379 42.8825 34.7922 42.8444L20.7922 39.3444C20.685 39.3184 20.5839 39.2716 20.4947 39.2065L8.29722 30.5025L2.92472 27.814C2.61632 27.66 2.34129 27.4466 2.11535 27.1862C1.8894 26.9258 1.71697 26.6235 1.60788 26.2964C1.4988 25.9694 1.45521 25.6241 1.4796 25.2802C1.50399 24.9363 1.59588 24.6005 1.75003 24.2922L7.18378 13.4247C7.33787 13.1163 7.55121 12.8412 7.81161 12.6153C8.072 12.3894 8.37436 12.2169 8.7014 12.1078C9.02845 11.9988 9.37377 11.9552 9.71767 11.9796C10.0616 12.0039 10.3973 12.0958 10.7057 12.25L15.8375 14.8159L27.7594 11.4078C27.9168 11.3641 28.0832 11.3641 28.2407 11.4078L40.1625 14.8159L45.2944 12.25C45.6028 12.0958 45.9385 12.0039 46.2824 11.9796C46.6263 11.9552 46.9716 11.9988 47.2987 12.1078C47.6257 12.2169 47.9281 12.3894 48.1884 12.6153C48.4488 12.8412 48.6622 13.1163 48.8163 13.4247L54.25 24.2944C54.4053 24.6023 54.4978 24.938 54.5222 25.282C54.5466 25.6259 54.5024 25.9714 54.3922 26.2981V26.3047ZM3.70565 26.25L8.35847 28.5753L14.5753 16.1415L9.92472 13.8162C9.82202 13.7647 9.71017 13.7338 9.59555 13.7255C9.48094 13.7171 9.3658 13.7315 9.25672 13.7676C9.14764 13.8038 9.04675 13.8611 8.95981 13.9362C8.87287 14.0114 8.80159 14.1029 8.75003 14.2056L3.31628 25.0753C3.2647 25.178 3.23386 25.2898 3.22552 25.4045C3.21718 25.5191 3.23149 25.6342 3.26765 25.7433C3.30381 25.8524 3.3611 25.9533 3.43625 26.0402C3.51141 26.1271 3.60295 26.1984 3.70565 26.25ZM42.4375 33.3222L35.0482 27.4028C30.9947 31.069 25.69 31.6706 21.3413 28.8925C21.009 28.6818 20.7283 28.3991 20.52 28.0653C20.3116 27.7316 20.181 27.3552 20.1377 26.9641C20.0945 26.5731 20.1397 26.1773 20.27 25.806C20.4003 25.4348 20.6124 25.0976 20.8907 24.8194L30.8875 15.1222C31.0516 14.9629 31.2714 14.8742 31.5 14.875H34.0025L28 13.16L16.3603 16.485L9.86784 29.4722L21.3741 37.6906L34.731 41.0309L42.4375 33.3222ZM46.1825 29.5772L39.7097 16.625H31.8544L22.1222 26.0662C22.0316 26.1571 21.9627 26.2672 21.9206 26.3884C21.8786 26.5096 21.8645 26.6388 21.8794 26.7662C21.8934 26.899 21.937 27.0268 22.007 27.1404C22.0771 27.254 22.1718 27.3504 22.2841 27.4225C25.3357 29.3715 30.1153 29.925 34.3788 25.6287C34.5311 25.4756 34.7346 25.3841 34.9503 25.372C35.1659 25.3599 35.3784 25.4279 35.5469 25.5631L43.6866 32.0819L46.1825 29.5772ZM52.6816 25.0753L47.25 14.2056C47.1985 14.1029 47.1272 14.0114 47.0402 13.9362C46.9533 13.8611 46.8524 13.8038 46.7433 13.7676C46.6343 13.7315 46.5191 13.7171 46.4045 13.7255C46.2899 13.7338 46.178 13.7647 46.0753 13.8162L41.4247 16.1415L47.6416 28.5753L52.2944 26.25C52.3971 26.1984 52.4887 26.1271 52.5638 26.0402C52.639 25.9533 52.6962 25.8524 52.7324 25.7433C52.7686 25.6342 52.7829 25.5191 52.7745 25.4045C52.7662 25.2898 52.7354 25.178 52.6838 25.0753H52.6816Z" fill="#003DA6"/>
</svg>
