<svg width="56" height="56" viewBox="0 0 56 56" fill="none" xmlns="http://www.w3.org/2000/svg">
<path d="M27.125 8.75V3.5C27.125 3.26794 27.2172 3.04538 27.3813 2.88128C27.5454 2.71719 27.7679 2.625 28 2.625C28.2321 2.625 28.4546 2.71719 28.6187 2.88128C28.7828 3.04538 28.875 3.26794 28.875 3.5V8.75C28.875 8.98206 28.7828 9.20462 28.6187 9.36872C28.4546 9.53281 28.2321 9.625 28 9.625C27.7679 9.625 27.5454 9.53281 27.3813 9.36872C27.2172 9.20462 27.125 8.98206 27.125 8.75ZM41.125 28C41.125 30.5959 40.3552 33.1335 38.913 35.2919C37.4708 37.4503 35.421 39.1325 33.0227 40.1259C30.6244 41.1193 27.9854 41.3792 25.4394 40.8728C22.8934 40.3664 20.5548 39.1163 18.7192 37.2808C16.8837 35.4452 15.6336 33.1066 15.1272 30.5606C14.6208 28.0146 14.8807 25.3756 15.8741 22.9773C16.8675 20.579 18.5497 18.5292 20.7081 17.087C22.8665 15.6448 25.4041 14.875 28 14.875C31.4797 14.8791 34.8158 16.2632 37.2763 18.7237C39.7368 21.1842 41.1209 24.5203 41.125 28ZM39.375 28C39.375 25.7502 38.7079 23.551 37.458 21.6804C36.2081 19.8098 34.4315 18.3518 32.353 17.4909C30.2745 16.6299 27.9874 16.4047 25.7808 16.8436C23.5743 17.2825 21.5475 18.3658 19.9567 19.9567C18.3658 21.5475 17.2825 23.5743 16.8436 25.7808C16.4047 27.9874 16.6299 30.2745 17.4909 32.353C18.3518 34.4315 19.8098 36.2081 21.6804 37.458C23.551 38.7079 25.7502 39.375 28 39.375C31.0158 39.3715 33.907 38.172 36.0395 36.0395C38.172 33.907 39.3715 31.0158 39.375 28ZM13.3809 14.6191C13.5451 14.7832 13.7678 14.8755 14 14.8755C14.2322 14.8755 14.4549 14.7832 14.6191 14.6191C14.7832 14.4549 14.8755 14.2322 14.8755 14C14.8755 13.7678 14.7832 13.5451 14.6191 13.3809L11.1191 9.88094C10.9549 9.71675 10.7322 9.62451 10.5 9.62451C10.2678 9.62451 10.0451 9.71675 9.88094 9.88094C9.71675 10.0451 9.62451 10.2678 9.62451 10.5C9.62451 10.7322 9.71675 10.9549 9.88094 11.1191L13.3809 14.6191ZM13.3809 41.3809L9.88094 44.8809C9.79964 44.9622 9.73515 45.0587 9.69116 45.165C9.64716 45.2712 9.62451 45.385 9.62451 45.5C9.62451 45.615 9.64716 45.7288 9.69116 45.835C9.73515 45.9413 9.79964 46.0378 9.88094 46.1191C9.96223 46.2004 10.0587 46.2648 10.165 46.3088C10.2712 46.3528 10.385 46.3755 10.5 46.3755C10.615 46.3755 10.7288 46.3528 10.835 46.3088C10.9413 46.2648 11.0378 46.2004 11.1191 46.1191L14.6191 42.6191C14.7832 42.4549 14.8755 42.2322 14.8755 42C14.8755 41.7678 14.7832 41.5451 14.6191 41.3809C14.4549 41.2168 14.2322 41.1245 14 41.1245C13.7678 41.1245 13.5451 41.2168 13.3809 41.3809ZM42 14.875C42.1149 14.8751 42.2288 14.8525 42.335 14.8086C42.4412 14.7647 42.5377 14.7003 42.6191 14.6191L46.1191 11.1191C46.2004 11.0378 46.2648 10.9413 46.3088 10.835C46.3528 10.7288 46.3755 10.615 46.3755 10.5C46.3755 10.385 46.3528 10.2712 46.3088 10.165C46.2648 10.0587 46.2004 9.96223 46.1191 9.88094C46.0378 9.79964 45.9413 9.73515 45.835 9.69116C45.7288 9.64716 45.615 9.62451 45.5 9.62451C45.385 9.62451 45.2712 9.64716 45.165 9.69116C45.0587 9.73515 44.9622 9.79964 44.8809 9.88094L41.3809 13.3809C41.2584 13.5033 41.175 13.6593 41.1412 13.8291C41.1073 13.9989 41.1247 14.175 41.191 14.3349C41.2572 14.4949 41.3695 14.6316 41.5135 14.7278C41.6575 14.8239 41.8268 14.8751 42 14.875ZM42.6191 41.3809C42.4549 41.2168 42.2322 41.1245 42 41.1245C41.7678 41.1245 41.5451 41.2168 41.3809 41.3809C41.2168 41.5451 41.1245 41.7678 41.1245 42C41.1245 42.2322 41.2168 42.4549 41.3809 42.6191L44.8809 46.1191C44.9622 46.2004 45.0587 46.2648 45.165 46.3088C45.2712 46.3528 45.385 46.3755 45.5 46.3755C45.615 46.3755 45.7288 46.3528 45.835 46.3088C45.9413 46.2648 46.0378 46.2004 46.1191 46.1191C46.2004 46.0378 46.2648 45.9413 46.3088 45.835C46.3528 45.7288 46.3755 45.615 46.3755 45.5C46.3755 45.385 46.3528 45.2712 46.3088 45.165C46.2648 45.0587 46.2004 44.9622 46.1191 44.8809L42.6191 41.3809ZM8.75 27.125H3.5C3.26794 27.125 3.04538 27.2172 2.88128 27.3813C2.71719 27.5454 2.625 27.7679 2.625 28C2.625 28.2321 2.71719 28.4546 2.88128 28.6187C3.04538 28.7828 3.26794 28.875 3.5 28.875H8.75C8.98206 28.875 9.20462 28.7828 9.36872 28.6187C9.53281 28.4546 9.625 28.2321 9.625 28C9.625 27.7679 9.53281 27.5454 9.36872 27.3813C9.20462 27.2172 8.98206 27.125 8.75 27.125ZM28 46.375C27.7679 46.375 27.5454 46.4672 27.3813 46.6313C27.2172 46.7954 27.125 47.0179 27.125 47.25V52.5C27.125 52.7321 27.2172 52.9546 27.3813 53.1187C27.5454 53.2828 27.7679 53.375 28 53.375C28.2321 53.375 28.4546 53.2828 28.6187 53.1187C28.7828 52.9546 28.875 52.7321 28.875 52.5V47.25C28.875 47.0179 28.7828 46.7954 28.6187 46.6313C28.4546 46.4672 28.2321 46.375 28 46.375ZM52.5 27.125H47.25C47.0179 27.125 46.7954 27.2172 46.6313 27.3813C46.4672 27.5454 46.375 27.7679 46.375 28C46.375 28.2321 46.4672 28.4546 46.6313 28.6187C46.7954 28.7828 47.0179 28.875 47.25 28.875H52.5C52.7321 28.875 52.9546 28.7828 53.1187 28.6187C53.2828 28.4546 53.375 28.2321 53.375 28C53.375 27.7679 53.2828 27.5454 53.1187 27.3813C52.9546 27.2172 52.7321 27.125 52.5 27.125Z" fill="#003DA6"/>
</svg>
