<svg width="56" height="56" viewBox="0 0 56 56" fill="none" xmlns="http://www.w3.org/2000/svg">
<path d="M47.7466 44.1503L34.125 21.4375V7.875H36.75C36.9821 7.875 37.2046 7.78281 37.3687 7.61872C37.5328 7.45462 37.625 7.23206 37.625 7C37.625 6.76794 37.5328 6.54538 37.3687 6.38128C37.2046 6.21719 36.9821 6.125 36.75 6.125H19.25C19.0179 6.125 18.7954 6.21719 18.6313 6.38128C18.4672 6.54538 18.375 6.76794 18.375 7C18.375 7.23206 18.4672 7.45462 18.6313 7.61872C18.7954 7.78281 19.0179 7.875 19.25 7.875H21.875V21.4375L8.25345 44.1503C8.01486 44.5483 7.88603 45.0024 7.8801 45.4664C7.87416 45.9304 7.99133 46.3877 8.21965 46.7917C8.44798 47.1956 8.77932 47.5318 9.1799 47.7661C9.58047 48.0003 10.036 48.1241 10.5 48.125H45.5C45.9644 48.1249 46.4205 48.0016 46.8217 47.7677C47.2229 47.5338 47.5548 47.1977 47.7837 46.7936C48.0125 46.3895 48.1301 45.9319 48.1243 45.4675C48.1186 45.0032 47.9897 44.5486 47.7509 44.1503H47.7466ZM23.5003 22.1375C23.5813 22.0011 23.6243 21.8455 23.625 21.6869V7.875H32.375V21.6869C32.3757 21.8455 32.4187 22.0011 32.4997 22.1375L41.4684 37.0847C38.6772 37.9466 34.3503 38.1084 28.3981 35.0941C24.4606 33.0947 20.7419 32.1978 17.3425 32.4056L23.5003 22.1375ZM46.2569 45.9375C46.1808 46.0719 46.0701 46.1835 45.9361 46.2605C45.8022 46.3374 45.6501 46.377 45.4956 46.375H10.5C10.3451 46.375 10.193 46.334 10.0591 46.256C9.92529 46.178 9.81456 46.0658 9.73825 45.931C9.66195 45.7962 9.6228 45.6435 9.62481 45.4886C9.62682 45.3337 9.66992 45.1822 9.7497 45.0494L16.2094 34.2847C19.6088 33.7531 23.4391 34.5494 27.5997 36.6559C31.6181 38.6881 35 39.375 37.7169 39.375C39.3057 39.3855 40.8851 39.1297 42.3894 38.6181L46.2459 45.045C46.3295 45.1784 46.3748 45.3323 46.3767 45.4897C46.3786 45.6471 46.3372 45.8021 46.2569 45.9375Z" fill="#003DA6"/>
</svg>
