<svg width="56" height="56" viewBox="0 0 56 56" fill="none" xmlns="http://www.w3.org/2000/svg">
<path d="M47.2784 23.345L29.7653 6.80973C29.28 6.36851 28.6472 6.12494 27.9913 6.12697C27.3354 6.12899 26.7041 6.37646 26.2216 6.82067L8.73469 23.3341C8.46422 23.5799 8.24805 23.8794 8.10002 24.2135C7.95198 24.5476 7.87534 24.909 7.875 25.2744V45.5C7.875 46.1962 8.15156 46.8639 8.64384 47.3562C9.13613 47.8485 9.80381 48.125 10.5 48.125H21C21.6962 48.125 22.3639 47.8485 22.8562 47.3562C23.3484 46.8639 23.625 46.1962 23.625 45.5V35C23.625 34.768 23.7172 34.5454 23.8813 34.3813C24.0454 34.2172 24.2679 34.125 24.5 34.125H31.5C31.7321 34.125 31.9546 34.2172 32.1187 34.3813C32.2828 34.5454 32.375 34.768 32.375 35V45.5C32.375 46.1962 32.6516 46.8639 33.1438 47.3562C33.6361 47.8485 34.3038 48.125 35 48.125H45.5C46.1962 48.125 46.8639 47.8485 47.3562 47.3562C47.8484 46.8639 48.125 46.1962 48.125 45.5V25.2744C48.1248 24.9118 48.0495 24.5531 47.9038 24.2211C47.7581 23.889 47.5452 23.5907 47.2784 23.345ZM46.375 45.5C46.375 45.7321 46.2828 45.9547 46.1187 46.1188C45.9546 46.2829 45.7321 46.375 45.5 46.375H35C34.7679 46.375 34.5454 46.2829 34.3813 46.1188C34.2172 45.9547 34.125 45.7321 34.125 45.5V35C34.125 34.3038 33.8484 33.6362 33.3562 33.1439C32.8639 32.6516 32.1962 32.375 31.5 32.375H24.5C23.8038 32.375 23.1361 32.6516 22.6438 33.1439C22.1516 33.6362 21.875 34.3038 21.875 35V45.5C21.875 45.7321 21.7828 45.9547 21.6187 46.1188C21.4546 46.2829 21.2321 46.375 21 46.375H10.5C10.2679 46.375 10.0454 46.2829 9.88128 46.1188C9.71719 45.9547 9.625 45.7321 9.625 45.5V25.2744C9.62639 25.1504 9.65355 25.028 9.70477 24.915C9.75598 24.802 9.83013 24.701 9.9225 24.6182L27.4094 8.10473C27.5698 7.96144 27.7773 7.88224 27.9923 7.88224C28.2074 7.88224 28.4149 7.96144 28.5753 8.10473L46.0884 24.6379C46.1798 24.7208 46.2525 24.8222 46.3019 24.9353C46.3513 25.0484 46.3762 25.1707 46.375 25.2941V45.5Z" fill="#003DA6"/>
</svg>
