<svg width="56" height="56" viewBox="0 0 56 56" fill="none" xmlns="http://www.w3.org/2000/svg">
<path d="M50.5312 18.1038C50.1205 17.6387 49.6154 17.2663 49.0497 17.0113C48.484 16.7564 47.8705 16.6247 47.25 16.625H34.125V12.25C34.125 10.1614 33.2953 8.15838 31.8185 6.68153C30.3416 5.20469 28.3386 4.375 26.25 4.375C26.0874 4.37488 25.9281 4.42005 25.7897 4.50544C25.6514 4.59083 25.5396 4.71307 25.4669 4.85844L16.9597 21.875H7C6.30381 21.875 5.63613 22.1516 5.14384 22.6438C4.65156 23.1361 4.375 23.8038 4.375 24.5V43.75C4.375 44.4462 4.65156 45.1139 5.14384 45.6062C5.63613 46.0984 6.30381 46.375 7 46.375H44.625C45.6915 46.3752 46.7214 45.9859 47.521 45.2801C48.3207 44.5743 48.8349 43.6008 48.9672 42.5425L51.5922 21.5425C51.6693 20.9269 51.6146 20.3019 51.4317 19.709C51.2487 19.1161 50.9418 18.5689 50.5312 18.1038ZM16.625 44.625H7C6.76794 44.625 6.54538 44.5328 6.38128 44.3687C6.21719 44.2046 6.125 43.9821 6.125 43.75V24.5C6.125 24.2679 6.21719 24.0454 6.38128 23.8813C6.54538 23.7172 6.76794 23.625 7 23.625H16.625V44.625ZM49.8553 21.3259L47.2303 42.3259C47.1509 42.9608 46.8423 43.5449 46.3625 43.9682C45.8827 44.3916 45.2649 44.6252 44.625 44.625H18.375V22.9556L26.7794 6.14688C28.3066 6.27937 29.7287 6.97975 30.7647 8.1097C31.8007 9.23965 32.3753 10.717 32.375 12.25V17.5C32.375 17.7321 32.4672 17.9546 32.6313 18.1187C32.7954 18.2828 33.0179 18.375 33.25 18.375H47.25C47.6223 18.3749 47.9903 18.454 48.3297 18.6071C48.6691 18.7601 48.972 18.9836 49.2184 19.2627C49.4648 19.5417 49.649 19.8701 49.7589 20.2258C49.8687 20.5815 49.9015 20.9565 49.8553 21.3259Z" fill="#003DA6"/>
</svg>
