<svg width="56" height="56" viewBox="0 0 56 56" fill="none" xmlns="http://www.w3.org/2000/svg">
<path d="M39.375 20.3678V18.375C39.375 13.4684 31.3031 9.625 21 9.625C10.6969 9.625 2.625 13.4684 2.625 18.375V27.125C2.625 31.3119 8.50063 34.72 16.625 35.6322V37.625C16.625 42.5316 24.6969 46.375 35 46.375C45.3031 46.375 53.375 42.5316 53.375 37.625V28.875C53.375 24.745 47.6591 21.2997 39.375 20.3678ZM51.625 28.875C51.625 32.2547 44.9444 35.875 35 35.875C32.9475 35.8781 30.8985 35.7068 28.875 35.3631V35.0591C35.1334 33.6788 39.375 30.6841 39.375 27.125V22.1309C46.4231 22.9688 51.625 25.7972 51.625 28.875ZM23.6666 34.0353C22.8076 34.0951 21.9188 34.125 21 34.125C19.8034 34.125 18.655 34.0703 17.5591 33.9741H17.5C16.59 33.8909 15.715 33.7772 14.875 33.6328V26.6438C16.9005 26.9681 18.9487 27.1291 21 27.125C23.0513 27.1291 25.0995 26.9681 27.125 26.6438V33.6263C26.0009 33.8182 24.8678 33.9532 23.73 34.0309L23.6666 34.0353ZM37.625 22.1637V27.125C37.625 29.505 34.3088 32.0031 28.875 33.2741V26.3091C32.7316 25.4581 35.8203 23.9947 37.625 22.1637ZM21 11.375C30.9444 11.375 37.625 14.9953 37.625 18.375C37.625 21.7547 30.9444 25.375 21 25.375C11.0556 25.375 4.375 21.7547 4.375 18.375C4.375 14.9953 11.0556 11.375 21 11.375ZM4.375 27.125V22.1637C6.17969 23.9947 9.26844 25.4581 13.125 26.32V33.285C7.69125 32.0031 4.375 29.505 4.375 27.125ZM18.375 37.625V35.7875C19.2303 35.8444 20.1075 35.875 21 35.875C21.8925 35.875 22.7631 35.8444 23.625 35.7897C24.7676 36.2054 25.9369 36.5438 27.125 36.8025V43.7741C21.6912 42.5031 18.375 40.005 18.375 37.625ZM28.875 44.1263V37.1372C30.9002 37.4641 32.9485 37.6273 35 37.625C37.0513 37.6291 39.0995 37.4681 41.125 37.1438V44.1263C37.0687 44.7912 32.9313 44.7912 28.875 44.1263ZM51.625 37.625C51.625 40.005 48.3088 42.5031 42.875 43.7741V36.8091C46.7316 35.9581 49.8203 34.4947 51.625 32.6528V37.625Z" fill="#003DA6"/>
</svg>
