<svg width="56" height="56" viewBox="0 0 56 56" fill="none" xmlns="http://www.w3.org/2000/svg">
<path d="M48.51 15.2381L29.26 4.69876C28.8737 4.48738 28.4404 4.37659 28 4.37659C27.5596 4.37659 27.1263 4.48738 26.74 4.69876L7.49 15.2381C7.07704 15.4641 6.73244 15.7969 6.49229 16.2018C6.25214 16.6067 6.12528 17.0687 6.125 17.5394V38.4606C6.12528 38.9314 6.25214 39.3934 6.49229 39.7982C6.73244 40.2031 7.07704 40.5359 7.49 40.7619L26.74 51.3013C27.126 51.5136 27.5594 51.625 28 51.625C28.4406 51.625 28.874 51.5136 29.26 51.3013L48.51 40.7619C48.923 40.5359 49.2676 40.2031 49.5077 39.7982C49.7479 39.3934 49.8747 38.9314 49.875 38.4606V17.5394C49.8747 17.0687 49.7479 16.6067 49.5077 16.2018C49.2676 15.7969 48.923 15.4641 48.51 15.2381ZM27.58 6.23438C27.7084 6.16273 27.853 6.12512 28 6.12512C28.147 6.12512 28.2916 6.16273 28.42 6.23438L47.3966 16.625L39.0469 21.1947C39.0072 21.1619 38.9648 21.1326 38.92 21.1072L19.67 10.5678L27.58 6.23438ZM28 27.2344L8.60344 16.625L17.8412 11.5653L37.2378 22.1834L28 27.2344ZM8.33 39.2219C8.19256 39.1467 8.07784 39.036 7.9978 38.9013C7.91777 38.7666 7.87536 38.6129 7.875 38.4563V18.2197L27.125 28.7547V49.5163L8.33 39.2219ZM47.67 39.2219L28.875 49.5031V28.7547L37.625 23.9663V33.25C37.625 33.4821 37.7172 33.7046 37.8813 33.8687C38.0454 34.0328 38.2679 34.125 38.5 34.125C38.7321 34.125 38.9546 34.0328 39.1187 33.8687C39.2828 33.7046 39.375 33.4821 39.375 33.25V23.0081L48.125 18.2197V38.4606C48.1246 38.6173 48.0822 38.771 48.0022 38.9057C47.9222 39.0403 47.8074 39.1511 47.67 39.2263V39.2219Z" fill="#003DA6"/>
</svg>
