<svg width="56" height="56" viewBox="0 0 56 56" fill="none" xmlns="http://www.w3.org/2000/svg">
<path d="M16.625 19.25V8.75C16.625 8.51793 16.7172 8.29537 16.8813 8.13128C17.0454 7.96718 17.2679 7.875 17.5 7.875C17.7321 7.875 17.9546 7.96718 18.1187 8.13128C18.2828 8.29537 18.375 8.51793 18.375 8.75V19.25C18.375 19.4821 18.2828 19.7046 18.1187 19.8687C17.9546 20.0328 17.7321 20.125 17.5 20.125C17.2679 20.125 17.0454 20.0328 16.8813 19.8687C16.7172 19.7046 16.625 19.4821 16.625 19.25ZM46.375 8.75V49C46.375 49.2321 46.2828 49.4546 46.1187 49.6187C45.9546 49.7828 45.7321 49.875 45.5 49.875C45.2679 49.875 45.0454 49.7828 44.8813 49.6187C44.7172 49.4546 44.625 49.2321 44.625 49V37.625H33.25C33.0179 37.625 32.7954 37.5328 32.6313 37.3687C32.4672 37.2046 32.375 36.9821 32.375 36.75C32.4555 32.6272 32.9769 28.5249 33.9303 24.5131C36.0019 15.9337 39.8825 10.2047 45.1544 7.945C45.2876 7.88773 45.4329 7.86445 45.5773 7.87726C45.7217 7.89007 45.8607 7.93857 45.9817 8.01839C46.1028 8.09821 46.2021 8.20685 46.2707 8.33455C46.3394 8.46226 46.3752 8.60501 46.375 8.75ZM44.625 10.1631C35.4922 15.3847 34.3022 31.8828 34.1469 35.875H44.625V10.1631ZM25.375 8.60562C25.3367 8.37646 25.209 8.17189 25.0198 8.03692C24.8307 7.90195 24.5957 7.84764 24.3666 7.88593C24.1374 7.92422 23.9328 8.05198 23.7979 8.2411C23.6629 8.43022 23.6086 8.66521 23.6469 8.89437L25.3969 19.32C25.3969 21.4086 24.5672 23.4116 23.0903 24.8885C21.6135 26.3653 19.6105 27.195 17.5219 27.195C15.4333 27.195 13.4303 26.3653 11.9534 24.8885C10.4766 23.4116 9.64687 21.4086 9.64687 19.32L11.3969 8.89437C11.4158 8.7809 11.4123 8.66481 11.3864 8.55272C11.3604 8.44063 11.3127 8.33474 11.2459 8.2411C11.1791 8.14746 11.0944 8.0679 10.9969 8.00696C10.8993 7.94602 10.7907 7.90489 10.6772 7.88593C10.5637 7.86697 10.4476 7.87055 10.3355 7.89646C10.2234 7.92236 10.1176 7.97009 10.0239 8.03692C9.93027 8.10375 9.85071 8.18837 9.78977 8.28595C9.72883 8.38352 9.68771 8.49215 9.66875 8.60562L7.91875 19.1056C7.90079 19.1527 7.88617 19.2009 7.875 19.25C7.87841 21.6501 8.77717 23.9625 10.3955 25.735C12.0138 27.5074 14.2351 28.6123 16.625 28.8334V49C16.625 49.2321 16.7172 49.4546 16.8813 49.6187C17.0454 49.7828 17.2679 49.875 17.5 49.875C17.7321 49.875 17.9546 49.7828 18.1187 49.6187C18.2828 49.4546 18.375 49.2321 18.375 49V28.8334C20.7649 28.6123 22.9862 27.5074 24.6045 25.735C26.2228 23.9625 27.1216 21.6501 27.125 19.25C27.1283 19.2019 27.1283 19.1537 27.125 19.1056L25.375 8.60562Z" fill="#003DA6"/>
</svg>
