<svg width="56" height="56" viewBox="0 0 56 56" fill="none" xmlns="http://www.w3.org/2000/svg">
<path d="M47.9216 13.44C47.8395 13.3415 47.7369 13.2622 47.6208 13.2078C47.5048 13.1534 47.3782 13.1251 47.25 13.125H11.2306L10.0319 6.52969C9.92173 5.92486 9.60279 5.37788 9.13067 4.98412C8.65856 4.59035 8.06321 4.37479 7.44844 4.375H3.5C3.26794 4.375 3.04538 4.46719 2.88128 4.63128C2.71719 4.79538 2.625 5.01794 2.625 5.25C2.625 5.48206 2.71719 5.70462 2.88128 5.86872C3.04538 6.03281 3.26794 6.125 3.5 6.125H7.4375C7.64469 6.12162 7.84636 6.19188 8.00659 6.32327C8.16682 6.45467 8.27523 6.63866 8.3125 6.8425L13.8906 37.5331C14.0858 38.6003 14.6705 39.5569 15.5312 40.2172C14.6287 40.7989 13.9262 41.6434 13.5185 42.6369C13.1108 43.6303 13.0176 44.7248 13.2513 45.7729C13.4851 46.8209 14.0346 47.7721 14.8258 48.4981C15.6169 49.2242 16.6117 49.6901 17.6759 49.8332C18.7402 49.9763 19.8227 49.7896 20.7775 49.2983C21.7323 48.8069 22.5135 48.0347 23.0158 47.0855C23.518 46.1364 23.7172 45.0561 23.5863 43.9903C23.4555 42.9245 23.001 41.9245 22.2841 41.125H35.4659C34.6644 42.0211 34.1948 43.1651 34.1355 44.3659C34.0761 45.5667 34.4307 46.7515 35.14 47.7222C35.8493 48.693 36.8702 49.3909 38.0322 49.6993C39.1942 50.0077 40.4269 49.908 41.5242 49.4167C42.6215 48.9255 43.517 48.0725 44.0609 47.0004C44.6049 45.9282 44.7644 44.7019 44.5128 43.5262C44.2612 42.3506 43.6137 41.297 42.6785 40.5414C41.7434 39.7858 40.5772 39.3741 39.375 39.375H18.1934C17.579 39.3747 16.9842 39.1589 16.5125 38.7652C16.0409 38.3715 15.7223 37.8248 15.6122 37.2203L14.7372 32.375H41.1469C42.1715 32.3752 43.1636 32.0157 43.9504 31.3593C44.7371 30.7029 45.2685 29.7912 45.4519 28.7831L48.1119 14.1575C48.1347 14.0313 48.1295 13.9016 48.0966 13.7776C48.0637 13.6536 48.0039 13.5383 47.9216 13.44ZM21.875 44.625C21.875 45.3172 21.6697 45.9939 21.2851 46.5695C20.9006 47.1451 20.3539 47.5937 19.7144 47.8586C19.0749 48.1235 18.3711 48.1928 17.6922 48.0577C17.0133 47.9227 16.3896 47.5894 15.9001 47.0999C15.4106 46.6104 15.0773 45.9867 14.9423 45.3078C14.8072 44.6289 14.8765 43.9251 15.1414 43.2856C15.4063 42.6461 15.8549 42.0994 16.4305 41.7149C17.0061 41.3303 17.6828 41.125 18.375 41.125C19.3033 41.125 20.1935 41.4938 20.8499 42.1501C21.5063 42.8065 21.875 43.6967 21.875 44.625ZM42.875 44.625C42.875 45.3172 42.6697 45.9939 42.2851 46.5695C41.9006 47.1451 41.3539 47.5937 40.7144 47.8586C40.0749 48.1235 39.3711 48.1928 38.6922 48.0577C38.0133 47.9227 37.3896 47.5894 36.9001 47.0999C36.4106 46.6104 36.0773 45.9867 35.9423 45.3078C35.8072 44.6289 35.8765 43.9251 36.1414 43.2856C36.4063 42.6461 36.8549 42.0994 37.4305 41.7149C38.0061 41.3303 38.6828 41.125 39.375 41.125C40.3033 41.125 41.1935 41.4938 41.8499 42.1501C42.5062 42.8065 42.875 43.6967 42.875 44.625ZM43.7303 28.4703C43.6202 29.0751 43.3012 29.6221 42.8291 30.0159C42.357 30.4096 41.7617 30.6252 41.1469 30.625H14.4112L11.5478 14.875H46.2022L43.7303 28.4703Z" fill="#003DA6"/>
</svg>
