<svg width="56" height="56" viewBox="0 0 56 56" fill="none" xmlns="http://www.w3.org/2000/svg">
<path d="M20.1247 45.5001C20.1247 45.7321 20.0325 45.9547 19.8684 46.1188C19.7043 46.2829 19.4817 46.3751 19.2497 46.3751H8.74965C7.98188 46.3746 7.22772 46.1722 6.56296 45.7881C5.8982 45.4039 5.34623 44.8516 4.96252 44.1866C4.5788 43.5215 4.37685 42.7673 4.37695 41.9995C4.37705 41.2317 4.5792 40.4775 4.96309 39.8126L13.525 25.0207L8.39965 26.3922C8.28704 26.4277 8.16842 26.4399 8.05095 26.4283C7.93347 26.4167 7.81956 26.3814 7.71607 26.3246C7.61259 26.2677 7.52167 26.1906 7.4488 26.0977C7.37592 26.0048 7.32259 25.8982 7.29201 25.7842C7.26144 25.6701 7.25425 25.5511 7.27089 25.4342C7.28753 25.3173 7.32765 25.205 7.38882 25.1041C7.45 25.0031 7.53098 24.9156 7.62688 24.8467C7.72278 24.7779 7.83162 24.7292 7.94684 24.7035L15.1153 22.7851C15.2265 22.7553 15.3424 22.7478 15.4565 22.763C15.5706 22.7781 15.6805 22.8156 15.7801 22.8733C15.8797 22.931 15.9669 23.0078 16.0367 23.0993C16.1066 23.1907 16.1577 23.2951 16.1872 23.4063L18.11 30.5747C18.1702 30.7987 18.139 31.0373 18.0233 31.2383C17.9077 31.4393 17.717 31.5862 17.4931 31.6466C17.4219 31.6666 17.3483 31.6769 17.2743 31.6772C17.0808 31.6766 16.893 31.6119 16.7402 31.4931C16.5875 31.3744 16.4783 31.2083 16.43 31.021L15.0518 25.8869L6.48559 40.6876C6.25559 41.0859 6.13431 41.5377 6.1339 41.9977C6.13349 42.4577 6.25397 42.9098 6.48327 43.3086C6.71257 43.7073 7.04263 44.0389 7.44039 44.2699C7.83816 44.501 8.28966 44.6234 8.74965 44.6251H19.2497C19.4817 44.6251 19.7043 44.7172 19.8684 44.8813C20.0325 45.0454 20.1247 45.268 20.1247 45.5001ZM51.0297 39.8126L45.9678 31.0626C45.8517 30.8615 45.6606 30.7148 45.4364 30.6547C45.2122 30.5946 44.9733 30.6261 44.7723 30.7421C44.5713 30.8581 44.4246 31.0493 44.3645 31.2734C44.3044 31.4976 44.3358 31.7365 44.4518 31.9376L49.5137 40.6876C49.7437 41.0859 49.865 41.5377 49.8654 41.9977C49.8658 42.4577 49.7453 42.9098 49.516 43.3086C49.2867 43.7073 48.9567 44.0389 48.5589 44.2699C48.1611 44.501 47.7097 44.6234 47.2497 44.6251H30.1128L33.8687 40.8691C34.0329 40.7049 34.1251 40.4822 34.1251 40.2501C34.1251 40.0179 34.0329 39.7952 33.8687 39.631C33.7045 39.4668 33.4818 39.3746 33.2497 39.3746C33.0175 39.3746 32.7948 39.4668 32.6306 39.631L27.3806 44.881C27.2992 44.9623 27.2347 45.0588 27.1907 45.165C27.1466 45.2712 27.124 45.3851 27.124 45.5001C27.124 45.615 27.1466 45.7289 27.1907 45.8351C27.2347 45.9413 27.2992 46.0379 27.3806 46.1191L32.6306 51.3691C32.7948 51.5333 33.0175 51.6255 33.2497 51.6255C33.4818 51.6255 33.7045 51.5333 33.8687 51.3691C34.0329 51.2049 34.1251 50.9822 34.1251 50.7501C34.1251 50.5179 34.0329 50.2952 33.8687 50.131L30.1128 46.3751H47.2497C48.0174 46.3746 48.7716 46.1722 49.4363 45.7881C50.1011 45.4039 50.6531 44.8516 51.0368 44.1866C51.4205 43.5215 51.6225 42.7673 51.6224 41.9995C51.6223 41.2317 51.4201 40.4775 51.0362 39.8126H51.0297ZM30.2703 7.43755L38.8322 22.2294L33.7068 20.8557C33.4826 20.7956 33.2437 20.8271 33.0427 20.9432C32.8417 21.0593 32.695 21.2505 32.635 21.4747C32.5749 21.699 32.6064 21.9379 32.7225 22.1389C32.8386 22.3399 33.0298 22.4866 33.254 22.5466L40.4247 24.4672C40.4958 24.4875 40.5694 24.4978 40.6434 24.4979C40.8369 24.4972 41.0247 24.4325 41.1775 24.3137C41.3303 24.195 41.4394 24.029 41.4878 23.8416L43.4106 16.6688C43.446 16.5562 43.4583 16.4376 43.4466 16.3201C43.435 16.2026 43.3997 16.0887 43.3429 15.9852C43.2861 15.8817 43.2089 15.7908 43.1161 15.7179C43.0232 15.6451 42.9165 15.5917 42.8025 15.5612C42.6885 15.5306 42.5694 15.5234 42.4526 15.54C42.3357 15.5567 42.2234 15.5968 42.1224 15.658C42.0215 15.7191 41.9339 15.8001 41.8651 15.896C41.7962 15.9919 41.7475 16.1008 41.7218 16.216L40.3437 21.3501L31.7862 6.56255C31.4019 5.89855 30.8498 5.34727 30.1852 4.96402C29.5206 4.58077 28.7668 4.37903 27.9997 4.37903C27.2325 4.37903 26.4788 4.58077 25.8141 4.96402C25.1495 5.34727 24.5974 5.89855 24.2131 6.56255L19.1468 15.3126C19.0308 15.5136 18.9994 15.7525 19.0595 15.9767C19.1196 16.2009 19.2663 16.392 19.4673 16.508C19.6683 16.6241 19.9072 16.6555 20.1314 16.5954C20.3556 16.5353 20.5467 16.3886 20.6628 16.1876L25.7268 7.43755C25.9574 7.03925 26.2887 6.70858 26.6874 6.4787C27.0862 6.24882 27.5383 6.12782 27.9986 6.12782C28.4588 6.12782 28.911 6.24882 29.3097 6.4787C29.7084 6.70858 30.0397 7.03925 30.2703 7.43755Z" fill="#003DA6"/>
</svg>
