<svg width="56" height="56" viewBox="0 0 56 56" fill="none" xmlns="http://www.w3.org/2000/svg">
<path d="M51.8438 32.2525C51.6442 32.3708 51.4058 32.405 51.181 32.3476C50.9562 32.2901 50.7634 32.1458 50.645 31.9462C48.8228 28.8837 46.0666 27.1337 43.085 27.1337C42.9958 27.1326 42.9073 27.1179 42.8225 27.09C42.5464 27.1189 42.2689 27.1335 41.9913 27.1337C41.7592 27.1337 41.5366 27.0415 41.3725 26.8774C41.2084 26.7134 41.1163 26.4908 41.1163 26.2587C41.1163 26.0267 41.2084 25.8041 41.3725 25.64C41.5366 25.4759 41.7592 25.3837 41.9913 25.3837C43.1368 25.3834 44.2592 25.0618 45.2311 24.4555C46.203 23.8492 46.9854 22.9825 47.4894 21.9539C47.9935 20.9252 48.199 19.7759 48.0826 18.6363C47.9661 17.4967 47.5325 16.4126 46.8309 15.5072C46.1293 14.6017 45.1878 13.9111 44.1134 13.5138C43.039 13.1166 41.8747 13.0286 40.7528 13.2598C39.6309 13.4911 38.5963 14.0323 37.7665 14.822C36.9368 15.6118 36.3451 16.6184 36.0588 17.7275C36.0007 17.9523 35.8558 18.1449 35.6558 18.2628C35.4558 18.3807 35.2172 18.4144 34.9923 18.3564C34.7675 18.2984 34.575 18.1534 34.457 17.9534C34.3391 17.7534 34.3054 17.5148 34.3634 17.29C34.6846 16.0449 35.3057 14.8973 36.1725 13.9476C37.0394 12.9979 38.1257 12.2748 39.3364 11.8417C40.5471 11.4086 41.8455 11.2785 43.1181 11.4629C44.3906 11.6473 45.5987 12.1405 46.6367 12.8994C47.6748 13.6583 48.5112 14.6598 49.0729 15.8165C49.6346 16.9732 49.9045 18.2499 49.859 19.5349C49.8136 20.82 49.4541 22.0744 48.8121 23.1885C48.1701 24.3026 47.265 25.2426 46.1759 25.9262C48.5406 26.7684 50.6625 28.5512 52.15 31.0625C52.2656 31.2613 52.2982 31.4976 52.2409 31.7203C52.1836 31.943 52.0409 32.1342 51.8438 32.2525ZM41.0069 46.8125C41.1227 47.0133 41.1541 47.2518 41.0942 47.4757C41.0344 47.6997 40.8881 47.8907 40.6875 48.0069C40.5549 48.0846 40.4038 48.1254 40.25 48.125C40.0966 48.1248 39.9459 48.0843 39.813 48.0075C39.6802 47.9307 39.5698 47.8204 39.4931 47.6875C38.3138 45.6882 36.6334 44.0312 34.6178 42.88C32.6022 41.7289 30.3212 41.1234 28 41.1234C25.6788 41.1234 23.3978 41.7289 21.3822 42.88C19.3666 44.0312 17.6862 45.6882 16.5069 47.6875C16.3858 47.8779 16.1958 48.0142 15.9766 48.0679C15.7574 48.1216 15.526 48.0886 15.3306 47.9756C15.1352 47.8627 14.991 47.6786 14.9281 47.4619C14.8652 47.2451 14.8885 47.0125 14.9931 46.8125C16.8924 43.5511 19.9549 41.1286 23.5659 40.0312C21.6526 39.0381 20.128 37.4314 19.2365 35.4686C18.3451 33.5058 18.1383 31.3006 18.6495 29.2063C19.1606 27.112 20.36 25.25 22.0555 23.9185C23.7509 22.5871 25.8443 21.8634 28 21.8634C30.1558 21.8634 32.2491 22.5871 33.9446 23.9185C35.64 25.25 36.8394 27.112 37.3505 29.2063C37.8617 31.3006 37.6549 33.5058 36.7635 35.4686C35.872 37.4314 34.3474 39.0381 32.4341 40.0312C36.0451 41.1286 39.1076 43.5511 41.0069 46.8125ZM28 39.375C29.5575 39.375 31.0801 38.9131 32.3751 38.0478C33.6702 37.1825 34.6795 35.9526 35.2756 34.5136C35.8716 33.0746 36.0275 31.4912 35.7237 29.9636C35.4198 28.436 34.6698 27.0329 33.5685 25.9315C32.4671 24.8302 31.0639 24.0802 29.5363 23.7763C28.0087 23.4724 26.4253 23.6284 24.9864 24.2244C23.5474 24.8205 22.3175 25.8298 21.4522 27.1249C20.5869 28.4199 20.125 29.9425 20.125 31.5C20.125 33.5886 20.9547 35.5916 22.4315 37.0684C23.9084 38.5453 25.9114 39.375 28 39.375ZM14 25.375C12.8545 25.3746 11.7321 25.053 10.7602 24.4467C9.78828 23.8404 9.00588 22.9738 8.50183 21.9451C7.99779 20.9165 7.7923 19.7671 7.90871 18.6275C8.02512 17.488 8.45875 16.4039 9.16037 15.4984C9.86199 14.5929 10.8035 13.9023 11.8779 13.5051C12.9523 13.1078 14.1166 13.0198 15.2385 13.2511C16.3604 13.4823 17.395 14.0236 18.2247 14.8133C19.0545 15.603 19.6461 16.6096 19.9325 17.7187C19.9905 17.9435 20.1355 18.1361 20.3355 18.254C20.5354 18.372 20.7741 18.4057 20.9989 18.3476C21.2237 18.2896 21.4163 18.1447 21.5342 17.9447C21.6522 17.7447 21.6858 17.506 21.6278 17.2812C21.3054 16.0317 20.6808 14.8805 19.809 13.929C18.9373 12.9775 17.845 12.2548 16.6284 11.8246C15.4117 11.3943 14.108 11.2696 12.8319 11.4614C11.5557 11.6533 10.3463 12.1558 9.30996 12.9248C8.27362 13.6937 7.44214 14.7056 6.88867 15.8714C6.3352 17.0372 6.07669 18.3211 6.13589 19.6102C6.1951 20.8993 6.5702 22.1541 7.22819 23.2642C7.88619 24.3744 8.80692 25.3058 9.90938 25.9765C7.0663 26.8401 4.57471 28.5919 2.8 30.975C2.66076 31.1606 2.60098 31.394 2.6338 31.6237C2.66662 31.8535 2.78935 32.0607 2.975 32.2C3.16066 32.3392 3.39402 32.399 3.62375 32.3662C3.85348 32.3334 4.06077 32.2106 4.2 32.025C5.33569 30.4979 6.81419 29.2589 8.51639 28.4078C10.2186 27.5567 12.0969 27.1173 14 27.125C14.2321 27.125 14.4546 27.0328 14.6187 26.8687C14.7828 26.7046 14.875 26.482 14.875 26.25C14.875 26.0179 14.7828 25.7954 14.6187 25.6313C14.4546 25.4672 14.2321 25.375 14 25.375Z" fill="#003DA6"/>
</svg>
