<svg width="57" height="56" viewBox="0 0 57 56" fill="none" xmlns="http://www.w3.org/2000/svg">
<path d="M53.1029 15.5508L47.8529 10.3927C47.609 10.148 47.3192 9.95378 47.0002 9.82129C46.6811 9.68881 46.339 9.62061 45.9935 9.62061C45.648 9.62061 45.3059 9.68881 44.9869 9.82129C44.6678 9.95378 44.378 10.148 44.1341 10.3927L23.8538 30.3733C23.7726 30.4547 23.6761 30.5192 23.5698 30.5632C23.4636 30.6073 23.3498 30.6299 23.2348 30.6299C23.1198 30.6299 23.0059 30.6073 22.8997 30.5632C22.7935 30.5192 22.697 30.4547 22.6157 30.3733V30.3602L14.6051 22.6427C14.3612 22.398 14.0714 22.2038 13.7524 22.0713C13.4333 21.9388 13.0912 21.8706 12.7457 21.8706C12.4002 21.8706 12.0581 21.9388 11.7391 22.0713C11.42 22.2038 11.1302 22.398 10.8863 22.6427L5.63633 27.8927C5.39161 28.1365 5.19744 28.4263 5.06495 28.7454C4.93246 29.0645 4.86426 29.4066 4.86426 29.752C4.86426 30.0975 4.93246 30.4396 5.06495 30.7587C5.19744 31.0778 5.39161 31.3676 5.63633 31.6114L21.301 47.3614C21.5449 47.6061 21.8347 47.8003 22.1537 47.9328C22.4728 48.0653 22.8149 48.1335 23.1604 48.1335C23.5059 48.1335 23.848 48.0653 24.167 47.9328C24.4861 47.8003 24.7759 47.6061 25.0198 47.3614L53.1073 19.2674C53.3514 19.0232 53.5449 18.7334 53.6768 18.4143C53.8088 18.0953 53.8765 17.7534 53.8761 17.4082C53.8756 17.0629 53.8071 16.7212 53.6745 16.4025C53.5418 16.0838 53.3476 15.7943 53.1029 15.5508ZM51.8713 18.0314L23.7816 46.1189C23.6176 46.2826 23.3954 46.3745 23.1637 46.3745C22.932 46.3745 22.7097 46.2826 22.5457 46.1189L6.88102 30.3689C6.79966 30.2877 6.73512 30.1912 6.69109 30.0849C6.64705 29.9787 6.62439 29.8649 6.62439 29.7499C6.62439 29.6349 6.64705 29.521 6.69109 29.4148C6.73512 29.3086 6.79966 29.2121 6.88102 29.1308L12.131 23.8808C12.2123 23.7996 12.3089 23.7352 12.4151 23.6912C12.5213 23.6473 12.6351 23.6248 12.7501 23.6249C12.868 23.625 12.9848 23.6484 13.0937 23.6939C13.2026 23.7393 13.3014 23.8058 13.3845 23.8896L21.4038 31.6092C21.8957 32.0988 22.5615 32.3737 23.2555 32.3737C23.9496 32.3737 24.6153 32.0988 25.1073 31.6092L45.3876 11.6308C45.4689 11.5488 45.5657 11.4837 45.6723 11.4393C45.779 11.3948 45.8933 11.372 46.0088 11.372C46.1243 11.372 46.2387 11.3948 46.3453 11.4393C46.452 11.4837 46.5487 11.5488 46.6301 11.6308L51.8801 16.7889C51.9615 16.8708 52.0259 16.9681 52.0696 17.075C52.1133 17.182 52.1353 17.2965 52.1345 17.412C52.1337 17.5275 52.11 17.6417 52.0649 17.748C52.0197 17.8543 51.9539 17.9507 51.8713 18.0314Z" fill="#003DA6"/>
</svg>
