<svg width="56" height="56" viewBox="0 0 56 56" fill="none" xmlns="http://www.w3.org/2000/svg">
<path d="M20.125 45.5001C20.125 45.7321 20.0328 45.9547 19.8687 46.1188C19.7046 46.2829 19.4821 46.3751 19.25 46.3751H8.75002C7.98224 46.3746 7.22809 46.1722 6.56333 45.7881C5.89856 45.4039 5.3466 44.8516 4.96288 44.1866C4.57917 43.5215 4.37722 42.7673 4.37732 41.9995C4.37742 41.2317 4.57957 40.4775 4.96346 39.8126L13.5253 25.0207L8.40002 26.3922C8.28741 26.4277 8.16879 26.4399 8.05131 26.4283C7.93383 26.4167 7.81992 26.3814 7.71644 26.3246C7.61296 26.2677 7.52204 26.1906 7.44916 26.0977C7.37628 26.0048 7.32295 25.8982 7.29238 25.7842C7.26181 25.6701 7.25462 25.5511 7.27126 25.4342C7.2879 25.3173 7.32801 25.205 7.38919 25.1041C7.45037 25.0031 7.53135 24.9156 7.62724 24.8467C7.72314 24.7779 7.83198 24.7292 7.94721 24.7035L15.1156 22.7851C15.2268 22.7553 15.3428 22.7478 15.4568 22.763C15.5709 22.7781 15.6809 22.8156 15.7805 22.8733C15.88 22.931 15.9672 23.0078 16.0371 23.0993C16.1069 23.1907 16.1581 23.2951 16.1875 23.4063L18.1103 30.5747C18.1705 30.7987 18.1394 31.0373 18.0237 31.2383C17.908 31.4393 17.7173 31.5862 17.4935 31.6466C17.4222 31.6666 17.3487 31.6769 17.2747 31.6772C17.0812 31.6766 16.8934 31.6119 16.7406 31.4931C16.5878 31.3744 16.4787 31.2083 16.4303 31.021L15.0522 25.8869L6.48596 40.6876C6.25595 41.0859 6.13467 41.5377 6.13427 41.9977C6.13386 42.4577 6.25434 42.9098 6.48364 43.3086C6.71293 43.7073 7.043 44.0389 7.44076 44.2699C7.83852 44.501 8.29002 44.6234 8.75002 44.6251H19.25C19.4821 44.6251 19.7046 44.7172 19.8687 44.8813C20.0328 45.0454 20.125 45.268 20.125 45.5001ZM51.03 39.8126L45.9681 31.0626C45.8521 30.8615 45.661 30.7148 45.4368 30.6547C45.2126 30.5946 44.9737 30.6261 44.7727 30.7421C44.5717 30.8581 44.425 31.0493 44.3649 31.2734C44.3048 31.4976 44.3362 31.7365 44.4522 31.9376L49.5141 40.6876C49.7441 41.0859 49.8654 41.5377 49.8658 41.9977C49.8662 42.4577 49.7457 42.9098 49.5164 43.3086C49.2871 43.7073 48.957 44.0389 48.5593 44.2699C48.1615 44.501 47.71 44.6234 47.25 44.6251H30.1131L33.8691 40.8691C34.0333 40.7049 34.1255 40.4822 34.1255 40.2501C34.1255 40.0179 34.0333 39.7952 33.8691 39.631C33.7049 39.4668 33.4822 39.3746 33.25 39.3746C33.0178 39.3746 32.7951 39.4668 32.631 39.631L27.381 44.881C27.2996 44.9623 27.2351 45.0588 27.191 45.165C27.147 45.2712 27.1243 45.3851 27.1243 45.5001C27.1243 45.615 27.147 45.7289 27.191 45.8351C27.2351 45.9413 27.2996 46.0379 27.381 46.1191L32.631 51.3691C32.7951 51.5333 33.0178 51.6255 33.25 51.6255C33.4822 51.6255 33.7049 51.5333 33.8691 51.3691C34.0333 51.2049 34.1255 50.9822 34.1255 50.7501C34.1255 50.5179 34.0333 50.2952 33.8691 50.131L30.1131 46.3751H47.25C48.0178 46.3746 48.7719 46.1722 49.4367 45.7881C50.1015 45.4039 50.6534 44.8516 51.0372 44.1866C51.4209 43.5215 51.6228 42.7673 51.6227 41.9995C51.6226 41.2317 51.4205 40.4775 51.0366 39.8126H51.03ZM30.2706 7.43755L38.8325 22.2294L33.7072 20.8557C33.483 20.7956 33.2441 20.8271 33.0431 20.9432C32.842 21.0593 32.6954 21.2505 32.6353 21.4747C32.5753 21.699 32.6068 21.9379 32.7229 22.1389C32.839 22.3399 33.0302 22.4866 33.2544 22.5466L40.425 24.4672C40.4962 24.4875 40.5698 24.4978 40.6438 24.4979C40.8373 24.4972 41.0251 24.4325 41.1779 24.3137C41.3307 24.195 41.4398 24.029 41.4881 23.8416L43.411 16.6688C43.4464 16.5562 43.4586 16.4376 43.447 16.3201C43.4354 16.2026 43.4001 16.0887 43.3433 15.9852C43.2865 15.8817 43.2093 15.7908 43.1164 15.7179C43.0236 15.6451 42.9169 15.5917 42.8029 15.5612C42.6888 15.5306 42.5698 15.5234 42.4529 15.54C42.3361 15.5567 42.2238 15.5968 42.1228 15.658C42.0218 15.7191 41.9343 15.8001 41.8655 15.896C41.7966 15.9919 41.7479 16.1008 41.7222 16.216L40.3441 21.3501L31.7866 6.56255C31.4023 5.89855 30.8501 5.34727 30.1855 4.96402C29.5209 4.58077 28.7672 4.37903 28 4.37903C27.2328 4.37903 26.4791 4.58077 25.8145 4.96402C25.1499 5.34727 24.5978 5.89855 24.2135 6.56255L19.1472 15.3126C19.0312 15.5136 18.9998 15.7525 19.0599 15.9767C19.12 16.2009 19.2667 16.392 19.4677 16.508C19.6687 16.6241 19.9076 16.6555 20.1318 16.5954C20.356 16.5353 20.5471 16.3886 20.6631 16.1876L25.7272 7.43755C25.9578 7.03925 26.2891 6.70858 26.6878 6.4787C27.0865 6.24882 27.5387 6.12782 27.9989 6.12782C28.4592 6.12782 28.9113 6.24882 29.31 6.4787C29.7088 6.70858 30.04 7.03925 30.2706 7.43755Z" fill="#003DA6"/>
</svg>
