<svg width="40" height="40" viewBox="0 0 40 40" fill="none" xmlns="http://www.w3.org/2000/svg">
<path d="M35.8 22.2892C35.372 21.9596 34.8736 21.7333 34.3437 21.6281C33.8138 21.523 33.2668 21.5417 32.7453 21.683L32.0703 21.8392C35.4688 18.6798 37.1875 15.5486 37.1875 12.5001C37.1875 8.53764 34.0016 5.31264 30.0844 5.31264C28.9796 5.30572 27.8885 5.55629 26.8975 6.04448C25.9064 6.53267 25.0428 7.24506 24.375 8.12514C23.7072 7.24506 22.8436 6.53267 21.8525 6.04448C20.8615 5.55629 19.7704 5.30572 18.6656 5.31264C14.7484 5.31264 11.5625 8.53764 11.5625 12.5001C11.5625 14.2783 12.1297 16.0142 13.3266 17.8689C12.3455 18.0202 11.4387 18.4818 10.7391 19.1861L7.1125 22.8126H2.5C1.91984 22.8126 1.36344 23.0431 0.953204 23.4533C0.542968 23.8636 0.3125 24.42 0.3125 25.0001V31.2501C0.3125 31.8303 0.542968 32.3867 0.953204 32.7969C1.36344 33.2072 1.91984 33.4376 2.5 33.4376H18.75C18.8269 33.4377 18.9035 33.4282 18.9781 33.4095L28.9781 30.9095C29.0255 30.897 29.0719 30.8813 29.1172 30.8626L35.1828 28.2814L35.2344 28.258C35.7707 27.9901 36.23 27.5902 36.569 27.0958C36.908 26.6014 37.1156 26.0288 37.1722 25.4321C37.2288 24.8353 37.1325 24.2339 36.8924 23.6846C36.6524 23.1353 36.2764 22.6562 35.8 22.2923V22.2892ZM18.6656 7.18764C19.6967 7.17388 20.7084 7.46808 21.5712 8.03257C22.4341 8.59706 23.109 9.40618 23.5094 10.3564C23.58 10.5283 23.7002 10.6754 23.8546 10.7789C24.009 10.8824 24.1907 10.9377 24.3766 10.9377C24.5625 10.9377 24.7441 10.8824 24.8986 10.7789C25.053 10.6754 25.1731 10.5283 25.2437 10.3564C25.6442 9.40618 26.319 8.59706 27.1819 8.03257C28.0448 7.46808 29.0565 7.17388 30.0875 7.18764C32.9188 7.18764 35.3125 9.62045 35.3125 12.5001C35.3125 15.6626 32.7844 19.2189 28 22.7736L25.6766 23.308C25.9083 22.6932 25.9874 22.0313 25.9072 21.3792C25.827 20.7271 25.5899 20.1042 25.2161 19.5639C24.8423 19.0236 24.3431 18.582 23.7611 18.277C23.1792 17.972 22.532 17.8126 21.875 17.8126H15.5734C14.1187 15.8861 13.4375 14.1892 13.4375 12.5001C13.4375 9.62045 15.8313 7.18764 18.6656 7.18764ZM2.1875 31.2501V25.0001C2.1875 24.9173 2.22042 24.8378 2.27903 24.7792C2.33763 24.7206 2.41712 24.6876 2.5 24.6876H6.5625V31.5626H2.5C2.41712 31.5626 2.33763 31.5297 2.27903 31.4711C2.22042 31.4125 2.1875 31.333 2.1875 31.2501ZM34.4188 26.5626L28.45 29.1048L18.6344 31.5626H8.4375V24.1392L12.0641 20.5111C12.3247 20.2491 12.6347 20.0414 12.9761 19.9001C13.3175 19.7587 13.6836 19.6865 14.0531 19.6876H21.875C22.4552 19.6876 23.0116 19.9181 23.4218 20.3283C23.832 20.7386 24.0625 21.295 24.0625 21.8751C24.0625 22.4553 23.832 23.0117 23.4218 23.4219C23.0116 23.8322 22.4552 24.0626 21.875 24.0626H17.5C17.2514 24.0626 17.0129 24.1614 16.8371 24.3372C16.6613 24.513 16.5625 24.7515 16.5625 25.0001C16.5625 25.2488 16.6613 25.4872 16.8371 25.6631C17.0129 25.8389 17.2514 25.9376 17.5 25.9376H22.5C22.5704 25.9377 22.6407 25.9299 22.7094 25.9142L33.1781 23.5064L33.2156 23.497C33.6096 23.3896 34.0295 23.4315 34.3944 23.6148C34.7594 23.7981 35.0438 24.1097 35.193 24.4899C35.3422 24.87 35.3457 25.2919 35.2028 25.6745C35.0599 26.0571 34.7807 26.3734 34.4188 26.5626Z" fill="#003DA6"/>
</svg>
