<svg width="25" height="24" viewBox="0 0 25 24" fill="none" xmlns="http://www.w3.org/2000/svg">
<path d="M22.2769 20.4696L17.5829 15.7765C18.9434 14.1431 19.6218 12.048 19.477 9.92715C19.3322 7.80629 18.3753 5.82289 16.8054 4.38956C15.2355 2.95623 13.1735 2.18333 11.0482 2.23163C8.92297 2.27993 6.89815 3.14571 5.39498 4.64888C3.89181 6.15205 3.02602 8.17687 2.97772 10.3021C2.92942 12.4274 3.70233 14.4894 5.13566 16.0593C6.56898 17.6293 8.55238 18.5861 10.6732 18.7309C12.7941 18.8757 14.8892 18.1973 16.5226 16.8368L21.2157 21.5308C21.2854 21.6005 21.3681 21.6558 21.4591 21.6935C21.5502 21.7312 21.6478 21.7506 21.7463 21.7506C21.8449 21.7506 21.9424 21.7312 22.0335 21.6935C22.1245 21.6558 22.2072 21.6005 22.2769 21.5308C22.3466 21.4612 22.4019 21.3784 22.4396 21.2874C22.4773 21.1963 22.4967 21.0988 22.4967 21.0002C22.4967 20.9017 22.4773 20.8041 22.4396 20.713C22.4019 20.622 22.3466 20.5393 22.2769 20.4696ZM4.49631 10.5002C4.49631 9.16519 4.89219 7.86015 5.63389 6.75011C6.37559 5.64008 7.42979 4.77492 8.66319 4.26403C9.8966 3.75314 11.2538 3.61946 12.5632 3.87991C13.8725 4.14036 15.0753 4.78324 16.0193 5.72724C16.9633 6.67125 17.6062 7.87398 17.8666 9.18335C18.1271 10.4927 17.9934 11.8499 17.4825 13.0833C16.9716 14.3167 16.1064 15.3709 14.9964 16.1126C13.8864 16.8543 12.5813 17.2502 11.2463 17.2502C9.45671 17.2482 7.74097 16.5364 6.47553 15.271C5.21009 14.0056 4.49829 12.2898 4.49631 10.5002Z" fill="#999999"/>
</svg>
