<svg width="40" height="40" viewBox="0 0 40 40" fill="none" xmlns="http://www.w3.org/2000/svg">
<path d="M38.3703 18.4031L36.1828 12.9344C36.0217 12.5276 35.7417 12.1788 35.3793 11.9335C35.017 11.6882 34.5891 11.5578 34.1516 11.5594H28.4375V10C28.4375 9.75136 28.3387 9.5129 28.1629 9.33709C27.9871 9.16127 27.7486 9.0625 27.5 9.0625H3.75C3.16984 9.0625 2.61344 9.29297 2.2032 9.7032C1.79297 10.1134 1.5625 10.6698 1.5625 11.25V28.75C1.5625 29.3302 1.79297 29.8866 2.2032 30.2968C2.61344 30.707 3.16984 30.9375 3.75 30.9375H6.65625C6.87142 31.9971 7.44631 32.9498 8.28351 33.6341C9.12071 34.3184 10.1687 34.6922 11.25 34.6922C12.3313 34.6922 13.3793 34.3184 14.2165 33.6341C15.0537 32.9498 15.6286 31.9971 15.8438 30.9375H24.1562C24.3714 31.9971 24.9463 32.9498 25.7835 33.6341C26.6207 34.3184 27.6687 34.6922 28.75 34.6922C29.8313 34.6922 30.8793 34.3184 31.7165 33.6341C32.5537 32.9498 33.1286 31.9971 33.3438 30.9375H36.25C36.8302 30.9375 37.3866 30.707 37.7968 30.2968C38.207 29.8866 38.4375 29.3302 38.4375 28.75V18.75C38.4373 18.6312 38.4145 18.5134 38.3703 18.4031ZM28.4375 13.4375H34.1531C34.2157 13.4374 34.2769 13.4562 34.3287 13.4913C34.3805 13.5264 34.4206 13.5762 34.4437 13.6344L36.1156 17.8125H28.4375V13.4375ZM3.4375 11.25C3.4375 11.1671 3.47042 11.0876 3.52903 11.029C3.58763 10.9704 3.66712 10.9375 3.75 10.9375H26.5625V21.5625H3.4375V11.25ZM11.25 32.8125C10.6937 32.8125 10.15 32.6475 9.68746 32.3385C9.22495 32.0295 8.86446 31.5902 8.65159 31.0763C8.43872 30.5624 8.38302 29.9969 8.49154 29.4513C8.60006 28.9057 8.86793 28.4046 9.26126 28.0113C9.6546 27.6179 10.1557 27.3501 10.7013 27.2415C11.2469 27.133 11.8124 27.1887 12.3263 27.4016C12.8402 27.6145 13.2795 27.9749 13.5885 28.4375C13.8975 28.9 14.0625 29.4437 14.0625 30C14.0625 30.7459 13.7662 31.4613 13.2387 31.9887C12.7113 32.5162 11.9959 32.8125 11.25 32.8125ZM24.1562 29.0625H15.8438C15.6286 28.0029 15.0537 27.0502 14.2165 26.3659C13.3793 25.6816 12.3313 25.3078 11.25 25.3078C10.1687 25.3078 9.12071 25.6816 8.28351 26.3659C7.44631 27.0502 6.87142 28.0029 6.65625 29.0625H3.75C3.66712 29.0625 3.58763 29.0296 3.52903 28.971C3.47042 28.9124 3.4375 28.8329 3.4375 28.75V23.4375H26.5625V25.8562C25.95 26.1804 25.4166 26.6359 25.0007 27.1902C24.5847 27.7444 24.2963 28.3838 24.1562 29.0625ZM28.75 32.8125C28.1937 32.8125 27.65 32.6475 27.1875 32.3385C26.7249 32.0295 26.3645 31.5902 26.1516 31.0763C25.9387 30.5624 25.883 29.9969 25.9915 29.4513C26.1001 28.9057 26.3679 28.4046 26.7613 28.0113C27.1546 27.6179 27.6557 27.3501 28.2013 27.2415C28.7469 27.133 29.3124 27.1887 29.8263 27.4016C30.3402 27.6145 30.7795 27.9749 31.0885 28.4375C31.3975 28.9 31.5625 29.4437 31.5625 30C31.5625 30.7459 31.2662 31.4613 30.7387 31.9887C30.2113 32.5162 29.4959 32.8125 28.75 32.8125ZM36.5625 28.75C36.5625 28.8329 36.5296 28.9124 36.471 28.971C36.4124 29.0296 36.3329 29.0625 36.25 29.0625H33.3438C33.1263 28.0044 32.5506 27.0536 31.7138 26.3705C30.877 25.6874 29.8302 25.3137 28.75 25.3125C28.6453 25.3125 28.5406 25.3125 28.4375 25.3234V19.6875H36.5625V28.75Z" fill="#003DA6"/>
</svg>
