<svg width="40" height="40" viewBox="0 0 40 40" fill="none" xmlns="http://www.w3.org/2000/svg">
<path d="M26.9578 7.66548C25.044 5.45484 22.8907 3.46347 20.5375 1.72798C20.3799 1.61773 20.1923 1.55859 20 1.55859C19.8077 1.55859 19.6201 1.61773 19.4625 1.72798C17.1093 3.46347 14.956 5.45484 13.0422 7.66548C8.80313 12.5405 6.5625 17.6702 6.5625 22.4999C6.5625 26.0637 7.97823 29.4816 10.4983 32.0016C13.0183 34.5216 16.4362 35.9374 20 35.9374C23.5638 35.9374 26.9817 34.5216 29.5017 32.0016C32.0218 29.4816 33.4375 26.0637 33.4375 22.4999C33.4375 17.6702 31.1969 12.5405 26.9578 7.66548ZM20 34.0624C16.9346 34.0586 13.9958 32.8392 11.8282 30.6717C9.6606 28.5041 8.44122 25.5653 8.4375 22.4999C8.4375 13.1842 17.6562 5.47954 20 3.67017C22.3438 5.47954 31.5625 13.1842 31.5625 22.4999C31.5588 25.5653 30.3394 28.5041 28.1718 30.6717C26.0042 32.8392 23.0654 34.0586 20 34.0624ZM28.425 23.9061C28.1124 25.653 27.2721 27.2622 26.0172 28.5171C24.7623 29.7719 23.1532 30.6122 21.4062 30.9249C21.3545 30.9328 21.3023 30.9369 21.25 30.9374C21.0143 30.9383 20.7869 30.8504 20.6131 30.6912C20.4392 30.532 20.3318 30.3131 20.3121 30.0782C20.2924 29.8433 20.3619 29.6097 20.5067 29.4237C20.6516 29.2378 20.8612 29.1132 21.0938 29.0749C23.8094 28.6186 26.1141 26.3124 26.575 23.5936C26.6164 23.3483 26.7536 23.1295 26.9564 22.9853C27.0568 22.9139 27.1703 22.863 27.2904 22.8355C27.4105 22.8079 27.5348 22.8043 27.6562 22.8249C27.7777 22.8454 27.894 22.8896 27.9983 22.9551C28.1027 23.0205 28.1932 23.1059 28.2646 23.2063C28.3359 23.3067 28.3869 23.4201 28.4144 23.5402C28.4419 23.6603 28.4455 23.7846 28.425 23.9061Z" fill="#003DA6"/>
</svg>
