<svg width="40" height="40" viewBox="0 0 40 40" fill="none" xmlns="http://www.w3.org/2000/svg">
<path d="M28.4375 28.75C28.4375 29.9932 27.9436 31.1855 27.0646 32.0646C26.1855 32.9436 24.9932 33.4375 23.75 33.4375C21.7344 33.4375 19.7875 32.1281 19.1203 30.325C19.0341 30.0917 19.0441 29.8337 19.1482 29.6078C19.2522 29.3819 19.4417 29.2065 19.675 29.1203C19.9083 29.0341 20.1663 29.0441 20.3922 29.1482C20.6181 29.2522 20.7935 29.4417 20.8797 29.675C21.2703 30.7328 22.5312 31.5625 23.75 31.5625C24.4959 31.5625 25.2113 31.2662 25.7387 30.7387C26.2662 30.2113 26.5625 29.4959 26.5625 28.75C26.5625 28.0041 26.2662 27.2887 25.7387 26.7613C25.2113 26.2338 24.4959 25.9375 23.75 25.9375H6.25C6.00136 25.9375 5.7629 25.8387 5.58709 25.6629C5.41127 25.4871 5.3125 25.2486 5.3125 25C5.3125 24.7514 5.41127 24.5129 5.58709 24.3371C5.7629 24.1613 6.00136 24.0625 6.25 24.0625H23.75C24.9932 24.0625 26.1855 24.5564 27.0646 25.4354C27.9436 26.3145 28.4375 27.5068 28.4375 28.75ZM23.4375 11.25C23.4375 10.0068 22.9436 8.81451 22.0646 7.93544C21.1855 7.05636 19.9932 6.5625 18.75 6.5625C16.7344 6.5625 14.7875 7.87187 14.1203 9.675C14.0341 9.90831 14.0441 10.1663 14.1482 10.3922C14.2522 10.6181 14.4417 10.7935 14.675 10.8797C14.9083 10.9659 15.1663 10.9559 15.3922 10.8518C15.6181 10.7478 15.7935 10.5583 15.8797 10.325C16.2703 9.26719 17.5312 8.4375 18.75 8.4375C19.4959 8.4375 20.2113 8.73382 20.7387 9.26126C21.2662 9.78871 21.5625 10.5041 21.5625 11.25C21.5625 11.9959 21.2662 12.7113 20.7387 13.2387C20.2113 13.7662 19.4959 14.0625 18.75 14.0625H3.75C3.50136 14.0625 3.2629 14.1613 3.08709 14.3371C2.91127 14.5129 2.8125 14.7514 2.8125 15C2.8125 15.2486 2.91127 15.4871 3.08709 15.6629C3.2629 15.8387 3.50136 15.9375 3.75 15.9375H18.75C19.9932 15.9375 21.1855 15.4436 22.0646 14.5646C22.9436 13.6855 23.4375 12.4932 23.4375 11.25ZM32.5 11.5625C30.4844 11.5625 28.5375 12.8719 27.8703 14.675C27.8276 14.7905 27.8081 14.9133 27.8129 15.0364C27.8177 15.1594 27.8466 15.2804 27.8982 15.3922C27.9497 15.5041 28.0227 15.6047 28.1131 15.6884C28.2035 15.772 28.3095 15.837 28.425 15.8797C28.5405 15.9224 28.6633 15.9419 28.7864 15.9371C28.9094 15.9323 29.0304 15.9033 29.1422 15.8518C29.2541 15.8003 29.3547 15.7273 29.4384 15.6369C29.522 15.5465 29.587 15.4405 29.6297 15.325C30.0203 14.2672 31.2812 13.4375 32.5 13.4375C33.2459 13.4375 33.9613 13.7338 34.4887 14.2613C35.0162 14.7887 35.3125 15.5041 35.3125 16.25C35.3125 16.9959 35.0162 17.7113 34.4887 18.2387C33.9613 18.7662 33.2459 19.0625 32.5 19.0625H5C4.75136 19.0625 4.5129 19.1613 4.33709 19.3371C4.16127 19.5129 4.0625 19.7514 4.0625 20C4.0625 20.2486 4.16127 20.4871 4.33709 20.6629C4.5129 20.8387 4.75136 20.9375 5 20.9375H32.5C33.7432 20.9375 34.9355 20.4436 35.8146 19.5646C36.6936 18.6855 37.1875 17.4932 37.1875 16.25C37.1875 15.0068 36.6936 13.8145 35.8146 12.9354C34.9355 12.0564 33.7432 11.5625 32.5 11.5625Z" fill="#003DA6"/>
</svg>
