<svg width="56" height="56" viewBox="0 0 56 56" fill="none" xmlns="http://www.w3.org/2000/svg">
<path d="M49.7146 33.2653L45.5409 21.8422C45.3009 21.1918 44.8133 20.6627 44.1846 20.3705C43.556 20.0783 42.8372 20.0467 42.1853 20.2825L25.9321 26.1713L28.835 9.58346C28.956 8.89961 28.8011 8.19566 28.4043 7.62576C28.0074 7.05587 27.4008 6.66646 26.7175 6.54283L14.7584 4.41658C14.4214 4.35634 14.0759 4.36401 13.7419 4.43914C13.408 4.51427 13.0924 4.65534 12.8137 4.85408C12.5297 5.05141 12.2879 5.30334 12.1023 5.59518C11.9168 5.88701 11.7913 6.21288 11.7331 6.55377L6.26433 37.8635C5.86242 40.1384 6.3765 42.48 7.69443 44.3774C9.01236 46.2748 11.0272 47.574 13.2993 47.9916C13.8196 48.0805 14.3465 48.1251 14.8743 48.125H47.2493C47.9455 48.125 48.6132 47.8485 49.1055 47.3562C49.5978 46.8639 49.8743 46.1962 49.8743 45.5V34.1666C49.8665 33.8599 49.8127 33.5561 49.7146 33.2653ZM42.7803 21.9275C42.9967 21.8496 43.2352 21.8601 43.444 21.9567C43.6528 22.0534 43.8152 22.2283 43.8959 22.4438L48.0718 33.8647C48.1107 33.9705 48.1282 34.083 48.1233 34.1957C48.1184 34.3083 48.0913 34.4189 48.0434 34.521C47.9442 34.7258 47.7681 34.883 47.5534 34.9585L22.045 44.2116C22.7058 43.2073 23.1526 42.0777 23.3575 40.8931L25.5931 28.1597L42.7803 21.9275ZM18.7571 45.126C18.0169 45.6481 17.1803 46.018 16.296 46.214C15.4116 46.41 14.4971 46.4283 13.6056 46.2678C11.7868 45.9329 10.1744 44.8919 9.12065 43.3721C8.06688 41.8523 7.65735 39.9773 7.98151 38.1566L13.4503 6.84689C13.4699 6.7335 13.5116 6.6251 13.5732 6.52788C13.6348 6.43066 13.7149 6.34654 13.809 6.28033C13.9528 6.17832 14.1249 6.124 14.3012 6.12502C14.3518 6.12502 14.4023 6.12941 14.4521 6.13814L26.4112 8.26658C26.6382 8.30912 26.8392 8.4397 26.9703 8.62984C27.1015 8.81998 27.1521 9.05426 27.1112 9.28158L21.6425 40.5913C21.4864 41.5008 21.151 42.3701 20.6556 43.1486C20.1602 43.9272 19.5149 44.5993 18.7571 45.126ZM48.1243 45.5C48.1243 45.7321 48.0321 45.9546 47.868 46.1187C47.704 46.2828 47.4814 46.375 47.2493 46.375H21.2181L48.1243 36.621V45.5ZM16.6243 39.375C16.6243 39.7211 16.5217 40.0595 16.3294 40.3473C16.1371 40.6351 15.8638 40.8594 15.544 40.9918C15.2243 41.1243 14.8724 41.1589 14.5329 41.0914C14.1935 41.0239 13.8816 40.8572 13.6369 40.6125C13.3921 40.3677 13.2255 40.0559 13.158 39.7164C13.0904 39.377 13.1251 39.0251 13.2575 38.7053C13.39 38.3856 13.6143 38.1122 13.9021 37.9199C14.1899 37.7276 14.5282 37.625 14.8743 37.625C15.3385 37.625 15.7836 37.8094 16.1118 38.1376C16.44 38.4658 16.6243 38.9109 16.6243 39.375Z" fill="#003DA6"/>
</svg>
