<svg width="56" height="56" viewBox="0 0 56 56" fill="none" xmlns="http://www.w3.org/2000/svg">
<path d="M48.9995 6.125C44.5611 6.125 39.5583 8.58375 34.1245 13.4313C30.0842 17.0384 26.6017 21.2691 24.2808 24.3534C22.4313 23.6863 20.4483 23.4743 18.4996 23.7351C16.5508 23.9959 14.6934 24.7219 13.0844 25.8519C11.4754 26.9819 10.162 28.4825 9.25517 30.2271C8.34838 31.9716 7.87483 33.9088 7.87454 35.875C7.87454 43.1419 3.22392 46.375 3.01392 46.5238C2.85844 46.6282 2.7406 46.7798 2.67772 46.9563C2.61485 47.1327 2.61025 47.3247 2.66461 47.504C2.71898 47.6832 2.82943 47.8403 2.97973 47.9521C3.13002 48.0639 3.31223 48.1245 3.49954 48.125H20.1245C22.0907 48.1247 24.0279 47.6512 25.7725 46.7444C27.517 45.8376 29.0177 44.5242 30.1476 42.9152C31.2776 41.3061 32.0037 39.4488 32.2645 37.5C32.5253 35.5512 32.3132 33.5683 31.6461 31.7188C34.7327 29.3934 38.9611 25.9109 42.5683 21.875C47.4158 16.4412 49.8745 11.4384 49.8745 7C49.8745 6.76794 49.7824 6.54538 49.6183 6.38128C49.4542 6.21719 49.2316 6.125 48.9995 6.125ZM20.1245 46.375H5.7636C7.41735 44.5572 9.62454 41.1425 9.62454 35.875C9.62454 33.7983 10.2404 31.7682 11.3941 30.0415C12.5479 28.3148 14.1877 26.969 16.1064 26.1743C18.025 25.3795 20.1362 25.1716 22.173 25.5768C24.2098 25.9819 26.0807 26.9819 27.5492 28.4504C29.0176 29.9188 30.0176 31.7898 30.4228 33.8266C30.8279 35.8634 30.62 37.9746 29.8253 39.8932C29.0306 41.8118 27.6847 43.4517 25.958 44.6054C24.2313 45.7592 22.2012 46.375 20.1245 46.375ZM25.9258 25.0884C26.8292 23.8984 27.9645 22.4634 29.2705 20.9541C31.6236 22.3972 33.6024 24.3759 35.0455 26.7291C33.5274 28.0416 32.1011 29.1703 30.9111 30.0737C29.7705 27.9618 28.0377 26.2291 25.9258 25.0884ZM36.3755 25.5566C34.8572 23.1677 32.8318 21.1423 30.443 19.6241C35.2183 14.3128 41.8377 8.45031 48.0852 7.91438C47.5492 14.1619 41.6867 20.7812 36.3755 25.5566Z" fill="#003DA6"/>
</svg>
