<svg width="56" height="56" viewBox="0 0 56 56" fill="none" xmlns="http://www.w3.org/2000/svg">
<path d="M43.7502 34.125C42.1666 34.1238 40.6446 34.7389 39.5065 35.84L33.3202 31.0275C33.8485 30.106 34.1261 29.0622 34.1252 28C34.1251 27.6332 34.0922 27.2672 34.0268 26.9063L38.2815 25.4953C38.9777 26.8831 40.1738 27.9557 41.6291 28.497C43.0843 29.0384 44.6906 29.0083 46.1246 28.4129C47.5585 27.8175 48.7137 26.7009 49.3575 25.288C50.0013 23.8751 50.0859 22.2708 49.5943 20.798C49.1028 19.3252 48.0715 18.0933 46.7081 17.3503C45.3447 16.6073 43.7505 16.4085 42.2464 16.7937C40.7423 17.1789 39.4399 18.1197 38.6016 19.4266C37.7632 20.7335 37.4511 22.3094 37.728 23.8372L33.469 25.2547C32.9602 24.2399 32.1793 23.3865 31.2136 22.7897C30.248 22.1929 29.1354 21.8762 28.0002 21.875C27.438 21.8747 26.8784 21.9528 26.3377 22.1069L24.2596 17.4322C25.5084 16.6454 26.4311 15.434 26.8579 14.021C27.2847 12.608 27.1869 11.0885 26.5825 9.74185C25.978 8.39524 24.9076 7.31219 23.5682 6.69197C22.2288 6.07175 20.7105 5.95607 19.2926 6.36622C17.8747 6.77636 16.6526 7.68475 15.8511 8.92424C15.0496 10.1637 14.7227 11.651 14.9305 13.1123C15.1383 14.5736 15.8669 15.9108 16.9821 16.8777C18.0973 17.8447 19.5242 18.3764 21.0002 18.375C21.5625 18.3753 22.122 18.2972 22.6627 18.1431L24.7408 22.8178C24.05 23.2511 23.4529 23.8181 22.9845 24.4856C22.5162 25.1531 22.186 25.9075 22.0136 26.7045C21.8412 27.5015 21.8299 28.3249 21.9804 29.1263C22.131 29.9277 22.4403 30.6909 22.8902 31.3709L16.1877 37.3209C15.0052 36.3214 13.488 35.8069 11.9414 35.8808C10.3948 35.9548 8.93366 36.6117 7.85186 37.7194C6.77006 38.8272 6.14794 40.3035 6.11066 41.8514C6.07339 43.3993 6.62373 44.9039 7.65095 46.0624C8.67818 47.2209 10.1061 47.9474 11.6473 48.0957C13.1885 48.244 14.7287 47.8031 15.958 46.8617C17.1872 45.9202 18.0144 44.5482 18.2729 43.0216C18.5314 41.495 18.2022 39.9271 17.3515 38.6334L24.0452 32.6834C25.2009 33.6618 26.6787 34.176 28.192 34.1263C29.7054 34.0766 31.1463 33.4665 32.2352 32.4144L38.4215 37.2269C37.757 38.3978 37.4968 39.755 37.6811 41.0886C37.8654 42.4222 38.484 43.658 39.4412 44.6047C40.3984 45.5515 41.6408 46.1565 42.9764 46.3262C44.312 46.4958 45.6662 46.2208 46.8298 45.5435C47.9933 44.8662 48.9013 43.8244 49.4132 42.5793C49.9252 41.3341 50.0127 39.9549 49.6621 38.6551C49.3116 37.3552 48.5425 36.2071 47.4738 35.3882C46.4052 34.5694 45.0965 34.1254 43.7502 34.125ZM43.7502 18.375C44.6155 18.375 45.4614 18.6316 46.1808 19.1123C46.9003 19.5931 47.4611 20.2763 47.7922 21.0758C48.1233 21.8752 48.21 22.7549 48.0412 23.6035C47.8723 24.4522 47.4557 25.2317 46.8438 25.8436C46.232 26.4554 45.4524 26.8721 44.6037 27.0409C43.7551 27.2097 42.8754 27.1231 42.076 26.792C41.2766 26.4608 40.5933 25.9001 40.1125 25.1806C39.6318 24.4612 39.3752 23.6153 39.3752 22.75C39.3752 21.5897 39.8362 20.4769 40.6566 19.6564C41.4771 18.8359 42.5899 18.375 43.7502 18.375ZM16.6252 12.25C16.6252 11.3847 16.8818 10.5388 17.3625 9.81938C17.8433 9.09992 18.5266 8.53916 19.326 8.20803C20.1254 7.8769 21.0051 7.79026 21.8537 7.95907C22.7024 8.12788 23.482 8.54455 24.0938 9.15641C24.7057 9.76826 25.1223 10.5478 25.2912 11.3965C25.46 12.2451 25.3733 13.1248 25.0422 13.9242C24.7111 14.7237 24.1503 15.407 23.4308 15.8877C22.7114 16.3684 21.8655 16.625 21.0002 16.625C19.8399 16.625 18.7271 16.1641 17.9066 15.3436C17.0862 14.5231 16.6252 13.4103 16.6252 12.25ZM12.2502 46.375C11.3849 46.375 10.5391 46.1184 9.8196 45.6377C9.10014 45.157 8.53938 44.4737 8.20825 43.6742C7.87711 42.8748 7.79047 41.9951 7.95928 41.1465C8.12809 40.2978 8.54477 39.5183 9.15663 38.9064C9.76848 38.2946 10.548 37.8779 11.3967 37.7091C12.2454 37.5403 13.125 37.6269 13.9245 37.958C14.7239 38.2892 15.4072 38.8499 15.8879 39.5694C16.3686 40.2888 16.6252 41.1347 16.6252 42C16.6252 43.1603 16.1643 44.2731 15.3438 45.0936C14.5233 45.9141 13.4105 46.375 12.2502 46.375ZM28.0002 32.375C27.1349 32.375 26.2891 32.1184 25.5696 31.6377C24.8501 31.157 24.2894 30.4737 23.9582 29.6742C23.6271 28.8748 23.5405 27.9951 23.7093 27.1465C23.8781 26.2978 24.2948 25.5183 24.9066 24.9064C25.5185 24.2946 26.298 23.8779 27.1467 23.7091C27.9954 23.5403 28.875 23.6269 29.6745 23.958C30.4739 24.2892 31.1572 24.8499 31.6379 25.5694C32.1186 26.2888 32.3752 27.1347 32.3752 28C32.3752 29.1603 31.9143 30.2731 31.0938 31.0936C30.2733 31.9141 29.1605 32.375 28.0002 32.375ZM43.7502 44.625C42.8849 44.625 42.0391 44.3684 41.3196 43.8877C40.6001 43.407 40.0394 42.7237 39.7082 41.9242C39.3771 41.1248 39.2905 40.2451 39.4593 39.3965C39.6281 38.5478 40.0448 37.7683 40.6566 37.1564C41.2685 36.5446 42.048 36.1279 42.8967 35.9591C43.7454 35.7903 44.625 35.8769 45.4245 36.208C46.2239 36.5392 46.9072 37.0999 47.3879 37.8194C47.8686 38.5388 48.1252 39.3847 48.1252 40.25C48.1252 41.4103 47.6643 42.5231 46.8438 43.3436C46.0233 44.1641 44.9105 44.625 43.7502 44.625Z" fill="#003DA6"/>
</svg>
