<svg width="56" height="56" viewBox="0 0 56 56" fill="none" xmlns="http://www.w3.org/2000/svg">
<path d="M52.6029 15.5509L47.3529 10.3928C47.109 10.1481 46.8192 9.95391 46.5002 9.82142C46.1811 9.68893 45.839 9.62073 45.4935 9.62073C45.148 9.62073 44.8059 9.68893 44.4869 9.82142C44.1678 9.95391 43.878 10.1481 43.6341 10.3928L23.3538 30.3734C23.2726 30.4548 23.1761 30.5193 23.0698 30.5634C22.9636 30.6074 22.8498 30.63 22.7348 30.63C22.6198 30.63 22.5059 30.6074 22.3997 30.5634C22.2935 30.5193 22.197 30.4548 22.1157 30.3734V30.3603L14.1051 22.6428C13.8612 22.3981 13.5714 22.2039 13.2524 22.0714C12.9333 21.9389 12.5912 21.8707 12.2457 21.8707C11.9002 21.8707 11.5581 21.9389 11.2391 22.0714C10.92 22.2039 10.6302 22.3981 10.3863 22.6428L5.13633 27.8928C4.89161 28.1367 4.69744 28.4264 4.56495 28.7455C4.43246 29.0646 4.36426 29.4067 4.36426 29.7522C4.36426 30.0977 4.43246 30.4397 4.56495 30.7588C4.69744 31.0779 4.89161 31.3677 5.13633 31.6115L20.801 47.3615C21.0449 47.6063 21.3347 47.8004 21.6537 47.9329C21.9728 48.0654 22.3149 48.1336 22.6604 48.1336C23.0059 48.1336 23.348 48.0654 23.667 47.9329C23.9861 47.8004 24.2759 47.6063 24.5198 47.3615L52.6073 19.2675C52.8514 19.0234 53.0449 18.7335 53.1768 18.4145C53.3088 18.0954 53.3765 17.7535 53.3761 17.4083C53.3756 17.0631 53.3071 16.7213 53.1745 16.4026C53.0418 16.0839 52.8476 15.7945 52.6029 15.5509ZM51.3713 18.0315L23.2816 46.119C23.1176 46.2827 22.8954 46.3746 22.6637 46.3746C22.432 46.3746 22.2097 46.2827 22.0457 46.119L6.38102 30.369C6.29966 30.2878 6.23512 30.1913 6.19109 30.0851C6.14705 29.9788 6.12439 29.865 6.12439 29.75C6.12439 29.635 6.14705 29.5211 6.19109 29.4149C6.23512 29.3087 6.29966 29.2122 6.38102 29.1309L11.631 23.8809C11.7123 23.7997 11.8089 23.7353 11.9151 23.6914C12.0213 23.6475 12.1351 23.6249 12.2501 23.625C12.368 23.6251 12.4848 23.6485 12.5937 23.694C12.7026 23.7394 12.8014 23.8059 12.8845 23.8897L20.9038 31.6094C21.3957 32.0989 22.0615 32.3738 22.7555 32.3738C23.4496 32.3738 24.1153 32.0989 24.6073 31.6094L44.8876 11.6309C44.9689 11.5489 45.0657 11.4838 45.1723 11.4394C45.279 11.395 45.3933 11.3721 45.5088 11.3721C45.6243 11.3721 45.7387 11.395 45.8453 11.4394C45.952 11.4838 46.0487 11.5489 46.1301 11.6309L51.3801 16.789C51.4615 16.871 51.5259 16.9682 51.5696 17.0751C51.6133 17.1821 51.6353 17.2966 51.6345 17.4121C51.6337 17.5276 51.61 17.6418 51.5649 17.7482C51.5197 17.8545 51.4539 17.9508 51.3713 18.0315Z" fill="#003DA6"/>
</svg>
