<svg width="56" height="56" viewBox="0 0 56 56" fill="none" xmlns="http://www.w3.org/2000/svg">
<path d="M45.5 7.875H10.5C9.80381 7.875 9.13613 8.15156 8.64384 8.64384C8.15156 9.13613 7.875 9.80381 7.875 10.5V45.5C7.875 46.1962 8.15156 46.8639 8.64384 47.3562C9.13613 47.8484 9.80381 48.125 10.5 48.125H45.5C46.1962 48.125 46.8639 47.8484 47.3562 47.3562C47.8484 46.8639 48.125 46.1962 48.125 45.5V10.5C48.125 9.80381 47.8484 9.13613 47.3562 8.64384C46.8639 8.15156 46.1962 7.875 45.5 7.875ZM19.25 34.125C19.7692 34.125 20.2767 34.279 20.7084 34.5674C21.1401 34.8558 21.4765 35.2658 21.6752 35.7455C21.8739 36.2251 21.9258 36.7529 21.8246 37.2621C21.7233 37.7713 21.4733 38.239 21.1062 38.6062C20.739 38.9733 20.2713 39.2233 19.7621 39.3246C19.2529 39.4258 18.7251 39.3739 18.2455 39.1752C17.7658 38.9765 17.3558 38.6401 17.0674 38.2084C16.779 37.7767 16.625 37.2692 16.625 36.75C16.625 36.0538 16.9016 35.3861 17.3938 34.8938C17.8861 34.4016 18.5538 34.125 19.25 34.125ZM9.625 45.5V10.5C9.625 10.2679 9.71719 10.0454 9.88128 9.88128C10.0454 9.71719 10.2679 9.625 10.5 9.625H18.375V32.4625C17.3127 32.6793 16.3688 33.2829 15.7262 34.1561C15.0836 35.0294 14.7882 36.1101 14.8972 37.1888C15.0061 38.2675 15.5117 39.2674 16.316 39.9944C17.1202 40.7215 18.1658 41.1241 19.25 41.1241C20.3342 41.1241 21.3798 40.7215 22.184 39.9944C22.9883 39.2674 23.4939 38.2675 23.6028 37.1888C23.7118 36.1101 23.4164 35.0294 22.7738 34.1561C22.1312 33.2829 21.1873 32.6793 20.125 32.4625V23.1131L32.375 35.3631V46.375H10.5C10.2679 46.375 10.0454 46.2828 9.88128 46.1187C9.71719 45.9546 9.625 45.7321 9.625 45.5ZM46.375 45.5C46.375 45.7321 46.2828 45.9546 46.1187 46.1187C45.9546 46.2828 45.7321 46.375 45.5 46.375H34.125V35C34.1251 34.8851 34.1025 34.7712 34.0586 34.665C34.0147 34.5588 33.9503 34.4623 33.8691 34.3809L20.125 20.6369V9.625H28.875V15.75C28.8749 15.8649 28.8975 15.9788 28.9414 16.085C28.9853 16.1912 29.0497 16.2877 29.1309 16.3691L33.1034 20.3438C32.5061 21.2484 32.266 22.3425 32.4294 23.4141C32.5929 24.4857 33.1484 25.4585 33.9882 26.1439C34.828 26.8293 35.8924 27.1785 36.975 27.1238C38.0577 27.0691 39.0815 26.6145 39.848 25.848C40.6145 25.0815 41.0691 24.0577 41.1238 22.975C41.1785 21.8924 40.8293 20.828 40.1439 19.9882C39.4585 19.1484 38.4857 18.5929 37.4141 18.4294C36.3425 18.266 35.2484 18.5061 34.3438 19.1034L30.625 15.3847V9.625H45.5C45.7321 9.625 45.9546 9.71719 46.1187 9.88128C46.2828 10.0454 46.375 10.2679 46.375 10.5V45.5ZM36.75 20.125C37.2692 20.125 37.7767 20.279 38.2084 20.5674C38.6401 20.8558 38.9765 21.2658 39.1752 21.7455C39.3739 22.2251 39.4258 22.7529 39.3246 23.2621C39.2233 23.7713 38.9733 24.239 38.6062 24.6062C38.239 24.9733 37.7713 25.2233 37.2621 25.3246C36.7529 25.4258 36.2251 25.3739 35.7455 25.1752C35.2658 24.9765 34.8558 24.6401 34.5674 24.2084C34.279 23.7767 34.125 23.2692 34.125 22.75C34.125 22.0538 34.4016 21.3861 34.8938 20.8938C35.3861 20.4016 36.0538 20.125 36.75 20.125Z" fill="#003DA6"/>
</svg>
