<svg width="56" height="56" viewBox="0 0 56 56" fill="none" xmlns="http://www.w3.org/2000/svg">
<path d="M26.7969 27.3175C26.8991 27.3995 26.9815 27.5034 27.0382 27.6215C27.0949 27.7396 27.1243 27.869 27.1243 28C27.1243 28.131 27.0949 28.2604 27.0382 28.3785C26.9815 28.4966 26.8991 28.6005 26.7969 28.6825L18.0469 35.6825C17.8651 35.819 17.6374 35.8795 17.4118 35.851C17.1863 35.8226 16.9806 35.7075 16.8385 35.5301C16.6963 35.3527 16.6288 35.1269 16.6502 34.9006C16.6716 34.6742 16.7802 34.4651 16.9531 34.3175L24.85 28L16.9531 21.6825C16.7802 21.5349 16.6716 21.3258 16.6502 21.0994C16.6288 20.8731 16.6963 20.6473 16.8385 20.4699C16.9806 20.2925 17.1863 20.1774 17.4118 20.149C17.6374 20.1205 17.8651 20.181 18.0469 20.3175L26.7969 27.3175ZM38.5 34.125H29.75C29.5179 34.125 29.2954 34.2172 29.1313 34.3813C28.9672 34.5454 28.875 34.7679 28.875 35C28.875 35.2321 28.9672 35.4546 29.1313 35.6187C29.2954 35.7828 29.5179 35.875 29.75 35.875H38.5C38.7321 35.875 38.9546 35.7828 39.1187 35.6187C39.2828 35.4546 39.375 35.2321 39.375 35C39.375 34.7679 39.2828 34.5454 39.1187 34.3813C38.9546 34.2172 38.7321 34.125 38.5 34.125ZM49.875 12.25V43.75C49.875 44.4462 49.5984 45.1139 49.1062 45.6062C48.6139 46.0984 47.9462 46.375 47.25 46.375H8.75C8.05381 46.375 7.38613 46.0984 6.89384 45.6062C6.40156 45.1139 6.125 44.4462 6.125 43.75V12.25C6.125 11.5538 6.40156 10.8861 6.89384 10.3938C7.38613 9.90156 8.05381 9.625 8.75 9.625H47.25C47.9462 9.625 48.6139 9.90156 49.1062 10.3938C49.5984 10.8861 49.875 11.5538 49.875 12.25ZM48.125 12.25C48.125 12.0179 48.0328 11.7954 47.8687 11.6313C47.7046 11.4672 47.4821 11.375 47.25 11.375H8.75C8.51794 11.375 8.29538 11.4672 8.13128 11.6313C7.96719 11.7954 7.875 12.0179 7.875 12.25V43.75C7.875 43.9821 7.96719 44.2046 8.13128 44.3687C8.29538 44.5328 8.51794 44.625 8.75 44.625H47.25C47.4821 44.625 47.7046 44.5328 47.8687 44.3687C48.0328 44.2046 48.125 43.9821 48.125 43.75V12.25Z" fill="#003DA6"/>
</svg>
