<svg width="56" height="56" viewBox="0 0 56 56" fill="none" xmlns="http://www.w3.org/2000/svg">
<path d="M36.75 23.625H47.25C47.9462 23.625 48.6139 23.3484 49.1062 22.8562C49.5984 22.3639 49.875 21.6962 49.875 21V10.5C49.875 9.80381 49.5984 9.13613 49.1062 8.64384C48.6139 8.15156 47.9462 7.875 47.25 7.875H36.75C36.0538 7.875 35.3861 8.15156 34.8938 8.64384C34.4016 9.13613 34.125 9.80381 34.125 10.5V14.875H31.5C29.8755 14.875 28.3176 15.5203 27.169 16.669C26.0203 17.8176 25.375 19.3755 25.375 21V27.125H16.625V24.5C16.625 23.8038 16.3484 23.1361 15.8562 22.6438C15.3639 22.1516 14.6962 21.875 14 21.875H7C6.30381 21.875 5.63613 22.1516 5.14384 22.6438C4.65156 23.1361 4.375 23.8038 4.375 24.5V31.5C4.375 32.1962 4.65156 32.8639 5.14384 33.3562C5.63613 33.8484 6.30381 34.125 7 34.125H14C14.6962 34.125 15.3639 33.8484 15.8562 33.3562C16.3484 32.8639 16.625 32.1962 16.625 31.5V28.875H25.375V35C25.375 36.6245 26.0203 38.1824 27.169 39.331C28.3176 40.4797 29.8755 41.125 31.5 41.125H34.125V45.5C34.125 46.1962 34.4016 46.8639 34.8938 47.3562C35.3861 47.8484 36.0538 48.125 36.75 48.125H47.25C47.9462 48.125 48.6139 47.8484 49.1062 47.3562C49.5984 46.8639 49.875 46.1962 49.875 45.5V35C49.875 34.3038 49.5984 33.6361 49.1062 33.1438C48.6139 32.6516 47.9462 32.375 47.25 32.375H36.75C36.0538 32.375 35.3861 32.6516 34.8938 33.1438C34.4016 33.6361 34.125 34.3038 34.125 35V39.375H31.5C30.3397 39.375 29.2269 38.9141 28.4064 38.0936C27.5859 37.2731 27.125 36.1603 27.125 35V21C27.125 19.8397 27.5859 18.7269 28.4064 17.9064C29.2269 17.0859 30.3397 16.625 31.5 16.625H34.125V21C34.125 21.6962 34.4016 22.3639 34.8938 22.8562C35.3861 23.3484 36.0538 23.625 36.75 23.625ZM14.875 31.5C14.875 31.7321 14.7828 31.9546 14.6187 32.1187C14.4546 32.2828 14.2321 32.375 14 32.375H7C6.76794 32.375 6.54538 32.2828 6.38128 32.1187C6.21719 31.9546 6.125 31.7321 6.125 31.5V24.5C6.125 24.2679 6.21719 24.0454 6.38128 23.8813C6.54538 23.7172 6.76794 23.625 7 23.625H14C14.2321 23.625 14.4546 23.7172 14.6187 23.8813C14.7828 24.0454 14.875 24.2679 14.875 24.5V31.5ZM35.875 35C35.875 34.7679 35.9672 34.5454 36.1313 34.3813C36.2954 34.2172 36.5179 34.125 36.75 34.125H47.25C47.4821 34.125 47.7046 34.2172 47.8687 34.3813C48.0328 34.5454 48.125 34.7679 48.125 35V45.5C48.125 45.7321 48.0328 45.9546 47.8687 46.1187C47.7046 46.2828 47.4821 46.375 47.25 46.375H36.75C36.5179 46.375 36.2954 46.2828 36.1313 46.1187C35.9672 45.9546 35.875 45.7321 35.875 45.5V35ZM35.875 10.5C35.875 10.2679 35.9672 10.0454 36.1313 9.88128C36.2954 9.71719 36.5179 9.625 36.75 9.625H47.25C47.4821 9.625 47.7046 9.71719 47.8687 9.88128C48.0328 10.0454 48.125 10.2679 48.125 10.5V21C48.125 21.2321 48.0328 21.4546 47.8687 21.6187C47.7046 21.7828 47.4821 21.875 47.25 21.875H36.75C36.5179 21.875 36.2954 21.7828 36.1313 21.6187C35.9672 21.4546 35.875 21.2321 35.875 21V10.5Z" fill="#003DA6"/>
</svg>
