<svg width="56" height="56" viewBox="0 0 56 56" fill="none" xmlns="http://www.w3.org/2000/svg">
<path d="M33.25 21.875H22.75C22.5179 21.875 22.2954 21.9672 22.1313 22.1313C21.9672 22.2954 21.875 22.5179 21.875 22.75V33.25C21.875 33.4821 21.9672 33.7046 22.1313 33.8687C22.2954 34.0328 22.5179 34.125 22.75 34.125H33.25C33.4821 34.125 33.7046 34.0328 33.8687 33.8687C34.0328 33.7046 34.125 33.4821 34.125 33.25V22.75C34.125 22.5179 34.0328 22.2954 33.8687 22.1313C33.7046 21.9672 33.4821 21.875 33.25 21.875ZM32.375 32.375H23.625V23.625H32.375V32.375ZM50.75 32.375H46.375V23.625H50.75C50.9821 23.625 51.2046 23.5328 51.3687 23.3687C51.5328 23.2046 51.625 22.9821 51.625 22.75C51.625 22.5179 51.5328 22.2954 51.3687 22.1313C51.2046 21.9672 50.9821 21.875 50.75 21.875H46.375V12.25C46.375 11.5538 46.0984 10.8861 45.6062 10.3938C45.1139 9.90156 44.4462 9.625 43.75 9.625H34.125V5.25C34.125 5.01794 34.0328 4.79538 33.8687 4.63128C33.7046 4.46719 33.4821 4.375 33.25 4.375C33.0179 4.375 32.7954 4.46719 32.6313 4.63128C32.4672 4.79538 32.375 5.01794 32.375 5.25V9.625H23.625V5.25C23.625 5.01794 23.5328 4.79538 23.3687 4.63128C23.2046 4.46719 22.9821 4.375 22.75 4.375C22.5179 4.375 22.2954 4.46719 22.1313 4.63128C21.9672 4.79538 21.875 5.01794 21.875 5.25V9.625H12.25C11.5538 9.625 10.8861 9.90156 10.3938 10.3938C9.90156 10.8861 9.625 11.5538 9.625 12.25V21.875H5.25C5.01794 21.875 4.79538 21.9672 4.63128 22.1313C4.46719 22.2954 4.375 22.5179 4.375 22.75C4.375 22.9821 4.46719 23.2046 4.63128 23.3687C4.79538 23.5328 5.01794 23.625 5.25 23.625H9.625V32.375H5.25C5.01794 32.375 4.79538 32.4672 4.63128 32.6313C4.46719 32.7954 4.375 33.0179 4.375 33.25C4.375 33.4821 4.46719 33.7046 4.63128 33.8687C4.79538 34.0328 5.01794 34.125 5.25 34.125H9.625V43.75C9.625 44.4462 9.90156 45.1139 10.3938 45.6062C10.8861 46.0984 11.5538 46.375 12.25 46.375H21.875V50.75C21.875 50.9821 21.9672 51.2046 22.1313 51.3687C22.2954 51.5328 22.5179 51.625 22.75 51.625C22.9821 51.625 23.2046 51.5328 23.3687 51.3687C23.5328 51.2046 23.625 50.9821 23.625 50.75V46.375H32.375V50.75C32.375 50.9821 32.4672 51.2046 32.6313 51.3687C32.7954 51.5328 33.0179 51.625 33.25 51.625C33.4821 51.625 33.7046 51.5328 33.8687 51.3687C34.0328 51.2046 34.125 50.9821 34.125 50.75V46.375H43.75C44.4462 46.375 45.1139 46.0984 45.6062 45.6062C46.0984 45.1139 46.375 44.4462 46.375 43.75V34.125H50.75C50.9821 34.125 51.2046 34.0328 51.3687 33.8687C51.5328 33.7046 51.625 33.4821 51.625 33.25C51.625 33.0179 51.5328 32.7954 51.3687 32.6313C51.2046 32.4672 50.9821 32.375 50.75 32.375ZM44.625 43.75C44.625 43.9821 44.5328 44.2046 44.3687 44.3687C44.2046 44.5328 43.9821 44.625 43.75 44.625H12.25C12.0179 44.625 11.7954 44.5328 11.6313 44.3687C11.4672 44.2046 11.375 43.9821 11.375 43.75V12.25C11.375 12.0179 11.4672 11.7954 11.6313 11.6313C11.7954 11.4672 12.0179 11.375 12.25 11.375H43.75C43.9821 11.375 44.2046 11.4672 44.3687 11.6313C44.5328 11.7954 44.625 12.0179 44.625 12.25V43.75Z" fill="#003DA6"/>
</svg>
