<svg width="32" height="32" viewBox="0 0 32 32" fill="none" xmlns="http://www.w3.org/2000/svg">
<path d="M28.3448 8.62483C28.2841 8.4749 28.188 8.34192 28.0646 8.2373C27.9413 8.13268 27.7944 8.05953 27.6366 8.02413C27.4788 7.98873 27.3148 7.99214 27.1586 8.03406C27.0023 8.07599 26.8586 8.15517 26.7398 8.26483L21.7023 12.9136L19.5485 12.4511L19.086 10.2973L23.7348 5.25983C23.8444 5.14094 23.9236 4.99723 23.9655 4.84103C24.0074 4.68482 24.0108 4.52078 23.9754 4.36296C23.9401 4.20515 23.8669 4.05828 23.7623 3.93494C23.6577 3.81161 23.5247 3.71549 23.3748 3.65483C22.0084 3.10212 20.5273 2.89343 19.0614 3.0471C17.5955 3.20077 16.1899 3.71209 14.9679 4.53614C13.7459 5.36019 12.7449 6.47174 12.053 7.77314C11.3612 9.07453 10.9995 10.5259 10.9998 11.9998C10.9981 13.2444 11.2535 14.476 11.7498 15.6173L4.2235 22.1248C4.20475 22.1398 4.18725 22.1573 4.16975 22.1736C3.41952 22.9238 2.99805 23.9413 2.99805 25.0023C2.99805 25.5277 3.10152 26.0479 3.30256 26.5332C3.50361 27.0186 3.79828 27.4596 4.16975 27.8311C4.54123 28.2026 4.98224 28.4972 5.4676 28.6983C5.95295 28.8993 6.47316 29.0028 6.9985 29.0028C8.05949 29.0028 9.07702 28.5813 9.82725 27.8311C9.8435 27.8148 9.861 27.7961 9.876 27.7786L16.3823 20.2498C17.7528 20.8514 19.2517 21.1017 20.7434 20.9781C22.235 20.8544 23.6723 20.3607 24.925 19.5416C26.1778 18.7224 27.2065 17.6038 27.9179 16.287C28.6294 14.9701 29.0013 13.4966 28.9998 11.9998C29.0017 10.8431 28.7793 9.69689 28.3448 8.62483ZM19.9998 18.9998C18.8161 18.9982 17.6521 18.6972 16.616 18.1248C16.4153 18.0139 16.1825 17.9754 15.9568 18.0157C15.731 18.056 15.526 18.1726 15.376 18.3461L8.3885 26.4386C8.01038 26.7978 7.50688 26.9951 6.98536 26.9885C6.46383 26.9818 5.96555 26.7716 5.59675 26.4028C5.22794 26.034 5.0178 25.5357 5.01112 25.0142C5.00445 24.4927 5.20176 23.9892 5.561 23.6111L13.6473 16.6248C13.821 16.4748 13.9379 16.2695 13.9781 16.0435C14.0184 15.8174 13.9797 15.5844 13.8685 15.3836C13.231 14.2306 12.9319 12.9212 13.0054 11.6058C13.079 10.2904 13.5222 9.02248 14.2842 7.94777C15.0462 6.87305 16.096 6.03519 17.313 5.53051C18.5299 5.02583 19.8646 4.87481 21.1635 5.09483L17.2635 9.32108C17.155 9.43879 17.0763 9.58084 17.0341 9.73528C16.9919 9.88972 16.9874 10.052 17.021 10.2086L17.7285 13.4998C17.769 13.6881 17.8629 13.8606 17.9991 13.9968C18.1352 14.1329 18.3078 14.2269 18.496 14.2673L21.7898 14.9748C21.9463 15.0084 22.1086 15.0039 22.263 14.9617C22.4175 14.9195 22.5595 14.8408 22.6773 14.7323L26.9035 10.8323C27.072 11.8361 27.0198 12.8645 26.7506 13.846C26.4813 14.8276 26.0015 15.7387 25.3444 16.516C24.6874 17.2933 23.8689 17.9182 22.9459 18.3471C22.0229 18.7761 21.0176 18.9988 19.9998 18.9998Z" fill="#003DA6"/>
</svg>
