<svg width="56" height="56" viewBox="0 0 56 56" fill="none" xmlns="http://www.w3.org/2000/svg">
<path d="M43.7507 34.125C42.1671 34.1238 40.6451 34.7389 39.507 35.84L33.3207 31.0275C33.849 30.106 34.1266 29.0622 34.1257 28C34.1256 27.6332 34.0927 27.2672 34.0273 26.9063L38.282 25.4953C38.9782 26.8831 40.1743 27.9557 41.6296 28.497C43.0848 29.0384 44.6911 29.0083 46.1251 28.4129C47.559 27.8175 48.7142 26.7009 49.358 25.288C50.0018 23.8751 50.0864 22.2708 49.5948 20.798C49.1032 19.3252 48.072 18.0933 46.7086 17.3503C45.3452 16.6073 43.751 16.4085 42.2469 16.7937C40.7428 17.1789 39.4404 18.1197 38.6021 19.4266C37.7637 20.7335 37.4516 22.3094 37.7285 23.8372L33.4695 25.2547C32.9606 24.2399 32.1798 23.3865 31.2141 22.7897C30.2485 22.1929 29.1359 21.8762 28.0007 21.875C27.4385 21.8747 26.8789 21.9528 26.3382 22.1069L24.2601 17.4322C25.5089 16.6454 26.4316 15.434 26.8584 14.021C27.2852 12.608 27.1874 11.0885 26.5829 9.74185C25.9785 8.39524 24.9081 7.31219 23.5687 6.69197C22.2293 6.07175 20.711 5.95607 19.2931 6.36622C17.8752 6.77636 16.6531 7.68475 15.8516 8.92424C15.0501 10.1637 14.7232 11.651 14.931 13.1123C15.1388 14.5736 15.8674 15.9108 16.9826 16.8777C18.0978 17.8447 19.5247 18.3764 21.0007 18.375C21.563 18.3753 22.1225 18.2972 22.6632 18.1431L24.7413 22.8178C24.0505 23.2511 23.4534 23.8181 22.985 24.4856C22.5166 25.1531 22.1865 25.9075 22.0141 26.7045C21.8416 27.5015 21.8304 28.3249 21.9809 29.1263C22.1315 29.9277 22.4408 30.6909 22.8907 31.3709L16.1882 37.3209C15.0057 36.3214 13.4885 35.8069 11.9419 35.8808C10.3953 35.9548 8.93415 36.6117 7.85235 37.7194C6.77055 38.8272 6.14843 40.3035 6.11115 41.8514C6.07388 43.3993 6.62422 44.9039 7.65144 46.0624C8.67866 47.2209 10.1065 47.9474 11.6478 48.0957C13.189 48.244 14.7292 47.8031 15.9585 46.8617C17.1877 45.9202 18.0148 44.5482 18.2734 43.0216C18.5319 41.495 18.2027 39.9271 17.352 38.6334L24.0457 32.6834C25.2013 33.6618 26.6792 34.176 28.1925 34.1263C29.7059 34.0766 31.1468 33.4665 32.2357 32.4144L38.422 37.2269C37.7575 38.3978 37.4973 39.755 37.6816 41.0886C37.8659 42.4222 38.4845 43.658 39.4417 44.6047C40.3989 45.5515 41.6413 46.1565 42.9769 46.3262C44.3125 46.4958 45.6667 46.2208 46.8302 45.5435C47.9938 44.8662 48.9017 43.8244 49.4137 42.5793C49.9257 41.3341 50.0132 39.9549 49.6626 38.6551C49.312 37.3552 48.543 36.2071 47.4743 35.3882C46.4057 34.5694 45.097 34.1254 43.7507 34.125ZM43.7507 18.375C44.616 18.375 45.4619 18.6316 46.1813 19.1123C46.9008 19.5931 47.4615 20.2763 47.7927 21.0758C48.1238 21.8752 48.2105 22.7549 48.0416 23.6035C47.8728 24.4522 47.4562 25.2317 46.8443 25.8436C46.2324 26.4555 45.4529 26.8721 44.6042 27.0409C43.7556 27.2097 42.8759 27.1231 42.0765 26.792C41.277 26.4608 40.5938 25.9001 40.113 25.1806C39.6323 24.4612 39.3757 23.6153 39.3757 22.75C39.3757 21.5897 39.8366 20.4769 40.6571 19.6564C41.4776 18.8359 42.5904 18.375 43.7507 18.375ZM16.6257 12.25C16.6257 11.3847 16.8823 10.5388 17.363 9.81938C17.8438 9.09992 18.527 8.53916 19.3265 8.20803C20.1259 7.8769 21.0056 7.79026 21.8542 7.95907C22.7029 8.12788 23.4824 8.54455 24.0943 9.15641C24.7062 9.76826 25.1228 10.5478 25.2916 11.3965C25.4605 12.2451 25.3738 13.1248 25.0427 13.9242C24.7115 14.7237 24.1508 15.407 23.4313 15.8877C22.7119 16.3684 21.866 16.625 21.0007 16.625C19.8404 16.625 18.7276 16.1641 17.9071 15.3436C17.0866 14.5231 16.6257 13.4103 16.6257 12.25ZM12.2507 46.375C11.3854 46.375 10.5396 46.1184 9.82009 45.6377C9.10062 45.157 8.53987 44.4737 8.20874 43.6742C7.8776 42.8748 7.79096 41.9951 7.95977 41.1465C8.12858 40.2978 8.54526 39.5183 9.15712 38.9064C9.76897 38.2946 10.5485 37.8779 11.3972 37.7091C12.2459 37.5403 13.1255 37.6269 13.9249 37.958C14.7244 38.2892 15.4077 38.8499 15.8884 39.5694C16.3691 40.2888 16.6257 41.1347 16.6257 42C16.6257 43.1603 16.1648 44.2731 15.3443 45.0936C14.5238 45.9141 13.411 46.375 12.2507 46.375ZM28.0007 32.375C27.1354 32.375 26.2896 32.1184 25.5701 31.6377C24.8506 31.157 24.2899 30.4737 23.9587 29.6742C23.6276 28.8748 23.541 27.9951 23.7098 27.1465C23.8786 26.2978 24.2953 25.5183 24.9071 24.9064C25.519 24.2946 26.2985 23.8779 27.1472 23.7091C27.9959 23.5403 28.8755 23.6269 29.675 23.958C30.4744 24.2892 31.1577 24.8499 31.6384 25.5694C32.1191 26.2888 32.3757 27.1347 32.3757 28C32.3757 29.1603 31.9148 30.2731 31.0943 31.0936C30.2738 31.9141 29.161 32.375 28.0007 32.375ZM43.7507 44.625C42.8854 44.625 42.0396 44.3684 41.3201 43.8877C40.6006 43.407 40.0399 42.7237 39.7087 41.9242C39.3776 41.1248 39.291 40.2451 39.4598 39.3965C39.6286 38.5478 40.0453 37.7683 40.6571 37.1564C41.269 36.5446 42.0485 36.1279 42.8972 35.9591C43.7459 35.7903 44.6255 35.8769 45.4249 36.208C46.2244 36.5392 46.9077 37.0999 47.3884 37.8194C47.8691 38.5388 48.1257 39.3847 48.1257 40.25C48.1257 41.4103 47.6648 42.5231 46.8443 43.3436C46.0238 44.1641 44.911 44.625 43.7507 44.625Z" fill="#003DA6"/>
</svg>
