<svg width="56" height="56" viewBox="0 0 56 56" fill="none" xmlns="http://www.w3.org/2000/svg">
<path d="M28 6.125C23.6735 6.125 19.4442 7.40795 15.8469 9.8116C12.2496 12.2153 9.44581 15.6317 7.79014 19.6288C6.13448 23.6259 5.70128 28.0243 6.54533 32.2676C7.38938 36.5109 9.47278 40.4087 12.532 43.468C15.5913 46.5272 19.4891 48.6106 23.7324 49.4547C27.9757 50.2987 32.3741 49.8655 36.3712 48.2099C40.3683 46.5542 43.7847 43.7504 46.1884 40.1531C48.5921 36.5558 49.875 32.3265 49.875 28C49.8686 22.2003 47.5619 16.6401 43.4609 12.5391C39.36 8.4381 33.7997 6.13137 28 6.125ZM15.0653 43.4044C16.3636 41.1183 18.2446 39.2171 20.5168 37.8945C22.7889 36.5719 25.371 35.8751 28 35.8751C30.6291 35.8751 33.2111 36.5719 35.4833 37.8945C37.7554 39.2171 39.6364 41.1183 40.9347 43.4044C37.3142 46.4531 32.7332 48.1249 28 48.1249C23.2669 48.1249 18.6858 46.4531 15.0653 43.4044ZM42.2559 42.1903C40.0822 38.5561 36.5973 35.8941 32.5194 34.7528C34.4154 33.7445 35.9198 32.131 36.7931 30.1691C37.6665 28.2072 37.8586 26.0096 37.339 23.9259C36.8194 21.8422 35.6179 19.9922 33.9256 18.6701C32.2333 17.348 30.1475 16.6298 28 16.6298C25.8525 16.6298 23.7667 17.348 22.0744 18.6701C20.3821 19.9922 19.1806 21.8422 18.661 23.9259C18.1414 26.0096 18.3335 28.2072 19.2069 30.1691C20.0802 32.131 21.5846 33.7445 23.4806 34.7528C19.4027 35.8941 15.9178 38.5561 13.7441 42.1903C10.9367 39.3729 9.02716 35.7869 8.25646 31.885C7.48576 27.9831 7.8885 23.9403 9.41382 20.2671C10.9391 16.594 13.5187 13.4551 16.8266 11.2469C20.1346 9.03874 24.0227 7.86025 28 7.86025C31.9773 7.86025 35.8654 9.03874 39.1734 11.2469C42.4814 13.4551 45.0609 16.594 46.5862 20.2671C48.1115 23.9403 48.5143 27.9831 47.7436 31.885C46.9729 35.7869 45.0633 39.3729 42.2559 42.1903ZM28 34.125C26.4425 34.125 24.9199 33.6631 23.6249 32.7978C22.3299 31.9325 21.3205 30.7026 20.7245 29.2636C20.1284 27.8247 19.9725 26.2413 20.2763 24.7137C20.5802 23.1861 21.3302 21.7829 22.4315 20.6815C23.5329 19.5802 24.9361 18.8302 26.4637 18.5263C27.9913 18.2225 29.5747 18.3784 31.0136 18.9744C32.4526 19.5705 33.6825 20.5798 34.5478 21.8749C35.4131 23.1699 35.875 24.6925 35.875 26.25C35.875 28.3386 35.0453 30.3416 33.5685 31.8185C32.0916 33.2953 30.0886 34.125 28 34.125Z" fill="#003DA6"/>
</svg>
