<svg width="56" height="56" viewBox="0 0 56 56" fill="none" xmlns="http://www.w3.org/2000/svg">
<path d="M28 18.375C26.0964 18.375 24.2355 18.9395 22.6527 19.9971C21.0699 21.0548 19.8362 22.558 19.1077 24.3167C18.3792 26.0755 18.1886 28.0107 18.56 29.8778C18.9314 31.7449 19.8481 33.4599 21.1941 34.8059C22.5402 36.152 24.2552 37.0687 26.1223 37.4401C27.9894 37.8115 29.9246 37.6209 31.6834 36.8924C33.4421 36.1639 34.9453 34.9302 36.0029 33.3474C37.0605 31.7646 37.625 29.9037 37.625 28C37.6221 25.4482 36.6072 23.0017 34.8027 21.1973C32.9983 19.3929 30.5519 18.3779 28 18.375ZM28 35.875C26.4425 35.875 24.92 35.4132 23.6249 34.5479C22.3299 33.6826 21.3205 32.4526 20.7245 31.0137C20.1285 29.5747 19.9725 27.9913 20.2764 26.4637C20.5802 24.9361 21.3302 23.5329 22.4316 22.4316C23.5329 21.3302 24.9361 20.5802 26.4637 20.2764C27.9913 19.9725 29.5747 20.1285 31.0137 20.7245C32.4526 21.3205 33.6826 22.3299 34.5479 23.6249C35.4132 24.92 35.875 26.4425 35.875 28C35.875 30.0886 35.0454 32.0917 33.5685 33.5685C32.0917 35.0454 30.0886 35.875 28 35.875ZM46.3597 28.7679C46.3787 28.256 46.3787 27.7456 46.3597 27.2366L49.8225 22.9075C49.9085 22.8007 49.9681 22.6751 49.9966 22.541C50.0251 22.4069 50.0217 22.2679 49.9866 22.1354C49.4683 20.1977 48.6952 18.3374 47.6875 16.6032C47.62 16.484 47.5255 16.3823 47.4115 16.3063C47.2975 16.2303 47.1673 16.1821 47.0313 16.1657L41.521 15.5532C41.1754 15.1791 40.8122 14.816 40.4382 14.4704L39.8279 8.96879C39.8114 8.83279 39.7632 8.70256 39.6872 8.58858C39.6113 8.47459 39.5096 8.38004 39.3904 8.31254C37.6583 7.30714 35.8011 6.53484 33.8669 6.01567C33.7345 5.9803 33.5957 5.97652 33.4615 6.00463C33.3274 6.03275 33.2018 6.09198 33.0947 6.17754L28.7679 9.64035C28.256 9.61994 27.7456 9.61994 27.2366 9.64035L22.9032 6.17754C22.7963 6.0916 22.6708 6.03198 22.5366 6.00348C22.4025 5.97498 22.2635 5.97841 22.131 6.01348C20.1948 6.5321 18.336 7.3052 16.6032 8.31254C16.484 8.38004 16.3823 8.47459 16.3063 8.58858C16.2303 8.70256 16.1821 8.83279 16.1657 8.96879L15.5532 14.4791C15.1791 14.8247 14.816 15.1879 14.4704 15.5619L8.96879 16.1722C8.83279 16.1887 8.70256 16.2369 8.58858 16.3128C8.47459 16.3888 8.38004 16.4905 8.31254 16.6097C7.30714 18.3418 6.53484 20.1989 6.01567 22.1332C5.9803 22.2656 5.97652 22.4044 6.00463 22.5385C6.03275 22.6727 6.09198 22.7983 6.17754 22.9054L9.64035 27.2322C9.61994 27.7441 9.61994 28.2545 9.64035 28.7635L6.17754 33.0969C6.0916 33.2038 6.03198 33.3293 6.00348 33.4635C5.97498 33.5976 5.97841 33.7365 6.01348 33.8691C6.5321 35.8052 7.3052 37.664 8.31254 39.3969C8.38004 39.5161 8.47459 39.6178 8.58858 39.6938C8.70256 39.7698 8.83279 39.818 8.96879 39.8344L14.4791 40.4469C14.8247 40.821 15.1879 41.1841 15.5619 41.5297L16.1744 47.0422C16.1909 47.1782 16.239 47.3085 16.315 47.4224C16.391 47.5364 16.4927 47.631 16.6119 47.6985C18.3465 48.7014 20.2059 49.4707 22.1419 49.9866C22.2743 50.022 22.4132 50.0258 22.5473 49.9976C22.6814 49.9695 22.8071 49.9103 22.9141 49.8247L27.241 46.3619C27.7529 46.3809 28.2633 46.3809 28.7722 46.3619L33.1013 49.8247C33.2564 49.9492 33.4493 50.0171 33.6482 50.0172C33.722 50.017 33.7955 50.0075 33.8669 49.9888C35.8039 49.4697 37.6635 48.6958 39.3969 47.6875C39.5161 47.62 39.6178 47.5255 39.6938 47.4115C39.7698 47.2975 39.818 47.1673 39.8344 47.0313L40.4469 41.521C40.821 41.1754 41.1841 40.8122 41.5297 40.4382L47.0422 39.8257C47.1782 39.8092 47.3085 39.761 47.4224 39.6851C47.5364 39.6091 47.631 39.5074 47.6985 39.3882C48.7014 37.6536 49.4707 35.7942 49.9866 33.8582C50.022 33.7258 50.0258 33.5869 49.9976 33.4528C49.9695 33.3187 49.9103 33.193 49.8247 33.086L46.3597 28.7679ZM46.3969 38.1369L41.0004 38.7363C40.7851 38.7602 40.5863 38.8631 40.4425 39.025C39.9989 39.5256 39.5256 39.9989 39.025 40.4425C38.8631 40.5863 38.7602 40.7851 38.7363 41.0004L38.1369 46.3947C36.7757 47.1472 35.3347 47.7451 33.8407 48.1775L29.6013 44.7847C29.4459 44.6611 29.253 44.594 29.0544 44.5944H29.0019C28.3346 44.636 27.6654 44.636 26.9982 44.5944C26.7817 44.5814 26.5681 44.6492 26.3988 44.7847L22.1616 48.1754C20.6669 47.7447 19.2252 47.1482 17.8632 46.3969L17.2638 41.0004C17.2399 40.7851 17.137 40.5863 16.975 40.4425C16.4745 39.9989 16.0012 39.5256 15.5575 39.025C15.4138 38.8631 15.215 38.7602 14.9997 38.7363L9.60535 38.1369C8.85292 36.7757 8.25494 35.3347 7.82254 33.8407L11.2154 29.6013C11.3509 29.432 11.4187 29.2184 11.4057 29.0019C11.3663 28.3346 11.3663 27.6655 11.4057 26.9982C11.4187 26.7817 11.3509 26.5681 11.2154 26.3988L7.82473 22.1616C8.25538 20.6669 8.8519 19.2252 9.60317 17.8632L14.9997 17.2638C15.215 17.2399 15.4138 17.137 15.5575 16.975C16.0012 16.4745 16.4745 16.0012 16.975 15.5575C17.137 15.4138 17.2399 15.215 17.2638 14.9997L17.8632 9.60535C19.2244 8.85292 20.6654 8.25494 22.1594 7.82254L26.3988 11.2154C26.5681 11.3509 26.7817 11.4187 26.9982 11.4057C27.6654 11.3641 28.3346 11.3641 29.0019 11.4057C29.2184 11.4187 29.432 11.3509 29.6013 11.2154L33.8385 7.82473C35.3331 8.25538 36.7749 8.8519 38.1369 9.60317L38.7363 14.9997C38.7602 15.215 38.8631 15.4138 39.025 15.5575C39.5256 16.0012 39.9989 16.4745 40.4425 16.975C40.5863 17.137 40.7851 17.2399 41.0004 17.2638L46.3947 17.8632C47.1472 19.2244 47.7451 20.6654 48.1775 22.1594L44.7847 26.3988C44.6492 26.5681 44.5814 26.7817 44.5944 26.9982C44.6338 27.6655 44.6338 28.3346 44.5944 29.0019C44.5814 29.2184 44.6492 29.432 44.7847 29.6013L48.1754 33.8385C47.7447 35.3331 47.1482 36.7749 46.3969 38.1369Z" fill="#003DA6"/>
</svg>
