<svg width="56" height="56" viewBox="0 0 56 56" fill="none" xmlns="http://www.w3.org/2000/svg">
<path d="M52.6019 15.551L47.3519 10.3929C47.108 10.1482 46.8183 9.95403 46.4992 9.82154C46.1801 9.68905 45.838 9.62085 45.4925 9.62085C45.1471 9.62085 44.805 9.68905 44.4859 9.82154C44.1668 9.95403 43.877 10.1482 43.6332 10.3929L23.3529 30.3735C23.2716 30.4549 23.1751 30.5194 23.0689 30.5635C22.9626 30.6075 22.8488 30.6302 22.7338 30.6302C22.6188 30.6302 22.5049 30.6075 22.3987 30.5635C22.2925 30.5194 22.196 30.4549 22.1147 30.3735V30.3604L14.1041 22.6429C13.8602 22.3982 13.5704 22.204 13.2514 22.0715C12.9323 21.939 12.5902 21.8708 12.2447 21.8708C11.8992 21.8708 11.5572 21.939 11.2381 22.0715C10.919 22.204 10.6292 22.3982 10.3854 22.6429L5.13535 27.8929C4.89063 28.1368 4.69646 28.4266 4.56397 28.7456C4.43148 29.0647 4.36328 29.4068 4.36328 29.7523C4.36328 30.0978 4.43148 30.4399 4.56397 30.7589C4.69646 31.078 4.89063 31.3678 5.13535 31.6117L20.8 47.3617C21.0439 47.6064 21.3337 47.8006 21.6528 47.933C21.9718 48.0655 22.3139 48.1337 22.6594 48.1337C23.0049 48.1337 23.347 48.0655 23.6661 47.933C23.9851 47.8006 24.2749 47.6064 24.5188 47.3617L52.6063 19.2676C52.8504 19.0235 53.0439 18.7336 53.1759 18.4146C53.3078 18.0956 53.3755 17.7536 53.3751 17.4084C53.3747 17.0632 53.3062 16.7214 53.1735 16.4027C53.0408 16.084 52.8466 15.7946 52.6019 15.551ZM51.3704 18.0317L23.2807 46.1192C23.1166 46.2828 22.8944 46.3747 22.6627 46.3747C22.431 46.3747 22.2088 46.2828 22.0447 46.1192L6.38004 30.3692C6.29868 30.2879 6.23415 30.1914 6.19011 30.0852C6.14608 29.979 6.12341 29.8651 6.12341 29.7501C6.12341 29.6351 6.14608 29.5213 6.19011 29.415C6.23415 29.3088 6.29868 29.2123 6.38004 29.131L11.63 23.881C11.7114 23.7998 11.8079 23.7354 11.9141 23.6915C12.0203 23.6476 12.1342 23.625 12.2491 23.6251C12.3671 23.6252 12.4839 23.6487 12.5927 23.6941C12.7016 23.7395 12.8004 23.806 12.8835 23.8898L20.9029 31.6095C21.3948 32.0991 22.0605 32.3739 22.7546 32.3739C23.4486 32.3739 24.1144 32.0991 24.6063 31.6095L44.8866 11.631C44.9679 11.549 45.0647 11.4839 45.1713 11.4395C45.278 11.3951 45.3923 11.3722 45.5079 11.3722C45.6234 11.3722 45.7377 11.3951 45.8444 11.4395C45.951 11.4839 46.0478 11.549 46.1291 11.631L51.3791 16.7892C51.4605 16.8711 51.525 16.9683 51.5686 17.0753C51.6123 17.1822 51.6344 17.2967 51.6336 17.4122C51.6327 17.5278 51.6091 17.642 51.5639 17.7483C51.5187 17.8546 51.4529 17.9509 51.3704 18.0317Z" fill="#003DA6"/>
</svg>
