<svg width="56" height="56" viewBox="0 0 56 56" fill="none" xmlns="http://www.w3.org/2000/svg">
<path d="M51.0434 41.5822L31.9116 8.36064C31.5106 7.67978 30.9389 7.11538 30.2529 6.72326C29.5669 6.33114 28.7905 6.12488 28.0003 6.12488C27.2102 6.12488 26.4337 6.33114 25.7477 6.72326C25.0618 7.11538 24.49 7.67978 24.0891 8.36064L4.95719 41.5822C4.57466 42.2362 4.37305 42.9803 4.37305 43.738C4.37305 44.4957 4.57466 45.2397 4.95719 45.8938C5.35209 46.5797 5.92262 47.1479 6.61007 47.5401C7.29752 47.9323 8.07705 48.1342 8.86844 48.125H47.1322C47.9228 48.1334 48.7015 47.9311 49.3881 47.539C50.0747 47.1469 50.6445 46.579 51.0391 45.8938C51.4223 45.2401 51.6246 44.4963 51.6254 43.7386C51.6262 42.9809 51.4253 42.2366 51.0434 41.5822ZM49.5253 45.0188C49.2823 45.4366 48.9327 45.7823 48.5122 46.0206C48.0917 46.2589 47.6155 46.3812 47.1322 46.375H8.86844C8.38516 46.3812 7.9089 46.2589 7.48841 46.0206C7.06792 45.7823 6.7183 45.4366 6.47532 45.0188C6.24436 44.6311 6.12243 44.1882 6.12243 43.7369C6.12243 43.2856 6.24436 42.8427 6.47532 42.455L25.605 9.23345C25.8528 8.81929 26.2037 8.47646 26.6235 8.23841C27.0433 8.00035 27.5177 7.87522 28.0003 7.87522C28.4829 7.87522 28.9573 8.00035 29.3771 8.23841C29.7969 8.47646 30.1479 8.81929 30.3956 9.23345L49.5253 42.455C49.7563 42.8427 49.8782 43.2856 49.8782 43.7369C49.8782 44.1882 49.7563 44.6311 49.5253 45.0188ZM27.1253 31.5V22.75C27.1253 22.5179 27.2175 22.2954 27.3816 22.1313C27.5457 21.9672 27.7683 21.875 28.0003 21.875C28.2324 21.875 28.4549 21.9672 28.619 22.1313C28.7831 22.2954 28.8753 22.5179 28.8753 22.75V31.5C28.8753 31.7321 28.7831 31.9546 28.619 32.1187C28.4549 32.2828 28.2324 32.375 28.0003 32.375C27.7683 32.375 27.5457 32.2828 27.3816 32.1187C27.2175 31.9546 27.1253 31.7321 27.1253 31.5ZM29.7503 39.375C29.7503 39.7211 29.6477 40.0595 29.4554 40.3473C29.2631 40.635 28.9898 40.8593 28.67 40.9918C28.3502 41.1243 27.9984 41.1589 27.6589 41.0914C27.3194 41.0239 27.0076 40.8572 26.7629 40.6124C26.5181 40.3677 26.3515 40.0559 26.2839 39.7164C26.2164 39.377 26.2511 39.0251 26.3835 38.7053C26.516 38.3855 26.7403 38.1122 27.0281 37.9199C27.3159 37.7276 27.6542 37.625 28.0003 37.625C28.4644 37.625 28.9096 37.8094 29.2378 38.1376C29.5659 38.4658 29.7503 38.9109 29.7503 39.375Z" fill="#003DA6"/>
</svg>
