<svg width="56" height="56" viewBox="0 0 56 56" fill="none" xmlns="http://www.w3.org/2000/svg">
<path d="M53.3116 25.9262L50.2491 18.27C50.0536 17.7843 49.7173 17.3681 49.2834 17.0749C48.8496 16.7818 48.338 16.6251 47.8144 16.625H39.375V14C39.375 13.7679 39.2828 13.5454 39.1187 13.3813C38.9546 13.2172 38.7321 13.125 38.5 13.125H5.25C4.55381 13.125 3.88613 13.4016 3.39384 13.8938C2.90156 14.3861 2.625 15.0538 2.625 15.75V40.25C2.625 40.9462 2.90156 41.6139 3.39384 42.1062C3.88613 42.5984 4.55381 42.875 5.25 42.875H9.68844C9.89976 44.3319 10.6287 45.6639 11.7419 46.6272C12.855 47.5906 14.2779 48.1207 15.75 48.1207C17.2221 48.1207 18.645 47.5906 19.7581 46.6272C20.8713 45.6639 21.6002 44.3319 21.8116 42.875H34.1884C34.3998 44.3319 35.1287 45.6639 36.2419 46.6272C37.355 47.5906 38.7779 48.1207 40.25 48.1207C41.7221 48.1207 43.145 47.5906 44.2581 46.6272C45.3713 45.6639 46.1002 44.3319 46.3116 42.875H50.75C51.4462 42.875 52.1139 42.5984 52.6062 42.1062C53.0984 41.6139 53.375 40.9462 53.375 40.25V26.25C53.3746 26.139 53.353 26.0292 53.3116 25.9262ZM39.375 18.375H47.8144C47.9894 18.3747 48.1604 18.4268 48.3055 18.5247C48.4506 18.6225 48.5629 18.7617 48.6281 18.9241L51.2072 25.375H39.375V18.375ZM4.375 15.75C4.375 15.5179 4.46719 15.2954 4.63128 15.1313C4.79538 14.9672 5.01794 14.875 5.25 14.875H37.625V30.625H4.375V15.75ZM15.75 46.375C14.8847 46.375 14.0388 46.1184 13.3194 45.6377C12.5999 45.1569 12.0392 44.4737 11.708 43.6742C11.3769 42.8748 11.2903 41.9951 11.4591 41.1465C11.6279 40.2978 12.0446 39.5183 12.6564 38.9064C13.2683 38.2946 14.0478 37.8779 14.8965 37.7091C15.7451 37.5403 16.6248 37.6269 17.4242 37.958C18.2237 38.2892 18.9069 38.8499 19.3877 39.5694C19.8684 40.2888 20.125 41.1347 20.125 42C20.125 42.5745 20.0118 43.1434 19.792 43.6742C19.5721 44.205 19.2498 44.6873 18.8436 45.0936C18.4373 45.4998 17.955 45.8221 17.4242 46.042C16.8934 46.2618 16.3245 46.375 15.75 46.375ZM34.1884 41.125H21.8116C21.6002 39.6681 20.8713 38.3361 19.7581 37.3728C18.645 36.4094 17.2221 35.8793 15.75 35.8793C14.2779 35.8793 12.855 36.4094 11.7419 37.3728C10.6287 38.3361 9.89976 39.6681 9.68844 41.125H5.25C5.01794 41.125 4.79538 41.0328 4.63128 40.8687C4.46719 40.7046 4.375 40.4821 4.375 40.25V32.375H37.625V36.4678C36.7132 36.9014 35.9226 37.5534 35.3231 38.3658C34.7236 39.1781 34.3339 40.1259 34.1884 41.125ZM40.25 46.375C39.3847 46.375 38.5388 46.1184 37.8194 45.6377C37.0999 45.1569 36.5392 44.4737 36.208 43.6742C35.8769 42.8748 35.7903 41.9951 35.9591 41.1465C36.1279 40.2978 36.5446 39.5183 37.1564 38.9064C37.7683 38.2946 38.5478 37.8779 39.3965 37.7091C40.2451 37.5403 41.1248 37.6269 41.9242 37.958C42.7237 38.2892 43.4069 38.8499 43.8877 39.5694C44.3684 40.2888 44.625 41.1347 44.625 42C44.625 43.1603 44.1641 44.2731 43.3436 45.0936C42.5231 45.9141 41.4103 46.375 40.25 46.375ZM51.625 40.25C51.625 40.4821 51.5328 40.7046 51.3687 40.8687C51.2046 41.0328 50.9821 41.125 50.75 41.125H46.3116C46.0793 39.5174 45.2181 38.068 43.9173 37.0953C42.6165 36.1227 40.9826 35.7065 39.375 35.9384V27.125H51.625V40.25Z" fill="#003DA6"/>
</svg>
