<svg width="56" height="56" viewBox="0 0 56 56" fill="none" xmlns="http://www.w3.org/2000/svg">
<mask id="path-1-inside-1_2_8404" fill="white">
<rect x="14" y="10.5742" width="21.9574" height="38.4255" rx="1"/>
</mask>
<rect x="14" y="10.5742" width="21.9574" height="38.4255" rx="1" stroke="#003DA6" stroke-width="3.32" mask="url(#path-1-inside-1_2_8404)"/>
<path d="M19.1922 6.32428L19.804 6.88513L19.804 6.88513L19.1922 6.32428ZM40.4931 7.85152L40.058 7.14476L40.058 7.14476L40.4931 7.85152ZM41.0281 43.8098L40.5457 43.1344H40.5457L41.0281 43.8098ZM42.2769 20C42.2769 19.5416 41.9053 19.17 41.4469 19.17C40.9885 19.17 40.6169 19.5416 40.6169 20H42.2769ZM19.9293 6.83H39.9688V5.17H19.9293V6.83ZM15.0694 12.0502L19.804 6.88513L18.5803 5.76342L13.8457 10.9285L15.0694 12.0502ZM40.058 7.14476L34.15 10.7826L35.0204 12.1961L40.9283 8.55828L40.058 7.14476ZM40.5457 43.1344L34.5602 47.4097L35.5251 48.7605L41.5105 44.4852L40.5457 43.1344ZM40.6169 20V42.996H42.2769V20H40.6169ZM41.5105 44.4852C41.9915 44.1416 42.2769 43.587 42.2769 42.996H40.6169C40.6169 43.0509 40.5904 43.1024 40.5457 43.1344L41.5105 44.4852ZM39.9688 6.83C40.0305 6.83 40.0588 6.84729 40.0747 6.8602C40.0964 6.87779 40.1198 6.9093 40.1324 6.95368C40.145 6.99806 40.1416 7.03715 40.1323 7.06352C40.1255 7.08288 40.1105 7.11239 40.058 7.14476L40.9283 8.55828C42.4994 7.59091 41.8138 5.17 39.9688 5.17V6.83ZM19.9293 5.17C19.4164 5.17 18.927 5.38529 18.5803 5.76342L19.804 6.88513C19.8362 6.85 19.8817 6.83 19.9293 6.83V5.17Z" fill="#003DA6"/>
<path d="M35.0425 11.4894L37.3842 16.4656C37.7974 17.3437 39.0933 17.1778 39.2719 16.224L40.9999 7" stroke="#003DA6" stroke-width="1.66" stroke-linecap="round"/>
</svg>
