<svg width="56" height="56" viewBox="0 0 56 56" fill="none" xmlns="http://www.w3.org/2000/svg">
<path d="M46.9279 21.8916C47.1003 22.6682 46.8932 23.5786 46.1943 24.6117C45.4941 25.6467 44.3431 26.7346 42.7861 27.7975C39.6763 29.9205 35.0961 31.843 29.7831 33.0227C24.4701 34.2025 19.5067 34.3991 15.7907 33.7918C13.9302 33.4877 12.4269 32.9893 11.3544 32.3479C10.284 31.7077 9.71101 30.9705 9.53856 30.1939C9.36611 29.4173 9.57325 28.5068 10.2721 27.4738C10.9724 26.4387 12.1234 25.3509 13.6804 24.288C16.7901 22.165 21.3703 20.2425 26.6833 19.0627C31.9963 17.883 36.9597 17.6863 40.6758 18.2937C42.5363 18.5977 44.0395 19.0962 45.1121 19.7376C46.1824 20.3778 46.7554 21.115 46.9279 21.8916Z" stroke="#003DA6" stroke-width="1.7"/>
<path d="M6.97477 24.8978C8.97559 20.8978 16.1917 15.7922 26.9748 13.3978M26.9748 13.3978L23.4737 11.8977M26.9748 13.3978L24.9738 16.3977" stroke="#003DA6" stroke-width="1.6" stroke-linecap="round" stroke-linejoin="round"/>
<path d="M9.68506 30.1611L12.114 41.0998C13.0472 45.3025 22.108 46.8654 32.3519 44.5907C42.5958 42.3161 50.1437 37.0652 49.2105 32.8626L46.7815 21.9239" stroke="#003DA6" stroke-width="1.7"/>
<path d="M15.3242 37.1045L16.1913 41.0094" stroke="#003DA6" stroke-width="1.7" stroke-linecap="round"/>
<path d="M44.6108 30.6016L45.4779 34.5065" stroke="#003DA6" stroke-width="1.7" stroke-linecap="round"/>
<path d="M30.6177 36.7812L31.4848 40.6861" stroke="#003DA6" stroke-width="1.7" stroke-linecap="round"/>
<path d="M22.5913 37.5391L23.4584 41.444" stroke="#003DA6" stroke-width="1.7" stroke-linecap="round"/>
<path d="M38.2109 34.0713L39.078 37.9762" stroke="#003DA6" stroke-width="1.7" stroke-linecap="round"/>
</svg>
