<svg width="32" height="32" viewBox="0 0 32 32" fill="none" xmlns="http://www.w3.org/2000/svg">
<path d="M26 7.25022C24.5912 7.24904 23.1961 7.52644 21.895 8.06647C20.1813 4.28897 16.5 2.41272 16.335 2.32897C16.231 2.27704 16.1163 2.25 16 2.25C15.8837 2.25 15.769 2.27704 15.665 2.32897C15.4987 2.41272 11.8187 4.28897 10.105 8.06647C8.80383 7.52653 7.40875 7.24913 6 7.25022C5.80109 7.25022 5.61032 7.32924 5.46967 7.46989C5.32902 7.61055 5.25 7.80131 5.25 8.00022V18.0002C5.25 20.8513 6.38259 23.5856 8.3986 25.6016C10.4146 27.6176 13.1489 28.7502 16 28.7502C18.8511 28.7502 21.5854 27.6176 23.6014 25.6016C25.6174 23.5856 26.75 20.8513 26.75 18.0002V8.00022C26.75 7.80131 26.671 7.61055 26.5303 7.46989C26.3897 7.32924 26.1989 7.25022 26 7.25022ZM15.25 27.2202C12.9352 27.029 10.7768 25.9751 9.20241 24.2674C7.62807 22.5597 6.75277 20.3229 6.75 18.0002V15.7802C9.06478 15.9714 11.2232 17.0253 12.7976 18.733C14.3719 20.4407 15.2472 22.6776 15.25 25.0002V27.2202ZM15.25 19.5315C14.3631 18.0345 13.1265 16.7748 11.6461 15.8604C10.1657 14.9461 8.48567 14.4043 6.75 14.2815V8.78147C9.06446 8.97294 11.2226 10.0267 12.7968 11.7341C14.3711 13.4415 15.2466 15.6779 15.25 18.0002V19.5315ZM11.4475 8.73898C12.655 6.03898 15.1062 4.39147 16 3.86397C16.895 4.39522 19.345 6.04273 20.5513 8.73898C18.4855 9.95943 16.8844 11.8323 16 14.0627C15.1155 11.832 13.5139 9.959 11.4475 8.73898ZM25.25 18.0002C25.2472 20.3229 24.3719 22.5597 22.7976 24.2674C21.2232 25.9751 19.0648 27.029 16.75 27.2202V25.0002C16.7528 22.6776 17.6281 20.4407 19.2024 18.733C20.7768 17.0253 22.9352 15.9714 25.25 15.7802V18.0002ZM25.25 14.279C23.5143 14.4018 21.8343 14.9436 20.3539 15.8579C18.8735 16.7723 17.6369 18.032 16.75 19.529V18.0002C16.7531 15.6776 17.6285 13.441 19.2027 11.7333C20.777 10.0257 22.9353 8.97171 25.25 8.78022V14.279Z" fill="#003DA6"/>
</svg>
