<svg width="32" height="32" viewBox="0 0 32 32" fill="none" xmlns="http://www.w3.org/2000/svg">
<path d="M14.7274 27.1814C14.687 27.3438 14.5934 27.488 14.4616 27.591C14.3298 27.6941 14.1673 27.7501 13.9999 27.7502C13.9384 27.75 13.8771 27.7425 13.8174 27.7277L9.81743 26.7277C9.73427 26.7064 9.65526 26.6713 9.58368 26.6239L6.58368 24.6239C6.50161 24.5693 6.4311 24.499 6.37619 24.417C6.32128 24.3351 6.28304 24.2432 6.26366 24.1465C6.22451 23.9513 6.26454 23.7484 6.37493 23.5827C6.48533 23.4169 6.65705 23.3018 6.85232 23.2626C6.94901 23.2433 7.04857 23.2431 7.14532 23.2622C7.24207 23.2813 7.33411 23.3193 7.41618 23.3739L10.3074 25.3014L14.1824 26.2702C14.2781 26.2941 14.3681 26.3367 14.4473 26.3955C14.5265 26.4543 14.5933 26.5281 14.6439 26.6127C14.6946 26.6974 14.728 26.7912 14.7423 26.8888C14.7567 26.9863 14.7516 27.0858 14.7274 27.1814ZM31.3187 15.1064C31.2469 15.3244 31.1326 15.5261 30.9824 15.6997C30.8323 15.8732 30.6491 16.0153 30.4437 16.1177L27.4437 17.6177L20.5299 24.5314C20.3892 24.6716 20.1986 24.7503 19.9999 24.7502C19.9384 24.7501 19.8771 24.7425 19.8174 24.7277L11.8174 22.7277C11.7275 22.7043 11.6428 22.6645 11.5674 22.6102L4.61243 17.6452L1.55868 16.1177C1.14367 15.9101 0.828099 15.5462 0.681359 15.1059C0.534618 14.6657 0.568727 14.1852 0.776183 13.7702L3.88243 7.55892C4.09002 7.14391 4.45394 6.82833 4.89416 6.68159C5.33438 6.53485 5.81486 6.56896 6.22993 6.77642L9.07493 8.19892L15.7937 6.27892C15.9285 6.24036 16.0714 6.24036 16.2062 6.27892L22.9249 8.19892L25.7699 6.77642C26.185 6.56896 26.6655 6.53485 27.1057 6.68159C27.5459 6.82833 27.9098 7.14391 28.1174 7.55892L31.2237 13.7702C31.327 13.9756 31.3885 14.1994 31.4048 14.4288C31.4211 14.6581 31.3919 14.8884 31.3187 15.1064ZM2.22993 14.7764L4.66493 16.0002L7.99993 9.33517L5.55868 8.11767C5.49934 8.08819 5.43071 8.08349 5.3679 8.10458C5.30508 8.12568 5.25321 8.17085 5.22368 8.23017L2.11743 14.4414C2.08837 14.5006 2.08387 14.5689 2.10493 14.6314C2.1147 14.6629 2.13084 14.692 2.15235 14.7169C2.17385 14.7419 2.20026 14.7621 2.22993 14.7764ZM23.8749 19.0614L20.0337 15.9852C17.6587 18.0327 14.5862 18.3352 12.0587 16.7202C11.8376 16.5795 11.6508 16.3911 11.5123 16.1686C11.3738 15.9462 11.2869 15.6954 11.2583 15.435C11.2296 15.1745 11.2598 14.9109 11.3466 14.6636C11.4334 14.4164 11.5747 14.1918 11.7599 14.0064L17.4749 8.46142C17.5581 8.38124 17.6586 8.32135 17.7687 8.28642L15.9999 7.78017L9.52368 9.62517L5.95743 16.7627L12.3199 21.3064L19.7699 23.1689L23.8749 19.0614ZM26.0849 16.8514L22.5362 9.75017H18.3037L12.8149 15.0752C12.7906 15.1007 12.7722 15.1313 12.7612 15.1649C12.7502 15.1984 12.7468 15.2339 12.7512 15.2689C12.7551 15.3071 12.7677 15.3439 12.7881 15.3764C12.8084 15.4089 12.836 15.4363 12.8687 15.4564C14.5299 16.5177 17.1362 16.8152 19.4674 14.4664C19.5979 14.3355 19.7721 14.2573 19.9567 14.2469C20.1412 14.2365 20.3231 14.2947 20.4674 14.4102L24.9449 18.0002L26.0849 16.8514ZM29.8799 14.4414L26.7762 8.23017C26.7467 8.17085 26.6948 8.12568 26.632 8.10458C26.5692 8.08349 26.5005 8.08819 26.4412 8.11767L24.0062 9.33517L27.3349 16.0002L29.7699 14.7827C29.7996 14.7684 29.826 14.7481 29.8475 14.7232C29.869 14.6982 29.8852 14.6691 29.8949 14.6377C29.9062 14.6058 29.9109 14.572 29.9088 14.5383C29.9066 14.5045 29.8977 14.4716 29.8824 14.4414H29.8799Z" fill="#003DA6"/>
</svg>
