<svg width="32" height="32" viewBox="0 0 32 32" fill="none" xmlns="http://www.w3.org/2000/svg">
<path d="M30.2337 8.70771L27.2337 5.76271C26.9057 5.43563 26.4614 5.25195 25.9981 5.25195C25.5349 5.25195 25.0905 5.43563 24.7625 5.76271L13.1725 17.1802C13.1493 17.2035 13.1217 17.2219 13.0913 17.2345C13.061 17.2471 13.0285 17.2535 12.9956 17.2535C12.9628 17.2535 12.9302 17.2471 12.8999 17.2345C12.8695 17.2219 12.842 17.2035 12.8187 17.1802L12.8075 17.1702L8.23124 12.7565C7.9033 12.4301 7.45949 12.2469 6.99686 12.2469C6.53423 12.2469 6.09043 12.4301 5.76249 12.7565L2.76249 15.7565C2.43464 16.0846 2.25049 16.5295 2.25049 16.9933C2.25049 17.4572 2.43464 17.9021 2.76249 18.2302L11.715 27.2302C11.8775 27.3927 12.0704 27.5216 12.2828 27.6096C12.4951 27.6976 12.7227 27.7428 12.9525 27.7428C13.1823 27.7428 13.4099 27.6976 13.6222 27.6096C13.8346 27.5216 14.0275 27.3927 14.19 27.2302L30.2387 11.1877C30.4017 11.0248 30.5308 10.8313 30.6188 10.6183C30.7068 10.4053 30.7518 10.1771 30.7514 9.94667C30.7509 9.71624 30.7049 9.48818 30.6161 9.27557C30.5273 9.06295 30.3973 8.86997 30.2337 8.70771ZM29.1775 10.1252L13.125 26.1765C13.0782 26.2226 13.0151 26.2485 12.9494 26.2485C12.8836 26.2485 12.8205 26.2226 12.7737 26.1765L3.82124 17.1765C3.77468 17.1296 3.74854 17.0663 3.74854 17.0002C3.74854 16.9342 3.77468 16.8708 3.82124 16.824L6.82124 13.824C6.84464 13.8004 6.87251 13.7818 6.9032 13.7691C6.93389 13.7564 6.96679 13.75 6.99999 13.7502C7.06601 13.7502 7.12937 13.7762 7.17624 13.8227L7.18624 13.8327L11.7687 18.2427C12.0965 18.5679 12.5395 18.7504 13.0012 18.7504C13.463 18.7504 13.906 18.5679 14.2337 18.2427L25.8237 6.82396C25.847 6.79995 25.8749 6.78087 25.9057 6.76784C25.9365 6.75481 25.9697 6.7481 26.0031 6.7481C26.0366 6.7481 26.0697 6.75481 26.1005 6.76784C26.1313 6.78087 26.1592 6.79995 26.1825 6.82396L29.1825 9.76896C29.2058 9.79255 29.2242 9.82054 29.2365 9.8513C29.2489 9.88206 29.255 9.91498 29.2546 9.94813C29.2541 9.98128 29.2471 10.014 29.2338 10.0444C29.2206 10.0748 29.2014 10.1023 29.1775 10.1252Z" fill="#003DA6"/>
</svg>
