<svg width="48" height="48" viewBox="0 0 48 48" fill="none" xmlns="http://www.w3.org/2000/svg">
<path d="M19.5 8.25H10.5C9.90326 8.25 9.33097 8.48705 8.90901 8.90901C8.48705 9.33097 8.25 9.90326 8.25 10.5V19.5C8.25 20.0967 8.48705 20.669 8.90901 21.091C9.33097 21.5129 9.90326 21.75 10.5 21.75H19.5C20.0967 21.75 20.669 21.5129 21.091 21.091C21.5129 20.669 21.75 20.0967 21.75 19.5V10.5C21.75 9.90326 21.5129 9.33097 21.091 8.90901C20.669 8.48705 20.0967 8.25 19.5 8.25ZM20.25 19.5C20.25 19.6989 20.171 19.8897 20.0303 20.0303C19.8897 20.171 19.6989 20.25 19.5 20.25H10.5C10.3011 20.25 10.1103 20.171 9.96967 20.0303C9.82902 19.8897 9.75 19.6989 9.75 19.5V10.5C9.75 10.3011 9.82902 10.1103 9.96967 9.96967C10.1103 9.82902 10.3011 9.75 10.5 9.75H19.5C19.6989 9.75 19.8897 9.82902 20.0303 9.96967C20.171 10.1103 20.25 10.3011 20.25 10.5V19.5ZM19.5 26.25H10.5C9.90326 26.25 9.33097 26.4871 8.90901 26.909C8.48705 27.331 8.25 27.9033 8.25 28.5V37.5C8.25 38.0967 8.48705 38.669 8.90901 39.091C9.33097 39.5129 9.90326 39.75 10.5 39.75H19.5C20.0967 39.75 20.669 39.5129 21.091 39.091C21.5129 38.669 21.75 38.0967 21.75 37.5V28.5C21.75 27.9033 21.5129 27.331 21.091 26.909C20.669 26.4871 20.0967 26.25 19.5 26.25ZM20.25 37.5C20.25 37.6989 20.171 37.8897 20.0303 38.0303C19.8897 38.171 19.6989 38.25 19.5 38.25H10.5C10.3011 38.25 10.1103 38.171 9.96967 38.0303C9.82902 37.8897 9.75 37.6989 9.75 37.5V28.5C9.75 28.3011 9.82902 28.1103 9.96967 27.9697C10.1103 27.829 10.3011 27.75 10.5 27.75H19.5C19.6989 27.75 19.8897 27.829 20.0303 27.9697C20.171 28.1103 20.25 28.3011 20.25 28.5V37.5ZM37.5 8.25H28.5C27.9033 8.25 27.331 8.48705 26.909 8.90901C26.4871 9.33097 26.25 9.90326 26.25 10.5V19.5C26.25 20.0967 26.4871 20.669 26.909 21.091C27.331 21.5129 27.9033 21.75 28.5 21.75H37.5C38.0967 21.75 38.669 21.5129 39.091 21.091C39.5129 20.669 39.75 20.0967 39.75 19.5V10.5C39.75 9.90326 39.5129 9.33097 39.091 8.90901C38.669 8.48705 38.0967 8.25 37.5 8.25ZM38.25 19.5C38.25 19.6989 38.171 19.8897 38.0303 20.0303C37.8897 20.171 37.6989 20.25 37.5 20.25H28.5C28.3011 20.25 28.1103 20.171 27.9697 20.0303C27.829 19.8897 27.75 19.6989 27.75 19.5V10.5C27.75 10.3011 27.829 10.1103 27.9697 9.96967C28.1103 9.82902 28.3011 9.75 28.5 9.75H37.5C37.6989 9.75 37.8897 9.82902 38.0303 9.96967C38.171 10.1103 38.25 10.3011 38.25 10.5V19.5ZM26.25 33V27C26.25 26.8011 26.329 26.6103 26.4697 26.4697C26.6103 26.329 26.8011 26.25 27 26.25C27.1989 26.25 27.3897 26.329 27.5303 26.4697C27.671 26.6103 27.75 26.8011 27.75 27V33C27.75 33.1989 27.671 33.3897 27.5303 33.5303C27.3897 33.671 27.1989 33.75 27 33.75C26.8011 33.75 26.6103 33.671 26.4697 33.5303C26.329 33.3897 26.25 33.1989 26.25 33ZM39.75 30C39.75 30.1989 39.671 30.3897 39.5303 30.5303C39.3897 30.671 39.1989 30.75 39 30.75H33.75V39C33.75 39.1989 33.671 39.3897 33.5303 39.5303C33.3897 39.671 33.1989 39.75 33 39.75H27C26.8011 39.75 26.6103 39.671 26.4697 39.5303C26.329 39.3897 26.25 39.1989 26.25 39C26.25 38.8011 26.329 38.6103 26.4697 38.4697C26.6103 38.329 26.8011 38.25 27 38.25H32.25V27C32.25 26.8011 32.329 26.6103 32.4697 26.4697C32.6103 26.329 32.8011 26.25 33 26.25C33.1989 26.25 33.3897 26.329 33.5303 26.4697C33.671 26.6103 33.75 26.8011 33.75 27V29.25H39C39.1989 29.25 39.3897 29.329 39.5303 29.4697C39.671 29.6103 39.75 29.8011 39.75 30ZM39.75 36V39C39.75 39.1989 39.671 39.3897 39.5303 39.5303C39.3897 39.671 39.1989 39.75 39 39.75C38.8011 39.75 38.6103 39.671 38.4697 39.5303C38.329 39.3897 38.25 39.1989 38.25 39V36C38.25 35.8011 38.329 35.6103 38.4697 35.4697C38.6103 35.329 38.8011 35.25 39 35.25C39.1989 35.25 39.3897 35.329 39.5303 35.4697C39.671 35.6103 39.75 35.8011 39.75 36Z" fill="#003DA6"/>
</svg>
