<svg width="48" height="48" viewBox="0 0 48 48" fill="none" xmlns="http://www.w3.org/2000/svg">
<path d="M23.3374 44.0282L23.337 44.0281C20.5793 43.1113 6.85938 37.7296 6.85938 21.5194V10.5C6.85938 9.93227 7.0849 9.38779 7.48635 8.98635C7.88779 8.5849 8.43227 8.35938 9 8.35938H39C39.5677 8.35938 40.1122 8.5849 40.5136 8.98635C40.9151 9.38779 41.1406 9.93227 41.1406 10.5V21.5194C41.1406 37.7296 27.4207 43.1113 24.663 44.0281L24.6626 44.0282C24.2327 44.1731 23.7673 44.1731 23.3374 44.0282ZM31.9532 19.0467L31.9533 19.0468C32.0129 19.1063 32.0601 19.1769 32.0924 19.2547C32.1246 19.3324 32.1412 19.4158 32.1412 19.5C32.1412 19.5842 32.1246 19.6676 32.0924 19.7453C32.0601 19.8231 32.0129 19.8937 31.9533 19.9532L31.9533 19.9533L21.4533 30.4533L21.4532 30.4533C21.3937 30.5129 21.3231 30.5601 21.2453 30.5924C21.1676 30.6246 21.0842 30.6412 21 30.6412C20.9158 30.6412 20.8324 30.6246 20.7547 30.5924C20.6769 30.5601 20.6063 30.5129 20.5468 30.4533L20.5467 30.4533L16.0467 25.9533C15.9265 25.8331 15.859 25.67 15.859 25.5C15.859 25.33 15.9265 25.1669 16.0467 25.0467C16.1669 24.9265 16.33 24.859 16.5 24.859C16.67 24.859 16.8331 24.9265 16.9533 25.0467L20.9227 29.0161L21 29.0934L21.0773 29.0161L31.0467 19.0467L31.0468 19.0467C31.1063 18.9871 31.1769 18.9399 31.2547 18.9076C31.3324 18.8754 31.4158 18.8588 31.5 18.8588C31.5842 18.8588 31.6676 18.8754 31.7453 18.9076C31.8231 18.9399 31.8937 18.9871 31.9532 19.0467ZM24.2607 42.814C26.8569 41.9503 39.8594 36.8575 39.8594 21.5231V10.5C39.8594 10.2721 39.7688 10.0535 39.6077 9.89233C39.4465 9.73117 39.2279 9.64063 39 9.64063H9C8.77208 9.64063 8.55349 9.73117 8.39233 9.89233C8.23117 10.0535 8.14062 10.2721 8.14062 10.5V21.5231C8.14062 36.8575 21.1431 41.9503 23.7393 42.814C23.9078 42.8745 24.0922 42.8745 24.2607 42.814Z" fill="#003DA6" stroke="#003DA6" stroke-width="0.21875"/>
</svg>
