<svg width="48" height="48" viewBox="0 0 48 48" fill="none" xmlns="http://www.w3.org/2000/svg">
<path d="M24.7502 15.0001V23.5763L31.8864 27.857C32.057 27.9594 32.1799 28.1254 32.228 28.3185C32.2762 28.5115 32.2457 28.7158 32.1433 28.8863C32.0408 29.0569 31.8748 29.1798 31.6818 29.228C31.4888 29.2761 31.2845 29.2457 31.1139 29.1432L23.6139 24.6432C23.5029 24.5765 23.4111 24.4823 23.3473 24.3696C23.2836 24.2569 23.2501 24.1296 23.2502 24.0001V15.0001C23.2502 14.8012 23.3292 14.6104 23.4698 14.4698C23.6105 14.3291 23.8012 14.2501 24.0002 14.2501C24.1991 14.2501 24.3898 14.3291 24.5305 14.4698C24.6711 14.6104 24.7502 14.8012 24.7502 15.0001ZM42.0002 11.2501C41.8013 11.2501 41.6105 11.3291 41.4698 11.4698C41.3292 11.6104 41.2502 11.8012 41.2502 12.0001V17.4095C39.6245 15.4613 38.0627 13.6876 36.197 11.8126C33.799 9.41635 30.7481 7.7798 27.4254 7.10739C24.1027 6.43498 20.6556 6.75651 17.5146 8.03183C14.3735 9.30715 11.6779 11.4797 9.76445 14.2781C7.85098 17.0765 6.80448 20.3767 6.75569 23.7664C6.7069 27.1561 7.65798 30.485 9.49011 33.3373C11.3222 36.1896 13.9542 38.4389 17.0572 39.8041C20.1602 41.1693 23.5967 41.5899 26.9374 41.0134C30.2781 40.4369 33.3748 38.8888 35.8408 36.5626C35.9124 36.4949 35.9701 36.4137 36.0103 36.3237C36.0506 36.2338 36.0728 36.1367 36.0756 36.0382C36.0784 35.9396 36.0617 35.8415 36.0266 35.7494C35.9914 35.6573 35.9385 35.573 35.8708 35.5013C35.8031 35.4297 35.7219 35.3721 35.6319 35.3318C35.542 35.2915 35.4449 35.2693 35.3464 35.2666C35.2478 35.2638 35.1497 35.2804 35.0576 35.3156C34.9655 35.3507 34.8812 35.4036 34.8095 35.4713C32.5583 37.596 29.7309 39.0101 26.6805 39.5371C23.6302 40.064 20.4922 39.6804 17.6586 38.4342C14.8251 37.188 12.4216 35.1344 10.7484 32.5301C9.07521 29.9257 8.20658 26.886 8.25101 23.7908C8.29545 20.6957 9.25099 17.6822 10.9982 15.1269C12.7455 12.5717 15.207 10.5879 18.0751 9.4236C20.9433 8.25924 24.091 7.96589 27.125 8.5802C30.1589 9.1945 32.9446 10.6892 35.1339 12.8776C37.0689 14.8126 38.6983 16.6876 40.412 18.7501H34.5002C34.3012 18.7501 34.1105 18.8291 33.9698 18.9698C33.8292 19.1104 33.7502 19.3012 33.7502 19.5001C33.7502 19.699 33.8292 19.8898 33.9698 20.0304C34.1105 20.1711 34.3012 20.2501 34.5002 20.2501H42.0002C42.1991 20.2501 42.3898 20.1711 42.5305 20.0304C42.6711 19.8898 42.7502 19.699 42.7502 19.5001V12.0001C42.7502 11.8012 42.6711 11.6104 42.5305 11.4698C42.3898 11.3291 42.1991 11.2501 42.0002 11.2501Z" fill="#003DA6"/>
</svg>
