<svg width="56" height="56" viewBox="0 0 56 56" fill="none" xmlns="http://www.w3.org/2000/svg">
<path d="M45.5 9.625H10.5C9.80381 9.625 9.13613 9.90156 8.64384 10.3938C8.15156 10.8861 7.875 11.5538 7.875 12.25V25.1059C7.875 44.1087 23.9619 50.4153 27.1862 51.4872C27.7142 51.6651 28.2858 51.6651 28.8138 51.4872C32.0381 50.4153 48.125 44.1087 48.125 25.1059V12.25C48.125 11.5538 47.8484 10.8861 47.3562 10.3938C46.8639 9.90156 46.1962 9.625 45.5 9.625ZM46.375 25.1103C46.375 42.9122 31.2812 48.825 28.2625 49.8291C28.0929 49.8904 27.9071 49.8904 27.7375 49.8291C24.7188 48.825 9.625 42.9122 9.625 25.1103V12.25C9.625 12.0179 9.71719 11.7954 9.88128 11.6313C10.0454 11.4672 10.2679 11.375 10.5 11.375H45.5C45.7321 11.375 45.9546 11.4672 46.1187 11.6313C46.2828 11.7954 46.375 12.0179 46.375 12.25V25.1103ZM37.3691 22.1309C37.4504 22.2122 37.515 22.3087 37.559 22.4149C37.603 22.5212 37.6257 22.635 37.6257 22.75C37.6257 22.865 37.603 22.9788 37.559 23.0851C37.515 23.1913 37.4504 23.2878 37.3691 23.3691L25.1191 35.6191C25.0378 35.7004 24.9413 35.765 24.8351 35.809C24.7288 35.853 24.615 35.8757 24.5 35.8757C24.385 35.8757 24.2712 35.853 24.1649 35.809C24.0587 35.765 23.9622 35.7004 23.8809 35.6191L18.6309 30.3691C18.4668 30.2049 18.3745 29.9822 18.3745 29.75C18.3745 29.5178 18.4668 29.2951 18.6309 29.1309C18.7951 28.9668 19.0178 28.8745 19.25 28.8745C19.4822 28.8745 19.7049 28.9668 19.8691 29.1309L24.5 33.7619L36.1309 22.1309C36.2122 22.0496 36.3087 21.985 36.4149 21.941C36.5211 21.897 36.635 21.8743 36.75 21.8743C36.865 21.8743 36.9789 21.897 37.0851 21.941C37.1913 21.985 37.2878 22.0496 37.3691 22.1309Z" fill="#003DA6"/>
</svg>
