<svg width="56" height="56" viewBox="0 0 56 56" fill="none" xmlns="http://www.w3.org/2000/svg">
<path d="M37.4062 11.0207C34.7512 7.95265 31.7629 5.18961 28.4966 2.78258C28.3497 2.68001 28.1748 2.625 27.9956 2.625C27.8165 2.625 27.6416 2.68001 27.4947 2.78258C24.2314 5.19012 21.2461 7.95315 18.5938 11.0207C12.7247 17.7648 9.625 24.8457 9.625 31.5001C9.625 36.3734 11.5609 41.0472 15.0069 44.4932C18.4529 47.9392 23.1266 49.8751 28 49.8751C32.8734 49.8751 37.5471 47.9392 40.9931 44.4932C44.4391 41.0472 46.375 36.3734 46.375 31.5001C46.375 24.8457 43.2753 17.7648 37.4062 11.0207ZM28 48.1251C23.5922 48.1204 19.3663 46.3674 16.2495 43.2506C13.1327 40.1338 11.3796 35.9079 11.375 31.5001C11.375 23.647 16.0016 16.6688 19.8844 12.1976C22.3295 9.39898 25.0483 6.85175 28 4.59383C30.9522 6.8545 33.6709 9.40469 36.1156 12.2063C39.9984 16.6688 44.625 23.647 44.625 31.5001C44.6204 35.9079 42.8673 40.1338 39.7505 43.2506C36.6337 46.3674 32.4078 48.1204 28 48.1251ZM39.3619 33.3966C38.941 35.7531 37.8077 37.9239 36.1149 39.6164C34.422 41.3089 32.251 42.4416 29.8944 42.862C29.8467 42.8707 29.7984 42.8751 29.75 42.8751C29.5316 42.8735 29.3217 42.7902 29.1616 42.6417C29.0014 42.4933 28.9026 42.2902 28.8845 42.0726C28.8664 41.8549 28.9303 41.6384 29.0638 41.4655C29.1972 41.2926 29.3905 41.1759 29.6056 41.1382C33.5825 40.4688 36.9622 37.0891 37.6381 33.1035C37.6852 32.8827 37.8158 32.6886 38.0026 32.5618C38.1894 32.435 38.418 32.3854 38.6406 32.4232C38.8632 32.4611 39.0625 32.5835 39.197 32.7649C39.3314 32.9463 39.3905 33.1727 39.3619 33.3966Z" fill="#003DA6"/>
</svg>
